<svg width="52" height="60" viewBox="0 0 52 60" fill="none" xmlns="http://www.w3.org/2000/svg">
<path d="M12.1546 26.5211C12.1479 26.5211 12.1546 26.5211 12.1546 26.5211C12.1479 26.5211 12.1546 26.5211 12.1546 26.5211ZM31.8854 58.5423C31.9057 58.6097 32.0136 58.7919 32.4521 59.1224C32.6342 59.2573 32.8298 59.3113 33.0389 59.2775C33.5448 59.2033 34.044 58.6569 34.1924 58.4546L36.3038 55.7496L36.0677 56.8559C36.007 57.1257 35.926 57.9284 36.2363 58.3534C36.3645 58.5288 36.5466 58.6232 36.7895 58.6435C37.0795 58.6704 37.3021 58.6165 37.4303 58.4681C37.7001 58.1713 37.5922 57.5777 37.5922 57.5709L37.5787 57.4832C37.5315 57.2201 37.3966 56.5253 37.7271 56.0599C37.8822 55.8373 38.1048 55.7024 38.4017 55.6552C39.1909 55.527 40.0206 54.1779 40.2027 53.7057C40.1083 53.6922 39.9666 53.699 39.8654 53.699C39.5484 53.699 39.2516 53.7057 39.0627 53.5438C38.9885 53.4763 38.9413 53.3819 38.9413 53.2807C38.9346 52.9974 39.2246 52.7074 39.8317 52.1205C40.142 51.8237 40.4928 51.4864 40.7356 51.1829C41.3495 50.4139 41.5923 47.9787 41.309 47.547C41.2483 47.5605 41.1269 47.6684 40.9717 47.8438C40.7693 48.2418 40.5198 48.5926 40.2162 48.8489L38.9683 49.9012L39.825 48.5116C39.9734 48.2755 40.2364 47.8708 40.54 47.547C41.0122 46.5689 41.1336 45.3142 41.0122 44.9702C40.965 45.0107 40.8908 45.0916 40.7896 45.2468C40.3106 45.9753 39.7508 46.3598 39.1234 46.3935C38.1993 46.4407 37.4505 45.7122 37.0863 45.2737C36.297 44.3226 37.2077 41.6244 37.7945 41.0645C38.0441 40.8284 38.2802 40.8824 38.4151 41.0105C38.8603 41.3006 43.4136 41.1185 44.2905 41.0375C45.5182 40.9296 46.3817 40.4304 46.9348 39.5198C49.235 35.7085 45.1675 25.9544 43.643 22.2781C43.4271 21.7519 43.2517 21.3472 43.1573 21.0841C40.7424 14.6758 40.5872 11.7752 41.1943 11.2356C41.9296 10.5813 43.3192 11.1547 43.8588 11.5864C44.277 11.9169 44.0409 12.47 43.7711 13.1109C43.5553 13.6168 43.2854 14.2441 43.1978 14.9726C43.0291 16.3825 45.4912 17.1852 45.5182 17.1919L45.7004 17.2526L45.6936 17.4483C45.6464 19.5124 47.3665 20.2747 48.1423 20.5108L47.9264 19.1212C47.8994 18.9998 47.8792 18.8783 47.8724 18.7434L48.3851 18.6827L48.4391 19.02C48.6144 19.7957 49.1608 20.2612 49.4914 20.477C49.8084 20.6861 50.1052 20.7873 50.3076 20.8345C48.6549 18.9998 49.2485 17.4955 49.606 16.5848C49.714 16.315 49.8017 16.0857 49.8084 15.9238C49.8286 15.4921 49.0664 15.1548 48.574 15.0131C48.4863 14.9929 48.4256 14.9726 48.3986 14.9659L48.5268 14.46C48.5537 14.4667 48.6212 14.4802 48.7156 14.5072C49.3295 14.6489 50.1794 14.7366 50.456 14.5139C50.5032 14.4802 50.5437 14.4263 50.5369 14.2981C50.5302 14.1429 50.5167 14.1699 50.5099 14.1699C50.4762 14.1699 50.3076 14.1969 50.1862 14.2171C49.9973 14.2441 49.7612 14.2846 49.4846 14.2846C48.8236 14.2846 48.3176 13.3132 47.778 12.2812C47.5149 11.7752 47.2451 11.2558 47.036 11.0602C46.7864 10.8241 46.1725 10.7702 45.7004 10.7904C45.5115 10.9253 45.2889 11.0063 45.0393 10.9658C44.8504 10.9321 44.7425 10.8511 44.7222 10.7094L44.6953 10.5273L44.8909 10.4059C44.9853 10.3587 45.2079 10.3115 45.4912 10.2845C45.525 10.2575 45.552 10.2238 45.5789 10.19C45.0933 10.1563 44.2231 10.0012 42.7391 9.50874C40.7221 8.83418 40.2297 9.73809 39.7103 10.7027C39.6361 10.8376 39.5619 10.9725 39.4877 11.1007C39.4405 11.3503 39.2044 12.6994 39.5416 13.7854C39.6091 14.0013 46.0241 35.5399 45.7543 36.7811C45.3901 38.481 44.2973 38.6698 42.7795 38.9262C42.6109 38.9531 42.4288 38.9869 42.2466 39.0206C40.3714 39.3579 38.9143 38.5349 38.8536 38.4944L38.7052 38.4067L38.7254 38.2381C38.9615 36.1875 36.8434 32.9361 35.2245 30.6696C33.1603 27.7757 33.2413 23.5935 33.2413 23.4181L33.2615 22.4737L33.727 23.2967C33.8484 23.5193 34.0238 23.7419 34.1385 23.8363C34.1654 23.7486 34.1992 23.5665 34.1924 23.1955C34.1587 21.3337 35.2852 19.5866 35.6562 19.0132L35.7372 18.8851C35.9125 18.5883 36.1014 17.9677 36.1284 17.7923L36.1486 17.6641L36.2835 17.5832C36.4522 17.4955 36.6276 17.5832 37.0053 17.7788C37.2347 17.8935 37.8418 18.2038 37.9902 18.1431C38.0104 18.0958 37.9969 17.8598 37.039 16.8749C36.9109 16.74 36.8029 16.6253 36.7422 16.5511C36.5736 16.3353 36.5736 15.7821 36.668 13.8394C36.722 12.7129 36.7827 11.4312 36.695 10.8848C36.5196 9.81229 35.8383 9.23891 35.8316 9.23891L35.7439 9.16471L35.7372 9.05004C35.6899 8.07868 35.5955 6.1427 35.5415 5.79193C35.5078 5.56258 34.894 4.50353 34.2666 3.52542L33.3425 4.34838L33.1806 4.0853C33.1738 4.07181 32.4925 2.97903 31.8247 2.21678C31.6561 2.02116 31.4672 1.93346 31.2851 1.94021C31.1974 1.94696 31.1299 1.97394 31.076 2.00092C31.1906 2.25725 31.1434 2.72944 31.0692 3.37027C31.0557 3.50518 31.0422 3.61986 31.0355 3.70755C31.0018 4.13252 30.2395 4.42933 28.7622 4.57098L28.6745 4.57773L28.6003 4.53725C28.5936 4.53725 28.0539 4.21347 27.6425 4.02459C27.5143 4.02459 27.1298 4.4698 26.86 4.93524L26.7858 5.06341H23.386C23.2174 5.06341 23.0892 5.13086 23.0083 5.26578C22.8868 5.46814 22.8936 5.78518 23.0218 6.02802L23.096 6.21015C23.3388 6.65536 23.413 6.83075 23.2848 7.57276C23.2039 8.07868 23.757 8.59809 23.9661 8.77347C25.1061 8.67903 26.9544 8.57785 27.3389 8.93536C27.4199 9.00956 27.4603 9.104 27.4603 9.20519C27.4603 9.75158 26.6509 10.4059 26.4013 10.5948L26.2799 10.6825L26.1382 10.6218C25.7739 10.4666 24.6137 10.0956 24.1348 10.4194C23.9729 10.5273 23.8987 10.7162 23.9054 10.9995C23.9122 11.2761 24.0066 11.4919 24.209 11.6606C24.6879 12.0653 25.6593 12.0923 26.2866 12.0451C26.462 12.0113 26.6171 11.9979 26.7386 11.9979L26.779 12.5173C26.7588 12.524 26.5969 12.5442 26.3541 12.5645C25.4839 12.7264 23.8717 13.293 22.9408 13.6168L22.4484 13.7854C22.1313 13.8934 21.7199 14.116 21.2881 14.3588C20.2965 14.9052 19.0621 15.5797 17.8816 15.5055C16.1075 15.3976 14.1041 14.4667 12.9843 13.6505C11.9927 12.922 12.0804 11.6808 12.1412 10.7769C12.1614 10.4801 12.1816 10.2035 12.1479 10.0349C12.1209 9.87974 12.1074 9.75158 12.0939 9.64365C12.0602 9.32661 12.0602 9.31312 11.4531 9.08377C10.6976 8.80045 10.05 9.02306 9.52387 9.75158C9.34849 9.99442 9.3215 10.1091 9.30801 10.1698C9.24056 10.4464 9.05843 10.4666 8.80884 10.4868C8.73464 10.4936 8.6402 10.5003 8.51878 10.5138C8.3434 10.5341 8.2557 10.5543 8.22198 10.5678C8.22198 10.588 8.22872 10.615 8.22872 10.642C8.24221 10.7971 8.26245 11.0332 8.14103 11.3368C8.05334 11.5594 8.03985 11.701 8.0331 11.8225C8.01961 12.0923 7.97239 12.2947 7.5744 12.5442C7.37878 12.6657 7.38553 12.6926 7.44624 12.9962C7.47996 13.1716 7.52718 13.3874 7.52718 13.6708C7.52718 14.2846 8.7144 14.3925 8.76837 14.3993L8.85606 14.406C9.8679 14.487 10.158 14.5544 10.2726 14.7433L10.3401 14.858L10.2929 15.0199C10.2052 15.2425 9.335 15.7079 8.78186 15.9508C8.81559 15.9777 8.85606 16.0115 8.88979 16.0384L12.2356 17.0233L11.9927 17.3269C11.959 17.3673 11.6622 17.7113 10.8932 17.8395C11.0281 17.9879 11.298 18.2038 11.5813 18.3927L13.8545 18.7029L13.9017 18.8581C14.2997 20.106 18.0031 21.7452 19.3994 22.2781L19.5208 22.3253L19.8783 23.5463L19.8513 23.6205C19.7367 23.9712 17.6995 25.4688 16.7821 26.0286C15.6961 26.6897 13.2002 26.946 12.3772 27.027C12.2761 27.0337 12.2154 27.0405 12.1884 27.0472C12.0535 27.0742 11.8713 27.027 11.8106 26.6897C11.7701 26.4604 11.6757 25.9814 10.6167 25.6239C8.93026 25.0505 8.55251 25.3946 7.31133 26.5211L7.12919 26.683C6.94706 26.8448 6.7447 27.0809 6.80541 27.2901C6.90659 27.6678 7.74979 27.9646 8.14103 28.0456L8.42434 28.1063L8.16801 28.909L8.35689 28.963C8.3434 29.0237 8.35014 29.0709 8.38387 29.1248C8.54576 29.3812 9.15287 29.5835 9.50363 29.6443L9.76671 29.6915L9.60482 30.3458C9.58458 30.3795 9.5576 30.4267 9.56434 30.447C9.65204 30.6156 10.3468 30.7708 10.9337 30.7978C11.3249 30.5886 13.0113 29.7185 13.5847 29.6443C13.8478 29.6105 13.9759 29.7185 14.0299 29.8129C14.1986 30.0827 13.949 30.447 13.6117 30.9462C13.4903 31.1215 13.3688 31.2969 13.2879 31.4521C13.2812 31.4588 13.2812 31.4656 13.2744 31.4723C13.3688 31.4925 13.5577 31.4993 13.7331 31.4723C14.4616 30.818 15.2374 30.0962 15.4735 29.8466C15.5072 29.7792 15.5409 29.7319 15.5746 29.705L15.723 29.5768L16.0064 29.7522L16.0199 29.8804C16.0266 29.9411 16.0266 29.9883 15.9119 30.1299C15.8647 30.2514 15.8107 30.4942 15.8917 30.6224C15.9591 30.7235 16.1548 30.7505 16.4381 30.7033C17.0317 30.6021 17.3555 30.1974 17.5376 29.8264C17.4364 29.4351 17.7602 29.0574 17.8007 29.0169L18.3403 28.4098L18.2526 29.2193C18.2324 29.3744 18.1919 29.5701 18.1177 29.7792C18.1852 29.8196 18.3201 29.8669 18.5697 29.8804C19.5883 29.9613 21.956 28.7201 22.7924 28.2412L22.961 28.1467L23.1027 28.2749C24.4248 29.4959 31.0422 35.6411 31.3121 36.2819C31.4605 36.6327 31.3863 36.8688 31.2918 37.0037C31.0692 37.3342 30.5903 37.3612 30.4486 37.3612C30.307 37.3612 30.1923 37.2802 29.909 37.0779C29.2142 36.5922 27.5885 35.4589 24.8498 35.2566C22.0841 35.0542 21.4703 36.3628 21.106 37.1453C21.0116 37.3544 20.9306 37.5163 20.8294 37.631C20.3842 38.1504 20.0335 38.0425 19.6355 37.9143C19.5343 37.8806 19.4264 37.8469 19.2915 37.8131C18.9542 37.7254 18.7855 37.6243 18.6844 37.5568C18.6776 37.5501 18.6641 37.5433 18.6574 37.5433C18.6506 37.5433 18.6439 37.5501 18.6304 37.5568C18.6506 37.5703 18.6709 37.7322 18.9609 38.2314L18.9744 38.2516C19.1565 38.3528 19.9795 38.5012 20.6676 38.5821L20.9778 38.6159L20.8834 38.9194C20.6473 39.6682 20.047 41.7391 20.0739 42.3462C20.0942 42.7846 21.5917 44.7273 23.0285 46.353L23.4805 46.8657L19.0823 46.3395L19.0216 46.2181C19.0081 46.1911 17.5848 43.4187 16.0671 43.2366C15.2036 43.1354 14.9203 43.3243 14.8259 43.4389C14.691 43.6211 14.7922 43.8909 14.7922 43.8976L14.9406 44.2552H13.9692C13.7803 44.3766 13.6657 44.525 13.6184 44.7139C13.497 45.213 13.8815 45.8201 13.8883 45.8201L14.5561 46.8455L13.5307 46.1776C13.5307 46.1776 13.4565 46.1372 13.3621 46.1709C13.2744 46.2046 13.099 46.3193 12.9236 46.7443C12.6606 47.3986 13.7803 48.2688 14.2862 48.5791L18.1245 48.1811L16.8698 48.8152C16.8631 48.8152 16.3976 49.058 16.0873 49.5437C16.0199 49.6449 16.0266 49.773 16.1008 49.9214C16.2627 50.2317 16.6742 50.5083 16.998 50.5285H17.0115C17.3757 50.5285 18.0773 49.8945 18.4617 49.4358L18.7855 49.0513L18.9137 49.5369C19.0014 49.881 19.8783 50.4206 20.7013 50.8186L19.5545 48.3092L20.7283 49.6584C20.735 49.6651 21.6052 50.6567 22.0639 51.0007C22.5091 51.3043 27.2445 51.8439 27.9528 51.7427C27.8786 51.6416 27.7437 51.4932 27.6357 51.3785C27.5008 51.2301 27.3524 51.0749 27.2242 50.913C26.8397 50.4274 27.0219 49.9417 27.1973 49.4695C27.3052 49.1727 27.4199 48.8691 27.4334 48.5116C27.4536 47.9652 27.0758 47.2704 26.7453 46.6498C26.5227 46.2384 26.3338 45.8808 26.2596 45.5908C26.1045 44.95 26.9544 44.2889 27.2175 44.1C27.8718 43.6346 28.0674 43.7627 28.1416 43.8032C28.2496 43.8707 28.3035 43.9988 28.2766 44.127C28.3238 44.4036 29.4773 45.9483 29.9157 46.5352C30.0844 46.7578 30.2125 46.9331 30.2732 47.0208C30.4689 47.3042 30.3947 47.7089 30.3272 48.1069C30.2935 48.289 30.226 48.6668 30.2867 48.7342C30.3205 48.7477 30.334 48.741 30.3474 48.7342C30.4689 48.6735 30.5903 48.3632 30.6308 48.1676L30.6712 48.0799C30.7319 47.9922 30.8601 47.8978 31.0422 47.891H31.049C31.3593 47.891 31.71 48.1676 32.1148 48.7275C32.6274 49.4425 33.6932 49.6179 34.1654 49.6584C34.2194 49.2941 34.3813 48.633 34.8737 48.2283C35.2312 47.9382 35.6832 47.8371 36.2161 47.9315C36.8704 48.0462 37.3224 48.3497 37.5652 48.8287C37.9362 49.5707 37.6461 50.5016 37.4235 50.9333C37.0593 51.6213 35.1301 54.6973 35.0491 54.8255L34.9007 55.1155L34.6713 54.8794C34.098 54.2926 33.3087 54.0025 32.4588 54.07C31.5751 54.1374 30.7387 54.5894 30.2732 55.2437C30.0911 55.5 29.8955 55.8643 29.9967 56.1611C30.1113 56.4849 30.5228 56.613 30.5296 56.613L30.7522 56.6805L30.7184 56.9031C30.6645 57.2336 30.7184 57.4967 30.8736 57.6923C31.1637 58.0498 31.7168 58.0768 31.7235 58.0836L32.6544 58.1308L31.8854 58.5423ZM32.9108 59.8037C32.6342 59.8037 32.3779 59.716 32.135 59.5339C31.6224 59.1494 31.366 58.8391 31.3525 58.549C31.0827 58.4816 30.7184 58.3399 30.4621 58.0229C30.2463 57.753 30.1518 57.4225 30.1721 57.0313C29.9562 56.9301 29.6324 56.7142 29.5042 56.3365C29.3626 55.9317 29.4773 55.4595 29.8483 54.9401C30.4149 54.1509 31.3728 53.6315 32.4183 53.5505C33.3087 53.4831 34.1452 53.7462 34.7995 54.2993C35.2852 53.5168 36.695 51.2638 36.9851 50.7039C37.1537 50.3801 37.3966 49.6314 37.12 49.0715C36.9581 48.7477 36.6343 48.5386 36.1486 48.4576C35.7641 48.3902 35.4606 48.4509 35.2245 48.6465C34.7186 49.058 34.6781 49.9417 34.6781 49.9484L34.6713 50.198H34.4285C34.3543 50.198 32.5465 50.1845 31.7235 49.0378C31.4132 48.6061 31.2176 48.4711 31.1299 48.4307C31.0625 48.66 30.9141 49.0445 30.624 49.1997C30.4689 49.2806 30.2935 49.2873 30.1248 49.2199C29.6594 49.031 29.7606 48.4711 29.8415 48.0192C29.8887 47.7696 29.9495 47.4256 29.8753 47.3244C29.8145 47.2367 29.6864 47.0681 29.5245 46.8522C28.4654 45.4356 27.9865 44.7341 27.8381 44.3361C27.5885 44.471 27.1433 44.7881 26.9072 45.1321C26.8128 45.2737 26.7655 45.3952 26.7858 45.4694C26.8397 45.6987 27.0219 46.0427 27.2242 46.4002C27.5885 47.0748 28 47.8371 27.9797 48.5251C27.9663 48.9636 27.8313 49.3278 27.7099 49.6516C27.5413 50.1103 27.4671 50.3464 27.6627 50.5892C27.7841 50.7444 27.919 50.8861 28.0472 51.021C28.3777 51.3717 28.6341 51.655 28.5329 51.9451C28.4452 52.2014 28.1484 52.2419 28.0539 52.2554C27.3861 52.3498 22.3809 51.8574 21.7873 51.419C21.6861 51.3447 21.5647 51.2368 21.4365 51.1221L21.7603 51.8372L21.1465 51.5808C20.7957 51.4324 19.2307 50.7579 18.6371 50.0361C18.2594 50.4341 17.5781 51.0817 16.9912 51.0412C16.4853 51.0142 15.8984 50.623 15.6556 50.1508C15.4937 49.8337 15.5004 49.5167 15.6691 49.2604C15.75 49.139 15.8377 49.0243 15.9254 48.9298L14.1918 49.112L14.1176 49.0715C13.895 48.9433 11.9658 47.7696 12.4649 46.5487C12.6606 46.063 12.9169 45.7729 13.2339 45.6717C13.2407 45.6717 13.2474 45.665 13.2542 45.665C13.1395 45.3749 13.0383 44.9702 13.1328 44.5857C13.2204 44.2349 13.443 43.9584 13.7938 43.7627L13.8545 43.729H14.266C14.2593 43.5469 14.2862 43.3175 14.4414 43.1219C14.7247 42.7509 15.2981 42.616 16.1548 42.7172C17.767 42.906 19.1363 45.267 19.4533 45.8539L22.2258 46.1844C21.3286 45.1388 19.6085 43.0477 19.5815 42.3597C19.5545 41.6851 20.0942 39.8098 20.3235 39.0543C18.7451 38.852 18.6169 38.6226 18.5629 38.5349L18.536 38.4877C18.3201 38.1167 18.0975 37.6917 18.1852 37.3747C18.2189 37.2533 18.2931 37.1588 18.401 37.0981C18.6709 36.943 18.8193 37.0104 18.9812 37.1116C19.0689 37.1656 19.1835 37.2398 19.4399 37.3005C19.5815 37.3342 19.7097 37.3747 19.8176 37.4084C20.1886 37.5298 20.2358 37.5433 20.4652 37.2802C20.5191 37.2128 20.5934 37.0644 20.6676 36.9092C21.0655 36.066 21.7941 34.5011 24.924 34.7237C27.8044 34.9328 29.5177 36.1267 30.2463 36.6394C30.3542 36.7136 30.4689 36.7946 30.5228 36.8283C30.6982 36.8215 30.8534 36.7676 30.9006 36.7001C30.9411 36.6394 30.9006 36.5315 30.8736 36.464C30.6308 35.9918 25.9358 31.5465 22.9273 28.7673C22.2595 29.1451 19.7839 30.4605 18.5764 30.3795C18.3133 30.3593 18.1042 30.3121 17.9423 30.2244C17.6725 30.6696 17.2408 31.0811 16.573 31.1957C15.858 31.3172 15.5679 31.0473 15.4532 30.7978C15.433 30.7573 15.4195 30.7101 15.406 30.6696C15.1092 30.9462 14.6842 31.3374 14.0771 31.8905L14.0232 31.9378L13.949 31.9512C13.6994 31.9985 13.099 32.0592 12.8764 31.7489C12.7955 31.6409 12.7348 31.4521 12.8899 31.1755C12.9843 31.0069 13.1125 30.818 13.2407 30.6291C13.3284 30.5009 13.4498 30.3256 13.5307 30.1839C12.9641 30.3593 11.8376 30.9124 11.1698 31.2699L11.1091 31.3037H11.0416C10.6706 31.2902 9.43618 31.216 9.15961 30.6696C9.10565 30.5617 9.04494 30.3525 9.20008 30.0895V30.076C8.84257 29.9815 8.24221 29.7724 7.99937 29.3812C7.89144 29.2125 7.85772 29.0169 7.90494 28.8213L7.71606 28.7606L7.8105 28.4638C7.35854 28.3289 6.51535 28.0051 6.35345 27.4047C6.25227 27.0337 6.41416 26.656 6.83239 26.2782L7.01452 26.1163C8.28269 24.9628 8.86281 24.4367 10.8393 25.1112C12.0737 25.5295 12.2896 26.1568 12.357 26.4941C12.3638 26.4941 12.3705 26.4941 12.3772 26.4941C14.5021 26.2782 15.9119 25.9679 16.5662 25.5699C17.6455 24.9089 19.0554 23.8026 19.3724 23.4721L19.1498 22.7031C18.2661 22.359 14.2593 20.7334 13.5307 19.1616L11.4059 18.8446C10.6436 18.3522 10.2929 17.9474 10.3603 17.6439C10.3806 17.5427 10.4683 17.3606 10.792 17.3201C10.9539 17.2999 11.0821 17.2661 11.1968 17.2324L8.66718 16.4702C8.17476 16.0924 8.06683 15.9508 8.13428 15.7619L8.19499 15.5865L8.40411 15.5797C8.51204 15.546 9.15286 15.229 9.56434 14.9929C9.30801 14.9592 9.00446 14.9322 8.86955 14.9254L8.77511 14.9187C7.97914 14.8512 7.05499 14.487 7.05499 13.6775C7.05499 13.4481 7.01452 13.266 6.98754 13.1109C6.92008 12.7736 6.84588 12.4228 7.34505 12.1125C7.54742 11.9844 7.54742 11.9641 7.56091 11.8022C7.56766 11.6538 7.58115 11.4515 7.70257 11.1547C7.77677 10.9658 7.76328 10.8309 7.75653 10.7027C7.71606 10.2508 7.90494 10.0754 8.51204 10.0079C8.6402 9.99442 8.73464 9.98767 8.80884 9.98093C8.82908 9.98093 8.84932 9.97418 8.86955 9.97418C8.90328 9.85951 8.97073 9.69761 9.14612 9.45477C9.62505 8.79371 10.3401 8.69252 10.8932 8.59134C11.1428 8.54412 11.4126 8.50365 11.6825 8.61158C12.4987 8.92187 12.6066 9.09051 12.6538 9.60992C12.6606 9.70436 12.6741 9.81903 12.701 9.96069C12.7415 10.19 12.7213 10.4868 12.6943 10.8309C12.6336 11.6606 12.5661 12.6859 13.3216 13.2458C14.3807 14.0215 16.2762 14.8984 17.9423 14.9996C18.9744 15.0603 20.1279 14.4263 21.0655 13.9136C21.5445 13.6505 21.956 13.4279 22.3067 13.3065L22.7992 13.1379C23.467 12.9018 24.1415 12.6724 24.7554 12.4768C24.4383 12.3958 24.1415 12.2744 23.9054 12.0788C23.5884 11.8157 23.4265 11.465 23.4197 11.0332C23.4063 10.4531 23.6626 10.1563 23.8784 10.0079C24.5665 9.54247 25.7942 9.94045 26.2326 10.1023C26.5564 9.83927 26.8667 9.50199 26.9477 9.29962C26.5699 9.17821 25.1399 9.20519 23.9324 9.31312L23.838 9.31986L23.757 9.25915C23.7098 9.22542 22.644 8.42945 22.7992 7.49856C22.9003 6.8982 22.8666 6.83749 22.6642 6.47323L22.5631 6.28436C22.3472 5.87288 22.3472 5.3737 22.5631 5.00944C22.7384 4.71938 23.0285 4.55749 23.386 4.55749H26.489C26.7723 4.09205 27.3389 3.32305 27.8651 3.56589C28.2091 3.72779 28.6273 3.96388 28.796 4.05832C29.6189 3.97063 30.4216 3.775 30.5363 3.63335C30.5296 3.58613 30.5431 3.46471 30.5566 3.32305C30.5903 3.05997 30.6577 2.45962 30.6173 2.264C30.5363 2.21003 30.4824 2.12234 30.4756 2.02116C30.4621 1.79855 30.6915 1.59619 30.9208 1.50175C31.366 1.31962 31.8517 1.46128 32.216 1.8795C32.7151 2.45287 33.2076 3.17465 33.4571 3.55915L34.3745 2.74293L34.5432 2.99926C34.786 3.37027 35.9935 5.23879 36.0609 5.73122C36.1216 6.14945 36.2296 8.40921 36.2566 8.93536C36.4792 9.15122 37.039 9.78531 37.2077 10.8174C37.3089 11.4245 37.2482 12.6724 37.1875 13.8866C37.1402 14.8108 37.0863 16.0722 37.1672 16.2745C37.2009 16.315 37.3021 16.4162 37.4168 16.5376C37.9834 17.1245 38.7592 17.9272 38.4151 18.4601C38.0981 18.9458 37.3628 18.568 36.7692 18.2645C36.7085 18.2375 36.6411 18.197 36.5803 18.17C36.4994 18.4669 36.3443 18.9053 36.1824 19.1751C36.1621 19.2089 36.1284 19.2561 36.0879 19.3168C35.7371 19.8564 34.6781 21.5024 34.7051 23.209C34.7118 23.7419 34.6714 24.295 34.2869 24.3962C34.1115 24.4434 33.9361 24.3625 33.7809 24.2343C33.8619 25.5767 34.1992 28.3559 35.6427 30.3863C38.233 34.0221 39.3595 36.4303 39.2516 38.1369C39.6428 38.3191 40.7828 38.771 42.1522 38.5282C42.3411 38.4944 42.5164 38.4607 42.6918 38.4337C44.1489 38.1841 44.9583 38.0492 45.2484 36.6934C45.417 35.5804 39.6563 15.9508 39.0492 13.9608C38.6377 12.6319 38.9818 11.04 38.9953 10.9725L39.029 10.8916C39.1099 10.7634 39.1841 10.6218 39.2651 10.4734C39.7777 9.52223 40.486 8.22708 42.9144 9.03655C45.2889 9.82578 45.9769 9.69087 45.9837 9.69087L46.4694 9.58294L46.2872 10.0416C46.2535 10.1226 46.213 10.2103 46.1591 10.298C46.638 10.325 47.1304 10.4396 47.407 10.7027C47.6768 10.959 47.9466 11.4717 48.2502 12.0653C48.6077 12.7534 49.1406 13.7854 49.4914 13.7854C49.7275 13.7854 49.9298 13.7517 50.112 13.7247C50.4088 13.6775 50.6651 13.637 50.8607 13.7989C50.9889 13.9001 51.0563 14.062 51.0631 14.2913C51.0766 14.5612 50.9821 14.7838 50.7865 14.9389C50.5909 15.0941 50.3076 15.1615 50.004 15.1818C50.2131 15.3841 50.3548 15.6405 50.3413 15.9575C50.3346 16.2071 50.2266 16.4769 50.1052 16.7872C49.741 17.7113 49.2485 18.9728 50.827 20.6322C51.0698 20.8885 51.0159 21.0841 50.9686 21.1853C50.8944 21.3202 50.6921 21.4686 50.1996 21.3607C49.741 21.2595 49.1473 20.9762 48.6752 20.4838L48.7831 21.1988L48.4256 21.1314C48.3918 21.1246 45.2551 20.5243 45.1877 17.6439C44.5536 17.4078 42.503 16.5174 42.6918 14.9322C42.7863 14.1295 43.0696 13.4616 43.2989 12.9287C43.4608 12.5442 43.6497 12.099 43.5418 12.0113C43.0966 11.6538 41.997 11.2423 41.5451 11.6403C41.3292 11.8427 41.0527 14.008 43.6497 20.9155C43.7509 21.1786 43.9128 21.5766 44.1286 22.096C45.6869 25.833 49.8219 35.7692 47.3867 39.8031C46.7527 40.8486 45.7341 41.4423 44.3445 41.5704C44.2905 41.5772 39.0627 41.9279 38.1521 41.4625C37.9699 41.6311 37.6057 42.3529 37.4033 43.2771C37.2347 44.0595 37.2684 44.6869 37.491 44.9567C37.7338 45.2535 38.3814 45.9281 39.1032 45.8943C39.5551 45.8673 39.9801 45.5638 40.3646 44.9837C40.5332 44.7273 40.7896 44.3901 41.1201 44.444C41.255 44.4643 41.4304 44.5587 41.5181 44.8758C41.6395 45.3075 41.5653 46.1979 41.2955 47.0613C41.3157 47.0613 41.3292 47.0546 41.3495 47.0613C41.5114 47.0613 41.653 47.1423 41.7475 47.2907C42.1994 47.9922 41.8149 50.6904 41.1404 51.5336C40.8773 51.8642 40.5063 52.2149 40.1892 52.5252C39.9599 52.7478 39.6631 53.0311 39.5282 53.2065C39.6293 53.2133 39.7643 53.2133 39.8587 53.2133C40.1892 53.2133 40.4995 53.2065 40.6614 53.4089C40.7424 53.5101 40.7693 53.6382 40.7356 53.7664C40.6142 54.2858 39.6024 56.0127 38.4893 56.2016C38.3409 56.2285 38.233 56.2893 38.1588 56.3904C37.9564 56.6805 38.0644 57.2404 38.0981 57.4225C38.1116 57.49 38.1183 57.5372 38.1183 57.5574C38.1251 57.5574 38.2667 58.3669 37.8283 58.8526C37.5787 59.1224 37.2212 59.2371 36.749 59.1966C36.351 59.1561 36.0407 58.9875 35.8248 58.6907C35.609 58.3939 35.528 58.0094 35.5078 57.6586L34.6174 58.7986C34.5971 58.8323 33.9496 59.6958 33.1266 59.8239C33.0457 59.8037 32.9782 59.8037 32.9108 59.8037Z" fill="white"/>
<path d="M31.7379 32.9629C31.9942 33.4823 32.1763 34.0152 32.2708 34.5818C32.318 34.8651 32.3382 35.1619 32.2977 35.4587C32.2708 35.7556 32.1696 36.0591 31.9875 36.3087C31.8998 36.4436 31.7851 36.5448 31.6704 36.6392C31.5557 36.7337 31.4613 36.8011 31.3601 36.8888C31.1645 37.0642 30.9756 37.2463 30.7935 37.4487C30.436 37.8467 30.0987 38.2649 29.7951 38.7169C29.188 39.6073 28.6956 40.5854 28.3853 41.6175C28.075 42.6495 28.0278 43.7828 28.4056 44.8149C27.9873 43.803 27.9873 42.6495 28.2572 41.5837C28.527 40.5179 28.9857 39.5061 29.5725 38.5752C29.8626 38.103 30.1931 37.6646 30.5439 37.2328C30.726 37.0237 30.9149 36.8214 31.1173 36.6257C31.2185 36.538 31.3466 36.4369 31.4343 36.3492C31.522 36.2682 31.6097 36.1873 31.6637 36.0861C31.9267 35.6948 31.92 35.1552 31.8188 34.6628C31.7176 34.1636 31.5153 33.6577 31.2724 33.2125L31.7379 32.9629Z" fill="white"/>
<path d="M21.8016 29.2379C21.7747 29.2379 21.7477 29.2379 21.7207 29.2312L21.7477 28.9749C22.3615 29.0423 23.4746 27.8281 23.8523 27.3492C23.8928 27.302 23.9602 27.2885 24.0142 27.3155C24.0277 27.3222 25.3363 28.0103 26.9418 27.7269C28.4663 27.4571 29.0599 24.3744 29.0194 24.1113L29.269 24.0371C29.3297 24.2192 29.0801 25.71 28.4325 26.8028C28.0278 27.4908 27.5421 27.8888 26.989 27.9833C25.532 28.2396 24.338 27.7539 23.994 27.592C23.6904 27.9698 22.5976 29.2379 21.8016 29.2379Z" fill="white"/>
<path d="M33.2488 9.33127C33.1949 9.33127 33.1342 9.31104 33.0869 9.27731L32.0684 8.48808L32.3854 8.0766L33.2556 8.75115C33.8559 8.33967 34.1865 7.86074 34.2404 7.32109C34.3349 6.45092 33.721 5.61446 33.404 5.2502C33.0734 5.59423 32.7159 5.945 32.5338 5.99896L32.3719 5.50654L32.4529 5.75612L32.3584 5.51328C32.4663 5.45932 32.8913 5.04784 33.2151 4.69032C33.2623 4.63636 33.3298 4.60938 33.3972 4.60938C33.4849 4.60938 33.5321 4.63636 33.5861 4.68358C33.6401 4.73754 34.9082 5.97198 34.7598 7.3818C34.6789 8.13731 34.2134 8.77814 33.377 9.29755C33.3433 9.31778 33.2961 9.33127 33.2488 9.33127Z" fill="white"/>
<path d="M33.0465 6.81596L32.6553 6.47193L33.1814 5.87832C33.2489 5.80412 33.3568 5.77039 33.4512 5.80412L34.4024 6.10093L34.2472 6.6001L33.4512 6.35726L33.0465 6.81596Z" fill="white"/>
<path d="M26.5103 5.0293C26.5507 5.87249 26.6047 6.71569 26.6384 7.55889L26.5575 7.42397C26.969 7.6196 27.3602 7.82871 27.7447 8.0648C28.1292 8.3009 28.5204 8.54374 28.8645 8.88102C29.2085 9.2183 29.4581 9.71072 29.4581 10.2166C29.4648 10.7158 29.2422 11.2082 28.8712 11.4848L28.8307 11.4511C29.0398 11.0598 29.1006 10.6349 29.0264 10.2504C28.9522 9.86587 28.7498 9.53534 28.48 9.23853C27.9201 8.63143 27.1646 8.12551 26.4158 7.68705L26.4023 7.6938C26.3551 7.66681 26.3281 7.61285 26.3281 7.56563C26.3551 6.72243 26.4158 5.87924 26.4563 5.03604H26.5103V5.0293Z" fill="white"/>
<path d="M27.5693 9.85938C27.549 10.0617 27.4546 10.2236 27.3399 10.3653C27.2792 10.4327 27.2117 10.5002 27.124 10.5474C27.0431 10.5946 26.9419 10.6419 26.834 10.6149C26.9014 10.5339 26.9419 10.4665 26.9891 10.399C27.0364 10.3248 27.0903 10.2641 27.1443 10.1967C27.259 10.0685 27.3804 9.94707 27.5693 9.85938Z" fill="white"/>
<path d="M28.3046 9.85938C28.4327 9.98754 28.4935 10.1494 28.5407 10.3181C28.5812 10.4867 28.5744 10.6554 28.5542 10.8307C28.5002 10.9994 28.4462 11.1748 28.3248 11.3097C28.2101 11.4513 28.0482 11.5525 27.8729 11.5795L27.8594 11.5593C28.1022 11.3636 28.2506 11.0803 28.2978 10.7768C28.3585 10.48 28.3451 10.1629 28.2776 9.86612L28.3046 9.85938Z" fill="white"/>
<path d="M26.4833 5.55664C26.4833 5.55664 26.888 6.00185 26.9622 5.94788C26.9622 5.94788 28.507 5.9951 28.851 6.13001C29.195 6.25818 29.3704 6.38635 29.3839 6.74386C29.3839 6.74386 28.8105 6.4538 28.2506 6.44031C27.6908 6.42682 27.0432 6.44031 26.9555 6.47404C26.8678 6.50777 26.4766 7.10138 26.4766 7.10138V5.55664H26.4833Z" fill="white"/>
<path d="M19.3327 22.8871C19.3192 22.7387 19.0493 19.2445 19.1977 17.9628C19.4406 15.8177 20.6885 14.2258 22.9078 13.2207L23.0157 13.4568C20.8841 14.4147 19.6902 15.9392 19.4608 17.9898C19.3192 19.2445 19.5957 22.8264 19.6025 22.8601L19.3327 22.8871Z" fill="white"/>
<path d="M21.2012 22.2166C19.8116 17.2518 22.8539 15.2889 22.8876 15.2754L23.0225 15.498C22.9955 15.5182 20.1152 17.3868 21.4508 22.1491L21.2012 22.2166Z" fill="white"/>
<path d="M33.3504 20.2273C33.3437 20.2273 33.337 20.2273 33.3235 20.2273C33.2628 20.2341 33.2223 20.2678 33.2088 20.3352C33.1616 20.5444 33.1211 20.6995 33.0469 20.8344C33.1278 20.7467 33.2223 20.6658 33.3032 20.5983C33.3774 20.5376 33.4381 20.4769 33.4989 20.4162C33.5528 20.3555 33.5393 20.3285 33.5326 20.315C33.5123 20.2678 33.4314 20.2273 33.3504 20.2273ZM33.8159 24.0858C33.7822 24.0318 32.9255 22.7839 32.7299 21.9812C32.6422 21.6236 32.7029 21.3471 32.831 21.1245C32.7838 21.1717 32.7366 21.2122 32.6759 21.2594C32.487 21.4078 32.2914 21.6709 32.1228 21.9002C32.0081 22.0486 31.9136 22.1835 31.8327 22.2645C31.7383 22.3589 31.7922 22.649 31.8597 22.8176C31.8799 22.8648 31.8664 22.9255 31.8259 22.9593C31.7855 22.993 31.7315 23.0065 31.6843 22.9863C31.6775 22.9863 31.4887 22.9053 31.2188 22.993C30.9018 23.0942 30.4903 22.649 30.2947 22.3926C30.1598 22.5545 29.9035 22.8041 29.5122 22.9863C28.9119 23.2628 28.5071 23.2628 27.9135 22.9863C27.502 22.7906 27.4751 22.6018 27.4751 22.3522C27.4751 22.2577 27.4751 22.1633 27.4413 22.0554C27.3874 21.8935 27.3267 21.88 27.1783 21.8462C27.0568 21.8193 26.9084 21.7855 26.7465 21.6574C26.6791 21.6102 26.6521 21.6034 26.6521 21.6034C26.6521 21.6102 26.6251 21.6506 26.6116 21.6844C26.5509 21.7855 26.4632 21.9339 26.2609 22.0081C26.2339 22.0149 26.2271 22.0216 26.2271 22.0216C26.2339 22.0284 26.2541 22.0756 26.2676 22.1026C26.3013 22.1835 26.3485 22.2847 26.2811 22.3859C26.2069 22.4938 26.045 22.4938 25.8764 22.4736C25.62 22.4466 25.4379 22.3724 25.3502 22.251C25.2018 22.3319 24.9657 22.4264 24.5812 22.5343C23.7448 22.7771 23.1107 22.4938 22.969 22.2982C22.9016 22.197 22.942 22.1161 22.9623 22.0958C23.0432 21.9812 23.2254 22.0351 23.2928 22.0554C23.3603 22.0756 23.421 22.0621 23.4884 22.0149C23.7785 21.799 23.9606 21.0165 23.9606 20.5713C23.9606 20.1194 23.313 19.9777 23.3063 19.9777C23.2523 19.9642 23.2119 19.9238 23.2051 19.8698C22.6385 15.3503 25.3772 14.3857 25.4042 14.3789L25.4851 14.6285C25.3839 14.6622 22.9555 15.5324 23.448 19.7551C23.6706 19.8226 24.2169 20.0452 24.2169 20.5781C24.2169 21.0031 24.0483 21.9272 23.6436 22.2307C23.5964 22.2645 23.5424 22.2915 23.4952 22.3117C23.7313 22.3792 24.082 22.4196 24.5138 22.2915C24.9994 22.1498 25.2085 22.0486 25.2895 21.9947C25.303 21.9205 25.33 21.8732 25.3367 21.8597C25.357 21.826 25.3839 21.8058 25.4177 21.799C25.4514 21.7923 25.4919 21.799 25.5188 21.8193C25.5661 21.8463 25.6133 21.9137 25.5998 22.0014C25.593 22.0284 25.5863 22.0621 25.5593 22.0958C25.5796 22.1296 25.6538 22.197 25.9101 22.224C25.9708 22.2307 26.018 22.2307 26.045 22.2307C26.045 22.224 26.045 22.224 26.0383 22.2173C26.0045 22.1363 25.9573 22.0351 26.0045 21.9205C26.0315 21.853 26.0922 21.799 26.1799 21.7653C26.2946 21.7248 26.3418 21.6439 26.3958 21.5562C26.443 21.4752 26.5037 21.3808 26.6184 21.3538C26.7263 21.3336 26.841 21.401 26.9084 21.455C27.0299 21.5494 27.1378 21.5697 27.2457 21.5967C27.4076 21.6371 27.5965 21.6776 27.6977 21.9744C27.7516 22.1296 27.7449 22.2577 27.7449 22.3589C27.7449 22.541 27.7381 22.622 28.0349 22.7569C28.5543 23.0065 28.8781 23.0065 29.411 22.7569C29.9439 22.5073 30.1935 22.1161 30.1935 22.1161C30.2138 22.0756 30.2542 22.0554 30.3015 22.0554C30.3487 22.0554 30.3891 22.0756 30.4094 22.1093C30.6522 22.4534 31.0165 22.7906 31.1514 22.7502C31.3133 22.7029 31.4549 22.6962 31.5629 22.7029C31.5224 22.5141 31.5022 22.2442 31.6573 22.0891C31.7248 22.0216 31.8192 21.8935 31.9204 21.7518C32.1025 21.509 32.3049 21.2324 32.5207 21.057C32.8175 20.8209 32.8715 20.6928 32.966 20.2745C33.0064 20.0991 33.1346 19.9845 33.3032 19.9642C33.4921 19.944 33.6945 20.0384 33.7754 20.1936C33.8429 20.3218 33.8091 20.4702 33.6945 20.5916C33.6338 20.659 33.5596 20.7197 33.4854 20.7872C33.1683 21.0638 32.8445 21.3538 32.9862 21.9137C33.1751 22.6692 34.025 23.9239 34.0385 23.9374L33.8159 24.0858Z" fill="white"/>
<path d="M26.9009 21.6662L26.7593 21.4503C26.7727 21.4436 27.96 20.6409 27.7441 19.9191C27.6834 19.7235 27.4473 19.6965 26.9953 19.6695C26.8335 19.656 26.6513 19.6493 26.4692 19.6223L26.2331 19.5885C25.9565 19.5548 25.9498 19.5481 25.6193 19.4199C25.4911 19.3659 25.3022 19.2917 25.0256 19.1906C24.7086 19.0691 24.5062 18.8938 24.4253 18.6712C24.3039 18.3204 24.5197 17.9426 24.6681 17.6863C24.7153 17.6121 24.7761 17.5042 24.7761 17.4704C24.8098 17.2141 28.0679 14.2663 30.7998 11.8379L30.9752 12.0335C28.675 14.0842 25.1875 17.2343 25.0324 17.5312C25.0324 17.5919 24.9717 17.6863 24.8975 17.8212C24.7693 18.0438 24.5939 18.3474 24.6749 18.5835C24.7288 18.7319 24.8772 18.8533 25.1201 18.941C25.4034 19.0489 25.5855 19.1231 25.7204 19.1771C26.024 19.2985 26.024 19.2985 26.2668 19.3322L26.5029 19.3659C26.6851 19.3929 26.8537 19.4064 27.0156 19.4132C27.481 19.4469 27.879 19.4739 27.9937 19.8516C28.2568 20.7488 26.9549 21.6257 26.9009 21.6662Z" fill="white"/>
<path d="M30.4224 22.2019L30.1661 22.1615C30.1661 22.148 30.4224 20.5695 30.2875 19.9422C30.2133 19.6184 30.0514 19.5374 29.7478 19.3958C29.5252 19.2879 29.2419 19.1529 28.9316 18.8764C28.311 18.33 28.4594 17.4598 28.5471 16.9404C28.5674 16.8055 28.5876 16.6908 28.5876 16.6234C28.5809 16.2456 30.3617 14.566 31.1307 13.8644C31.1442 13.8509 31.1577 13.8442 31.1712 13.8374C31.785 13.5946 32.0548 12.3602 32.1088 11.9082L32.3651 11.9352C32.3584 12.0094 32.156 13.6958 31.2858 14.0668C30.1121 15.1461 28.8844 16.3873 28.8439 16.6166C28.8439 16.7043 28.8237 16.819 28.8035 16.9741C28.7225 17.4666 28.5943 18.2153 29.107 18.6673C29.3903 18.9236 29.6399 19.0383 29.8625 19.1462C30.1796 19.2946 30.4494 19.4228 30.5438 19.8747C30.6855 20.556 30.4291 22.1345 30.4224 22.2019Z" fill="white"/>
<path d="M33.1338 20.6338L32.8842 20.5664C32.8842 20.5664 32.9584 20.2831 32.9652 19.8109C32.9719 19.3522 32.6819 18.9677 32.1422 18.428C31.6431 17.9289 31.6768 17.5376 31.7173 17.1194C31.7307 16.998 31.7375 16.8766 31.7375 16.7417C31.7375 16.3369 32.2232 15.885 32.7831 15.3656C33.1676 15.0148 33.5655 14.6438 33.8151 14.2863C34.3885 13.4498 34.2064 11.5003 34.1996 11.4801L34.456 11.4531C34.4627 11.5341 34.6516 13.5173 34.0242 14.4279C33.7612 14.8124 33.3497 15.1902 32.9584 15.5544C32.4862 15.9929 31.9938 16.4448 31.9938 16.7349C31.9938 16.8766 31.9803 17.0115 31.9668 17.1396C31.9264 17.5376 31.8994 17.8277 32.3176 18.2392C32.9112 18.8328 33.2283 19.2577 33.2215 19.8109C33.2148 20.3235 33.1338 20.6204 33.1338 20.6338Z" fill="white"/>
<path d="M33.707 20.5706L33.4844 20.4424C35.643 16.6649 35.5148 12.0239 35.4271 10.6951C35.4271 10.6546 35.4204 10.6276 35.4204 10.6208H35.6834H35.5553H35.6834V10.6816C35.7711 12.0239 35.8993 16.7323 33.707 20.5706Z" fill="white"/>
<path d="M19.1367 24.1939L18.9883 23.9848C19.022 23.9646 22.0643 21.8127 23.2178 19.7891L23.4404 19.9172C22.2599 21.9814 19.2648 24.0995 19.1367 24.1939Z" fill="white"/>
<path d="M11.2382 1.13687L11.9532 1.93959C12.2433 1.65628 12.9853 1.29876 13.3563 1.17734C13.0932 0.941249 12.5199 0.54326 12.2433 0.536515C11.9532 0.523023 11.481 0.907521 11.2382 1.13687ZM11.8925 2.19592L10.8672 1.10314L10.9549 1.04918C11.0358 0.968231 11.7306 0.273438 12.2365 0.273438H12.2568C12.7627 0.293674 13.4845 0.995213 13.5654 1.07616L13.7206 1.23131L13.5115 1.29202C12.9516 1.46066 12.1151 1.79794 12.0072 2.02728L11.8925 2.19592Z" fill="white"/>
<path d="M10.1791 8.8944C9.70688 8.8944 9.25493 8.83369 8.91765 8.77298C7.70345 8.55038 7.28522 7.72742 6.84002 6.8505L6.72534 6.63464C6.53647 6.27712 6.37457 5.89262 6.21942 5.52162C5.96309 4.91452 5.72025 4.3344 5.42345 4.00387C5.02546 3.55866 4.24297 3.4912 3.81126 3.4912H3.42676L3.73705 3.25511C3.79776 3.20789 5.24132 2.12185 6.1722 2.07463C6.28688 1.66315 6.63765 1.04256 7.26499 1.09653C7.84511 1.15049 8.33079 1.31913 8.54665 1.40682C8.66807 1.15049 9.01209 0.583862 9.59895 0.442205C10.0644 0.327531 10.5703 0.502916 11.0965 0.96836L12.0543 1.9667L11.8655 2.14883L10.9211 1.15724C10.4691 0.759247 10.0374 0.604099 9.66641 0.691792C9.05256 0.840194 8.74227 1.61593 8.74227 1.62268L8.69505 1.75085L8.56688 1.69014C8.56014 1.69014 7.96653 1.42031 7.24475 1.35286C6.61067 1.29215 6.4083 2.21629 6.4083 2.22304L6.38806 2.33096L6.28013 2.32422C5.65954 2.29724 4.70167 2.90434 4.21599 3.24162C4.68818 3.28209 5.28179 3.42375 5.6393 3.82848C5.96309 4.19274 6.21268 4.78635 6.47575 5.42043C6.6309 5.7847 6.7928 6.16919 6.97493 6.51996L7.0896 6.74257C7.52132 7.59251 7.89232 8.32103 8.98511 8.5234C10.4691 8.79996 11.6564 8.58411 12.25 7.95002C12.7356 7.42387 13.3765 6.32434 13.6463 5.15061C13.6868 5.0157 14.5367 2.04091 15.8251 1.86552C15.0966 1.60244 14.0038 1.25842 13.5991 1.38659L13.5181 1.137C13.5653 1.12351 13.5923 1.11002 13.653 1.10327C14.4558 1.02232 16.1961 1.71712 16.4052 1.80481L16.8572 1.99369L15.8588 2.12185C14.9347 2.25002 14.132 4.39511 13.8959 5.21132C13.5721 6.60766 12.8301 7.70044 12.4388 8.12541C11.8587 8.72576 10.9818 8.8944 10.1791 8.8944Z" fill="white"/>
<path d="M11.2784 6.53393C10.0237 2.83061 7.15009 2.37866 6.30015 2.33144C6.27317 2.33144 6.25968 2.33144 6.25293 2.32469L6.2934 2.06836L6.27317 2.19653L6.28666 2.06836C7.2108 2.12232 10.2193 2.59451 11.5212 6.44623L11.2784 6.53393Z" fill="white"/>
<path d="M10.4351 4.35186L10.1855 4.27091C10.1923 4.24393 11.0018 1.77505 13.619 1.09375L13.6865 1.34334C11.2109 1.99091 10.4419 4.33162 10.4351 4.35186Z" fill="white"/>
<path d="M8.8566 8.67696L7.82453 9.74276L9.26808 9.20986L9.54465 9.92489L10.172 9.18288V11.0244C10.172 11.0244 10.3676 12.0767 10.172 12.1105C9.97637 12.1442 9.80773 12.2116 9.69305 11.9621C9.57838 11.7125 8.75542 10.532 7.81779 10.7613C6.88015 10.9907 6.69802 11.6518 7.21068 12.2386C7.7166 12.8322 7.93246 12.9941 8.72844 13.0953C9.52441 13.1965 9.65933 13.2437 9.65933 13.2437C9.65933 13.2437 9.6256 14.6738 9.3153 14.8019C9.005 14.9301 8.57329 14.5051 8.22927 14.1611C7.88524 13.8171 7.35909 13.5068 6.63731 13.5068C5.91553 13.5068 5.53778 14.2488 5.88181 14.6873C6.22583 15.1325 6.59009 15.5439 7.19719 15.6721C7.80429 15.8003 8.06737 15.8542 8.47885 15.8542H9.03873L8.29672 18.512C8.29672 18.512 6.36074 16.6367 5.91554 15.8003C5.47033 14.9638 3.92559 12.9739 4.20891 12.9739C4.32358 12.9739 4.73506 13.0211 5.35565 12.495C5.98299 11.9688 6.38772 11.591 6.45518 11.3145C6.52264 11.0379 6.78571 10.1812 6.44169 9.96536C6.09767 9.7495 5.03187 9.55388 4.3708 10.8355C3.71648 12.1172 3.94583 12.3465 3.94583 12.3465C3.94583 12.3465 3.41967 11.9823 3.41967 11.591C3.41967 11.1998 3.71648 10.7883 3.41967 10.2284C3.12287 9.66856 2.63044 8.46785 1.90867 8.60276C1.18689 8.73092 1.05198 9.37175 1.07222 9.62134C1.08571 9.87093 1.03849 10.4443 1.43648 10.8693C1.82772 11.2942 2.22571 11.672 2.50228 11.8204C2.77885 11.9688 3.02843 12.0025 3.10938 12.3263C3.19033 12.6568 3.27127 12.7715 3.27127 12.7715C3.27127 12.7715 3.05541 12.5422 2.28642 12.5219C1.51742 12.5084 0.316714 12.4073 0.121092 13.3786C-0.0745293 14.35 0.876596 14.4781 1.05873 14.4781C1.24086 14.4781 2.60346 14.296 3.29151 13.7564C3.97956 13.2167 4.04701 13.9385 4.04701 13.9385L4.47198 14.6131C4.47198 14.6131 2.32015 14.3635 1.4837 15.2539C0.647246 16.1443 1.44997 16.6637 1.73328 16.684C2.00985 16.6974 2.88003 16.7514 3.11612 16.6705C3.34547 16.5895 3.82441 16.2792 4.21565 15.9284C4.60689 15.5844 4.55968 15.0583 4.83624 15.3011C5.11281 15.5507 5.46358 16.3197 5.46358 16.3197C5.46358 16.3197 2.93399 16.205 2.6237 17.5541C2.3134 18.9032 4.16843 18.5727 4.21565 18.5053C4.26287 18.4378 5.57826 17.3045 5.88855 17.2371C6.19885 17.1696 6.51589 17.3383 6.67778 17.797C6.83968 18.2557 3.34547 18.8965 4.53944 20.4547C4.60015 20.5357 4.96441 20.765 5.54453 20.6166C6.1179 20.4682 6.87341 19.6992 7.06903 19.2338C7.26465 18.7751 7.17021 18.3501 7.44678 18.4783C7.72335 18.6064 8.00666 19.1663 8.00666 19.1663C8.00666 19.1663 7.7908 20.3468 7.81104 21.3182C7.82453 22.2895 7.95944 24.6505 7.95944 24.6505L8.0269 25.3588L8.68122 25.2913C8.68122 25.2913 8.00666 20.7718 8.68122 19.5778L8.80938 19.4159C8.80938 19.4159 11.2918 20.7313 12.027 19.6655C12.769 18.5997 12.0135 18.2219 11.5481 18.2557C11.0894 18.2894 9.78749 17.9589 9.29506 18.4513C8.80264 18.9437 9.14666 18.7144 9.11293 18.5997C9.07921 18.485 9.44347 16.974 9.44347 16.974C9.44347 16.974 9.63909 17.6283 10.6104 17.6283C11.5818 17.6283 12.9579 17.4799 12.9242 16.7109C12.8905 15.9419 12.6948 15.5642 11.6425 15.5642C10.5902 15.5642 9.70654 16.1038 9.70654 16.1038C9.70654 16.1038 9.69305 15.7935 9.72004 15.7396C9.75376 15.6924 10.5902 12.0632 10.5902 12.0632C10.5902 12.0632 10.8398 12.4882 11.7235 12.4882C11.7235 12.4882 13.4166 12.2386 13.8078 11.8002C14.1991 11.3549 14.334 10.849 13.6122 10.586C12.8905 10.3229 11.0354 11.0312 10.8668 11.2133C10.7049 11.3954 10.8533 9.25708 10.8533 9.25708L11.6762 9.73601L11.5953 9.06146C11.5953 9.06146 12.5464 9.48643 12.6274 9.48643C12.7083 9.48643 13.0861 9.41897 13.0861 9.41897L11.737 8.40039L10.4688 8.74441L8.8566 8.67696Z" fill="white"/>
<path d="M8.33683 2.83685C8.12771 2.72218 8.51896 1.46076 8.5257 1.44727L8.76854 1.53496C8.59316 2.01389 8.51896 2.62099 8.51896 2.6952L8.39754 2.70194L8.33683 2.83685Z" fill="white"/>
<path d="M44.3049 17.0502C44.143 16.5915 44.7433 13.1108 44.8647 12.416L45.1211 12.4632C44.8445 14.0417 44.4465 16.659 44.5544 16.9625L44.3049 17.0502Z" fill="white"/>
<path d="M46.2876 15.2012C46.2876 15.2012 45.5118 18.3581 45.9435 19.0799L45.1543 17.1371C45.1543 17.1371 45.7816 15.5924 46.2876 15.2012Z" fill="white"/>
<path d="M49.4512 19.6553C49.4512 19.6486 49.3568 18.7447 49.323 17.6991C49.2826 16.6131 49.9571 15.5338 49.9841 15.4866L50.2269 15.6417C50.2202 15.6485 49.5794 16.694 49.6131 17.6924C49.6468 18.7312 49.7413 19.6216 49.7413 19.6284L49.4512 19.6553Z" fill="white"/>
</svg>
