<svg width="117" height="136" viewBox="0 0 117 136" fill="none" xmlns="http://www.w3.org/2000/svg">
<path d="M27.4591 59.7887C27.4591 59.7887 27.4437 59.7887 27.4591 59.7887C27.4437 59.7887 27.4591 59.7887 27.4591 59.7887ZM72.3782 132.688C72.4243 132.842 72.67 133.256 73.6682 134.009C74.0828 134.316 74.5282 134.439 75.0043 134.362C76.156 134.193 77.2924 132.949 77.6303 132.489L82.437 126.33L81.8995 128.849C81.7613 129.463 81.577 131.291 82.2835 132.258C82.5752 132.657 82.9899 132.872 83.5427 132.919C84.2031 132.98 84.7099 132.857 85.0016 132.519C85.6159 131.844 85.3702 130.492 85.3702 130.477L85.3395 130.277C85.232 129.678 84.9249 128.096 85.6773 127.037C86.0306 126.53 86.5373 126.223 87.213 126.115C89.0098 125.824 90.8987 122.752 91.3133 121.677C91.0983 121.647 90.7759 121.662 90.5455 121.662C89.8237 121.662 89.148 121.677 88.718 121.309C88.5491 121.155 88.4416 120.94 88.4416 120.71C88.4262 120.065 89.0866 119.404 90.4687 118.068C91.1751 117.393 91.9737 116.625 92.5265 115.934C93.924 114.183 94.4769 108.639 93.8319 107.656C93.6937 107.687 93.4173 107.933 93.064 108.332C92.6033 109.238 92.0351 110.037 91.3441 110.62L88.503 113.016L90.4534 109.852C90.7912 109.315 91.3901 108.393 92.0812 107.656C93.1562 105.43 93.4326 102.573 93.1562 101.79C93.0487 101.882 92.8798 102.066 92.6494 102.42C91.5591 104.078 90.2844 104.954 88.8562 105.03C86.7523 105.138 85.0477 103.479 84.2184 102.481C82.4217 100.316 84.4949 94.1729 85.8309 92.8983C86.3991 92.3608 86.9366 92.4837 87.2437 92.7755C88.2573 93.4358 98.6233 93.0212 100.62 92.8369C103.415 92.5912 105.38 91.4547 106.64 89.3816C111.876 80.7049 102.616 58.4987 99.1454 50.1292C98.654 48.9313 98.2547 48.0099 98.0397 47.411C92.5419 32.8219 92.1887 26.2184 93.5708 24.9898C95.2447 23.5002 98.4083 24.8055 99.6368 25.7884C100.589 26.5409 100.051 27.8002 99.4372 29.2591C98.9458 30.4108 98.3315 31.839 98.1318 33.4976C97.7479 36.7072 103.353 38.5347 103.415 38.55L103.829 38.6882L103.814 39.1336C103.706 43.8328 107.622 45.5682 109.388 46.1056L108.897 42.9421C108.836 42.6657 108.79 42.3893 108.774 42.0821L109.941 41.9439L110.064 42.7118C110.463 44.4778 111.707 45.5374 112.46 46.0289C113.182 46.5049 113.857 46.7353 114.318 46.8428C110.556 42.6657 111.907 39.2411 112.721 37.1679C112.967 36.5536 113.166 36.0315 113.182 35.6629C113.228 34.6801 111.492 33.9122 110.371 33.5897C110.172 33.5437 110.033 33.4976 109.972 33.4822L110.264 32.3305C110.325 32.3458 110.479 32.3765 110.694 32.438C112.091 32.7605 114.026 32.9601 114.656 32.4533C114.763 32.3765 114.856 32.2537 114.84 31.9619C114.825 31.6087 114.794 31.6701 114.779 31.6701C114.702 31.6701 114.318 31.7315 114.042 31.7776C113.612 31.839 113.074 31.9312 112.445 31.9312C110.94 31.9312 109.788 29.7198 108.559 27.3702C107.96 26.2184 107.346 25.0359 106.87 24.5905C106.302 24.0531 104.904 23.9302 103.829 23.9763C103.399 24.2834 102.893 24.4677 102.324 24.3756C101.894 24.2988 101.649 24.1145 101.603 23.792L101.541 23.3773L101.986 23.1009C102.201 22.9934 102.708 22.8859 103.353 22.8245C103.43 22.7631 103.491 22.6863 103.553 22.6095C102.447 22.5327 100.466 22.1795 97.0876 21.0584C92.4958 19.5228 91.3748 21.5806 90.1923 23.7766C90.0234 24.0838 89.8544 24.3909 89.6855 24.6827C89.578 25.2509 89.0405 28.3223 89.8084 30.7948C89.9619 31.2862 104.566 80.321 103.952 83.1466C103.123 87.0166 100.635 87.4466 97.1797 88.0301C96.7958 88.0916 96.3812 88.1684 95.9665 88.2451C91.6973 89.013 88.3802 87.1394 88.242 87.0473L87.9041 86.8477L87.9502 86.4637C88.4877 81.7952 83.6656 74.3932 79.9799 69.2332C75.2807 62.6451 75.465 53.1238 75.465 52.7245L75.511 50.5745L76.5707 52.4481C76.8471 52.9549 77.2464 53.4616 77.5074 53.6766C77.5689 53.477 77.6456 53.0624 77.6303 52.2177C77.5535 47.9792 80.1181 44.0017 80.9628 42.6964L81.147 42.4046C81.5463 41.7289 81.9763 40.3161 82.0377 39.9168L82.0838 39.625L82.391 39.4407C82.7749 39.2411 83.1742 39.4407 84.0341 39.8861C84.5563 40.1471 85.9384 40.8536 86.2763 40.7154C86.3223 40.6079 86.2916 40.0704 84.1109 37.8282C83.8192 37.5211 83.5734 37.26 83.4352 37.0911C83.0513 36.5997 83.0513 35.3404 83.2663 30.9176C83.3892 28.353 83.5274 25.4352 83.3277 24.1913C82.9284 21.7495 81.3774 20.4442 81.362 20.4442L81.1624 20.2752L81.147 20.0142C81.0395 17.8028 80.8245 13.3953 80.7017 12.5968C80.6249 12.0746 79.2274 9.66358 77.7992 7.43683L75.6953 9.31037L75.3267 8.71145C75.3114 8.68074 73.7603 6.19291 72.24 4.45757C71.8561 4.01222 71.4261 3.81258 71.0114 3.82794C70.8118 3.8433 70.6582 3.90472 70.5354 3.96615C70.7964 4.54972 70.6889 5.6247 70.52 7.08362C70.4893 7.39075 70.4586 7.65182 70.4432 7.85146C70.3665 8.81895 68.6311 9.49466 65.2679 9.81715L65.0683 9.83251L64.8994 9.74037C64.884 9.74037 63.6555 9.00323 62.7187 8.57324C62.4269 8.57324 61.5515 9.5868 60.9373 10.6464L60.7683 10.9382H53.0284C52.6445 10.9382 52.3527 11.0918 52.1685 11.3989C51.892 11.8596 51.9074 12.5814 52.1992 13.1343L52.3681 13.5489C52.9209 14.5625 53.0899 14.9617 52.7981 16.651C52.6138 17.8028 53.8731 18.9853 54.3491 19.3845C56.9445 19.1695 61.1523 18.9392 62.0276 19.7531C62.2119 19.922 62.304 20.137 62.304 20.3674C62.304 21.6113 60.4612 23.1009 59.893 23.5309L59.6166 23.7306L59.2941 23.5923C58.4648 23.2391 55.8234 22.3945 54.7331 23.1316C54.3645 23.3773 54.1956 23.8073 54.2109 24.4523C54.2263 25.082 54.4413 25.5734 54.902 25.9573C55.9923 26.8787 58.2037 26.9402 59.6319 26.8327C60.0312 26.7559 60.3844 26.7252 60.6608 26.7252L60.753 27.9077C60.7069 27.923 60.3383 27.9691 59.7855 28.0152C57.8045 28.3837 54.1341 29.6737 52.0149 30.4108L50.8938 30.7948C50.172 31.0405 49.2353 31.5473 48.2524 32.1001C45.995 33.344 43.1846 34.8797 40.4972 34.7108C36.4583 34.4651 31.8973 32.3458 29.348 30.4876C27.0905 28.8291 27.2902 26.0034 27.4284 23.9456C27.4745 23.2699 27.5205 22.6402 27.4437 22.2563C27.3823 21.9031 27.3516 21.6113 27.3209 21.3656C27.2441 20.6438 27.2441 20.6131 25.862 20.091C24.142 19.446 22.6677 19.9527 21.4699 21.6113C21.0706 22.1641 21.0092 22.4252 20.9785 22.5634C20.8249 23.1931 20.4102 23.2391 19.842 23.2852C19.6731 23.3006 19.4581 23.3159 19.1817 23.3466C18.7824 23.3927 18.5828 23.4388 18.506 23.4695C18.506 23.5156 18.5213 23.577 18.5213 23.6384C18.5521 23.9916 18.5981 24.5291 18.3217 25.2202C18.1221 25.727 18.0913 26.0495 18.076 26.3259C18.0453 26.9402 17.9378 27.4009 17.0317 27.9691C16.5864 28.2455 16.6017 28.3069 16.7399 28.998C16.8167 29.3973 16.9242 29.8887 16.9242 30.5337C16.9242 31.9312 19.627 32.1769 19.7499 32.1922L19.9495 32.2076C22.2531 32.3919 22.9134 32.5455 23.1745 32.9754L23.3281 33.2365L23.2206 33.6051C23.0209 34.1119 21.0399 35.1715 19.7806 35.7243C19.8574 35.7858 19.9495 35.8626 20.0263 35.924L27.6434 38.1661L27.0905 38.8572C27.0137 38.9493 26.338 39.7325 24.5873 40.0243C24.8945 40.3621 25.5088 40.8536 26.1538 41.2836L31.329 41.99L31.4365 42.3432C32.3426 45.1842 40.7736 48.916 43.9525 50.1292L44.2289 50.2367L45.0428 53.0163L44.9814 53.1852C44.7203 53.9838 40.0825 57.393 37.994 58.6676C35.5215 60.1726 29.8394 60.7562 27.9659 60.9405C27.7355 60.9558 27.5973 60.9712 27.5359 60.9865C27.2287 61.048 26.8141 60.9405 26.6759 60.1726C26.5837 59.6505 26.3687 58.5601 23.9577 57.7462C20.1185 56.4409 19.2585 57.2241 16.4328 59.7887L16.0182 60.1573C15.6035 60.5258 15.1428 61.0633 15.281 61.5394C15.5114 62.3994 17.431 63.0751 18.3217 63.2594L18.9667 63.3976L18.3831 65.2251L18.8131 65.3479C18.7824 65.4861 18.7978 65.5936 18.8746 65.7165C19.2431 66.3001 20.6252 66.7608 21.4238 66.899L22.0227 67.0065L21.6542 68.4961C21.6081 68.5729 21.5467 68.6804 21.562 68.7264C21.7617 69.1104 23.3434 69.4636 24.6795 69.525C25.5702 69.0489 29.4094 67.0679 30.7148 66.899C31.3137 66.8222 31.6055 67.0679 31.7283 67.2829C32.1123 67.8972 31.544 68.7265 30.7762 69.8629C30.4998 70.2621 30.2233 70.6614 30.0391 71.0146C30.0237 71.03 30.0237 71.0454 30.0083 71.0607C30.2233 71.1068 30.6533 71.1221 31.0526 71.0607C32.7112 69.5711 34.4772 67.9279 35.0147 67.3597C35.0915 67.2061 35.1683 67.0986 35.2451 67.0372L35.5829 66.7454L36.2279 67.1447L36.2586 67.4365C36.274 67.5747 36.274 67.6822 36.0129 68.0047C35.9054 68.2811 35.7826 68.8339 35.9669 69.1257C36.1204 69.3561 36.5658 69.4175 37.2108 69.31C38.5622 69.0797 39.2993 68.1582 39.714 67.3136C39.4836 66.4229 40.2207 65.5629 40.3129 65.4708L41.5414 64.0886L41.3418 65.9315C41.2957 66.2847 41.2036 66.73 41.0347 67.2061C41.1882 67.2983 41.4954 67.4058 42.0636 67.4365C44.3825 67.6207 49.7728 64.7951 51.677 63.7047L52.061 63.4897L52.3834 63.7815C55.3934 66.5611 70.4586 80.5513 71.0729 82.0102C71.4107 82.8088 71.2418 83.3463 71.0268 83.6534C70.52 84.4059 69.4297 84.4673 69.1072 84.4673C68.7847 84.4673 68.5236 84.283 67.8786 83.8223C66.2969 82.7166 62.5958 80.1367 56.3609 79.676C50.0645 79.2153 48.6671 82.1945 47.8378 83.9759C47.6228 84.452 47.4385 84.8205 47.2081 85.0816C46.1946 86.2641 45.396 86.0184 44.49 85.7266C44.2596 85.6498 44.0139 85.573 43.7068 85.4963C42.9389 85.2966 42.555 85.0663 42.3246 84.9127C42.3093 84.8973 42.2786 84.882 42.2632 84.882C42.2479 84.882 42.2325 84.8973 42.2018 84.9127C42.2478 84.9434 42.2939 85.312 42.9543 86.4484L42.985 86.4945C43.3996 86.7248 45.2732 87.0627 46.8396 87.2469L47.546 87.3237L47.331 88.0148C46.7935 89.7194 45.4267 94.434 45.4882 95.8161C45.5342 96.8143 48.9435 101.237 52.2145 104.938L53.2434 106.105L43.2307 104.907L43.0925 104.631C43.0618 104.57 39.8215 98.2579 36.3661 97.8432C34.4004 97.6129 33.7554 98.0429 33.5404 98.304C33.2333 98.7186 33.4637 99.3329 33.4637 99.3482L33.8015 100.162H31.5901C31.1601 100.439 30.8991 100.776 30.7916 101.206C30.5151 102.343 31.3905 103.725 31.4058 103.725L32.9262 106.059L30.5919 104.539C30.5919 104.539 30.423 104.447 30.208 104.524C30.0083 104.6 29.6091 104.861 29.2098 105.829C28.6109 107.318 31.1601 109.3 32.3119 110.006L41.05 109.1L38.1936 110.543C38.1783 110.543 37.1186 111.096 36.4122 112.202C36.2586 112.432 36.274 112.724 36.4429 113.062C36.8115 113.768 37.7483 114.398 38.4854 114.444H38.5161C39.3454 114.444 40.9425 113.001 41.8179 111.956L42.555 111.081L42.8468 112.187C43.0464 112.97 45.0428 114.198 46.9164 115.104L44.3057 109.392L46.9778 112.463C46.9932 112.478 48.9742 114.736 50.0185 115.519C51.032 116.21 61.8126 117.439 63.4251 117.208C63.2562 116.978 62.949 116.64 62.7033 116.379C62.3962 116.041 62.0583 115.688 61.7666 115.319C60.8912 114.214 61.3058 113.108 61.7051 112.033C61.9508 111.357 62.2119 110.666 62.2426 109.852C62.2887 108.608 61.4287 107.027 60.6762 105.614C60.1694 104.677 59.7394 103.863 59.5705 103.203C59.2173 101.744 61.1523 100.239 61.7512 99.8089C63.2408 98.7493 63.6862 99.0411 63.8551 99.1332C64.1008 99.2868 64.2237 99.5786 64.1622 99.8704C64.2697 100.5 66.8958 104.017 67.894 105.353C68.2779 105.86 68.5697 106.259 68.7079 106.459C69.1532 107.103 68.9843 108.025 68.8308 108.931C68.754 109.346 68.6004 110.206 68.7386 110.359C68.8154 110.39 68.8461 110.375 68.8768 110.359C69.1532 110.221 69.4297 109.515 69.5218 109.069L69.614 108.87C69.7522 108.67 70.044 108.455 70.4586 108.44H70.4739C71.1804 108.44 71.9789 109.069 72.9003 110.344C74.0675 111.972 76.4939 112.371 77.5689 112.463C77.6917 111.634 78.0603 110.129 79.1813 109.207C79.9953 108.547 81.0242 108.317 82.2374 108.532C83.727 108.793 84.7559 109.484 85.3088 110.574C86.1534 112.263 85.4931 114.383 84.9863 115.366C84.157 116.932 79.7649 123.935 79.5806 124.227L79.2428 124.887L78.7206 124.349C77.4153 123.013 75.6185 122.353 73.6836 122.507C71.6718 122.66 69.7675 123.689 68.7079 125.179C68.2933 125.762 67.8479 126.591 68.0783 127.267C68.3393 128.004 69.2761 128.296 69.2915 128.296L69.7982 128.45L69.7215 128.956C69.5986 129.709 69.7215 130.308 70.0747 130.753C70.735 131.567 71.9943 131.629 72.0096 131.644L74.1289 131.751L72.3782 132.688ZM74.7125 135.56C74.0828 135.56 73.4993 135.36 72.9464 134.946C71.7793 134.07 71.1957 133.364 71.165 132.704C70.5507 132.55 69.7215 132.227 69.1379 131.506C68.6465 130.891 68.4315 130.139 68.4775 129.248C67.9861 129.018 67.249 128.526 66.9572 127.666C66.6347 126.745 66.8958 125.67 67.7404 124.488C69.0304 122.691 71.2111 121.508 73.5914 121.324C75.6185 121.17 77.5228 121.769 79.0124 123.029C80.1181 121.247 83.3277 116.118 83.9881 114.843C84.372 114.106 84.9249 112.402 84.2952 111.127C83.9267 110.39 83.1895 109.914 82.0838 109.73C81.2085 109.576 80.5174 109.714 79.9799 110.16C78.8281 111.096 78.736 113.108 78.736 113.123L78.7206 113.692H78.1678C77.9989 113.692 73.8832 113.661 72.0096 111.05C71.3032 110.067 70.8579 109.76 70.6582 109.668C70.5047 110.19 70.1668 111.066 69.5065 111.419C69.1532 111.603 68.754 111.618 68.37 111.465C67.3104 111.035 67.5408 109.76 67.7251 108.731C67.8325 108.163 67.9708 107.38 67.8018 107.15C67.6636 106.95 67.3718 106.566 67.0033 106.075C64.5922 102.85 63.5019 101.252 63.164 100.346C62.5958 100.654 61.5823 101.375 61.0448 102.159C60.8298 102.481 60.7223 102.757 60.7683 102.926C60.8912 103.449 61.3058 104.232 61.7666 105.046C62.5958 106.581 63.5326 108.317 63.4865 109.883C63.4558 110.881 63.1487 111.711 62.8722 112.448C62.4883 113.492 62.3194 114.029 62.7648 114.582C63.0412 114.936 63.3483 115.258 63.6401 115.565C64.3926 116.364 64.9762 117.009 64.7458 117.669C64.5462 118.253 63.8705 118.345 63.6555 118.375C62.1351 118.59 50.7403 117.469 49.3888 116.471C49.1585 116.302 48.8821 116.057 48.5903 115.796L49.3274 117.423L47.9299 116.84C47.1314 116.502 43.5685 114.966 42.2171 113.323C41.3571 114.229 39.8061 115.703 38.47 115.611C37.3183 115.55 35.9822 114.659 35.4294 113.584C35.0608 112.862 35.0761 112.141 35.4601 111.557C35.6444 111.281 35.844 111.02 36.0436 110.805L32.0969 111.219L31.928 111.127C31.4212 110.835 27.0291 108.163 28.1655 105.384C28.6109 104.278 29.1944 103.617 29.9162 103.387C29.9316 103.387 29.9469 103.372 29.9623 103.372C29.7012 102.711 29.4709 101.79 29.6859 100.915C29.8855 100.116 30.3923 99.4864 31.1908 99.0411L31.329 98.9643H32.2658C32.2505 98.5497 32.3119 98.0275 32.6651 97.5822C33.3101 96.7375 34.6154 96.4304 36.5658 96.6608C40.2361 97.0908 43.3536 102.466 44.0753 103.802L50.387 104.554C48.3446 102.174 44.4285 97.4133 44.3671 95.8468C44.3057 94.3111 45.5342 90.0419 46.0564 88.3219C42.4628 87.8612 42.1711 87.3391 42.0482 87.1394L41.9868 87.0319C41.4954 86.1873 40.9886 85.2198 41.1882 84.498C41.265 84.2216 41.4339 84.0066 41.6796 83.8684C42.2939 83.5152 42.6318 83.6688 43.0003 83.8991C43.2 84.022 43.461 84.1909 44.0446 84.3291C44.3671 84.4059 44.6589 84.498 44.9046 84.5748C45.7492 84.8513 45.8567 84.882 46.3789 84.283C46.5017 84.1295 46.6707 83.7916 46.8396 83.4384C47.7456 81.5188 49.4042 77.956 56.5298 78.4628C63.0872 78.9388 66.9879 81.657 68.6465 82.8241C68.8922 82.9931 69.1532 83.1774 69.2761 83.2541C69.6754 83.2388 70.0286 83.1159 70.1361 82.9624C70.2282 82.8241 70.1361 82.5784 70.0747 82.4249C69.5218 81.3499 58.8334 71.2296 51.9842 64.9026C50.4638 65.7626 44.8278 68.7572 42.0789 68.5729C41.48 68.5268 41.0039 68.4193 40.6354 68.2197C40.0211 69.2332 39.0382 70.17 37.5179 70.4311C35.8901 70.7075 35.2297 70.0932 34.9686 69.525C34.9226 69.4329 34.8919 69.3254 34.8612 69.2332C34.1854 69.8629 33.218 70.7536 31.8358 72.0128L31.713 72.1203L31.544 72.1511C30.9758 72.2586 29.6091 72.3968 29.1023 71.6903C28.918 71.4446 28.7798 71.0146 29.133 70.385C29.348 70.0011 29.6398 69.5711 29.9316 69.1411C30.1312 68.8493 30.4076 68.45 30.5919 68.1275C29.3019 68.5268 26.7373 69.7861 25.217 70.6L25.0788 70.6768H24.9252C24.0806 70.6461 21.2702 70.4771 20.6406 69.2332C20.5177 68.9875 20.3795 68.5115 20.7327 67.9125V67.8818C19.9188 67.6668 18.5521 67.1908 17.9992 66.3001C17.7535 65.9161 17.6767 65.4708 17.7842 65.0254L17.3542 64.8872L17.5692 64.2115C16.5403 63.9044 14.6207 63.1672 14.2521 61.8005C14.0218 60.9558 14.3903 60.0958 15.3424 59.2358L15.7571 58.8673C18.6442 56.2412 19.9649 55.0434 24.4645 56.5791C27.2748 57.5312 27.7662 58.9594 27.9198 59.7273C27.9352 59.7273 27.9505 59.7273 27.9659 59.7273C32.8033 59.2359 36.0129 58.5294 37.5025 57.6234C39.9597 56.1184 43.1693 53.5998 43.891 52.8474L43.3843 51.0967C41.3725 50.3135 32.2505 46.6124 30.5919 43.0343L25.7545 42.3125C24.0191 41.1914 23.2206 40.27 23.3741 39.5789C23.4202 39.3486 23.6199 38.9339 24.357 38.8418C24.7256 38.7957 25.0173 38.719 25.2784 38.6422L19.5195 36.9068C18.3985 36.0468 18.1528 35.7243 18.3063 35.2944L18.4446 34.8951L18.9206 34.8797C19.1663 34.8029 20.6252 34.0811 21.562 33.5437C20.9785 33.4669 20.2874 33.4054 19.9803 33.3901L19.7653 33.3747C17.9531 33.2212 15.8492 32.3919 15.8492 30.549C15.8492 30.0269 15.7571 29.6123 15.6957 29.2591C15.5421 28.4912 15.3732 27.6927 16.5096 26.9862C16.9703 26.6945 16.9703 26.6484 17.001 26.2798C17.0164 25.942 17.0471 25.4813 17.3235 24.8055C17.4924 24.3756 17.4617 24.0684 17.4464 23.7766C17.3542 22.7477 17.7842 22.3484 19.1663 22.1949C19.4581 22.1641 19.6731 22.1488 19.842 22.1334C19.8881 22.1334 19.9342 22.1181 19.9803 22.1181C20.057 21.857 20.2106 21.4884 20.6099 20.9356C21.7002 19.4306 23.3281 19.2003 24.5873 18.9699C25.1555 18.8624 25.7698 18.7703 26.3841 19.016C28.2423 19.7224 28.488 20.1063 28.5955 21.2888C28.6109 21.5038 28.6416 21.7649 28.703 22.0874C28.7951 22.6095 28.7491 23.2852 28.6877 24.0684C28.5494 25.9573 28.3959 28.2916 30.1158 29.5662C32.5269 31.3323 36.8422 33.3287 40.6354 33.559C42.985 33.6972 45.611 32.2537 47.7456 31.0865C48.836 30.4876 49.7728 29.9808 50.5713 29.7044L51.6924 29.3205C53.2127 28.783 54.7484 28.2609 56.1459 27.8155C55.4241 27.6312 54.7484 27.3548 54.2109 26.9095C53.4891 26.3105 53.1206 25.512 53.1052 24.5291C53.0745 23.2084 53.6581 22.5327 54.1495 22.1949C55.7159 21.1352 58.5109 22.0413 59.5091 22.4099C60.2462 21.8109 60.9526 21.0431 61.1369 20.5824C60.2769 20.306 57.0212 20.3674 54.2723 20.6131L54.0574 20.6285L53.8731 20.4902C53.7656 20.4135 51.3392 18.6013 51.6924 16.4821C51.9227 15.1153 51.846 14.9771 51.3852 14.1478L51.1549 13.7178C50.6635 12.781 50.6635 11.6446 51.1549 10.8154C51.5542 10.155 52.2145 9.78644 53.0284 9.78644H60.0926C60.7376 8.72681 62.0276 6.97612 63.2255 7.52897C64.0087 7.89753 64.9608 8.43503 65.3447 8.65002C67.2183 8.45038 69.0457 8.00503 69.3068 7.68254C69.2915 7.57504 69.3222 7.29861 69.3529 6.97612C69.4297 6.3772 69.5832 5.01043 69.4911 4.56507C69.3068 4.44222 69.184 4.24258 69.1686 4.01222C69.1379 3.50544 69.66 3.04473 70.1822 2.82974C71.1957 2.4151 72.3014 2.7376 73.1307 3.68973C74.2671 4.99507 75.3882 6.63826 75.9564 7.51361L78.0449 5.65542L78.4289 6.23898C78.9817 7.08362 81.7306 11.3375 81.8842 12.4586C82.0224 13.4107 82.2681 18.5553 82.3295 19.7531C82.8363 20.2445 84.1109 21.6881 84.4949 24.0377C84.7252 25.4198 84.587 28.2609 84.4488 31.0251C84.3413 33.129 84.2184 36.0008 84.4027 36.4615C84.4795 36.5536 84.7099 36.784 84.9709 37.0604C86.2609 38.3965 88.027 40.2239 87.2437 41.4371C86.522 42.5428 84.8481 41.6828 83.4967 40.9918C83.3584 40.9304 83.2049 40.8382 83.0667 40.7768C82.8824 41.4525 82.5292 42.4507 82.1606 43.065C82.1145 43.1418 82.0377 43.2493 81.9456 43.3875C81.147 44.616 78.736 48.3631 78.7974 52.2484C78.8128 53.4616 78.7206 54.7209 77.8453 54.9513C77.446 55.0588 77.0467 54.8745 76.6935 54.5827C76.8778 57.6387 77.6456 63.9658 80.932 68.5882C86.8291 76.8656 89.3937 82.3481 89.148 86.2334C90.0387 86.648 92.6341 87.6769 95.7515 87.1241C96.1815 87.0473 96.5808 86.9705 96.9801 86.9091C100.297 86.3409 102.14 86.0337 102.8 82.947C103.184 80.4131 90.0694 35.7243 88.6873 31.194C87.7505 28.1687 88.5337 24.5445 88.5645 24.3909L88.6412 24.2066C88.8255 23.9148 88.9944 23.5923 89.1787 23.2545C90.3459 21.0892 91.9583 18.1406 97.4868 19.9835C102.893 21.7802 104.459 21.4731 104.474 21.4731L105.58 21.2274L105.165 22.2716C105.089 22.4559 104.996 22.6556 104.874 22.8552C105.964 22.9166 107.085 23.1777 107.715 23.7766C108.329 24.3602 108.943 25.5273 109.634 26.8787C110.448 28.4451 111.661 30.7948 112.46 30.7948C112.997 30.7948 113.458 30.718 113.873 30.6565C114.548 30.549 115.132 30.4569 115.577 30.8255C115.869 31.0558 116.023 31.4244 116.038 31.9465C116.069 32.5608 115.854 33.0676 115.408 33.4208C114.963 33.774 114.318 33.9276 113.627 33.9737C114.103 34.4344 114.426 35.0179 114.395 35.7397C114.38 36.3079 114.134 36.9222 113.857 37.6286C113.028 39.7325 111.907 42.6043 115.501 46.3821C116.053 46.9656 115.931 47.411 115.823 47.6413C115.654 47.9485 115.193 48.2863 114.072 48.0406C113.028 47.8103 111.677 47.1653 110.602 46.0442L110.847 47.6721L110.033 47.5185C109.957 47.5031 102.816 46.1364 102.662 39.5789C101.219 39.0414 96.5501 37.0143 96.9801 33.4054C97.1951 31.578 97.8401 30.0576 98.3622 28.8444C98.7308 27.9691 99.1608 26.9555 98.915 26.7559C97.9015 25.942 95.3983 25.0052 94.3694 25.9112C93.878 26.372 93.2483 31.3015 99.1608 47.0271C99.3911 47.626 99.7597 48.532 100.251 49.7145C103.799 58.2223 113.212 80.8431 107.669 90.0266C106.225 92.4069 103.906 93.7583 100.743 94.0501C100.62 94.0654 88.718 94.864 86.6448 93.8044C86.2302 94.1883 85.4009 95.8315 84.9402 97.9354C84.5563 99.7168 84.6331 101.145 85.1399 101.759C85.6927 102.435 87.167 103.971 88.8102 103.894C89.8391 103.832 90.8066 103.141 91.6819 101.821C92.0658 101.237 92.6494 100.469 93.4019 100.592C93.709 100.638 94.1083 100.853 94.308 101.575C94.5844 102.558 94.4155 104.585 93.8012 106.551C93.8472 106.551 93.878 106.535 93.924 106.551C94.2926 106.551 94.6151 106.735 94.8301 107.073C95.859 108.67 94.9837 114.813 93.448 116.732C92.849 117.485 92.0044 118.283 91.2826 118.99C90.7605 119.497 90.0848 120.142 89.7776 120.541C90.008 120.556 90.3151 120.556 90.5301 120.556C91.2826 120.556 91.9891 120.541 92.3576 121.002C92.5419 121.232 92.6033 121.524 92.5265 121.815C92.2501 122.998 89.9466 126.929 87.4127 127.359C87.0748 127.421 86.8291 127.559 86.6602 127.789C86.1995 128.45 86.4452 129.724 86.522 130.139C86.5527 130.293 86.568 130.4 86.568 130.446C86.5834 130.446 86.9059 132.289 85.9077 133.395C85.3395 134.009 84.5256 134.27 83.4506 134.178C82.5445 134.086 81.8381 133.702 81.3467 133.026C80.8553 132.35 80.671 131.475 80.6249 130.676L78.5978 133.272C78.5517 133.349 77.0774 135.314 75.2039 135.606C75.0196 135.56 74.866 135.56 74.7125 135.56Z" fill="white"/>
<path d="M72.04 74.4512C72.6235 75.6337 73.0382 76.8469 73.2532 78.1368C73.3607 78.7818 73.4068 79.4575 73.3146 80.1332C73.2532 80.8089 73.0228 81.5 72.6082 82.0682C72.4085 82.3754 72.1475 82.6057 71.8864 82.8207C71.6253 83.0357 71.4103 83.1893 71.18 83.3889C70.7346 83.7882 70.3046 84.2028 69.89 84.6635C69.0761 85.5696 68.3082 86.5217 67.6172 87.5507C66.2351 89.5778 65.114 91.8045 64.4076 94.1542C63.7012 96.5038 63.5937 99.0837 64.4536 101.433C63.5015 99.1298 63.5015 96.5038 64.1158 94.0774C64.7301 91.651 65.7743 89.3474 67.1104 87.2282C67.7707 86.1532 68.5232 85.155 69.3218 84.1721C69.7364 83.6961 70.1664 83.2354 70.6271 82.79C70.8575 82.5904 71.1493 82.36 71.3489 82.1604C71.5486 81.9761 71.7482 81.7918 71.8711 81.5614C72.47 80.6707 72.4546 79.4422 72.2243 78.3211C71.9939 77.1847 71.5332 76.0329 70.9804 75.0194L72.04 74.4512Z" fill="white"/>
<path d="M49.4187 65.973C49.3572 65.973 49.2958 65.973 49.2344 65.9577L49.2958 65.3741C50.6933 65.5277 53.2272 62.7634 54.0872 61.6731C54.1793 61.5656 54.3329 61.5349 54.4557 61.5963C54.4865 61.6117 57.4657 63.1781 61.1207 62.5331C64.5913 61.9188 65.9428 54.9007 65.8506 54.3017L66.4188 54.1328C66.557 54.5475 65.9888 57.9413 64.5146 60.4292C63.5931 61.9956 62.4874 62.9016 61.2282 63.1166C57.9111 63.7002 55.1929 62.5945 54.4097 62.2259C53.7186 63.0859 51.2308 65.973 49.4187 65.973Z" fill="white"/>
<path d="M75.4804 20.6561C75.3576 20.6561 75.2194 20.6101 75.1119 20.5333L72.793 18.7365L73.5147 17.7997L75.4958 19.3354C76.8626 18.3986 77.6151 17.3083 77.7379 16.0797C77.9529 14.0987 76.5554 12.1944 75.8336 11.3652C75.0812 12.1484 74.2672 12.9469 73.8526 13.0698L73.484 11.9487L73.6683 12.5169L73.4533 11.9641C73.699 11.8412 74.6665 10.9045 75.4037 10.0905C75.5112 9.96768 75.6647 9.90625 75.8183 9.90625C76.0179 9.90625 76.1254 9.96768 76.2483 10.0752C76.3711 10.198 79.2583 13.0084 78.9204 16.218C78.7361 17.9379 77.6765 19.3969 75.7722 20.5793C75.6954 20.6254 75.5879 20.6561 75.4804 20.6561Z" fill="white"/>
<path d="M75.0196 14.9252L74.1289 14.142L75.3267 12.7906C75.4803 12.6216 75.726 12.5448 75.941 12.6216L78.1064 13.2973L77.7531 14.4338L75.941 13.8809L75.0196 14.9252Z" fill="white"/>
<path d="M60.1383 10.8594C60.2304 12.779 60.3533 14.6986 60.4301 16.6182L60.2458 16.3111C61.1825 16.7564 62.0732 17.2325 62.9486 17.77C63.8239 18.3075 64.7146 18.8604 65.4979 19.6282C66.2811 20.396 66.8493 21.5171 66.8493 22.6689C66.8646 23.8053 66.3578 24.9264 65.5132 25.556L65.4211 25.4792C65.8971 24.5885 66.0353 23.621 65.8664 22.7457C65.6975 21.8703 65.2368 21.1178 64.6225 20.4421C63.3479 19.06 61.6279 17.9082 59.9233 16.91L59.8926 16.9254C59.7851 16.8639 59.7236 16.7411 59.7236 16.6336C59.7851 14.714 59.9233 12.7944 60.0154 10.8747H60.1383V10.8594Z" fill="white"/>
<path d="M62.5489 21.8516C62.5028 22.3123 62.2878 22.6808 62.0268 23.0033C61.8886 23.1569 61.735 23.3105 61.5354 23.418C61.3511 23.5255 61.1207 23.633 60.875 23.5715C61.0286 23.3873 61.1207 23.2337 61.2282 23.0801C61.3357 22.9112 61.4586 22.773 61.5814 22.6194C61.8425 22.3276 62.1189 22.0512 62.5489 21.8516Z" fill="white"/>
<path d="M64.2235 21.8516C64.5153 22.1433 64.6535 22.5119 64.761 22.8958C64.8532 23.2798 64.8378 23.6637 64.7917 24.063C64.6689 24.4469 64.546 24.8462 64.2696 25.1533C64.0085 25.4758 63.64 25.7062 63.2407 25.7676L63.21 25.7215C63.7628 25.2762 64.1007 24.6312 64.2082 23.9401C64.3464 23.2644 64.3157 22.5426 64.1621 21.8669L64.2235 21.8516Z" fill="white"/>
<path d="M60.0769 12.0586C60.0769 12.0586 60.9983 13.0722 61.1672 12.9493C61.1672 12.9493 64.684 13.0568 65.4672 13.3639C66.2504 13.6557 66.6497 13.9475 66.6804 14.7614C66.6804 14.7614 65.375 14.1011 64.1004 14.0704C62.8258 14.0396 61.3515 14.0704 61.1519 14.1471C60.9522 14.2239 60.0615 15.5753 60.0615 15.5753V12.0586H60.0769Z" fill="white"/>
<path d="M43.7989 51.5085C43.7682 51.1706 43.1539 43.2157 43.4918 40.2979C44.0446 35.4144 46.8857 31.7901 51.9381 29.502L52.1838 30.0394C47.331 32.2201 44.6128 35.6908 44.0907 40.3593C43.7682 43.2157 44.3978 51.3703 44.4132 51.4471L43.7989 51.5085Z" fill="white"/>
<path d="M48.0527 49.9879C44.8891 38.6851 51.8151 34.2163 51.8919 34.1855L52.199 34.6923C52.1376 34.7384 45.5802 38.9923 48.6209 49.8343L48.0527 49.9879Z" fill="white"/>
<path d="M75.7107 45.461C75.6953 45.461 75.68 45.461 75.6492 45.461C75.511 45.4763 75.4189 45.5531 75.3882 45.7067C75.2807 46.1827 75.1885 46.536 75.0196 46.8431C75.2039 46.6435 75.4189 46.4592 75.6032 46.3056C75.7721 46.1674 75.9103 46.0292 76.0485 45.891C76.1714 45.7528 76.1407 45.6913 76.1253 45.6606C76.0792 45.5531 75.895 45.461 75.7107 45.461ZM76.7703 54.2452C76.6935 54.1223 74.7432 51.2813 74.2978 49.4538C74.0982 48.6399 74.2364 48.0102 74.5282 47.5034C74.4207 47.6109 74.3132 47.7031 74.175 47.8106C73.745 48.1484 73.2996 48.7474 72.9157 49.2695C72.6546 49.6074 72.4396 49.9145 72.2554 50.0988C72.0404 50.3138 72.1632 50.9741 72.3168 51.358C72.3629 51.4655 72.3321 51.6038 72.24 51.6805C72.1479 51.7573 72.025 51.788 71.9175 51.742C71.9021 51.742 71.4721 51.5577 70.8579 51.7573C70.1361 51.9877 69.1993 50.9741 68.754 50.3906C68.4468 50.7591 67.8633 51.3273 66.9726 51.742C65.6058 52.3716 64.6844 52.3716 63.333 51.742C62.3962 51.2966 62.3348 50.8666 62.3348 50.2984C62.3348 50.0834 62.3348 49.8684 62.258 49.6227C62.1351 49.2541 61.9969 49.2234 61.6591 49.1466C61.3826 49.0852 61.0448 49.0084 60.6762 48.7166C60.5226 48.6091 60.4612 48.5938 60.4612 48.5938C60.4612 48.6091 60.3998 48.7013 60.3691 48.7781C60.2309 49.0084 60.0312 49.3463 59.5705 49.5152C59.5091 49.5306 59.4937 49.5459 59.4937 49.5459C59.5091 49.5613 59.5551 49.6688 59.5859 49.7302C59.6626 49.9145 59.7701 50.1448 59.6166 50.3752C59.4476 50.6209 59.0791 50.6209 58.6952 50.5748C58.1116 50.5134 57.697 50.3445 57.4973 50.0681C57.1595 50.2523 56.622 50.4673 55.7466 50.7131C53.8424 51.2659 52.3988 50.6209 52.0763 50.1756C51.9227 49.9452 52.0149 49.7609 52.0609 49.7148C52.2452 49.4538 52.6599 49.5766 52.8134 49.6227C52.967 49.6688 53.1052 49.6381 53.2588 49.5306C53.9191 49.0391 54.3338 47.2577 54.3338 46.2442C54.3338 45.2153 52.8595 44.8928 52.8442 44.8928C52.7213 44.862 52.6292 44.7699 52.6138 44.6471C51.3238 34.3579 57.5587 32.1618 57.6202 32.1465L57.8045 32.7147C57.5741 32.7915 52.0456 34.7725 53.1667 44.386C53.6734 44.5396 54.9173 45.0463 54.9173 46.2595C54.9173 47.227 54.5334 49.3309 53.612 50.022C53.5045 50.0988 53.3816 50.1602 53.2741 50.2063C53.8116 50.3598 54.6102 50.452 55.5931 50.1602C56.6988 49.8377 57.1748 49.6073 57.3591 49.4845C57.3898 49.3156 57.4512 49.2081 57.4666 49.1774C57.5127 49.1006 57.5741 49.0545 57.6509 49.0391C57.7277 49.0238 57.8198 49.0391 57.8812 49.0852C57.9887 49.1466 58.0962 49.3002 58.0655 49.4999C58.0502 49.5613 58.0348 49.6381 57.9734 49.7148C58.0195 49.7916 58.1884 49.9452 58.7719 50.0066C58.9102 50.022 59.0177 50.022 59.0791 50.022C59.0791 50.0066 59.0791 50.0066 59.0637 49.9913C58.9869 49.807 58.8794 49.5766 58.9869 49.3156C59.0484 49.162 59.1866 49.0391 59.3862 48.9624C59.6473 48.8702 59.7548 48.6859 59.8776 48.4863C59.9851 48.302 60.1234 48.087 60.3844 48.0256C60.6301 47.9795 60.8912 48.1331 61.0448 48.2559C61.3212 48.4709 61.5669 48.517 61.8126 48.5784C62.1812 48.6706 62.6112 48.7627 62.8415 49.4384C62.9644 49.7916 62.949 50.0834 62.949 50.3138C62.949 50.7284 62.9337 50.9127 63.6094 51.2198C64.7919 51.788 65.529 51.788 66.7422 51.2198C67.9554 50.6516 68.5236 49.7609 68.5236 49.7609C68.5697 49.6688 68.6618 49.6227 68.7693 49.6227C68.8768 49.6227 68.969 49.6688 69.015 49.7456C69.5679 50.5288 70.3972 51.2966 70.7043 51.2045C71.0729 51.097 71.3954 51.0816 71.6411 51.097C71.5489 50.667 71.5029 50.0527 71.8561 49.6995C72.0096 49.5459 72.2246 49.2541 72.455 48.9316C72.8696 48.3788 73.3303 47.7492 73.8218 47.3499C74.4975 46.8124 74.6203 46.5206 74.8353 45.5685C74.9275 45.1692 75.2192 44.9081 75.6032 44.862C76.0332 44.816 76.4939 45.031 76.6782 45.3842C76.8317 45.676 76.7549 46.0138 76.4939 46.2902C76.3557 46.4438 76.1867 46.582 76.0178 46.7356C75.296 47.3652 74.5589 48.0256 74.8814 49.3002C75.3114 51.0202 77.2464 53.8766 77.2771 53.9073L76.7703 54.2452Z" fill="white"/>
<path d="M61.0296 48.7325L60.7071 48.2411C60.7379 48.2257 63.4407 46.3983 62.9493 44.7551C62.811 44.3097 62.2735 44.2483 61.2446 44.1869C60.8761 44.1561 60.4614 44.1408 60.0468 44.0794L59.5093 44.0026C58.8797 43.9258 58.8643 43.9104 58.1118 43.6186C57.82 43.4958 57.39 43.3269 56.7604 43.0965C56.0386 42.8201 55.5779 42.4208 55.3936 41.914C55.1172 41.1155 55.6086 40.2555 55.9465 39.6719C56.054 39.503 56.1922 39.2573 56.1922 39.1805C56.269 38.5969 63.6864 31.8859 69.906 26.3574L70.3052 26.8028C65.0685 31.4713 57.129 38.643 56.7758 39.3187C56.7758 39.4569 56.6375 39.6719 56.4686 39.979C56.1768 40.4858 55.7776 41.1769 55.9618 41.7144C56.0847 42.0522 56.4225 42.3287 56.9754 42.5283C57.6204 42.774 58.035 42.9429 58.3422 43.0658C59.0332 43.3422 59.0332 43.3422 59.5861 43.419L60.1236 43.4958C60.5382 43.5572 60.9221 43.5879 61.2907 43.6033C62.3503 43.6801 63.2564 43.7415 63.5175 44.6015C64.1164 46.644 61.1525 48.6404 61.0296 48.7325Z" fill="white"/>
<path d="M69.0452 49.9543L68.4616 49.8621C68.4616 49.8314 69.0452 46.2379 68.738 44.8097C68.5691 44.0725 68.2005 43.8883 67.5095 43.5658C67.0027 43.32 66.3577 43.0129 65.6513 42.3833C64.2384 41.1394 64.5763 39.1583 64.7759 37.9758C64.822 37.6687 64.8681 37.4076 64.8681 37.254C64.8527 36.3941 68.9069 32.5702 70.6576 30.973C70.6884 30.9423 70.7191 30.927 70.7498 30.9116C72.1473 30.3588 72.7615 27.5484 72.8844 26.5195L73.468 26.581C73.4526 26.7499 72.9919 30.5891 71.0108 31.4338C68.3387 33.8909 65.5438 36.7166 65.4516 37.2387C65.4516 37.4383 65.4056 37.6994 65.3595 38.0526C65.1752 39.1737 64.8834 40.8783 66.0505 41.9072C66.6955 42.4908 67.2637 42.7518 67.7705 42.9975C68.4923 43.3354 69.1066 43.6272 69.3216 44.6561C69.6441 46.2072 69.0605 49.8007 69.0452 49.9543Z" fill="white"/>
<path d="M75.219 46.3813L74.6508 46.2277C74.6508 46.2277 74.8197 45.5827 74.8351 44.5077C74.8504 43.4635 74.1901 42.5881 72.9615 41.3596C71.8251 40.2232 71.9019 39.3324 71.994 38.3803C72.0247 38.1039 72.0401 37.8275 72.0401 37.5203C72.0401 36.5989 73.1458 35.57 74.4204 34.3875C75.2958 33.5889 76.2018 32.7443 76.77 31.9304C78.0754 30.0261 77.6607 25.588 77.6454 25.5419L78.2289 25.4805C78.2443 25.6648 78.6743 30.1797 77.2461 32.2529C76.6472 33.1282 75.7104 33.9882 74.8197 34.8175C73.7447 35.8157 72.6237 36.8446 72.6237 37.505C72.6237 37.8275 72.5929 38.1346 72.5622 38.4264C72.4701 39.3324 72.4087 39.9928 73.3608 40.9296C74.7122 42.281 75.434 43.2485 75.4186 44.5077C75.4033 45.6749 75.219 46.3506 75.219 46.3813Z" fill="white"/>
<path d="M76.5244 46.2433L76.0176 45.9515C80.9318 37.3516 80.64 26.786 80.4404 23.7607C80.4404 23.6686 80.425 23.6072 80.425 23.5918H81.0239H80.7322H81.0239V23.73C81.2236 26.786 81.5154 37.5052 76.5244 46.2433Z" fill="white"/>
<path d="M43.3535 54.4893L43.0156 54.0132C43.0924 53.9671 50.0184 49.0683 52.6444 44.4612L53.1512 44.753C50.4638 49.4522 43.6453 54.2743 43.3535 54.4893Z" fill="white"/>
<path d="M25.37 1.99719L26.9979 3.82466C27.6582 3.17967 29.3475 2.36575 30.1921 2.08933C29.5932 1.55183 28.2878 0.645773 27.6582 0.630416C26.9979 0.599702 25.9229 1.47505 25.37 1.99719ZM26.8596 4.40823L24.5254 1.9204L24.725 1.79754C24.9093 1.61326 26.4911 0.0314941 27.6429 0.0314941H27.6889C28.8407 0.077565 30.4839 1.67469 30.6682 1.85897L31.0214 2.21218L30.5453 2.3504C29.2707 2.73432 27.3664 3.50217 27.1207 4.0243L26.8596 4.40823Z" fill="white"/>
<path d="M22.9592 19.6576C21.8842 19.6576 20.8553 19.5194 20.0875 19.3812C17.3232 18.8744 16.3711 17.0008 15.3575 15.0044L15.0965 14.513C14.6665 13.6991 14.2979 12.8237 13.9447 11.9791C13.3611 10.597 12.8083 9.27627 12.1326 8.52378C11.2265 7.51022 9.44511 7.35665 8.46226 7.35665H7.58691L8.29333 6.81915C8.43155 6.71166 11.7179 4.23918 13.8372 4.13169C14.0983 3.19491 14.8968 1.78207 16.325 1.90493C17.6457 2.02778 18.7514 2.41171 19.2428 2.61135C19.5193 2.02778 20.3025 0.737797 21.6385 0.4153C22.6982 0.154232 23.8499 0.553513 25.0478 1.61314L27.2285 3.88597L26.7985 4.30061L24.6485 2.04314C23.6196 1.13708 22.6367 0.783868 21.7921 0.983508C20.3946 1.32136 19.6882 3.08741 19.6882 3.10277L19.5807 3.39455L19.2889 3.25634C19.2736 3.25634 17.9222 2.64206 16.279 2.48849C14.8354 2.35028 14.3747 4.45418 14.3747 4.46954L14.3286 4.71525L14.0829 4.69989C12.6701 4.63847 10.4894 6.02059 9.38368 6.78844C10.4587 6.88058 11.8101 7.20308 12.624 8.1245C13.3611 8.95377 13.9293 10.3052 14.5283 11.7487C14.8815 12.578 15.25 13.4534 15.6647 14.2519L15.9257 14.7587C16.9086 16.6937 17.7532 18.3522 20.2411 18.8129C23.6196 19.4426 26.3224 18.9512 27.6738 17.5076C28.7795 16.3098 30.2384 13.8066 30.8527 11.1345C30.9449 10.8273 32.8798 4.0549 35.813 3.65562C34.1545 3.0567 31.6666 2.27349 30.7452 2.56528L30.5609 1.99707C30.6684 1.96635 30.7299 1.93564 30.8681 1.92028C32.6956 1.736 36.6576 3.31777 37.1337 3.51741L38.1626 3.9474L35.8898 4.23918C33.7859 4.53097 31.9584 9.41448 31.4209 11.2727C30.6838 14.4516 28.9945 16.9394 28.1038 17.9069C26.7831 19.2737 24.7867 19.6576 22.9592 19.6576Z" fill="white"/>
<path d="M25.4624 14.2793C22.606 5.84837 16.064 4.81946 14.129 4.71196C14.0676 4.71196 14.0368 4.71196 14.0215 4.6966L14.1136 4.11304L14.0676 4.40482L14.0983 4.11304C16.2022 4.23589 23.0514 5.31088 26.0153 14.0797L25.4624 14.2793Z" fill="white"/>
<path d="M23.5428 9.32L22.9746 9.13572C22.99 9.07429 24.8328 3.45364 30.7913 1.90259L30.9449 2.4708C25.3089 3.94506 23.5582 9.27393 23.5428 9.32Z" fill="white"/>
<path d="M19.9492 19.1648L17.5996 21.5912L20.886 20.378L21.5157 22.0058L22.9438 20.3166V24.509C22.9438 24.509 23.3892 26.9047 22.9438 26.9815C22.4985 27.0583 22.1146 27.2118 21.8535 26.6436C21.5924 26.0754 19.7189 23.388 17.5843 23.9101C15.4497 24.4322 15.035 25.9372 16.2021 27.2733C17.3539 28.6247 17.8453 28.9932 19.6575 29.2236C21.4696 29.454 21.7767 29.5615 21.7767 29.5615C21.7767 29.5615 21.6999 32.8171 20.9935 33.1089C20.2871 33.4007 19.3042 32.4332 18.521 31.65C17.7378 30.8668 16.54 30.1604 14.8968 30.1604C13.2536 30.1604 12.3936 31.8496 13.1768 32.8478C13.96 33.8614 14.7893 34.7982 16.1714 35.09C17.5536 35.3817 18.1525 35.5046 19.0893 35.5046H20.3639L18.6746 41.5552C18.6746 41.5552 14.2672 37.286 13.2536 35.3817C12.24 33.4775 8.7233 28.9472 9.3683 28.9472C9.62936 28.9472 10.5661 29.0547 11.979 27.8568C13.4072 26.659 14.3286 25.799 14.4822 25.1694C14.6357 24.5397 15.2347 22.5894 14.4514 22.098C13.6682 21.6065 11.2418 21.1612 9.73686 24.079C8.24724 26.9968 8.76937 27.519 8.76937 27.519C8.76937 27.519 7.57153 26.6897 7.57153 25.799C7.57153 24.9083 8.24724 23.9715 7.57153 22.6969C6.89582 21.4223 5.77477 18.6887 4.13157 18.9959C2.48838 19.2876 2.18124 20.7466 2.22731 21.3148C2.25802 21.883 2.15052 23.1883 3.05658 24.1558C3.94729 25.1233 4.85335 25.9833 5.48298 26.3211C6.11262 26.659 6.68083 26.7358 6.86511 27.4729C7.04939 28.2254 7.23368 28.4865 7.23368 28.4865C7.23368 28.4865 6.74226 27.9643 4.99156 27.9183C3.24087 27.8875 0.507329 27.6572 0.0619771 29.8686C-0.383375 32.08 1.78196 32.3718 2.19659 32.3718C2.61123 32.3718 5.71334 31.9571 7.27975 30.7286C8.84616 29.5 8.99973 31.1432 8.99973 31.1432L9.96722 32.6789C9.96722 32.6789 5.06835 32.1107 3.16408 34.1378C1.25982 36.1649 3.0873 37.3474 3.73229 37.3935C4.36193 37.4242 6.34297 37.5471 6.88047 37.3628C7.4026 37.1785 8.49295 36.4721 9.38365 35.6735C10.2744 34.8903 10.1669 33.6925 10.7965 34.2453C11.4261 34.8135 12.2247 36.5642 12.2247 36.5642C12.2247 36.5642 6.46583 36.3032 5.75941 39.3746C5.05299 42.4459 9.27615 41.6935 9.38365 41.5399C9.49115 41.3863 12.4858 38.8063 13.1922 38.6528C13.8986 38.4992 14.6204 38.8831 14.9889 39.9274C15.3575 40.9717 7.4026 42.4306 10.1208 45.978C10.259 46.1623 11.0883 46.6845 12.409 46.3466C13.7143 46.0088 15.4343 44.2581 15.8796 43.1984C16.325 42.1542 16.11 41.1867 16.7396 41.4785C17.3693 41.7702 18.0143 43.0449 18.0143 43.0449C18.0143 43.0449 17.5228 45.7323 17.5689 47.9437C17.5996 50.1551 17.9068 55.5301 17.9068 55.5301L18.0603 57.1426L19.55 56.989C19.55 56.989 18.0143 46.6998 19.55 43.9816L19.8417 43.6131C19.8417 43.6131 25.4931 46.6077 27.167 44.1813C28.8563 41.7549 27.1363 40.8949 26.0767 40.9717C25.0324 41.0485 22.0685 40.296 20.9474 41.417C19.8264 42.5381 20.6096 42.016 20.5328 41.7549C20.456 41.4938 21.2853 38.0539 21.2853 38.0539C21.2853 38.0539 21.7306 39.5435 23.9421 39.5435C26.1535 39.5435 29.2863 39.2056 29.2095 37.4549C29.1327 35.7042 28.6874 34.8442 26.2917 34.8442C23.896 34.8442 21.8842 36.0728 21.8842 36.0728C21.8842 36.0728 21.8535 35.3664 21.9149 35.2435C21.9917 35.136 23.896 26.874 23.896 26.874C23.896 26.874 24.4642 27.8415 26.4759 27.8415C26.4759 27.8415 30.3305 27.2733 31.2213 26.2751C32.112 25.2615 32.4191 24.1097 30.7759 23.5108C29.1327 22.9119 24.9095 24.5244 24.5256 24.939C24.157 25.3536 24.4949 20.4855 24.4949 20.4855L26.3685 21.5758L26.1842 20.0401C26.1842 20.0401 28.3495 21.0076 28.5338 21.0076C28.7181 21.0076 29.5781 20.8541 29.5781 20.8541L26.5067 18.5352L23.6196 19.3184L19.9492 19.1648Z" fill="white"/>
<path d="M18.7668 5.86471C18.2908 5.60364 19.1815 2.73189 19.1968 2.70117L19.7497 2.90081C19.3504 3.99116 19.1815 5.37328 19.1815 5.54221L18.905 5.55757L18.7668 5.86471Z" fill="white"/>
<path d="M100.651 38.2241C100.282 37.1798 101.649 29.2556 101.925 27.6738L102.509 27.7813C101.879 31.3749 100.973 37.3334 101.219 38.0244L100.651 38.2241Z" fill="white"/>
<path d="M105.165 34.0176C105.165 34.0176 103.399 41.2046 104.382 42.8478L102.585 38.425C102.585 38.425 104.013 34.9083 105.165 34.0176Z" fill="white"/>
<path d="M112.368 44.1566C112.368 44.1413 112.153 42.0834 112.076 39.7031C111.984 37.2306 113.52 34.7735 113.581 34.666L114.134 35.0192C114.119 35.0346 112.66 37.4149 112.737 39.6877C112.813 42.0527 113.028 44.0798 113.028 44.0952L112.368 44.1566Z" fill="white"/>
</svg>
