<svg width="352" height="48" viewBox="0 0 352 48" fill="none" xmlns="http://www.w3.org/2000/svg">
<path d="M15.2581 42.9424V47.9033H13.086C10.2704 47.9033 8.07151 47.1793 6.54301 45.6776C5.01452 44.2027 4.23687 42.0575 4.23687 39.2419V13.2307H0V8.40387H4.23687V2.53125H10.2436V8.40387H14.5341V13.2039H10.2436V39.081C10.2436 40.3413 10.5385 41.2798 11.1553 41.9502C11.7721 42.6206 12.657 42.9424 13.8101 42.9424H15.2581Z" fill="white" fill-opacity="0.9"/>
<path d="M44.6748 14.9169C46.6323 16.8208 47.5977 19.6096 47.5977 23.337V38.0588H41.591V24.1147C41.591 21.8622 41.0547 20.1728 40.0089 19.0465C38.9631 17.9203 37.4346 17.3303 35.477 17.3303C33.2513 17.3303 31.5083 18.0007 30.2212 19.3147C28.934 20.6555 28.2904 22.5594 28.2904 25.0532V38.032H22.3105V2.36719H28.3172V15.346C29.3094 14.3001 30.5429 13.4689 31.991 12.9057C33.439 12.3426 35.0748 12.0744 36.8714 12.0744C40.1161 12.0744 42.7172 13.0398 44.6748 14.9169Z" fill="white" fill-opacity="0.9"/>
<path d="M61.7829 18.5921C60.4422 19.7184 59.6377 21.2469 59.3427 23.1508H73.9304C73.6623 21.3005 72.8846 19.772 71.5706 18.6189C70.2567 17.4659 68.6209 16.8759 66.6634 16.8759C64.7327 16.9027 63.0969 17.4659 61.7829 18.5921ZM79.5617 27.1463H59.3963C59.745 29.0502 60.6835 30.5251 62.1584 31.6513C63.66 32.7508 65.5103 33.3139 67.7092 33.3139C70.5248 33.3139 72.8578 32.3754 74.6813 30.5251L77.8991 34.2256C76.7461 35.5932 75.298 36.6391 73.5282 37.3631C71.7584 38.0603 69.774 38.4089 67.5751 38.4089C64.7595 38.4089 62.2656 37.8458 60.1204 36.7195C57.9751 35.5932 56.3126 34.0379 55.1327 32.0268C53.9528 30.0156 53.3896 27.7631 53.3896 25.2156C53.3896 22.7217 53.9528 20.4692 55.1058 18.4581C56.2321 16.4469 57.8142 14.8916 59.8522 13.7653C61.8634 12.6391 64.1427 12.0759 66.6902 12.0759C69.1841 12.0759 71.4366 12.6391 73.3941 13.7385C75.3785 14.8379 76.907 16.3932 78.0064 18.4044C79.1058 20.4156 79.669 22.7217 79.669 25.3497C79.6422 25.7787 79.6153 26.3687 79.5617 27.1463Z" fill="white" fill-opacity="0.9"/>
<path d="M107.424 38.4102C103.83 38.4102 100.988 37.6862 98.8962 36.2381C96.8046 34.7901 95.7588 32.8593 95.7588 30.4728C95.7588 28.6493 96.2415 27.2281 97.18 26.2359C98.1186 25.2437 99.2448 24.5465 100.586 24.1174C101.9 23.6884 103.589 23.3398 105.627 23.018C107.692 22.6694 109.193 22.294 110.186 21.8917C111.178 21.4895 111.66 20.8191 111.66 19.8538C111.66 18.9957 111.205 18.2985 110.293 17.7621C109.381 17.2258 108.04 16.9577 106.271 16.9577C103.535 16.9577 101.095 17.6012 98.8962 18.8884L96.5901 14.3297C97.7163 13.6594 99.1644 13.123 100.907 12.7208C102.677 12.3186 104.447 12.1309 106.19 12.1309C109.649 12.1309 112.411 12.8549 114.449 14.3297C116.487 15.7778 117.506 17.7353 117.506 20.1756C117.506 22.0258 117.024 23.4739 116.031 24.5197C115.066 25.5655 113.886 26.2895 112.572 26.7186C111.231 27.1476 109.515 27.4962 107.397 27.818C105.386 28.1398 103.911 28.4884 102.999 28.837C102.087 29.1856 101.631 29.8292 101.631 30.7141C101.631 32.618 103.428 33.5566 107.021 33.5566C108.603 33.5566 110.186 33.3152 111.821 32.8593C113.43 32.4035 114.825 31.7867 115.978 31.0091L118.284 35.5677C117.104 36.399 115.522 37.0962 113.511 37.6325C111.526 38.142 109.488 38.4102 107.424 38.4102Z" fill="white" fill-opacity="0.9"/>
<path d="M140.514 31.0346C141.962 29.5597 142.686 27.629 142.686 25.2156C142.686 22.8022 141.962 20.8715 140.514 19.3966C139.066 17.9217 137.243 17.1709 135.017 17.1709C132.791 17.1709 130.995 17.9217 129.546 19.3966C128.125 20.8715 127.401 22.8022 127.401 25.2156C127.401 27.629 128.125 29.5597 129.546 31.0346C130.968 32.5094 132.791 33.2603 135.017 33.2603C137.243 33.2603 139.066 32.5094 140.514 31.0346ZM128.018 36.7195C125.926 35.5932 124.317 34.0379 123.138 32.0268C121.958 30.0156 121.395 27.7631 121.395 25.2156C121.395 22.6949 121.984 20.4156 123.138 18.4312C124.317 16.4469 125.926 14.8916 128.018 13.7653C130.11 12.6391 132.443 12.0759 135.044 12.0759C137.672 12.0759 140.031 12.6391 142.123 13.7653C144.215 14.8916 145.824 16.4469 147.003 18.4312C148.183 20.4156 148.746 22.6949 148.746 25.2156C148.746 27.7631 148.157 30.0156 147.003 32.0268C145.824 34.0379 144.215 35.5932 142.123 36.7195C140.031 37.8458 137.672 38.4089 135.044 38.4089C132.443 38.4089 130.083 37.8458 128.018 36.7195Z" fill="white" fill-opacity="0.9"/>
<path d="M159.124 36.7195C157.006 35.5932 155.343 34.0379 154.163 32.0268C152.984 30.0156 152.394 27.7631 152.394 25.2156C152.394 22.6949 152.984 20.4156 154.163 18.4312C155.343 16.4469 157.006 14.8916 159.097 13.7653C161.189 12.6391 163.602 12.0759 166.284 12.0759C168.832 12.0759 171.03 12.5854 172.961 13.6044C174.865 14.6234 176.313 16.0983 177.278 18.029L172.666 20.7106C171.915 19.5307 171.004 18.6458 169.904 18.029C168.805 17.4391 167.598 17.1441 166.284 17.1441C164.032 17.1441 162.181 17.8681 160.706 19.343C159.232 20.791 158.481 22.7486 158.481 25.1888C158.481 27.629 159.205 29.5865 160.68 31.0346C162.128 32.4826 164.005 33.2335 166.284 33.2335C167.598 33.2335 168.805 32.9385 169.904 32.3485C171.004 31.7586 171.942 30.8737 172.666 29.667L177.278 32.3485C176.286 34.2793 174.838 35.7541 172.934 36.7999C171.03 37.8458 168.832 38.3553 166.311 38.3553C163.629 38.4089 161.243 37.8458 159.124 36.7195Z" fill="white" fill-opacity="0.9"/>
<path d="M182.481 12.3722H188.487V38.0615H182.481V12.3722ZM182.749 7.11629C181.998 6.41908 181.649 5.56098 181.649 4.54199C181.649 3.52299 182.025 2.66489 182.749 1.96768C183.473 1.27048 184.411 0.921875 185.484 0.921875C186.583 0.921875 187.495 1.24366 188.219 1.91405C188.97 2.58444 189.319 3.38891 189.319 4.38109C189.319 5.4269 188.97 6.33863 188.246 7.06266C187.522 7.78668 186.61 8.13528 185.484 8.13528C184.411 8.13528 183.5 7.78668 182.749 7.11629Z" fill="white" fill-opacity="0.9"/>
<path d="M209.376 32.9915C210.556 32.2943 211.361 31.3289 211.843 30.0418V27.0384H205.649C202.19 27.0384 200.447 28.1647 200.447 30.444C200.447 31.5435 200.876 32.4016 201.734 33.0452C202.592 33.6887 203.799 34.0105 205.354 34.0105C206.883 34.0105 208.223 33.6887 209.376 32.9915ZM214.874 14.8105C216.885 16.634 217.877 19.3692 217.877 23.0161V38.0865H212.192V34.9491C211.441 36.0753 210.395 36.9334 209.028 37.5234C207.66 38.1133 206.024 38.4083 204.094 38.4083C202.163 38.4083 200.474 38.0865 199.052 37.4161C197.604 36.7457 196.505 35.834 195.7 34.6809C194.923 33.501 194.521 32.187 194.521 30.7122C194.521 28.406 195.379 26.5558 197.095 25.1614C198.811 23.7669 201.519 23.0697 205.193 23.0697H211.843V22.6943C211.843 20.8977 211.307 19.5301 210.234 18.5647C209.162 17.5993 207.553 17.1167 205.434 17.1167C203.986 17.1167 202.565 17.3312 201.171 17.7871C199.776 18.2429 198.596 18.8597 197.631 19.6641L195.271 15.2932C196.612 14.2742 198.248 13.4697 200.125 12.9334C202.029 12.3971 204.013 12.1021 206.132 12.1021C209.966 12.0753 212.862 12.9871 214.874 14.8105Z" fill="white" fill-opacity="0.9"/>
<path d="M231.58 2.36719H225.573V38.0588H231.58V2.36719Z" fill="white" fill-opacity="0.9"/>
<path d="M291.781 2.36719H285.774V38.0588H291.781V2.36719Z" fill="white" fill-opacity="0.9"/>
<path d="M324.549 12.3711V38.0605H318.811V34.789C317.845 35.942 316.639 36.827 315.191 37.4705C313.742 38.0873 312.187 38.4091 310.525 38.4091C307.092 38.4091 304.384 37.4437 302.426 35.5398C300.442 33.6359 299.477 30.7934 299.477 27.0392V12.3711H305.483V26.2348C305.483 28.5409 305.993 30.2571 307.039 31.4102C308.084 32.5365 309.559 33.1264 311.49 33.1264C313.635 33.1264 315.351 32.456 316.612 31.142C317.872 29.8013 318.516 27.8973 318.516 25.4035V12.3711H324.549Z" fill="white" fill-opacity="0.9"/>
<path d="M334.257 37.5776C332.272 37.0413 330.69 36.3441 329.483 35.5128L331.79 30.9541C332.943 31.7318 334.337 32.3485 335.946 32.8044C337.555 33.2603 339.164 33.5016 340.746 33.5016C344.339 33.5016 346.136 32.5631 346.136 30.6592C346.136 29.7742 345.68 29.1307 344.768 28.7821C343.857 28.4335 342.382 28.0849 340.371 27.7631C338.252 27.4413 336.536 27.0659 335.195 26.6636C333.854 26.2346 332.701 25.5106 331.736 24.4648C330.771 23.4189 330.261 21.9709 330.261 20.1206C330.261 17.6804 331.28 15.7229 333.318 14.2748C335.356 12.8268 338.118 12.0759 341.577 12.0759C343.347 12.0759 345.117 12.2636 346.86 12.6659C348.63 13.0681 350.078 13.6044 351.177 14.2748L348.871 18.8335C346.699 17.5463 344.232 16.9027 341.497 16.9027C339.727 16.9027 338.386 17.1709 337.474 17.7072C336.563 18.2435 336.107 18.9407 336.107 19.7988C336.107 20.7642 336.59 21.4346 337.582 21.8368C338.547 22.2391 340.076 22.6145 342.14 22.9631C344.205 23.2849 345.868 23.6603 347.182 24.0625C348.496 24.4916 349.622 25.1888 350.561 26.181C351.499 27.1731 351.982 28.5944 351.982 30.4178C351.982 32.8312 350.936 34.7351 348.844 36.1832C346.753 37.6312 343.91 38.3553 340.317 38.3553C338.279 38.4089 336.241 38.1407 334.257 37.5776Z" fill="white" fill-opacity="0.9"/>
<path d="M260.031 13.0681C261.479 12.4245 265.233 12.0759 267.003 12.0759C269.497 12.0759 271.749 12.6122 273.707 13.7117C275.691 14.8111 277.22 16.3396 278.346 18.324C279.472 20.3083 280.035 22.6145 280.035 25.2156C280.035 27.8167 279.472 30.1229 278.346 32.1072C277.22 34.1184 275.664 35.6737 273.707 36.7463C271.722 37.8458 269.497 38.3821 267.003 38.3821C263.544 38.3821 260.808 37.229 258.77 34.9228V47.3921H252.764V27.4681H258.931C259.092 28.1921 259.36 28.8357 259.682 29.4525C260.353 30.6592 261.264 31.5977 262.417 32.2681C263.57 32.9385 264.858 33.2603 266.306 33.2603C268.531 33.2603 270.328 32.5363 271.776 31.0346C273.197 29.5597 273.921 27.629 273.921 25.2156C273.921 22.8022 273.197 20.8715 271.776 19.3966C270.355 17.9217 268.531 17.1709 266.306 17.1709C264.858 17.1709 263.57 17.4927 262.417 18.1631C261.264 18.8335 260.353 19.772 259.682 20.9787C259.575 21.1664 259.494 21.3541 259.414 21.5418H252.764C252.764 21.5418 254.48 15.4815 260.031 13.0681Z" fill="white" fill-opacity="0.9"/>
</svg>
