<svg width="173" height="173" viewBox="0 0 173 173" fill="none" xmlns="http://www.w3.org/2000/svg">
<g clip-path="url(#clip0_1_25326)">
<path d="M86.5127 -0.414062V172.577" stroke="white" stroke-width="1.08538" stroke-miterlimit="10"/>
<path d="M81.0801 -0.248047L91.947 172.412" stroke="white" stroke-width="1.08538" stroke-miterlimit="10"/>
<path d="M75.6719 0.263672L97.3535 171.897" stroke="white" stroke-width="1.08538" stroke-miterlimit="10"/>
<path d="M70.2998 1.10938L102.718 171.044" stroke="white" stroke-width="1.08538" stroke-miterlimit="10"/>
<path d="M64.998 2.30078L108.022 169.859" stroke="white" stroke-width="1.08538" stroke-miterlimit="10"/>
<path d="M59.7812 3.81641L113.245 168.344" stroke="white" stroke-width="1.08538" stroke-miterlimit="10"/>
<path d="M54.6699 5.6543L118.356 166.507" stroke="white" stroke-width="1.08538" stroke-miterlimit="10"/>
<path d="M49.6816 7.81445L123.347 164.349" stroke="white" stroke-width="1.08538" stroke-miterlimit="10"/>
<path d="M44.8398 10.2793L128.188 161.885" stroke="white" stroke-width="1.08538" stroke-miterlimit="10"/>
<path d="M40.1641 13.0488L132.864 159.117" stroke="white" stroke-width="1.08538" stroke-miterlimit="10"/>
<path d="M35.6709 16.1035L137.357 156.059" stroke="white" stroke-width="1.08538" stroke-miterlimit="10"/>
<path d="M31.3779 19.4316L141.649 152.734" stroke="white" stroke-width="1.08538" stroke-miterlimit="10"/>
<path d="M27.3027 23.0254L145.724 149.136" stroke="white" stroke-width="1.08538" stroke-miterlimit="10"/>
<path d="M23.4541 26.8652L149.564 145.296" stroke="white" stroke-width="1.08538" stroke-miterlimit="10"/>
<path d="M19.8672 30.9434L153.161 141.223" stroke="white" stroke-width="1.08538" stroke-miterlimit="10"/>
<path d="M16.5312 35.2344L156.495 136.929" stroke="white" stroke-width="1.08538" stroke-miterlimit="10"/>
<path d="M13.4746 39.7363L159.542 132.427" stroke="white" stroke-width="1.08538" stroke-miterlimit="10"/>
<path d="M10.7148 44.4121L162.312 127.751" stroke="white" stroke-width="1.08538" stroke-miterlimit="10"/>
<path d="M8.24219 49.252L164.776 122.908" stroke="white" stroke-width="1.08538" stroke-miterlimit="10"/>
<path d="M6.08203 54.2422L166.935 117.92" stroke="white" stroke-width="1.08538" stroke-miterlimit="10"/>
<path d="M4.24512 59.3555L168.781 112.811" stroke="white" stroke-width="1.08538" stroke-miterlimit="10"/>
<path d="M2.73047 64.5684L170.297 107.592" stroke="white" stroke-width="1.08538" stroke-miterlimit="10"/>
<path d="M1.54688 69.8711L171.482 102.289" stroke="white" stroke-width="1.08538" stroke-miterlimit="10"/>
<path d="M0.693359 75.2363L172.326 96.9266" stroke="white" stroke-width="1.08538" stroke-miterlimit="10"/>
<path d="M0.179688 80.6523L172.84 91.5106" stroke="white" stroke-width="1.08538" stroke-miterlimit="10"/>
<path d="M0.0136719 86.0762H173.014" stroke="white" stroke-width="1.08538" stroke-miterlimit="10"/>
<path d="M0.179688 91.5106L172.84 80.6523" stroke="white" stroke-width="1.08538" stroke-miterlimit="10"/>
<path d="M0.693359 96.9266L172.326 75.2363" stroke="white" stroke-width="1.08538" stroke-miterlimit="10"/>
<path d="M1.54688 102.289L171.482 69.8711" stroke="white" stroke-width="1.08538" stroke-miterlimit="10"/>
<path d="M2.73047 107.592L170.297 64.5684" stroke="white" stroke-width="1.08538" stroke-miterlimit="10"/>
<path d="M4.24512 112.811L168.781 59.3555" stroke="white" stroke-width="1.08538" stroke-miterlimit="10"/>
<path d="M6.08203 117.92L166.935 54.2422" stroke="white" stroke-width="1.08538" stroke-miterlimit="10"/>
<path d="M8.24219 122.908L164.776 49.252" stroke="white" stroke-width="1.08538" stroke-miterlimit="10"/>
<path d="M10.7148 127.751L162.312 44.4121" stroke="white" stroke-width="1.08538" stroke-miterlimit="10"/>
<path d="M13.4746 132.427L159.542 39.7363" stroke="white" stroke-width="1.08538" stroke-miterlimit="10"/>
<path d="M16.5312 136.929L156.495 35.2344" stroke="white" stroke-width="1.08538" stroke-miterlimit="10"/>
<path d="M19.8672 141.223L153.161 30.9434" stroke="white" stroke-width="1.08538" stroke-miterlimit="10"/>
<path d="M23.4541 145.296L149.564 26.8652" stroke="white" stroke-width="1.08538" stroke-miterlimit="10"/>
<path d="M27.3027 149.136L145.724 23.0254" stroke="white" stroke-width="1.08538" stroke-miterlimit="10"/>
<path d="M31.3779 152.734L141.649 19.4316" stroke="white" stroke-width="1.08538" stroke-miterlimit="10"/>
<path d="M35.6709 156.059L137.357 16.1035" stroke="white" stroke-width="1.08538" stroke-miterlimit="10"/>
<path d="M40.1641 159.117L132.864 13.0488" stroke="white" stroke-width="1.08538" stroke-miterlimit="10"/>
<path d="M44.8398 161.885L128.188 10.2793" stroke="white" stroke-width="1.08538" stroke-miterlimit="10"/>
<path d="M49.6816 164.349L123.347 7.81445" stroke="white" stroke-width="1.08538" stroke-miterlimit="10"/>
<path d="M54.6699 166.507L118.356 5.6543" stroke="white" stroke-width="1.08538" stroke-miterlimit="10"/>
<path d="M59.7812 168.344L113.245 3.81641" stroke="white" stroke-width="1.08538" stroke-miterlimit="10"/>
<path d="M64.998 169.859L108.022 2.30078" stroke="white" stroke-width="1.08538" stroke-miterlimit="10"/>
<path d="M70.2998 171.044L102.718 1.10938" stroke="white" stroke-width="1.08538" stroke-miterlimit="10"/>
<path d="M75.6719 171.897L97.3535 0.263672" stroke="white" stroke-width="1.08538" stroke-miterlimit="10"/>
<path d="M81.0801 172.412L91.947 -0.248047" stroke="white" stroke-width="1.08538" stroke-miterlimit="10"/>
</g>
<defs>
<clipPath id="clip0_1_25326">
<rect width="173" height="173" fill="white"/>
</clipPath>
</defs>
</svg>
