<svg width="173" height="173" viewBox="0 0 173 173" fill="none" xmlns="http://www.w3.org/2000/svg">
<path d="M90.7055 15.8654C93.1035 13.4674 93.1035 9.57947 90.7055 7.18148C88.3075 4.78348 84.4196 4.78353 82.0216 7.18152C79.6236 9.57951 79.6236 13.4674 82.0216 15.8654C84.4196 18.2634 88.3075 18.2634 90.7055 15.8654Z" fill="white"/>
<path d="M90.7074 165.819C93.1054 163.421 93.1055 159.533 90.7075 157.135C88.3095 154.737 84.4216 154.737 82.0236 157.135C79.6256 159.533 79.6256 163.421 82.0236 165.818C84.4216 168.216 88.3095 168.217 90.7074 165.819Z" fill="white"/>
<path d="M54.1879 18.4751C54.7937 19.5256 55.0744 20.7322 54.9945 21.9423C54.9147 23.1523 54.4779 24.3116 53.7393 25.2734C53.0007 26.2352 51.9936 26.9565 50.8451 27.346C49.6967 27.7355 48.4585 27.7757 47.2872 27.4616C46.1159 27.1475 45.064 26.4932 44.2645 25.5814C43.4651 24.6695 42.9539 23.5411 42.7956 22.3388C42.6373 21.1365 42.8392 19.9142 43.3755 18.8266C43.9118 17.7389 44.7585 16.8347 45.8086 16.2282C47.2186 15.4188 48.8918 15.2009 50.4621 15.6219C52.0324 16.043 53.372 17.0689 54.1879 18.4751Z" fill="white"/>
<path d="M129.196 148.365C129.804 149.417 130.085 150.625 130.006 151.837C129.927 153.049 129.49 154.21 128.751 155.174C128.011 156.138 127.003 156.86 125.853 157.251C124.703 157.641 123.463 157.682 122.29 157.368C121.117 157.053 120.063 156.398 119.262 155.485C118.461 154.572 117.949 153.442 117.791 152.238C117.632 151.034 117.834 149.81 118.372 148.72C118.909 147.631 119.757 146.726 120.809 146.118C122.22 145.306 123.895 145.087 125.467 145.508C127.039 145.929 128.38 146.957 129.196 148.365Z" fill="white"/>
<path d="M24.5 43.7029C25.5502 44.3094 26.3969 45.2136 26.9332 46.3012C27.4695 47.3889 27.6713 48.6112 27.513 49.8135C27.3548 51.0158 26.8436 52.1442 26.0441 53.056C25.2446 53.9679 24.1927 54.6222 23.0214 54.9363C21.8501 55.2504 20.612 55.2101 19.4635 54.8206C18.3151 54.4311 17.3079 53.7099 16.5693 52.748C15.8308 51.7862 15.3939 50.627 15.3141 49.4169C15.2343 48.2069 15.515 47.0003 16.1208 45.9498C16.5233 45.2518 17.0593 44.6401 17.6983 44.1494C18.3373 43.6587 19.0667 43.2988 19.8449 43.0901C20.623 42.8815 21.4347 42.8282 22.2334 42.9333C23.0322 43.0384 23.8024 43.2999 24.5 43.7029Z" fill="white"/>
<path d="M154.342 118.675C155.391 119.283 156.237 120.187 156.772 121.275C157.307 122.363 157.507 123.585 157.348 124.786C157.189 125.988 156.678 127.116 155.878 128.027C155.078 128.938 154.027 129.592 152.856 129.905C151.685 130.219 150.447 130.179 149.299 129.789C148.151 129.4 147.145 128.679 146.406 127.718C145.668 126.756 145.231 125.598 145.15 124.388C145.07 123.179 145.35 121.973 145.955 120.922C146.357 120.223 146.894 119.61 147.533 119.119C148.173 118.628 148.903 118.267 149.682 118.058C150.461 117.85 151.274 117.797 152.074 117.903C152.873 118.008 153.644 118.271 154.342 118.675Z" fill="white"/>
<path d="M17.3357 87.8917C18.1147 84.5911 16.0705 81.2839 12.7699 80.5049C9.46936 79.7259 6.16219 81.77 5.38318 85.0706C4.60417 88.3712 6.64832 91.6784 9.9489 92.4574C13.2495 93.2364 16.5567 91.1923 17.3357 87.8917Z" fill="white"/>
<path d="M165.676 90.84C168.074 88.442 168.074 84.5542 165.676 82.1562C163.278 79.7582 159.39 79.7581 156.992 82.1561C154.594 84.5541 154.594 88.442 156.992 90.84C159.39 93.238 163.278 93.238 165.676 90.84Z" fill="white"/>
<path d="M18.3677 118.677C19.4182 118.072 20.6248 117.791 21.8349 117.871C23.0449 117.951 24.2041 118.387 25.166 119.126C26.1278 119.865 26.8491 120.872 27.2386 122.02C27.6281 123.169 27.6683 124.407 27.3542 125.578C27.0401 126.749 26.3858 127.801 25.474 128.601C24.5621 129.4 23.4338 129.911 22.2314 130.07C21.0291 130.228 19.8068 130.026 18.7192 129.49C17.6315 128.954 16.7273 128.107 16.1208 127.057C15.7179 126.359 15.4564 125.589 15.3513 124.79C15.2461 123.991 15.2994 123.18 15.5081 122.401C15.7167 121.623 16.0767 120.894 16.5674 120.255C17.058 119.616 17.6698 119.08 18.3677 118.677Z" fill="white"/>
<path d="M148.226 43.7028C149.277 43.097 150.483 42.8163 151.693 42.8961C152.903 42.976 154.063 43.4128 155.024 44.1514C155.986 44.8899 156.708 45.8971 157.097 47.0455C157.486 48.194 157.527 49.4321 157.213 50.6034C156.899 51.7747 156.244 52.8266 155.332 53.6261C154.421 54.4256 153.292 54.9368 152.09 55.095C150.888 55.2533 149.665 55.0515 148.578 54.5152C147.49 53.9789 146.586 53.1322 145.979 52.082C145.168 50.6725 144.948 48.9987 145.37 47.4277C145.791 45.8568 146.818 44.5172 148.226 43.7028Z" fill="white"/>
<path d="M43.5622 148.366C44.1687 147.316 45.0729 146.469 46.1606 145.933C47.2483 145.397 48.4705 145.195 49.6728 145.353C50.8751 145.511 52.0036 146.023 52.9154 146.822C53.8272 147.622 54.4816 148.674 54.7956 149.845C55.1097 151.016 55.0694 152.254 54.6799 153.403C54.2905 154.551 53.5692 155.558 52.6074 156.297C51.6456 157.035 50.4864 157.472 49.2763 157.552C48.0662 157.632 46.8597 157.351 45.8091 156.745C44.4013 155.931 43.374 154.591 42.9527 153.021C42.5315 151.45 42.7507 149.776 43.5622 148.366Z" fill="white"/>
<path d="M118.537 18.4747C119.145 17.4229 120.05 16.5748 121.139 16.0376C122.229 15.5004 123.453 15.2983 124.657 15.4568C125.861 15.6154 126.991 16.1274 127.904 16.9282C128.817 17.729 129.472 18.7827 129.787 19.9558C130.101 21.129 130.06 22.3689 129.67 23.519C129.279 24.669 128.556 25.6774 127.593 26.4167C126.629 27.1559 125.468 27.5928 124.256 27.6721C123.044 27.7514 121.836 27.4695 120.784 26.8621C119.377 26.0446 118.351 24.7036 117.93 23.132C117.509 21.5603 117.728 19.886 118.537 18.4747Z" fill="white"/>
<path d="M92.5798 12.9229C93.3588 9.62228 91.3147 6.31516 88.0141 5.53615C84.7135 4.75714 81.4063 6.80124 80.6273 10.1018C79.8483 13.4024 81.8924 16.7096 85.193 17.4886C88.4936 18.2677 91.8008 16.2235 92.5798 12.9229Z" fill="white"/>
<path d="M92.5935 162.872C93.3725 159.572 91.3283 156.264 88.0277 155.485C84.7271 154.706 81.42 156.75 80.641 160.051C79.862 163.352 81.9061 166.659 85.2067 167.438C88.5073 168.217 91.8145 166.173 92.5935 162.872Z" fill="white"/>
<path d="M54.4714 18.4738C55.0789 19.5255 55.3607 20.7337 55.2815 21.9456C55.2022 23.1575 54.7653 24.3187 54.026 25.2823C53.2868 26.2459 52.2784 26.9687 51.1284 27.3592C49.9783 27.7497 48.7383 27.7903 47.5651 27.4761C46.392 27.1618 45.3384 26.5067 44.5376 25.5936C43.7368 24.6805 43.2248 23.5504 43.0662 22.3463C42.9077 21.1422 43.1098 19.9181 43.647 18.8288C44.1841 17.7396 45.0323 16.8341 46.0841 16.2269C47.4943 15.4127 49.1702 15.1921 50.7431 15.6135C52.316 16.0348 53.6571 17.0637 54.4714 18.4738Z" fill="white"/>
<path d="M129.448 148.363C130.053 149.414 130.332 150.62 130.252 151.83C130.172 153.039 129.735 154.198 128.996 155.159C128.258 156.121 127.251 156.841 126.103 157.231C124.955 157.62 123.717 157.66 122.546 157.347C121.376 157.033 120.324 156.379 119.524 155.468C118.725 154.557 118.213 153.43 118.054 152.228C117.895 151.026 118.096 149.804 118.631 148.716C119.166 147.629 120.011 146.724 121.06 146.117C121.758 145.712 122.529 145.45 123.329 145.344C124.128 145.238 124.941 145.291 125.72 145.5C126.499 145.709 127.23 146.069 127.869 146.56C128.509 147.052 129.045 147.664 129.448 148.363Z" fill="white"/>
<path d="M24.7834 43.7005C25.8325 44.308 26.6779 45.2127 27.213 46.3004C27.7481 47.3882 27.9488 48.6101 27.7898 49.8118C27.6307 51.0136 27.1191 52.1412 26.3195 53.0523C25.5199 53.9634 24.4682 54.6171 23.2973 54.9308C22.1264 55.2445 20.8887 55.2041 19.7408 54.8147C18.5928 54.4254 17.5859 53.7045 16.8475 52.7432C16.109 51.7819 15.6719 50.6233 15.5916 49.4137C15.5113 48.2042 15.7912 46.9979 16.3961 45.9474C16.7985 45.2484 17.3349 44.6357 17.9746 44.1443C18.6142 43.653 19.3445 43.2926 20.1236 43.0839C20.9027 42.8752 21.7153 42.8222 22.5149 42.928C23.3146 43.0338 24.0854 43.2963 24.7834 43.7005Z" fill="white"/>
<path d="M154.642 118.678C155.687 119.288 156.529 120.195 157.06 121.282C157.592 122.37 157.789 123.591 157.628 124.791C157.467 125.991 156.954 127.117 156.154 128.026C155.354 128.934 154.303 129.586 153.133 129.899C151.963 130.211 150.727 130.17 149.58 129.781C148.434 129.392 147.428 128.673 146.69 127.713C145.951 126.753 145.514 125.597 145.432 124.389C145.35 123.181 145.628 121.975 146.23 120.925C146.632 120.223 147.17 119.607 147.811 119.113C148.453 118.62 149.186 118.258 149.968 118.05C150.75 117.841 151.565 117.789 152.368 117.896C153.17 118.004 153.943 118.27 154.642 118.678Z" fill="white"/>
<path d="M16.0063 90.8458C18.4043 88.4479 18.4043 84.5599 16.0063 82.162C13.6083 79.764 9.72041 79.764 7.32242 82.162C4.92443 84.5599 4.92443 88.4479 7.32242 90.8459C9.72041 93.2439 13.6083 93.2438 16.0063 90.8458Z" fill="white"/>
<path d="M161.617 92.6383C165.008 92.6383 167.757 89.8891 167.757 86.4979C167.757 83.1066 165.008 80.3574 161.617 80.3574C158.226 80.3574 155.477 83.1066 155.477 86.4979C155.477 89.8891 158.226 92.6383 161.617 92.6383Z" fill="white"/>
<path d="M18.6441 118.677C19.6946 118.072 20.9012 117.791 22.1113 117.871C23.3213 117.951 24.4805 118.387 25.4424 119.126C26.4042 119.865 27.1254 120.872 27.5149 122.02C27.9044 123.169 27.9446 124.407 27.6306 125.578C27.3165 126.749 26.6622 127.801 25.7504 128.601C24.8385 129.4 23.7101 129.911 22.5078 130.07C21.3055 130.228 20.0832 130.026 18.9956 129.49C17.9079 128.954 17.0037 128.107 16.3972 127.057C15.5856 125.647 15.3664 123.973 15.7877 122.402C16.2089 120.831 17.2362 119.492 18.6441 118.677Z" fill="white"/>
<path d="M148.508 43.7028C149.559 43.097 150.765 42.8163 151.976 42.8961C153.186 42.976 154.345 43.4128 155.307 44.1514C156.268 44.8899 156.99 45.8971 157.379 47.0455C157.769 48.194 157.809 49.4321 157.495 50.6034C157.181 51.7747 156.526 52.8266 155.615 53.6261C154.703 54.4256 153.574 54.9368 152.372 55.095C151.17 55.2533 149.947 55.0515 148.86 54.5152C147.772 53.9789 146.868 53.1322 146.261 52.082C145.859 51.3844 145.597 50.6142 145.492 49.8154C145.387 49.0167 145.44 48.205 145.649 47.4269C145.857 46.6487 146.217 45.9193 146.708 45.2803C147.199 44.6413 147.81 44.1053 148.508 43.7028Z" fill="white"/>
<path d="M43.8376 148.366C44.4439 147.313 45.3488 146.463 46.438 145.925C47.5272 145.386 48.7516 145.183 49.9563 145.341C51.161 145.499 52.2918 146.01 53.2056 146.811C54.1195 147.612 54.7752 148.666 55.0899 149.839C55.4046 151.013 55.3641 152.253 54.9735 153.404C54.5828 154.554 53.8597 155.563 52.8956 156.302C51.9314 157.042 50.7696 157.478 49.5572 157.557C48.3447 157.636 47.1362 157.353 46.0845 156.745C44.6766 155.93 43.6493 154.591 43.2281 153.02C42.8069 151.449 43.0261 149.775 43.8376 148.366Z" fill="white"/>
<path d="M118.821 18.4738C119.429 17.4251 120.334 16.5801 121.423 16.0458C122.511 15.5114 123.733 15.3116 124.935 15.4716C126.136 15.6316 127.264 16.1442 128.174 16.9446C129.085 17.7451 129.738 18.7975 130.05 19.9688C130.363 21.1401 130.321 22.3779 129.931 23.5256C129.54 24.6733 128.818 25.6795 127.856 26.4171C126.894 27.1547 125.735 27.5906 124.525 27.6696C123.315 27.7486 122.109 27.4673 121.059 26.8612C119.651 26.0454 118.624 24.7037 118.204 23.1309C117.784 21.5582 118.006 19.8831 118.821 18.4738Z" fill="white"/>
<path d="M91.3143 29.434C91.3143 30.3581 91.0402 31.2614 90.5268 32.0297C90.0134 32.7981 89.2837 33.3969 88.43 33.7506C87.5763 34.1042 86.6368 34.1967 85.7305 34.0164C84.8241 33.8362 83.9916 33.3912 83.3382 32.7377C82.6848 32.0843 82.2398 31.2518 82.0595 30.3455C81.8792 29.4391 81.9718 28.4997 82.3254 27.646C82.6791 26.7922 83.2779 26.0625 84.0463 25.5491C84.8146 25.0357 85.7179 24.7617 86.642 24.7617C87.8812 24.7617 89.0695 25.254 89.9458 26.1302C90.822 27.0064 91.3143 28.1948 91.3143 29.434Z" fill="white"/>
<path d="M91.3143 143.579C91.3143 144.503 91.0402 145.406 90.5268 146.174C90.0134 146.943 89.2837 147.541 88.43 147.895C87.5763 148.249 86.6368 148.341 85.7305 148.161C84.8241 147.981 83.9916 147.536 83.3382 146.882C82.6848 146.229 82.2398 145.396 82.0595 144.49C81.8792 143.584 81.9718 142.644 82.3254 141.791C82.6791 140.937 83.2779 140.207 84.0463 139.694C84.8146 139.18 85.7179 138.906 86.642 138.906C87.8812 138.906 89.0695 139.399 89.9458 140.275C90.822 141.151 91.3143 142.339 91.3143 143.579Z" fill="white"/>
<path d="M62.155 34.747C62.6167 35.5474 62.8307 36.4667 62.77 37.3886C62.7092 38.3106 62.3764 39.1939 61.8138 39.9268C61.2511 40.6597 60.4837 41.2093 59.6087 41.5061C58.7337 41.8029 57.7903 41.8336 56.8979 41.5944C56.0054 41.3551 55.2039 40.8566 54.5948 40.1618C53.9856 39.4671 53.5961 38.6073 53.4755 37.6912C53.3549 36.7752 53.5087 35.8439 53.9173 35.0152C54.326 34.1865 54.9711 33.4975 55.7712 33.0354C56.3025 32.7274 56.8893 32.5273 57.4981 32.4467C58.1068 32.366 58.7255 32.4063 59.3186 32.5654C59.9117 32.7244 60.4676 32.999 60.9544 33.3733C61.4411 33.7477 61.8491 34.2145 62.155 34.747Z" fill="white"/>
<path d="M119.227 133.596C119.689 134.396 119.903 135.315 119.842 136.237C119.781 137.159 119.449 138.042 118.886 138.775C118.323 139.508 117.556 140.058 116.681 140.355C115.806 140.652 114.863 140.682 113.97 140.443C113.078 140.204 112.276 139.705 111.667 139.01C111.058 138.316 110.668 137.456 110.548 136.54C110.427 135.624 110.581 134.692 110.99 133.864C111.398 133.035 112.043 132.346 112.844 131.884C113.375 131.577 113.962 131.378 114.57 131.298C115.179 131.218 115.797 131.258 116.39 131.417C116.983 131.576 117.539 131.85 118.025 132.224C118.512 132.598 118.921 133.064 119.227 133.596Z" fill="white"/>
<path d="M39.5557 53.9221C40.3558 54.3842 41.001 55.0731 41.4096 55.9018C41.8183 56.7305 41.972 57.6618 41.8514 58.5779C41.7308 59.494 41.3413 60.3537 40.7322 61.0485C40.123 61.7432 39.3215 62.2417 38.429 62.481C37.5366 62.7203 36.5932 62.6896 35.7182 62.3927C34.8432 62.0959 34.0758 61.5463 33.5132 60.8134C32.9505 60.0805 32.6177 59.1973 32.557 58.2753C32.4962 57.3533 32.7102 56.434 33.1719 55.6336C33.7928 54.5615 34.8134 53.7793 36.01 53.4585C37.2067 53.1377 38.4817 53.3044 39.5557 53.9221Z" fill="white"/>
<path d="M138.403 110.994C139.204 111.455 139.851 112.143 140.261 112.972C140.67 113.801 140.825 114.732 140.705 115.649C140.586 116.566 140.197 117.426 139.588 118.122C138.978 118.817 138.177 119.316 137.284 119.556C136.391 119.796 135.447 119.765 134.572 119.468C133.696 119.171 132.929 118.621 132.366 117.888C131.803 117.154 131.471 116.27 131.41 115.348C131.35 114.425 131.565 113.506 132.027 112.705C132.647 111.634 133.666 110.852 134.861 110.531C136.057 110.21 137.33 110.376 138.403 110.994Z" fill="white"/>
<path d="M29.5697 81.834C30.4938 81.834 31.3971 82.108 32.1655 82.6214C32.9338 83.1348 33.5327 83.8645 33.8863 84.7182C34.2399 85.572 34.3325 86.5114 34.1522 87.4177C33.9719 88.3241 33.5269 89.1566 32.8735 89.81C32.2201 90.4634 31.3876 90.9084 30.4812 91.0887C29.5749 91.269 28.6355 91.1765 27.7818 90.8228C26.928 90.4692 26.1983 89.8703 25.6849 89.102C25.1715 88.3337 24.8975 87.4303 24.8975 86.5062C24.8975 85.2671 25.3897 84.0787 26.2659 83.2024C27.1422 82.3262 28.3306 81.834 29.5697 81.834Z" fill="white"/>
<path d="M143.715 81.834C144.639 81.834 145.543 82.108 146.311 82.6214C147.079 83.1348 147.678 83.8645 148.032 84.7182C148.385 85.572 148.478 86.5114 148.298 87.4177C148.117 88.3241 147.672 89.1566 147.019 89.81C146.366 90.4634 145.533 90.9084 144.627 91.0887C143.72 91.269 142.781 91.1765 141.927 90.8228C141.074 90.4692 140.344 89.8703 139.83 89.102C139.317 88.3337 139.043 87.4303 139.043 86.5062C139.043 85.2671 139.535 84.0787 140.411 83.2024C141.288 82.3262 142.476 81.834 143.715 81.834Z" fill="white"/>
<path d="M34.8826 110.994C35.683 110.533 36.6023 110.319 37.5243 110.379C38.4463 110.44 39.3296 110.773 40.0625 111.335C40.7954 111.898 41.3449 112.665 41.6418 113.54C41.9386 114.416 41.9693 115.359 41.73 116.251C41.4908 117.144 40.9922 117.945 40.2975 118.554C39.6028 119.164 38.743 119.553 37.8269 119.674C36.9109 119.794 35.9796 119.641 35.1509 119.232C34.3222 118.823 33.6332 118.178 33.1711 117.378C32.8642 116.846 32.665 116.26 32.5849 115.651C32.5048 115.043 32.5454 114.424 32.7043 113.831C32.8632 113.239 33.1374 112.683 33.5112 112.196C33.885 111.709 34.351 111.301 34.8826 110.994Z" fill="white"/>
<path d="M133.73 53.9215C134.53 53.4586 135.449 53.2432 136.371 53.3026C137.293 53.3621 138.177 53.6937 138.911 54.2554C139.645 54.8172 140.195 55.584 140.493 56.4587C140.791 57.3335 140.823 58.2769 140.585 59.1698C140.347 60.0627 139.849 60.8648 139.155 61.4749C138.461 62.0849 137.601 62.4753 136.685 62.5969C135.769 62.7184 134.838 62.5656 134.008 62.1577C133.179 61.7498 132.49 61.1052 132.027 60.3053C131.406 59.2329 131.237 57.9578 131.556 56.7606C131.876 55.5635 132.658 54.5422 133.73 53.9215Z" fill="white"/>
<path d="M54.0657 133.594C54.5286 132.794 55.2182 132.149 56.0474 131.742C56.8767 131.334 57.8082 131.181 58.7242 131.302C59.6403 131.424 60.4998 131.814 61.194 132.424C61.8881 133.034 62.3858 133.837 62.6241 134.729C62.8623 135.622 62.8304 136.566 62.5325 137.44C62.2345 138.315 61.6838 139.082 60.9501 139.644C60.2163 140.206 59.3325 140.537 58.4103 140.597C57.4881 140.656 56.5689 140.441 55.7692 139.978C54.6968 139.357 53.9149 138.336 53.5955 137.139C53.276 135.941 53.4452 134.666 54.0657 133.594Z" fill="white"/>
<path d="M111.131 34.7441C111.592 33.9429 112.28 33.2964 113.109 32.8866C113.937 32.4768 114.869 32.3219 115.786 32.4418C116.702 32.5616 117.563 32.9506 118.258 33.5597C118.954 34.1687 119.453 34.9704 119.693 35.8632C119.932 36.7561 119.902 37.7 119.605 38.5754C119.308 39.4509 118.758 40.2186 118.024 40.7813C117.291 41.3441 116.407 41.6767 115.485 41.7369C114.562 41.7972 113.642 41.5824 112.842 41.1198C111.77 40.5005 110.988 39.4813 110.668 38.286C110.347 37.0906 110.513 35.8168 111.131 34.7441Z" fill="white"/>
<path d="M86.5449 47.0838C88.4892 47.0838 90.0653 45.5076 90.0653 43.5634C90.0653 41.6191 88.4892 40.043 86.5449 40.043C84.6006 40.043 83.0244 41.6191 83.0244 43.5634C83.0244 45.5076 84.6006 47.0838 86.5449 47.0838Z" fill="white"/>
<path d="M90.0659 129.652C90.0659 130.35 89.8587 131.032 89.4707 131.613C89.0826 132.193 88.531 132.645 87.8858 132.912C87.2406 133.179 86.5306 133.249 85.8459 133.112C85.1612 132.975 84.5326 132.638 84.0394 132.144C83.5463 131.649 83.2108 131.02 83.0756 130.335C82.9404 129.65 83.0115 128.94 83.2798 128.296C83.5481 127.651 84.0016 127.101 84.5829 126.714C85.1643 126.327 85.8473 126.121 86.5455 126.123C87.0085 126.123 87.4668 126.214 87.8945 126.392C88.3221 126.569 88.7106 126.829 89.0377 127.157C89.3647 127.485 89.6238 127.874 89.8002 128.302C89.9766 128.73 90.0669 129.189 90.0659 129.652Z" fill="white"/>
<path d="M68.0753 47.5619C68.4247 48.1662 68.5871 48.8605 68.5418 49.557C68.4966 50.2536 68.2458 50.9211 67.8211 51.475C67.3965 52.029 66.817 52.4446 66.1561 52.6692C65.4953 52.8938 64.7826 52.9173 64.1083 52.7368C63.4341 52.5564 62.8285 52.1799 62.3682 51.6552C61.9079 51.1305 61.6135 50.481 61.5224 49.789C61.4313 49.097 61.5474 48.3934 61.8562 47.7674C62.165 47.1414 62.6525 46.6211 63.257 46.2722C64.0676 45.8069 65.0294 45.6813 65.9323 45.923C66.8351 46.1647 67.6056 46.7539 68.0753 47.5619Z" fill="white"/>
<path d="M111.115 122.123C111.463 122.726 111.624 123.419 111.578 124.113C111.532 124.808 111.282 125.473 110.858 126.026C110.434 126.578 109.855 126.992 109.196 127.216C108.537 127.439 107.826 127.462 107.154 127.282C106.481 127.102 105.877 126.726 105.418 126.203C104.959 125.679 104.666 125.031 104.575 124.341C104.484 123.651 104.6 122.949 104.908 122.325C105.216 121.7 105.702 121.181 106.305 120.833C106.705 120.602 107.147 120.452 107.606 120.391C108.064 120.331 108.53 120.362 108.977 120.481C109.424 120.601 109.842 120.808 110.209 121.089C110.576 121.371 110.884 121.722 111.115 122.123Z" fill="white"/>
<path d="M51.0251 62.0344C51.628 62.3825 52.1141 62.9016 52.422 63.526C52.7298 64.1504 52.8457 64.8521 52.7549 65.5423C52.664 66.2326 52.3705 66.8804 51.9115 67.4038C51.4525 67.9273 50.8487 68.3029 50.1762 68.4832C49.5038 68.6635 48.793 68.6404 48.1337 68.4168C47.4745 68.1931 46.8963 67.7791 46.4723 67.2269C46.0483 66.6747 45.7976 66.0092 45.7518 65.3145C45.706 64.6198 45.8672 63.9272 46.215 63.3241C46.446 62.9235 46.7538 62.5723 47.1206 62.2907C47.4874 62.009 47.9061 61.8024 48.3528 61.6826C48.7995 61.5628 49.2654 61.5323 49.724 61.5926C50.1825 61.653 50.6246 61.8031 51.0251 62.0344Z" fill="white"/>
<path d="M125.586 105.074C126.191 105.423 126.678 105.943 126.987 106.569C127.296 107.195 127.412 107.899 127.321 108.591C127.23 109.283 126.935 109.932 126.475 110.457C126.015 110.982 125.409 111.358 124.735 111.539C124.061 111.719 123.348 111.696 122.687 111.471C122.026 111.246 121.447 110.831 121.022 110.277C120.597 109.723 120.347 109.055 120.301 108.359C120.256 107.662 120.419 106.968 120.768 106.364C121.239 105.557 122.01 104.969 122.912 104.728C123.814 104.486 124.775 104.611 125.586 105.074Z" fill="white"/>
<path d="M43.4982 83.082C44.1961 83.082 44.8783 83.289 45.4586 83.6767C46.0389 84.0644 46.4911 84.6155 46.7582 85.2603C47.0253 85.905 47.0951 86.6145 46.959 87.299C46.8228 87.9834 46.4868 88.6121 45.9933 89.1056C45.4998 89.5991 44.8711 89.9351 44.1867 90.0713C43.5022 90.2074 42.7927 90.1376 42.1479 89.8705C41.5032 89.6034 40.9521 89.1512 40.5644 88.5709C40.1767 87.9907 39.9697 87.3084 39.9697 86.6106C39.9687 86.1469 40.0592 85.6876 40.2361 85.259C40.4131 84.8304 40.6729 84.441 41.0008 84.1131C41.3287 83.7853 41.7181 83.5254 42.1467 83.3485C42.5753 83.1715 43.0346 83.081 43.4982 83.082Z" fill="white"/>
<path d="M129.585 90.1229C131.529 90.1229 133.105 88.5467 133.105 86.6025C133.105 84.6582 131.529 83.082 129.585 83.082C127.641 83.082 126.064 84.6582 126.064 86.6025C126.064 88.5467 127.641 90.1229 129.585 90.1229Z" fill="white"/>
<path d="M47.5053 105.076C48.1095 104.726 48.8039 104.564 49.5004 104.609C50.1969 104.654 50.8644 104.905 51.4184 105.33C51.9723 105.754 52.3879 106.334 52.6125 106.995C52.8371 107.656 52.8607 108.368 52.6802 109.042C52.4997 109.717 52.1233 110.322 51.5986 110.783C51.0739 111.243 50.4244 111.537 49.7323 111.628C49.0403 111.72 48.3368 111.603 47.7108 111.295C47.0848 110.986 46.5645 110.498 46.2156 109.894C45.7481 109.084 45.6213 108.121 45.8632 107.218C46.105 106.314 46.6956 105.544 47.5053 105.076Z" fill="white"/>
<path d="M122.057 62.0333C122.661 61.6855 123.353 61.5243 124.048 61.5701C124.743 61.6159 125.408 61.8667 125.96 62.2907C126.512 62.7146 126.927 63.2928 127.15 63.9521C127.374 64.6114 127.397 65.3222 127.217 65.9946C127.036 66.6671 126.661 67.2709 126.137 67.7299C125.614 68.1889 124.966 68.4824 124.276 68.5732C123.586 68.6641 122.884 68.5482 122.259 68.2404C121.635 67.9325 121.116 67.4464 120.768 66.8435C120.303 66.0342 120.177 65.0736 120.419 64.1721C120.661 63.2705 121.25 62.5015 122.057 62.0333Z" fill="white"/>
<path d="M61.9669 122.124C62.3149 121.519 62.8347 121.03 63.4606 120.72C64.0866 120.41 64.7904 120.293 65.483 120.383C66.1756 120.474 66.8258 120.767 67.3513 121.228C67.8767 121.688 68.2538 122.294 68.4347 122.968C68.6156 123.643 68.5922 124.356 68.3675 125.017C68.1427 125.679 67.7268 126.258 67.1723 126.683C66.6178 127.108 65.9496 127.359 65.2526 127.403C64.5556 127.448 63.861 127.285 63.2567 126.935C62.4492 126.466 61.8602 125.697 61.6184 124.796C61.3767 123.894 61.502 122.934 61.9669 122.124Z" fill="white"/>
<path d="M105.015 47.5643C105.365 46.9625 105.884 46.4777 106.509 46.171C107.133 45.8644 107.834 45.7496 108.524 45.8412C109.214 45.9328 109.861 46.2268 110.384 46.6859C110.906 47.1449 111.281 47.7486 111.461 48.4207C111.641 49.0927 111.618 49.803 111.394 50.4618C111.171 51.1207 110.757 51.6985 110.205 52.1224C109.654 52.5463 108.989 52.7973 108.295 52.8436C107.601 52.8899 106.908 52.7294 106.305 52.3826C105.496 51.9144 104.905 51.1438 104.663 50.2404C104.421 49.3369 104.548 48.3744 105.015 47.5643Z" fill="white"/>
<path d="M86.5454 57.9618C87.9566 57.9618 89.1005 56.8179 89.1005 55.4067C89.1005 53.9955 87.9566 52.8516 86.5454 52.8516C85.1342 52.8516 83.9902 53.9955 83.9902 55.4067C83.9902 56.8179 85.1342 57.9618 86.5454 57.9618Z" fill="white"/>
<path d="M86.5454 120.364C87.9566 120.364 89.1005 119.22 89.1005 117.809C89.1005 116.398 87.9566 115.254 86.5454 115.254C85.1342 115.254 83.9902 116.398 83.9902 117.809C83.9902 119.22 85.1342 120.364 86.5454 120.364Z" fill="white"/>
<path d="M73.153 58.3109C73.4063 58.7484 73.5242 59.2512 73.4917 59.7557C73.4592 60.2602 73.2778 60.7437 72.9704 61.145C72.663 61.5463 72.2434 61.8475 71.7648 62.0103C71.2862 62.1731 70.7701 62.1903 70.2817 62.0597C69.7933 61.9291 69.3547 61.6565 69.0213 61.2766C68.6878 60.8966 68.4746 60.4262 68.4086 59.925C68.3426 59.4238 68.4267 58.9143 68.6504 58.4609C68.8741 58.0075 69.2271 57.6307 69.665 57.3781C69.9551 57.2095 70.2756 57.0999 70.6082 57.0555C70.9407 57.0112 71.2788 57.033 71.6029 57.1197C71.927 57.2064 72.2308 57.3562 72.4968 57.5606C72.7628 57.7651 72.9858 58.02 73.153 58.3109Z" fill="white"/>
<path d="M104.358 112.351C104.611 112.788 104.728 113.29 104.695 113.794C104.662 114.298 104.48 114.781 104.173 115.182C103.865 115.583 103.446 115.884 102.968 116.046C102.49 116.209 101.974 116.226 101.486 116.096C100.998 115.966 100.56 115.694 100.226 115.315C99.8928 114.936 99.6791 114.466 99.6123 113.965C99.5455 113.465 99.6286 112.955 99.851 112.502C100.073 112.049 100.425 111.671 100.862 111.418C101.153 111.249 101.474 111.139 101.807 111.095C102.14 111.05 102.479 111.072 102.804 111.159C103.128 111.245 103.433 111.395 103.7 111.6C103.966 111.804 104.19 112.059 104.358 112.351Z" fill="white"/>
<path d="M60.7991 68.7656C61.2373 69.0175 61.591 69.3937 61.8153 69.8465C62.0397 70.2994 62.1248 70.8086 62.0597 71.3098C61.9947 71.811 61.7824 72.2817 61.4499 72.6623C61.1173 73.0428 60.6793 73.3162 60.1913 73.4479C59.7034 73.5795 59.1873 73.5635 58.7085 73.4018C58.2296 73.2401 57.8095 72.9401 57.5012 72.5396C57.1929 72.1391 57.0103 71.6562 56.9764 71.1519C56.9426 70.6476 57.0591 70.1447 57.3112 69.7066C57.649 69.1194 58.2063 68.6904 58.8603 68.514C59.5144 68.3375 60.2118 68.4281 60.7991 68.7656Z" fill="white"/>
<path d="M114.838 99.9972C115.276 100.25 115.629 100.627 115.852 101.08C116.076 101.533 116.16 102.043 116.094 102.544C116.028 103.045 115.815 103.516 115.482 103.896C115.148 104.276 114.709 104.548 114.221 104.679C113.733 104.809 113.217 104.792 112.738 104.629C112.259 104.467 111.84 104.165 111.532 103.764C111.225 103.363 111.044 102.879 111.011 102.375C110.979 101.87 111.096 101.368 111.35 100.93C111.517 100.639 111.74 100.384 112.006 100.18C112.272 99.9754 112.576 99.8255 112.9 99.7388C113.224 99.6521 113.562 99.6303 113.895 99.6747C114.227 99.719 114.548 99.8286 114.838 99.9972Z" fill="white"/>
<path d="M55.3403 89.1572C56.7515 89.1572 57.8954 88.0132 57.8954 86.602C57.8954 85.1909 56.7515 84.0469 55.3403 84.0469C53.9292 84.0469 52.7852 85.1909 52.7852 86.602C52.7852 88.0132 53.9292 89.1572 55.3403 89.1572Z" fill="white"/>
<path d="M117.743 89.1572C119.154 89.1572 120.298 88.0132 120.298 86.602C120.298 85.1909 119.154 84.0469 117.743 84.0469C116.331 84.0469 115.188 85.1909 115.188 86.602C115.188 88.0132 116.331 89.1572 117.743 89.1572Z" fill="white"/>
<path d="M58.2445 99.9963C58.682 99.743 59.1847 99.6251 59.6892 99.6576C60.1937 99.6902 60.6772 99.8716 61.0786 100.179C61.4799 100.486 61.781 100.906 61.9439 101.385C62.1067 101.863 62.1239 102.379 61.9933 102.868C61.8627 103.356 61.5901 103.795 61.2101 104.128C60.8301 104.462 60.3598 104.675 59.8586 104.741C59.3574 104.807 58.8478 104.723 58.3945 104.499C57.9411 104.275 57.5643 103.922 57.3116 103.484C57.1431 103.194 57.0335 102.874 56.9891 102.541C56.9448 102.209 56.9666 101.871 57.0533 101.546C57.1399 101.222 57.2898 100.919 57.4942 100.653C57.6987 100.387 57.9536 100.164 58.2445 99.9963Z" fill="white"/>
<path d="M112.283 68.7658C112.721 68.5134 113.223 68.3963 113.727 68.4293C114.231 68.4623 114.714 68.6439 115.115 68.9513C115.516 69.2586 115.816 69.6778 115.979 70.1559C116.142 70.6341 116.159 71.1497 116.029 71.6377C115.899 72.1257 115.627 72.5641 115.247 72.8977C114.868 73.2312 114.399 73.4449 113.898 73.5117C113.397 73.5785 112.888 73.4954 112.435 73.2729C111.981 73.0505 111.604 72.6986 111.35 72.2618C111.18 71.9714 111.07 71.6503 111.025 71.3169C110.98 70.9835 111.001 70.6444 111.088 70.3194C111.175 69.9943 111.325 69.6897 111.53 69.423C111.735 69.1563 111.991 68.933 112.283 68.7658Z" fill="white"/>
<path d="M68.7326 112.351C68.9852 111.913 69.362 111.56 69.8154 111.336C70.2688 111.112 70.7783 111.028 71.2795 111.094C71.7807 111.16 72.2511 111.373 72.6311 111.707C73.0111 112.04 73.2836 112.479 73.4142 112.967C73.5448 113.456 73.5276 113.972 73.3648 114.45C73.202 114.929 72.9009 115.349 72.4995 115.656C72.0982 115.963 71.6146 116.145 71.1102 116.177C70.6057 116.21 70.1029 116.092 69.6654 115.839C69.3745 115.671 69.1195 115.448 68.9151 115.182C68.7107 114.916 68.5609 114.613 68.4742 114.288C68.3875 113.964 68.3657 113.626 68.41 113.294C68.4544 112.961 68.564 112.641 68.7326 112.351Z" fill="white"/>
<path d="M99.9289 58.3096C100.182 57.8717 100.558 57.5186 101.012 57.2949C101.465 57.0713 101.975 56.9871 102.476 57.0531C102.977 57.1192 103.447 57.3324 103.827 57.6658C104.207 57.9992 104.48 58.4379 104.61 58.9262C104.741 59.4146 104.724 59.9307 104.561 60.4093C104.398 60.8879 104.097 61.3075 103.696 61.6149C103.295 61.9223 102.811 62.1037 102.306 62.1362C101.802 62.1687 101.299 62.0509 100.862 61.7976C100.571 61.6304 100.316 61.4073 100.111 61.1413C99.907 60.8753 99.7572 60.5715 99.6705 60.2474C99.5838 59.9233 99.562 59.5853 99.6063 59.2527C99.6507 58.9202 99.7603 58.5997 99.9289 58.3096Z" fill="white"/>
<path d="M86.5455 66.2668C87.549 66.2668 88.3625 65.4533 88.3625 64.4498C88.3625 63.4463 87.549 62.6328 86.5455 62.6328C85.542 62.6328 84.7285 63.4463 84.7285 64.4498C84.7285 65.4533 85.542 66.2668 86.5455 66.2668Z" fill="white"/>
<path d="M86.5455 110.573C87.549 110.573 88.3625 109.76 88.3625 108.756C88.3625 107.753 87.549 106.939 86.5455 106.939C85.542 106.939 84.7285 107.753 84.7285 108.756C84.7285 109.76 85.542 110.573 86.5455 110.573Z" fill="white"/>
<path d="M77.0386 66.5174C77.2167 66.8275 77.2989 67.1833 77.2748 67.5401C77.2507 67.8968 77.1215 68.2384 76.9034 68.5217C76.6853 68.805 76.3881 69.0173 76.0494 69.1318C75.7107 69.2463 75.3456 69.2579 75.0004 69.1651C74.6551 69.0723 74.3451 68.8792 74.1094 68.6103C73.8738 68.3414 73.7232 68.0086 73.6766 67.6542C73.63 67.2997 73.6894 66.9393 73.8475 66.6186C74.0055 66.2979 74.2551 66.0312 74.5646 65.8523C74.7707 65.7332 74.9981 65.6559 75.2341 65.6248C75.47 65.5938 75.7098 65.6096 75.9396 65.6714C76.1695 65.7332 76.3849 65.8397 76.5734 65.9849C76.762 66.1301 76.9201 66.311 77.0386 66.5174Z" fill="white"/>
<path d="M99.1835 104.879C99.4223 105.297 99.4864 105.792 99.3618 106.257C99.2372 106.722 98.9341 107.119 98.5184 107.361C98.2072 107.541 97.8496 107.624 97.491 107.601C97.1324 107.577 96.7889 107.448 96.5038 107.229C96.2187 107.01 96.0049 106.712 95.8894 106.372C95.7739 106.031 95.7619 105.665 95.8549 105.317C95.9479 104.97 96.1418 104.659 96.412 104.422C96.6822 104.185 97.0165 104.033 97.3727 103.986C97.729 103.939 98.0912 103.999 98.4135 104.158C98.7358 104.317 99.0038 104.568 99.1835 104.879Z" fill="white"/>
<path d="M68.2712 73.9573C68.6856 74.2011 68.987 74.5985 69.11 75.0633C69.233 75.528 69.1677 76.0226 68.9283 76.4394C68.6724 76.8248 68.2791 77.098 67.8288 77.2034C67.3784 77.3088 66.9047 77.2385 66.5044 77.0068C66.1041 76.7751 65.8072 76.3994 65.6743 75.9564C65.5414 75.5133 65.5824 75.0363 65.7891 74.6224C66.0316 74.2067 66.4284 73.9036 66.8932 73.779C67.3581 73.6544 67.8534 73.7185 68.2712 73.9573Z" fill="white"/>
<path d="M106.629 96.1104C106.944 96.2845 107.2 96.5485 107.364 96.8688C107.528 97.1891 107.593 97.5511 107.55 97.9084C107.508 98.2657 107.359 98.6022 107.124 98.8748C106.889 99.1473 106.578 99.3436 106.231 99.4385C105.884 99.5334 105.516 99.5226 105.175 99.4074C104.834 99.2923 104.536 99.0781 104.317 98.7921C104.098 98.5062 103.97 98.1616 103.949 97.8024C103.927 97.4432 104.013 97.0856 104.196 96.7756C104.435 96.3696 104.823 96.073 105.277 95.9488C105.732 95.8246 106.217 95.8826 106.629 96.1104Z" fill="white"/>
<path d="M64.3932 88.4211C65.3966 88.4211 66.2101 87.6076 66.2101 86.6041C66.2101 85.6006 65.3966 84.7871 64.3932 84.7871C63.3897 84.7871 62.5762 85.6006 62.5762 86.6041C62.5762 87.6076 63.3897 88.4211 64.3932 88.4211Z" fill="white"/>
<path d="M108.698 88.4211C109.701 88.4211 110.515 87.6076 110.515 86.6041C110.515 85.6006 109.701 84.7871 108.698 84.7871C107.694 84.7871 106.881 85.6006 106.881 86.6041C106.881 87.6076 107.694 88.4211 108.698 88.4211Z" fill="white"/>
<path d="M66.4533 96.1109C66.7646 95.9257 67.124 95.8378 67.4856 95.8584C67.8472 95.879 68.1944 96.0072 68.4826 96.2265C68.7708 96.4458 68.9869 96.7463 69.1031 97.0893C69.2194 97.4323 69.2305 97.8022 69.135 98.1515C69.0395 98.5009 68.8417 98.8137 68.5672 99.0499C68.2926 99.2861 67.9538 99.4348 67.5941 99.4771C67.2344 99.5193 66.8703 99.453 66.5485 99.2869C66.2267 99.1207 65.9619 98.8621 65.7882 98.5444C65.5603 98.132 65.5023 97.647 65.6265 97.1925C65.7507 96.7381 66.0474 96.35 66.4533 96.1109Z" fill="white"/>
<path d="M104.861 73.957C105.171 73.7799 105.526 73.6985 105.883 73.723C106.239 73.7476 106.58 73.8771 106.862 74.0951C107.145 74.3131 107.357 74.6099 107.472 74.9482C107.586 75.2864 107.598 75.6509 107.505 75.9958C107.413 76.3407 107.22 76.6506 106.952 76.8863C106.684 77.122 106.352 77.2731 105.998 77.3205C105.644 77.3679 105.284 77.3095 104.963 77.1526C104.643 76.9958 104.376 76.7475 104.196 76.4391C104.076 76.2325 103.999 76.0043 103.968 75.7678C103.937 75.5312 103.952 75.2908 104.014 75.0603C104.076 74.8298 104.182 74.6137 104.328 74.4244C104.473 74.2351 104.654 74.0763 104.861 73.957Z" fill="white"/>
<path d="M73.8988 104.879C74.0785 104.568 74.3464 104.317 74.6687 104.158C74.991 103.999 75.3532 103.939 75.7095 103.986C76.0658 104.033 76.4001 104.185 76.6703 104.422C76.9405 104.659 77.1344 104.97 77.2274 105.317C77.3204 105.665 77.3084 106.031 77.1929 106.372C77.0774 106.712 76.8636 107.01 76.5785 107.229C76.2934 107.448 75.9499 107.577 75.5913 107.601C75.2327 107.624 74.8752 107.541 74.564 107.361C74.3565 107.243 74.1746 107.084 74.0287 106.895C73.8828 106.706 73.7758 106.49 73.714 106.259C73.6522 106.028 73.6366 105.787 73.6684 105.551C73.7001 105.314 73.7784 105.086 73.8988 104.879Z" fill="white"/>
<path d="M96.0525 66.5191C96.2323 66.2099 96.4996 65.9609 96.8208 65.8035C97.142 65.6462 97.5027 65.5876 97.8571 65.6352C98.2116 65.6828 98.544 65.8344 98.8124 66.0709C99.0807 66.3073 99.273 66.618 99.3648 66.9637C99.4566 67.3094 99.4438 67.6745 99.3282 68.013C99.2125 68.3514 98.9991 68.648 98.7149 68.8652C98.4308 69.0824 98.0886 69.2104 97.7317 69.2332C97.3748 69.256 97.019 69.1724 96.7095 68.9931C96.5038 68.8739 96.3237 68.7153 96.1793 68.5265C96.0349 68.3376 95.9292 68.1221 95.8682 67.8923C95.8072 67.6625 95.7921 67.423 95.8237 67.1874C95.8553 66.9517 95.9331 66.7246 96.0525 66.5191Z" fill="white"/>
<path d="M87.778 71.493C87.778 71.7388 87.705 71.9791 87.5683 72.1834C87.4315 72.3877 87.2372 72.5467 87.01 72.6404C86.7827 72.7341 86.5328 72.7582 86.2918 72.7096C86.0508 72.6611 85.8297 72.5421 85.6565 72.3677C85.4833 72.1933 85.3657 71.9714 85.3188 71.7302C85.2718 71.4889 85.2975 71.2391 85.3927 71.0125C85.4879 70.7858 85.6482 70.5926 85.8534 70.4572C86.0585 70.3218 86.2993 70.2504 86.5451 70.252C86.7077 70.252 86.8687 70.2841 87.0188 70.3466C87.1689 70.4091 87.3052 70.5006 87.4198 70.616C87.5344 70.7313 87.625 70.8682 87.6865 71.0187C87.748 71.1693 87.779 71.3305 87.778 71.493Z" fill="white"/>
<path d="M87.778 101.722C87.778 101.967 87.705 102.208 87.5683 102.412C87.4315 102.616 87.2372 102.775 87.01 102.869C86.7827 102.963 86.5328 102.987 86.2918 102.938C86.0508 102.89 85.8297 102.771 85.6565 102.596C85.4833 102.422 85.3657 102.2 85.3188 101.959C85.2718 101.717 85.2975 101.468 85.3927 101.241C85.4879 101.014 85.6482 100.821 85.8534 100.686C86.0585 100.55 86.2993 100.479 86.5451 100.48C86.7077 100.48 86.8687 100.513 87.0188 100.575C87.1689 100.638 87.3052 100.729 87.4198 100.844C87.5344 100.96 87.625 101.097 87.6865 101.247C87.748 101.398 87.779 101.559 87.778 101.722Z" fill="white"/>
<path d="M80.056 72.8934C80.1797 73.106 80.2373 73.3505 80.2218 73.596C80.2062 73.8414 80.1181 74.0767 79.9686 74.272C79.8191 74.4672 79.615 74.6137 79.3821 74.6927C79.1492 74.7718 78.898 74.7798 78.6606 74.7159C78.4231 74.6519 78.21 74.5189 78.0482 74.3336C77.8865 74.1483 77.7835 73.9192 77.7523 73.6753C77.721 73.4313 77.7629 73.1836 77.8727 72.9635C77.9824 72.7434 78.1551 72.561 78.3687 72.4392C78.6535 72.2793 78.9896 72.2373 79.305 72.3223C79.6203 72.4072 79.89 72.6122 80.056 72.8934Z" fill="white"/>
<path d="M95.1762 99.0786C95.2989 99.2912 95.3558 99.5354 95.3398 99.7803C95.3237 100.025 95.2354 100.26 95.086 100.455C94.9366 100.649 94.7327 100.795 94.5003 100.874C94.2679 100.953 94.0173 100.961 93.7802 100.898C93.5431 100.834 93.3302 100.702 93.1683 100.517C93.0065 100.333 92.903 100.104 92.871 99.8611C92.8389 99.6178 92.8797 99.3704 92.9883 99.1502C93.0969 98.9301 93.2682 98.7471 93.4808 98.6243C93.6217 98.5418 93.7776 98.488 93.9394 98.4662C94.1012 98.4443 94.2658 98.4548 94.4235 98.4971C94.5812 98.5393 94.729 98.6125 94.8582 98.7123C94.9874 98.8122 95.0955 98.9367 95.1762 99.0786Z" fill="white"/>
<path d="M74.0381 77.9724C74.2518 78.0942 74.4245 78.2767 74.5343 78.4967C74.644 78.7168 74.6859 78.9645 74.6547 79.2085C74.6234 79.4524 74.5204 79.6816 74.3586 79.8668C74.1969 80.0521 73.9838 80.1852 73.7463 80.2491C73.5088 80.313 73.2577 80.305 73.0248 80.2259C72.7919 80.1469 72.5878 80.0004 72.4383 79.8052C72.2888 79.6099 72.2007 79.3746 72.1851 79.1292C72.1695 78.8838 72.2272 78.6392 72.3509 78.4266C72.5169 78.1454 72.7865 77.9404 73.1019 77.8555C73.4173 77.7705 73.7533 77.8125 74.0381 77.9724Z" fill="white"/>
<path d="M100.254 93.1009C100.467 93.2236 100.638 93.4067 100.747 93.6268C100.855 93.8469 100.896 94.0944 100.864 94.3377C100.832 94.5811 100.729 94.8095 100.567 94.994C100.405 95.1786 100.192 95.311 99.9549 95.3745C99.7178 95.438 99.4671 95.4298 99.2347 95.3509C99.0023 95.272 98.7984 95.126 98.649 94.9312C98.4996 94.7365 98.4113 94.5018 98.3952 94.2569C98.3792 94.0119 98.4361 93.7677 98.5588 93.5552C98.6395 93.4132 98.7476 93.2887 98.8769 93.1889C99.0061 93.0891 99.1538 93.0159 99.3115 92.9737C99.4693 92.9314 99.6338 92.9209 99.7956 92.9427C99.9575 92.9646 100.113 93.0183 100.254 93.1009Z" fill="white"/>
<path d="M71.4254 85.3692C71.6715 85.3676 71.9126 85.4392 72.1179 85.5749C72.3232 85.7107 72.4836 85.9044 72.5785 86.1315C72.6734 86.3586 72.6987 86.6088 72.6511 86.8503C72.6034 87.0918 72.485 87.3137 72.311 87.4878C72.1369 87.6618 71.9151 87.7802 71.6736 87.8278C71.4321 87.8754 71.1819 87.8502 70.9548 87.7553C70.7277 87.6603 70.5339 87.5 70.3982 87.2947C70.2624 87.0893 70.1908 86.8483 70.1924 86.6021C70.1924 86.2751 70.3223 85.9615 70.5535 85.7303C70.7848 85.4991 71.0984 85.3692 71.4254 85.3692Z" fill="white"/>
<path d="M101.657 85.3692C101.903 85.3676 102.144 85.4392 102.349 85.5749C102.555 85.7107 102.715 85.9044 102.81 86.1315C102.905 86.3586 102.93 86.6088 102.882 86.8503C102.835 87.0918 102.716 87.3137 102.542 87.4878C102.368 87.6618 102.146 87.7802 101.905 87.8278C101.663 87.8754 101.413 87.8502 101.186 87.7553C100.959 87.6603 100.765 87.5 100.63 87.2947C100.494 87.0893 100.422 86.8483 100.424 86.6021C100.426 86.2758 100.557 85.9634 100.787 85.7326C101.018 85.5019 101.33 85.3713 101.657 85.3692Z" fill="white"/>
<path d="M72.8368 93.1007C73.0482 92.9795 73.2907 92.9238 73.5338 92.9404C73.7768 92.957 74.0095 93.0452 74.2025 93.194C74.3954 93.3427 74.54 93.5453 74.618 93.7761C74.6959 94.007 74.7036 94.2557 74.6403 94.491C74.577 94.7263 74.4453 94.9375 74.262 95.098C74.0788 95.2585 73.8521 95.3611 73.6105 95.3929C73.369 95.4247 73.1234 95.3841 72.9048 95.2765C72.6863 95.1688 72.5045 94.9988 72.3825 94.7879C72.3012 94.6474 72.2485 94.4922 72.2273 94.3312C72.2062 94.1702 72.217 94.0067 72.2592 93.8499C72.3014 93.6932 72.3741 93.5463 72.4732 93.4177C72.5724 93.2891 72.6959 93.1814 72.8368 93.1007Z" fill="white"/>
<path d="M99.0122 77.9729C99.2248 77.8502 99.4689 77.7932 99.7138 77.8093C99.9588 77.8253 100.193 77.9137 100.388 78.0631C100.583 78.2125 100.729 78.4163 100.808 78.6488C100.887 78.8812 100.895 79.1318 100.831 79.3689C100.768 79.606 100.636 79.8189 100.451 79.9808C100.266 80.1426 100.038 80.2461 99.7947 80.2781C99.5514 80.3102 99.3039 80.2694 99.0838 80.1608C98.8636 80.0522 98.6806 79.8808 98.5579 79.6682C98.3955 79.3827 98.3521 79.0447 98.4371 78.7274C98.5221 78.41 98.7288 78.139 99.0122 77.9729Z" fill="white"/>
<path d="M77.9148 99.0804C78.0368 98.8695 78.2186 98.6995 78.4371 98.5918C78.6557 98.4841 78.9012 98.4436 79.1427 98.4754C79.3843 98.5071 79.6111 98.6098 79.7944 98.7703C79.9776 98.9308 80.1093 99.142 80.1726 99.3773C80.2359 99.6125 80.2282 99.8613 80.1502 100.092C80.0723 100.323 79.9277 100.526 79.7348 100.674C79.5418 100.823 79.3091 100.911 79.066 100.928C78.8229 100.944 78.5804 100.889 78.369 100.768C78.2281 100.687 78.1046 100.579 78.0055 100.451C77.9064 100.322 77.8336 100.175 77.7914 100.018C77.7492 99.8616 77.7384 99.698 77.7595 99.5371C77.7807 99.3761 77.8335 99.2209 77.9148 99.0804Z" fill="white"/>
<path d="M93.0266 72.8959C93.1493 72.6833 93.3324 72.5119 93.5525 72.4034C93.7726 72.2948 94.02 72.254 94.2633 72.286C94.5067 72.318 94.7351 72.4215 94.9196 72.5834C95.1042 72.7452 95.2366 72.9582 95.3002 73.1953C95.3637 73.4324 95.3555 73.683 95.2766 73.9154C95.1977 74.1478 95.0516 74.3516 94.8569 74.5011C94.6621 74.6505 94.4275 74.7388 94.1825 74.7549C93.9376 74.7709 93.6934 74.714 93.4808 74.5912C93.1958 74.4267 92.9878 74.1556 92.9026 73.8377C92.8175 73.5197 92.862 73.181 93.0266 72.8959Z" fill="white"/>
<path d="M87.3489 76.8053C87.3489 77.0204 87.2634 77.2267 87.1112 77.3789C86.9591 77.531 86.7528 77.6165 86.5377 77.6165C86.3226 77.6165 86.1162 77.531 85.9641 77.3789C85.812 77.2267 85.7266 77.0204 85.7266 76.8053C85.7266 76.5902 85.812 76.3838 85.9641 76.2317C86.1162 76.0796 86.3226 75.9941 86.5377 75.9941C86.7528 75.9941 86.9591 76.0796 87.1112 76.2317C87.2634 76.3838 87.3489 76.5902 87.3489 76.8053Z" fill="white"/>
<path d="M86.5452 97.2135C86.9887 97.2135 87.3483 96.854 87.3483 96.4105C87.3483 95.967 86.9887 95.6074 86.5452 95.6074C86.1017 95.6074 85.7422 95.967 85.7422 96.4105C85.7422 96.854 86.1017 97.2135 86.5452 97.2135Z" fill="white"/>
<path d="M81.637 78.9205C82.0805 78.9205 82.4401 78.561 82.4401 78.1175C82.4401 77.674 82.0805 77.3145 81.637 77.3145C81.1935 77.3145 80.834 77.674 80.834 78.1175C80.834 78.561 81.1935 78.9205 81.637 78.9205Z" fill="white"/>
<path d="M92.1427 94.7247C92.2239 94.8639 92.2618 95.0241 92.2516 95.1849C92.2414 95.3457 92.1834 95.4999 92.0852 95.6276C91.9871 95.7554 91.8531 95.851 91.7004 95.9023C91.5476 95.9537 91.383 95.9583 91.2276 95.9157C91.0722 95.8731 90.933 95.7852 90.8278 95.6632C90.7226 95.5412 90.656 95.3906 90.6367 95.2306C90.6174 95.0706 90.6462 94.9086 90.7194 94.765C90.7926 94.6214 90.9068 94.5029 91.0476 94.4246C91.2331 94.3214 91.4518 94.295 91.6565 94.3511C91.8612 94.4072 92.0357 94.5414 92.1427 94.7247Z" fill="white"/>
<path d="M78.4493 81.0067C78.5899 81.0858 78.7037 81.205 78.7761 81.3491C78.8485 81.4931 78.8764 81.6555 78.8561 81.8155C78.8358 81.9755 78.7683 82.1258 78.6622 82.2472C78.5561 82.3687 78.4162 82.4557 78.2604 82.4973C78.1046 82.5388 77.9399 82.533 77.7874 82.4805C77.6349 82.428 77.5016 82.3313 77.4043 82.2027C77.3071 82.074 77.2504 81.9193 77.2415 81.7583C77.2326 81.5973 77.2718 81.4373 77.3543 81.2987C77.4626 81.1167 77.6377 80.9843 77.8424 80.9297C78.047 80.8752 78.2648 80.9028 78.4493 81.0067Z" fill="white"/>
<path d="M95.4357 90.8133C95.5762 90.8924 95.6899 91.0117 95.7624 91.1557C95.8348 91.2998 95.8628 91.4622 95.8425 91.6222C95.8222 91.7821 95.7546 91.9325 95.6485 92.0539C95.5424 92.1753 95.4025 92.2624 95.2467 92.3039C95.0909 92.3455 94.9263 92.3396 94.7738 92.2871C94.6213 92.2347 94.4879 92.1379 94.3907 92.0093C94.2934 91.8807 94.2367 91.726 94.2278 91.565C94.2189 91.4039 94.2582 91.2439 94.3407 91.1053C94.449 90.9234 94.6241 90.7909 94.8287 90.7364C95.0334 90.6818 95.2512 90.7094 95.4357 90.8133Z" fill="white"/>
<path d="M76.7386 87.4069C77.1821 87.4069 77.5416 87.0473 77.5416 86.6038C77.5416 86.1603 77.1821 85.8008 76.7386 85.8008C76.2951 85.8008 75.9355 86.1603 75.9355 86.6038C75.9355 87.0473 76.2951 87.4069 76.7386 87.4069Z" fill="white"/>
<path d="M96.3444 85.8008C96.5048 85.8008 96.6616 85.8484 96.795 85.9375C96.9284 86.0266 97.0323 86.1533 97.0937 86.3015C97.1551 86.4497 97.1713 86.6128 97.14 86.7702C97.1087 86.9275 97.0314 87.0721 96.918 87.1855C96.8045 87.299 96.6599 87.3762 96.5026 87.4075C96.3452 87.4388 96.1822 87.4227 96.0339 87.3613C95.8857 87.2999 95.7591 87.196 95.6699 87.0626C95.5808 86.9292 95.5332 86.7724 95.5332 86.6119C95.5332 86.3968 95.6186 86.1905 95.7707 86.0384C95.9229 85.8862 96.1292 85.8008 96.3444 85.8008Z" fill="white"/>
<path d="M77.6564 90.8136C77.7955 90.7324 77.9558 90.6945 78.1166 90.7048C78.2774 90.715 78.4315 90.7729 78.5593 90.8711C78.6871 90.9692 78.7827 91.1032 78.834 91.256C78.8853 91.4087 78.8899 91.5733 78.8473 91.7287C78.8048 91.8841 78.7169 92.0233 78.5948 92.1285C78.4728 92.2338 78.3222 92.3003 78.1622 92.3196C78.0023 92.3389 77.8402 92.3101 77.6967 92.2369C77.5531 92.1638 77.4346 92.0495 77.3562 91.9087C77.253 91.7232 77.2266 91.5046 77.2828 91.2999C77.3389 91.0951 77.473 90.9206 77.6564 90.8136Z" fill="white"/>
<path d="M94.6332 81.0067C94.8178 80.9028 95.0356 80.8752 95.2402 80.9297C95.4448 80.9843 95.62 81.1167 95.7283 81.2987C95.8347 81.484 95.8637 81.7038 95.8091 81.9103C95.7544 82.1169 95.6204 82.2935 95.4363 82.4019C95.2533 82.4846 95.0461 82.4965 94.8548 82.4352C94.6636 82.374 94.5019 82.244 94.4009 82.0704C94.3 81.8968 94.267 81.6919 94.3084 81.4954C94.3499 81.2989 94.4627 81.1248 94.6251 81.0067H94.6332Z" fill="white"/>
<path d="M80.9481 94.7237C81.0272 94.5832 81.1464 94.4695 81.2905 94.397C81.4346 94.3246 81.5969 94.2967 81.7569 94.317C81.9168 94.3373 82.0671 94.4048 82.1886 94.5109C82.31 94.617 82.397 94.7569 82.4386 94.9127C82.4801 95.0685 82.4743 95.2332 82.4219 95.3857C82.3694 95.5381 82.2727 95.6715 82.144 95.7688C82.0154 95.866 81.8607 95.9227 81.6997 95.9316C81.5387 95.9405 81.3787 95.9012 81.2401 95.8188C81.0581 95.7105 80.9257 95.5353 80.8711 95.3307C80.8166 95.1261 80.8442 94.9082 80.9481 94.7237Z" fill="white"/>
<path d="M90.7468 77.6869C90.8551 77.5028 91.0317 77.3688 91.2383 77.3141C91.4448 77.2594 91.6646 77.2885 91.8499 77.3949C91.9893 77.475 92.1019 77.5947 92.1731 77.7389C92.2444 77.883 92.2711 78.0451 92.25 78.2045C92.229 78.3639 92.161 78.5134 92.0548 78.6342C91.9486 78.7549 91.8089 78.8413 91.6535 78.8824C91.498 78.9236 91.3339 78.9176 91.1818 78.8652C91.0298 78.8129 90.8968 78.7165 90.7996 78.5884C90.7025 78.4603 90.6456 78.3062 90.6362 78.1457C90.6268 77.9852 90.6652 77.8255 90.7468 77.6869Z" fill="white"/>
</svg>
