<svg width="173" height="173" viewBox="0 0 173 173" fill="none" xmlns="http://www.w3.org/2000/svg">
<g clip-path="url(#clip0_1_26328)">
<path d="M86.5137 -0.41333V172.578" stroke="#373535" stroke-width="1.08538" stroke-miterlimit="10"/>
<path d="M81.0801 -0.246826L91.947 172.414" stroke="#373535" stroke-width="1.08538" stroke-miterlimit="10"/>
<path d="M75.6719 0.264954L97.3535 171.898" stroke="#373535" stroke-width="1.08538" stroke-miterlimit="10"/>
<path d="M70.3008 1.10968L102.719 171.045" stroke="#373535" stroke-width="1.08538" stroke-miterlimit="10"/>
<path d="M64.998 2.30231L108.022 169.86" stroke="#373535" stroke-width="1.08538" stroke-miterlimit="10"/>
<path d="M59.7812 3.81805L113.245 168.346" stroke="#373535" stroke-width="1.08538" stroke-miterlimit="10"/>
<path d="M54.6699 5.65509L118.356 166.508" stroke="#373535" stroke-width="1.08538" stroke-miterlimit="10"/>
<path d="M49.6816 7.81561L123.347 164.35" stroke="#373535" stroke-width="1.08538" stroke-miterlimit="10"/>
<path d="M44.8398 10.2802L128.188 161.886" stroke="#373535" stroke-width="1.08538" stroke-miterlimit="10"/>
<path d="M40.1641 13.0491L132.864 159.117" stroke="#373535" stroke-width="1.08538" stroke-miterlimit="10"/>
<path d="M35.6699 16.1051L137.356 156.06" stroke="#373535" stroke-width="1.08538" stroke-miterlimit="10"/>
<path d="M31.377 19.4315L141.648 152.734" stroke="#373535" stroke-width="1.08538" stroke-miterlimit="10"/>
<path d="M27.3027 23.0258L145.724 149.136" stroke="#373535" stroke-width="1.08538" stroke-miterlimit="10"/>
<path d="M23.4531 26.8664L149.563 145.297" stroke="#373535" stroke-width="1.08538" stroke-miterlimit="10"/>
<path d="M19.8672 30.9435L153.161 141.224" stroke="#373535" stroke-width="1.08538" stroke-miterlimit="10"/>
<path d="M16.5312 35.2354L156.495 136.93" stroke="#373535" stroke-width="1.08538" stroke-miterlimit="10"/>
<path d="M13.4746 39.7373L159.542 132.428" stroke="#373535" stroke-width="1.08538" stroke-miterlimit="10"/>
<path d="M10.7148 44.4131L162.312 127.752" stroke="#373535" stroke-width="1.08538" stroke-miterlimit="10"/>
<path d="M8.24219 49.2531L164.776 122.91" stroke="#373535" stroke-width="1.08538" stroke-miterlimit="10"/>
<path d="M6.08203 54.2427L166.935 117.92" stroke="#373535" stroke-width="1.08538" stroke-miterlimit="10"/>
<path d="M4.24609 59.3553L168.782 112.81" stroke="#373535" stroke-width="1.08538" stroke-miterlimit="10"/>
<path d="M2.73047 64.5693L170.297 107.593" stroke="#373535" stroke-width="1.08538" stroke-miterlimit="10"/>
<path d="M1.54688 69.8727L171.482 102.291" stroke="#373535" stroke-width="1.08538" stroke-miterlimit="10"/>
<path d="M0.693359 75.2364L172.326 96.9267" stroke="#373535" stroke-width="1.08538" stroke-miterlimit="10"/>
<path d="M0.179688 80.6534L172.84 91.5116" stroke="#373535" stroke-width="1.08538" stroke-miterlimit="10"/>
<path d="M0.0136719 86.0774H173.014" stroke="#373535" stroke-width="1.08538" stroke-miterlimit="10"/>
<path d="M0.179688 91.5116L172.84 80.6534" stroke="#373535" stroke-width="1.08538" stroke-miterlimit="10"/>
<path d="M0.693359 96.9267L172.326 75.2364" stroke="#373535" stroke-width="1.08538" stroke-miterlimit="10"/>
<path d="M1.54688 102.291L171.482 69.8727" stroke="#373535" stroke-width="1.08538" stroke-miterlimit="10"/>
<path d="M2.73047 107.593L170.297 64.5693" stroke="#373535" stroke-width="1.08538" stroke-miterlimit="10"/>
<path d="M4.24609 112.81L168.782 59.3553" stroke="#373535" stroke-width="1.08538" stroke-miterlimit="10"/>
<path d="M6.08203 117.92L166.935 54.2427" stroke="#373535" stroke-width="1.08538" stroke-miterlimit="10"/>
<path d="M8.24219 122.91L164.776 49.2531" stroke="#373535" stroke-width="1.08538" stroke-miterlimit="10"/>
<path d="M10.7148 127.752L162.312 44.4131" stroke="#373535" stroke-width="1.08538" stroke-miterlimit="10"/>
<path d="M13.4746 132.428L159.542 39.7373" stroke="#373535" stroke-width="1.08538" stroke-miterlimit="10"/>
<path d="M16.5312 136.93L156.495 35.2354" stroke="#373535" stroke-width="1.08538" stroke-miterlimit="10"/>
<path d="M19.8672 141.224L153.161 30.9435" stroke="#373535" stroke-width="1.08538" stroke-miterlimit="10"/>
<path d="M23.4531 145.297L149.563 26.8664" stroke="#373535" stroke-width="1.08538" stroke-miterlimit="10"/>
<path d="M27.3027 149.136L145.724 23.0258" stroke="#373535" stroke-width="1.08538" stroke-miterlimit="10"/>
<path d="M31.377 152.734L141.648 19.4315" stroke="#373535" stroke-width="1.08538" stroke-miterlimit="10"/>
<path d="M35.6699 156.06L137.356 16.1051" stroke="#373535" stroke-width="1.08538" stroke-miterlimit="10"/>
<path d="M40.1641 159.117L132.864 13.0491" stroke="#373535" stroke-width="1.08538" stroke-miterlimit="10"/>
<path d="M44.8398 161.886L128.188 10.2802" stroke="#373535" stroke-width="1.08538" stroke-miterlimit="10"/>
<path d="M49.6816 164.35L123.347 7.81561" stroke="#373535" stroke-width="1.08538" stroke-miterlimit="10"/>
<path d="M54.6699 166.508L118.356 5.65509" stroke="#373535" stroke-width="1.08538" stroke-miterlimit="10"/>
<path d="M59.7812 168.346L113.245 3.81805" stroke="#373535" stroke-width="1.08538" stroke-miterlimit="10"/>
<path d="M64.998 169.86L108.022 2.30231" stroke="#373535" stroke-width="1.08538" stroke-miterlimit="10"/>
<path d="M70.3008 171.045L102.719 1.10968" stroke="#373535" stroke-width="1.08538" stroke-miterlimit="10"/>
<path d="M75.6719 171.898L97.3535 0.264954" stroke="#373535" stroke-width="1.08538" stroke-miterlimit="10"/>
<path d="M81.0801 172.414L91.947 -0.246826" stroke="#373535" stroke-width="1.08538" stroke-miterlimit="10"/>
</g>
<defs>
<clipPath id="clip0_1_26328">
<rect width="173" height="173" fill="white"/>
</clipPath>
</defs>
</svg>
