<svg width="173" height="173" viewBox="0 0 173 173" fill="none" xmlns="http://www.w3.org/2000/svg">
<g clip-path="url(#clip0_1_25383)">
<path d="M98.6911 159.49C139.6 159.49 172.763 126.327 172.763 85.4177C172.763 44.5089 139.6 11.3457 98.6911 11.3457C57.7823 11.3457 24.6191 44.5089 24.6191 85.4177C24.6191 126.327 57.7823 159.49 98.6911 159.49Z" stroke="white" stroke-width="1.08538" stroke-miterlimit="10"/>
<path d="M94.4284 155.22C132.979 155.22 164.231 123.969 164.231 85.4177C164.231 46.8669 132.979 15.6152 94.4284 15.6152C55.8776 15.6152 24.626 46.8669 24.626 85.4177C24.626 123.969 55.8776 155.22 94.4284 155.22Z" stroke="white" stroke-width="1.08538" stroke-miterlimit="10"/>
<path d="M89.8995 151.233C125.949 151.233 155.173 122.009 155.173 85.9591C155.173 49.9095 125.949 20.6855 89.8995 20.6855C53.8499 20.6855 24.626 49.9095 24.626 85.9591C24.626 122.009 53.8499 151.233 89.8995 151.233Z" stroke="white" stroke-width="1.08538" stroke-miterlimit="10"/>
<path d="M127.065 129.094C150.5 105.658 150.5 67.6618 127.065 44.2262C103.629 20.7906 65.6323 20.7905 42.1967 44.2262C18.761 67.6618 18.761 105.658 42.1967 129.094C65.6323 152.53 103.629 152.53 127.065 129.094Z" stroke="white" stroke-width="1.08538" stroke-miterlimit="10"/>
<path d="M79.3368 141.359C109.553 141.359 134.048 116.864 134.048 86.6483C134.048 56.4324 109.553 31.9375 79.3368 31.9375C49.1209 31.9375 24.626 56.4324 24.626 86.6483C24.626 116.864 49.1209 141.359 79.3368 141.359Z" stroke="white" stroke-width="1.08538" stroke-miterlimit="10"/>
<path d="M74.5564 134.881C102.136 134.881 124.494 112.736 124.494 85.4179C124.494 58.1004 102.136 35.9551 74.5564 35.9551C46.9768 35.9551 24.6191 58.1004 24.6191 85.4179C24.6191 112.736 46.9768 134.881 74.5564 134.881Z" stroke="white" stroke-width="1.08538" stroke-miterlimit="10"/>
<path d="M99.0767 111.267C113.11 111.267 124.486 99.9967 124.486 86.0943C124.486 72.192 113.11 60.9219 99.0767 60.9219C85.0433 60.9219 73.667 72.192 73.667 86.0943C73.667 99.9967 85.0433 111.267 99.0767 111.267Z" stroke="white" stroke-width="1.08538" stroke-miterlimit="10"/>
<path d="M103.493 106.893C115.091 106.893 124.493 97.5811 124.493 86.0941C124.493 74.607 115.091 65.2949 103.493 65.2949C91.8958 65.2949 82.4941 74.607 82.4941 86.0941C82.4941 97.5811 91.8958 106.893 103.493 106.893Z" stroke="white" stroke-width="1.08538" stroke-miterlimit="10"/>
<path d="M107.875 101.874C117.049 101.874 124.486 94.5065 124.486 85.4184C124.486 76.3303 117.049 68.9629 107.875 68.9629C98.7008 68.9629 91.2637 76.3303 91.2637 85.4184C91.2637 94.5065 98.7008 101.874 107.875 101.874Z" stroke="white" stroke-width="1.08538" stroke-miterlimit="10"/>
<path d="M94.5398 115.756C111.079 115.756 124.486 102.475 124.486 86.0921C124.486 69.7089 111.079 56.4277 94.5398 56.4277C78.0011 56.4277 64.5938 69.7089 64.5938 86.0921C64.5938 102.475 78.0011 115.756 94.5398 115.756Z" stroke="white" stroke-width="1.08538" stroke-miterlimit="10"/>
<path d="M90.5738 119.686C109.303 119.686 124.485 104.646 124.485 86.0929C124.485 67.5401 109.303 52.5 90.5738 52.5C71.8449 52.5 56.6621 67.5401 56.6621 86.0929C56.6621 104.646 71.8449 119.686 90.5738 119.686Z" stroke="white" stroke-width="1.08538" stroke-miterlimit="10"/>
<path d="M86.5639 123.657C107.512 123.657 124.493 106.838 124.493 86.0914C124.493 65.3442 107.512 48.5254 86.5639 48.5254C65.6162 48.5254 48.6348 65.3442 48.6348 86.0914C48.6348 106.838 65.6162 123.657 86.5639 123.657Z" stroke="white" stroke-width="1.08538" stroke-miterlimit="10"/>
<path d="M82.2514 127.936C105.578 127.936 124.487 109.202 124.487 86.0929C124.487 62.9837 105.578 44.25 82.2514 44.25C58.9252 44.25 40.0156 62.9837 40.0156 86.0929C40.0156 109.202 58.9252 127.936 82.2514 127.936Z" stroke="white" stroke-width="1.08538" stroke-miterlimit="10"/>
<path d="M77.8762 132.103C103.622 132.103 124.493 111.427 124.493 85.9233C124.493 60.4193 103.622 39.7441 77.8762 39.7441C52.1307 39.7441 31.2598 60.4193 31.2598 85.9233C31.2598 111.427 52.1307 132.103 77.8762 132.103Z" stroke="white" stroke-width="1.08538" stroke-miterlimit="10"/>
</g>
<defs>
<clipPath id="clip0_1_25383">
<rect width="173" height="173" fill="white"/>
</clipPath>
</defs>
</svg>
