<svg width="22" height="22" viewBox="0 0 22 22" fill="none" xmlns="http://www.w3.org/2000/svg">
<path d="M0.351563 20.3366L18.7422 1.93032L4.75781 1.93032C4.50917 1.93032 4.27072 1.83155 4.0949 1.65573C3.91909 1.47992 3.82031 1.24146 3.82031 0.992819C3.82031 0.744179 3.91909 0.50572 4.0949 0.329905C4.27072 0.154091 4.50917 0.0553192 4.75781 0.0553192L21.0078 0.0553207C21.2565 0.0553207 21.4949 0.154093 21.6707 0.329906C21.8465 0.505722 21.9453 0.744181 21.9453 0.992821L21.9453 17.2428C21.9453 17.4915 21.8465 17.7299 21.6707 17.9057C21.4949 18.0815 21.2565 18.1803 21.0078 18.1803C20.7592 18.1803 20.5207 18.0815 20.3449 17.9057C20.1691 17.7299 20.0703 17.4915 20.0703 17.2428L20.0703 3.25845L1.66406 21.6491C1.49001 21.8231 1.25395 21.9209 1.00781 21.9209C0.761671 21.9209 0.525612 21.8231 0.351563 21.6491C0.177515 21.475 0.0797349 21.239 0.0797349 20.9928C0.0797349 20.7467 0.177515 20.5106 0.351563 20.3366Z" fill="#0F3253" fill-opacity="0.55"/>
</svg>
