<svg width="24" height="24" viewBox="0 0 24 24" fill="none" xmlns="http://www.w3.org/2000/svg">
<path d="M6.12027 14.983L1.42313 10.2858C1.20211 10.065 1.03941 9.7928 0.949645 9.49358C0.859878 9.19435 0.845857 8.87752 0.908841 8.57153C0.969862 8.2351 1.11962 7.92106 1.34264 7.66188C1.56566 7.40269 1.85384 7.20777 2.17741 7.09725L20.5717 0.960104C20.9164 0.832021 21.2905 0.805595 21.6498 0.883965C22.009 0.962336 22.3382 1.14221 22.5982 1.4022C22.8582 1.66219 23.038 1.99137 23.1164 2.3506C23.1948 2.70984 23.1684 3.08402 23.0403 3.42868L16.9031 21.823C16.7999 22.1358 16.618 22.4168 16.3748 22.6389C16.1316 22.8611 15.8354 23.0169 15.5146 23.0915C15.1957 23.1699 14.8619 23.1637 14.5462 23.0735C14.2305 22.9833 13.9438 22.8123 13.7146 22.5772L9.97741 18.8572L5.96598 20.9315L6.12027 14.983ZM6.12027 14.983L22.4917 1.33725" stroke="#18527D" stroke-width="1.71429" stroke-linecap="round" stroke-linejoin="round"/>
</svg>
