<svg width="22" height="22" viewBox="0 0 22 22" fill="none" xmlns="http://www.w3.org/2000/svg">
<path d="M10.2496 11.0002C10.2496 11.2968 10.1616 11.5868 9.99677 11.8335C9.83194 12.0802 9.59768 12.2724 9.32359 12.386C9.0495 12.4995 8.7479 12.5292 8.45693 12.4713C8.16595 12.4135 7.89868 12.2706 7.6889 12.0608C7.47912 11.851 7.33626 11.5838 7.27838 11.2928C7.22051 11.0018 7.25021 10.7002 7.36374 10.4261C7.47727 10.152 7.66953 9.91778 7.91621 9.75296C8.16288 9.58813 8.45289 9.50016 8.74956 9.50016C9.14739 9.50016 9.52892 9.6582 9.81022 9.9395C10.0915 10.2208 10.2496 10.6023 10.2496 11.0002ZM13.2496 9.50016C12.9529 9.50016 12.6629 9.58813 12.4162 9.75296C12.1695 9.91778 11.9773 10.152 11.8637 10.4261C11.7502 10.7002 11.7205 11.0018 11.7784 11.2928C11.8363 11.5838 11.9791 11.851 12.1889 12.0608C12.3987 12.2706 12.666 12.4135 12.9569 12.4713C13.2479 12.5292 13.5495 12.4995 13.8236 12.386C14.0977 12.2724 14.3319 12.0802 14.4968 11.8335C14.6616 11.5868 14.7496 11.2968 14.7496 11.0002C14.7496 10.6023 14.5915 10.2208 14.3102 9.9395C14.0289 9.6582 13.6474 9.50016 13.2496 9.50016ZM21.1246 11.0002C21.1249 12.7345 20.6798 14.4399 19.8318 15.9528C18.9838 17.4657 17.7614 18.7354 16.2818 19.6402C14.8022 20.545 13.115 21.0546 11.3819 21.1201C9.6488 21.1856 7.92792 20.8048 6.38425 20.0142L3.34394 21.0314C3.01296 21.143 2.65741 21.1598 2.31736 21.0802C1.9773 21.0005 1.66626 20.8274 1.41929 20.5804C1.17232 20.3335 0.999246 20.0224 0.919564 19.6824C0.839883 19.3423 0.856766 18.9868 0.968311 18.6558L1.98175 15.6155C1.28583 14.2523 0.90801 12.7491 0.876688 11.2189C0.845366 9.68873 1.16136 8.17134 1.80091 6.78084C2.44046 5.39035 3.38692 4.16294 4.56914 3.1909C5.75135 2.21886 7.13855 1.52749 8.62644 1.16876C10.1143 0.810029 11.6642 0.793284 13.1595 1.11978C14.6548 1.44628 16.0566 2.10752 17.2595 3.05379C18.4625 4.00006 19.4352 5.20673 20.1047 6.58308C20.7741 7.95943 21.1228 9.46964 21.1246 11.0002ZM18.8746 11.0002C18.8741 9.79223 18.5958 8.6006 18.0611 7.51745C17.5264 6.43429 16.7498 5.48865 15.7912 4.75368C14.8326 4.01871 13.7178 3.5141 12.5329 3.2789C11.3481 3.0437 10.1251 3.0842 8.95845 3.39728C7.7918 3.71037 6.71281 4.28763 5.80494 5.08442C4.89708 5.88121 4.18468 6.87617 3.72286 7.99233C3.26103 9.10848 3.06216 10.3159 3.14162 11.5212C3.22109 12.7265 3.57676 13.8974 4.18112 14.9433C4.261 15.0812 4.31067 15.2345 4.32683 15.3931C4.34299 15.5516 4.32528 15.7118 4.27487 15.863L3.34394 18.6558L6.13675 17.7248C6.25163 17.6866 6.37191 17.667 6.493 17.6667C6.69058 17.6671 6.88459 17.7195 7.0555 17.8186C8.25271 18.5113 9.61126 18.8765 10.9944 18.8774C12.3776 18.8783 13.7367 18.5149 14.9348 17.8237C16.1329 17.1325 17.1278 16.138 17.8194 14.9401C18.511 13.7422 18.875 12.3833 18.8746 11.0002Z" fill="#0E6CA0"/>
</svg>
