<svg width="490" height="489" viewBox="0 0 490 489" fill="none" xmlns="http://www.w3.org/2000/svg">
<path d="M183.246 206.637C179.139 200.041 179.284 191.777 183.246 185.398C184.769 187.838 185.759 190.617 186.122 193.565C186.702 198.18 185.663 202.747 183.246 206.637Z" fill="#18527D"/>
<path d="M200.45 228.794L199.097 230.534C198.348 231.501 197.502 232.395 196.608 233.192C193.563 235.898 189.794 237.638 185.662 238.145C184.865 238.242 184.067 238.29 183.27 238.29C182.472 238.29 181.675 238.242 180.878 238.145C176.746 237.638 172.976 235.898 169.932 233.192C169.038 232.395 168.192 231.501 167.443 230.534L166.09 228.794L173.242 219.637L176.311 223.551C177.809 225.46 179.911 226.644 182.279 226.934C182.569 226.982 182.956 226.982 183.246 227.006C183.608 227.006 183.971 226.982 184.309 226.934C186.677 226.644 188.779 225.46 190.253 223.575L193.346 219.612L200.45 228.794Z" fill="#0087E2"/>
<path d="M147.871 204.777C148.499 206.058 149.248 207.29 150.142 208.45L158.914 219.686L166.066 210.528L159.034 201.515C157.56 199.63 156.932 197.311 157.222 194.943C157.416 193.348 158.02 191.826 158.986 190.569L147.871 204.777Z" fill="#0087E2"/>
<path d="M155.869 223.6C154.395 225.484 152.293 226.668 149.925 226.958C147.557 227.248 145.237 226.596 143.352 225.146C141.468 223.696 140.284 221.57 139.994 219.202C139.704 216.834 140.332 214.49 141.806 212.63L147.919 204.801C146.228 201.345 145.575 197.455 146.059 193.541C146.518 189.916 147.895 186.533 150.07 183.706L132.914 205.671C129.604 209.923 128.13 215.215 128.782 220.555C129.434 225.919 132.141 230.679 136.393 234.014C139.97 236.817 144.295 238.291 148.789 238.291C149.611 238.291 150.456 238.242 151.302 238.146C156.666 237.493 161.426 234.787 164.761 230.534L166.114 228.795L158.962 219.637L155.869 223.6Z" fill="#FFBE1D"/>
<path d="M207.701 190.782C208.547 191.991 209.078 193.44 209.271 194.938C209.561 197.306 208.909 199.626 207.459 201.511L200.428 210.548L207.58 219.706L216.351 208.47C217.245 207.334 218.018 206.053 218.647 204.797L207.701 190.782Z" fill="#0087E2"/>
<path d="M230.075 234.014C226.378 236.889 222.004 238.291 217.679 238.291C211.662 238.291 205.718 235.633 201.731 230.534L200.306 228.698L207.458 219.54L210.623 223.6C213.644 227.466 219.25 228.166 223.14 225.146C225.024 223.672 226.208 221.57 226.498 219.202C226.788 216.834 226.136 214.514 224.686 212.63L218.549 204.752C220.24 201.297 220.893 197.407 220.409 193.492C219.974 189.892 218.597 186.558 216.471 183.755L233.578 205.671C240.416 214.466 238.846 227.176 230.075 234.014Z" fill="#18527D"/>
<path d="M183.245 206.638C182.859 207.266 182.448 207.87 181.989 208.45L173.218 219.686L166.065 210.528L173.097 201.515C174.571 199.63 175.199 197.311 174.909 194.943C174.619 192.575 173.435 190.473 171.55 188.999C169.666 187.525 167.346 186.897 164.978 187.186C163.383 187.38 161.909 187.984 160.677 188.95C160.073 189.409 159.517 189.941 159.058 190.569L147.895 204.826C146.203 201.346 145.551 197.48 146.034 193.566C146.493 189.941 147.87 186.558 150.045 183.731C150.045 183.731 150.891 182.692 151.205 182.354C154.588 178.705 158.792 176.579 163.601 175.999C168.941 175.347 174.232 176.796 178.485 180.131C180.394 181.629 181.989 183.417 183.245 185.423C179.307 191.777 179.162 200.041 183.245 206.638Z" fill="#00B4E5"/>
<path d="M218.597 204.826L208.062 191.318C207.506 190.618 206.66 189.651 205.911 188.999C204.316 187.766 202.383 187.114 200.426 187.114C198.517 187.114 196.584 187.718 194.941 188.999C191.075 192.019 190.374 197.625 193.395 201.515L200.45 210.552L193.298 219.71L184.503 208.45C184.043 207.87 183.633 207.266 183.246 206.638C185.662 202.747 186.677 198.157 186.122 193.541C185.759 190.593 184.768 187.839 183.27 185.374C184.503 183.393 186.073 181.605 188.006 180.083C195.448 174.259 205.645 174.501 212.846 180.083C214.924 181.677 216.519 183.804 216.519 183.804C218.645 186.607 220.022 189.941 220.457 193.541C220.941 197.48 220.264 201.346 218.597 204.826Z" fill="#0E6CA0"/>
<path d="M173.218 219.661L166.065 228.818L158.913 219.661L166.065 210.503L173.218 219.661Z" fill="#18527D"/>
<path d="M207.577 219.661L200.424 228.843L193.248 219.661L200.424 210.503L207.577 219.661Z" fill="#103254"/>
<path d="M253.94 241.792C251.041 241.792 248.673 244.136 248.673 247.06L248.673 259.407L239.636 259.407C228.859 259.407 220.088 268.154 220.088 278.907C220.088 289.659 228.859 298.406 239.636 298.406C250.413 298.406 259.184 289.659 259.184 278.907L259.184 278.834L259.184 264.65L259.184 247.036C259.184 244.136 256.84 241.792 253.94 241.792ZM248.673 278.883C248.673 283.836 244.613 287.871 239.636 287.871C234.658 287.871 230.599 283.836 230.599 278.883C230.599 273.929 234.658 269.894 239.636 269.894L248.673 269.894L248.673 278.834L248.673 278.883Z" fill="#18527D"/>
<path d="M163.547 259.408C159.777 259.408 156.322 260.809 153.664 263.105C151.006 260.809 147.551 259.408 143.781 259.408L133.898 259.408C130.999 259.408 128.631 261.752 128.631 264.675L128.631 293.067C128.631 295.966 130.975 298.334 133.898 298.334C136.822 298.334 139.166 295.991 139.166 293.067L139.166 269.919L143.781 269.919C146.318 269.919 148.396 271.997 148.396 274.534L148.396 293.043C148.396 295.942 150.74 298.31 153.664 298.31C156.563 298.31 158.931 295.966 158.931 293.043L158.931 274.534C158.931 271.997 161.009 269.919 163.547 269.919C166.084 269.919 168.162 271.997 168.162 274.534L168.162 293.043C168.162 295.942 170.505 298.31 173.429 298.31C176.329 298.31 178.697 295.966 178.697 293.043L178.697 274.534C178.673 266.198 171.883 259.408 163.547 259.408Z" fill="#18527D"/>
<path d="M217.503 260.035C214.942 258.682 211.752 259.673 210.399 262.234L202.619 276.974L200.057 281.782L189.74 262.234C188.387 259.673 185.197 258.682 182.636 260.035C180.075 261.389 179.084 264.578 180.437 267.139L194.089 293.018L188 304.471C186.647 307.033 187.613 310.222 190.175 311.575C190.972 311.986 191.794 312.203 192.639 312.203C194.524 312.203 196.336 311.189 197.279 309.401L204.31 296.159C204.455 295.966 204.576 295.748 204.697 295.531L211.873 281.927L211.921 281.831L219.654 267.164C221.055 264.578 220.064 261.389 217.503 260.035Z" fill="#18527D"/>
<path d="M339.43 259.987C336.869 258.634 333.679 259.625 332.326 262.186L322.009 281.758L311.691 262.186C310.338 259.625 307.148 258.634 304.587 259.987C302.026 261.34 301.035 264.53 302.388 267.091L317.345 295.483C318.263 297.198 320.051 298.286 322.009 298.286C323.966 298.286 325.754 297.198 326.672 295.483L341.629 267.091C342.982 264.506 341.991 261.34 339.43 259.987Z" fill="#18527D"/>
<path d="M282.549 259.358C271.797 259.358 263.05 268.105 263.05 278.857C263.05 289.61 271.797 298.357 282.549 298.357C288.614 298.357 294.22 295.602 297.941 290.818C299.729 288.523 299.319 285.212 297.023 283.448C294.728 281.66 291.417 282.071 289.653 284.367C287.938 286.565 285.352 287.846 282.549 287.846C277.596 287.846 273.585 283.811 273.585 278.882C273.585 273.952 277.62 269.917 282.549 269.917C283.709 269.917 284.797 270.135 285.836 270.521L280.23 273.735C277.717 275.185 276.823 278.398 278.273 280.911C279.722 283.424 282.936 284.318 285.449 282.869L297.337 276.079C298.57 275.378 299.464 274.194 299.826 272.817C300.188 271.439 299.971 269.99 299.222 268.781C295.646 262.861 289.412 259.358 282.549 259.358Z" fill="#18527D"/>
<path d="M357.166 265.037C357.069 265.013 356.996 264.892 356.924 264.675C356.924 264.53 356.876 264.336 356.876 264.046L356.827 263.007C356.803 262.5 356.731 262.162 356.537 261.92C356.416 261.775 356.247 261.606 356.054 261.509C356.296 261.34 356.513 261.147 356.658 260.905C356.876 260.567 356.996 260.156 356.996 259.649C356.996 258.682 356.586 258.006 355.788 257.643C355.377 257.45 354.846 257.353 354.242 257.353L350.448 257.353L350.448 265.351L350.448 265.544L350.617 265.544L351.681 265.544L351.874 265.544L351.874 265.351L351.874 262.186L354.097 262.186C354.483 262.186 354.798 262.234 354.991 262.307C355.257 262.452 355.426 262.742 355.45 263.201L355.522 264.505C355.547 264.82 355.571 265.013 355.571 265.158C355.595 265.279 355.619 265.375 355.667 265.472L355.716 265.569L355.812 265.569L357.117 265.569L357.311 265.569L357.311 265.375L357.311 265.182L357.311 265.085L357.166 265.037ZM355.184 260.712C354.918 260.881 354.58 260.954 354.097 260.954L351.826 260.954L351.826 258.658L354.242 258.658C354.58 258.658 354.822 258.706 355.039 258.803C355.377 258.972 355.547 259.286 355.547 259.77C355.547 260.229 355.426 260.543 355.184 260.712Z" fill="#18527D"/>
<path d="M353.613 269.338C349.336 269.338 345.856 265.858 345.856 261.581C345.856 257.305 349.336 253.825 353.613 253.825C357.89 253.825 361.369 257.305 361.369 261.581C361.369 265.858 357.89 269.338 353.613 269.338ZM353.613 255.275C350.133 255.275 347.306 258.102 347.306 261.581C347.306 265.061 350.133 267.888 353.613 267.888C357.092 267.888 359.919 265.061 359.919 261.581C359.919 258.102 357.092 255.275 353.613 255.275Z" fill="#18527D"/>
<path d="M389.667 343.537C363.923 381.01 324.645 407.035 280.1 416.133C235.555 425.231 189.218 416.694 150.841 392.318C112.464 367.942 85.04 329.628 74.3412 285.44C63.6425 241.253 70.5033 194.638 93.4797 155.407C116.456 116.176 153.756 87.3879 197.529 75.1027C241.302 62.8175 288.134 67.993 328.168 89.5398C368.203 111.087 398.317 147.324 412.172 190.626C426.028 233.927 422.545 280.916 402.455 321.701" stroke="white" stroke-width="0.522572"/>
<path d="M389.668 343.537C363.924 381.011 324.646 407.035 280.101 416.134C235.557 425.232 189.219 416.695 150.842 392.318C112.465 367.942 85.0411 329.629 74.3423 285.441C63.6436 241.253 70.5044 194.638 93.4808 155.407C116.457 116.176 153.757 87.3884 197.53 75.1032" stroke="white" stroke-width="2.61286"/>
<circle cx="396.963" cy="332.221" r="3.14321" fill="white"/>
<g clip-path="url(#clip0_186_10592)">
<path d="M455.657 89.1207H450.881C450.446 89.617 450.198 90.2993 450.198 90.9816C450.198 91.7259 450.446 92.3462 450.881 92.9044H455.595C456.401 92.9044 457.145 93.2146 457.704 93.7728C457.766 93.8349 457.828 93.8969 457.89 93.9589H462.108C461.797 92.9044 461.239 91.912 460.433 91.1056C459.13 89.803 457.456 89.1207 455.657 89.1207Z" fill="#0F6C9F"/>
<path d="M457.704 97.9276C457.145 98.4858 456.401 98.796 455.595 98.796H443.189V102.58H439.405H455.595C457.393 102.58 459.068 101.897 460.371 100.595C461.177 99.7884 461.797 98.796 462.108 97.6794H457.952C457.89 97.8035 457.828 97.8655 457.704 97.9276Z" fill="#3281C4"/>
<path d="M443.189 95.8186C443.189 94.2058 444.492 92.8412 446.166 92.8412H446.725C446.539 92.2209 446.476 91.6006 446.476 90.9183C446.476 90.2981 446.539 89.6778 446.725 89.0575H446.166C442.445 89.0575 439.467 92.0969 439.405 95.7565V98.7339H443.189V95.8186Z" fill="#00B2E3"/>
<path d="M453.175 93.9573C452.245 93.9573 451.438 93.5231 450.88 92.9028H446.662C447.468 95.6941 450.074 97.741 453.113 97.741H457.889C458.323 97.2448 458.572 96.5625 458.572 95.8802C458.572 95.1979 458.323 94.5156 457.889 93.9573H453.175Z" fill="#FDBC1F"/>
<path d="M451.067 88.8717C451.625 88.3135 452.369 88.0033 453.176 88.0033H461.611C462.046 87.5071 462.294 86.8248 462.294 86.1425C462.294 85.4602 462.046 84.7779 461.611 84.2196H453.238C451.439 84.2196 449.764 84.9019 448.461 86.2045C447.655 87.0109 447.097 88.0033 446.725 89.1198H450.881C450.943 88.9958 451.005 88.9337 451.067 88.8717Z" fill="#FDBC1F"/>
<path d="M462.108 93.9573H457.89C458.324 94.5156 458.572 95.1359 458.572 95.8802C458.572 96.5625 458.324 97.2448 457.89 97.7411H462.046C462.232 97.1208 462.294 96.5005 462.294 95.8802C462.356 95.1979 462.294 94.5156 462.108 93.9573Z" fill="#0F3253"/>
<path d="M446.725 92.8412H450.943C450.509 92.345 450.261 91.6627 450.261 90.9183C450.261 90.236 450.509 89.5537 450.943 89.0575H446.787C446.601 89.6778 446.539 90.2981 446.539 90.9183C446.415 91.6627 446.539 92.283 446.725 92.8412Z" fill="#15537E"/>
<path d="M443.189 98.7963H439.405V102.58H443.189V98.7963Z" fill="#0F6C9F"/>
<path d="M469.365 93.9573H465.581H462.046C462.232 94.5776 462.294 95.1979 462.294 95.8802C462.294 96.5005 462.232 97.1208 462.046 97.7411H469.303L469.365 93.9573Z" fill="#15537E"/>
<path d="M461.549 88.0026H462.604C464.217 88.0026 465.581 89.3052 465.581 90.9799V93.9573H469.365V90.9799C469.365 87.2582 466.326 84.2809 462.604 84.2809H461.487C461.922 84.8391 462.17 85.4594 462.17 86.2037C462.232 86.824 461.984 87.5063 461.549 88.0026Z" fill="#0F6C9F"/>
<path d="M462.605 101.092V99.9131H462.232V99.665H463.349V99.9131H462.915V101.092H462.605Z" fill="#15537E"/>
<path d="M463.535 101.092V99.6652H463.969L464.217 100.658L464.466 99.6652H464.9V101.092H464.652V99.9754L464.342 101.092H464.093L463.783 99.9754V101.092H463.535Z" fill="#15537E"/>
</g>
<g clip-path="url(#clip1_186_10592)">
<path d="M167.883 94.0946V92.4896H167.348V92.133H168.863V92.4896H168.328V94.0946H167.883Z" fill="#15537E"/>
<path d="M169.131 94.0945V92.1329H169.755L170.112 93.4703L170.468 92.1329H171.092V94.0945H170.736V92.5787L170.379 94.0945H169.844L169.488 92.5787V94.0945H169.131Z" fill="#15537E"/>
<path d="M163.603 80.8088C163.157 80.363 163.157 79.6497 163.603 79.2039C164.406 78.4014 164.406 77.1532 163.603 76.4399C162.801 75.6374 161.552 75.6374 160.839 76.4399C159.858 77.4207 159.323 78.6689 159.323 80.0064C159.323 81.3438 159.858 82.5921 160.839 83.5729L160.928 83.6621C160.572 83.3054 160.393 82.5921 160.393 82.1463C160.393 81.7005 160.572 81.1655 160.928 80.898C161.285 80.5414 161.731 80.363 162.176 80.363C162.622 80.4522 163.157 80.5414 163.603 80.8088Z" fill="#15537E"/>
<path d="M168.149 70.6426C165.652 69.6618 162.888 69.6618 160.392 70.7318C157.895 71.8017 156.023 73.7633 154.953 76.2599C154.507 77.2407 155.042 78.3998 156.023 78.8456C157.004 79.2914 158.163 78.7564 158.609 77.7756C159.857 74.6549 163.513 73.05 166.633 74.2983C169.754 75.5466 171.359 79.2022 170.111 82.3229C169.932 82.7687 169.754 83.1254 169.486 83.4821C169.843 82.9471 170.556 82.7687 171.181 82.7687C171.537 82.7687 171.894 82.8579 172.161 83.0362C172.607 83.3037 172.875 83.7495 172.964 84.1954C173.053 84.6412 173.053 85.3545 172.785 85.7111C173.231 85.087 173.588 84.4628 173.855 83.7495C175.817 78.5781 173.32 72.6933 168.149 70.6426Z" fill="#3281C4"/>
<path d="M167.169 89.547C166.366 89.547 165.742 89.1012 165.475 88.3879C165.296 87.942 165.296 87.4071 165.564 86.9612C165.742 86.5154 166.277 85.9805 166.723 85.8021C166.723 85.8021 166.723 85.8021 166.812 85.8021C165.385 86.4263 163.691 86.5154 162.086 85.8913C161.106 85.4455 159.947 85.9805 159.501 86.9612C159.055 87.942 159.59 89.1012 160.571 89.547C161.819 89.9928 163.067 90.2603 164.316 90.2603C165.564 90.2603 166.812 89.9928 167.882 89.6361C167.704 89.547 167.347 89.547 167.169 89.547Z" fill="#3281C4"/>
<path d="M167.17 89.6339C166.367 89.6339 165.565 89.099 165.297 88.2965C164.941 87.3157 165.476 86.1566 166.457 85.7999C167.705 85.3541 168.775 84.5516 169.488 83.3925C170.112 82.5009 171.36 82.2334 172.252 82.8575C173.144 83.4817 173.411 84.73 172.787 85.6216C171.628 87.4049 169.845 88.7423 167.883 89.5448C167.616 89.6339 167.348 89.6339 167.17 89.6339Z" fill="#0F6C9F"/>
<path d="M164.316 85.0896C162.978 85.0896 161.73 84.5546 160.749 83.5738C159.947 82.7714 159.947 81.5231 160.749 80.8098C161.552 80.0073 162.8 80.0073 163.513 80.8098C163.692 80.9881 164.048 81.1664 164.316 81.1664C164.583 81.1664 164.851 81.0773 165.118 80.8098C165.921 80.0073 167.169 80.0073 167.882 80.8098C168.685 81.6123 168.685 82.8605 167.882 83.5738C166.991 84.5546 165.742 85.0896 164.316 85.0896Z" fill="#0F3253"/>
<path d="M164.315 65.0263C165.296 65.0263 166.099 66.0071 166.099 66.9879C166.099 67.9687 165.296 68.9495 164.315 68.9495C170.379 68.9495 175.372 73.9426 175.372 80.0057C175.372 81.0756 176.263 81.9673 177.333 81.9673C178.403 81.9673 179.295 81.0756 179.295 80.0057C179.384 71.8027 172.608 65.0263 164.315 65.0263Z" fill="#00B2E3"/>
<path d="M151.298 81.8799C150.317 81.8799 149.336 81.0775 149.336 80.0967C149.336 88.3888 156.112 95.076 164.315 95.076C165.385 95.076 166.277 94.1844 166.277 93.1145C166.277 92.0445 165.385 91.1529 164.315 91.1529C158.252 91.1529 153.259 86.1598 153.259 80.0967C153.259 81.0775 152.278 81.8799 151.298 81.8799Z" fill="#00B2E3"/>
<path d="M151.298 82.0564C150.228 82.0564 149.336 81.1648 149.336 80.0948C149.336 71.8027 156.112 65.0263 164.315 65.0263C165.385 65.0263 166.277 65.9179 166.277 66.9879C166.277 68.0578 165.385 68.9495 164.315 68.9495C158.252 68.9495 153.259 73.9426 153.259 80.0057C153.259 81.1648 152.367 82.0564 151.298 82.0564Z" fill="#FDBC1F"/>
</g>
<g clip-path="url(#clip2_186_10592)">
<path d="M40.967 256.465V254.973H40.4697V254.6H41.9615V254.973H41.4643V256.465H40.967Z" fill="#15537E"/>
<path d="M42.21 256.465V254.6H42.7072L43.0801 255.844L43.4531 254.6H43.9503V256.465H43.5774V254.973L43.2045 256.465H42.8315L42.4586 254.973V256.465H42.21Z" fill="#15537E"/>
<path d="M38.4808 263.301C37.3619 263.301 36.3674 262.431 36.3674 261.188C36.3674 263.426 34.5027 265.29 32.2651 265.29H29.5302C28.66 265.29 27.9141 265.788 27.6655 266.534L24.5576 272.874H25.9251C27.0439 272.874 28.0384 273.744 28.0384 274.863C28.0384 275.236 27.9141 275.608 27.7898 275.857L30.7733 269.641H32.1408C36.7404 269.641 40.5941 265.912 40.5941 261.188C40.5941 262.431 39.5996 263.301 38.4808 263.301Z" fill="#3281C4"/>
<path d="M16.2302 273H19.5867L21.7 268.524C22.1973 267.406 21.8243 266.162 20.7055 265.665C19.5867 265.168 18.3436 265.541 17.8463 266.66L14.2412 274.118C14.6142 273.373 15.36 273 16.2302 273Z" fill="#FDBC1F"/>
<path d="M38.482 263.426C37.3632 263.426 36.3687 262.432 36.3687 261.313C36.3687 259.075 34.504 257.211 32.2664 257.211H23.1914C22.0726 257.211 21.0781 256.216 21.0781 255.097C21.0781 253.978 22.0726 252.984 23.1914 252.984H32.2664C36.866 252.984 40.7197 256.713 40.7197 261.437C40.5954 262.432 39.6009 263.426 38.482 263.426Z" fill="#00B2E3"/>
<path d="M25.801 277.102H16.1046C14.9857 277.102 13.9912 276.107 13.9912 274.988C13.9912 273.869 14.9857 272.875 16.1046 272.875H25.801C26.9198 272.875 27.9144 273.869 27.9144 274.988C27.9144 276.107 27.0441 277.102 25.801 277.102Z" fill="#15537E"/>
<path d="M22.8174 263.427C23.9846 263.427 24.9308 262.481 24.9308 261.313C24.9308 260.146 23.9846 259.2 22.8174 259.2C21.6503 259.2 20.7041 260.146 20.7041 261.313C20.7041 262.481 21.6503 263.427 22.8174 263.427Z" fill="#4880C1"/>
<path d="M17.9699 276.356L19.586 272.875H16.2295C15.1107 272.875 14.1162 273.869 14.1162 274.988C14.1162 276.107 15.1107 277.102 16.2295 277.102H17.2241C17.4727 276.977 17.7213 276.604 17.9699 276.356Z" fill="#1D3554"/>
</g>
<g clip-path="url(#clip3_186_10592)">
<path d="M453.112 201.229V199.901C453.112 198.822 452.282 197.992 451.203 197.992C450.124 197.992 449.294 198.822 449.294 199.901V202.889C449.294 203.968 450.124 204.797 451.203 204.797C452.448 204.797 453.443 205.793 453.443 207.038C453.443 208.283 452.448 209.279 451.203 209.279C450.124 209.279 449.294 210.109 449.294 211.188V214.175C449.294 215.254 450.124 216.084 451.203 216.084C452.282 216.084 453.112 215.254 453.112 214.175V212.848C453.692 212.682 454.273 212.35 454.771 212.018V202.225C454.273 201.727 453.692 201.478 453.112 201.229Z" fill="#15537E"/>
<path d="M456.68 216.083C455.601 216.083 454.771 215.253 454.771 214.174V202.141C454.771 201.062 455.601 200.232 456.68 200.232C457.759 200.232 458.589 201.062 458.589 202.141V214.174C458.589 215.253 457.759 216.083 456.68 216.083Z" fill="#3281C4"/>
<path d="M473.195 216.084C472.116 216.084 471.286 215.254 471.286 214.175V199.901C471.286 198.822 472.116 197.992 473.195 197.992C474.274 197.992 475.104 198.822 475.104 199.901V214.175C475.104 215.254 474.191 216.084 473.195 216.084Z" fill="#00B2E3"/>
<path d="M467.634 212.267C466.555 212.267 465.726 211.437 465.726 210.358V199.901C465.726 198.822 466.555 197.992 467.634 197.992C468.713 197.992 469.543 198.822 469.543 199.901V210.358C469.626 211.437 468.713 212.267 467.634 212.267Z" fill="#0F6C9F"/>
<path d="M462.157 216.084C461.078 216.084 460.248 215.254 460.248 214.175V206.623C460.248 205.544 461.078 204.714 462.157 204.714C463.236 204.714 464.066 205.544 464.066 206.623V214.175C464.149 215.254 463.236 216.084 462.157 216.084Z" fill="#FDBC1F"/>
<path d="M457.261 207.037C457.261 209.029 456.265 210.855 454.771 211.933V202.058C456.265 203.219 457.261 204.962 457.261 207.037Z" fill="#0F3253"/>
<path d="M477.013 199.486V198.241H476.598V197.992H477.76V198.241H477.345V199.486H477.013Z" fill="#15537E"/>
<path d="M477.926 199.486V197.992H478.341L478.59 198.988L478.839 197.992H479.254V199.486H479.005V198.324L478.673 199.486H478.424L478.092 198.324V199.486H477.926Z" fill="#15537E"/>
</g>
<g clip-path="url(#clip4_186_10592)">
<path d="M75.948 120.282H54.3473C52.8576 120.282 51.6162 119.041 51.6162 117.551C51.6162 116.061 52.8576 114.82 54.3473 114.82H75.948C77.4378 114.82 78.6792 116.061 78.6792 117.551C78.6792 119.041 77.4378 120.282 75.948 120.282Z" fill="#0087E2"/>
<path d="M75.9478 122.764H70.5684C71.5615 122.764 72.3891 123.591 72.3891 124.584C72.3891 125.578 71.5615 126.405 70.5684 126.405H75.9478C76.941 126.405 77.7686 125.578 77.7686 124.584C77.7686 123.591 76.941 122.764 75.9478 122.764Z" fill="#00B4E5"/>
<path d="M75.9492 128.888H65.4385C66.4316 128.888 67.2592 129.716 67.2592 130.709C67.2592 131.702 66.4316 132.53 65.4385 132.53H75.8664C76.8595 132.53 77.6871 131.702 77.6871 130.709C77.6871 129.716 76.9423 128.888 75.9492 128.888Z" fill="#00B4E5"/>
<path d="M75.948 140.393H54.3473C52.8576 140.393 51.6162 139.152 51.6162 137.662C51.6162 136.172 52.8576 134.931 54.3473 134.931H75.948C77.4378 134.931 78.6792 136.172 78.6792 137.662C78.6792 139.152 77.4378 140.393 75.948 140.393Z" fill="#FFBE1D"/>
<path d="M70.5691 126.405H64.4448C63.4516 126.405 62.624 125.578 62.624 124.585C62.624 123.591 63.4516 122.764 64.4448 122.764H70.5691C71.5623 122.764 72.3899 123.591 72.3899 124.585C72.3899 125.578 71.5623 126.405 70.5691 126.405Z" fill="#0E6CA0"/>
<path d="M65.5203 132.447H59.396C58.4028 132.447 57.5752 131.619 57.5752 130.626C57.5752 129.633 58.4028 128.805 59.396 128.805H65.5203C66.5134 128.805 67.341 129.633 67.341 130.626C67.341 131.619 66.5134 132.447 65.5203 132.447Z" fill="#103254"/>
<path d="M79.4245 116.227V115.068H79.0107V114.82H80.0866V115.068H79.6728V116.227H79.4245Z" fill="#18527D"/>
<path d="M80.252 116.227V114.903H80.6658L80.914 115.813L81.1623 114.903H81.5761V116.227H81.3278V115.151L81.0796 116.227H80.8312L80.583 115.151V116.227H80.252Z" fill="#18527D"/>
</g>
<g clip-path="url(#clip5_186_10592)">
<path d="M300.481 84.4635L303.313 81.6312C305.956 78.9878 310.173 78.6102 313.257 80.7501C312.88 81.0018 312.502 81.3165 312.124 81.6942L310.362 83.4565C308.852 82.8271 307.089 83.1418 305.956 84.3376L303.124 87.1699C301.551 88.7433 301.551 91.2609 303.124 92.8344L305.956 95.6666C307.089 96.7995 308.852 97.1772 310.362 96.5478L312.062 98.2471C312.439 98.6248 312.817 98.9395 313.257 99.2542C310.173 101.394 305.956 101.079 303.25 98.373L300.418 95.5408C297.46 92.4567 297.46 87.4846 300.481 84.4635Z" fill="#FFBE1D"/>
<path d="M325.971 84.4635L323.139 81.6312C320.495 78.9878 316.278 78.6102 313.194 80.7501C313.572 81.0018 313.95 81.3165 314.327 81.6942L316.09 83.4565C317.6 82.8271 319.362 83.1418 320.495 84.3376L323.328 87.1699C324.901 88.7433 324.901 91.2609 323.328 92.8344L320.495 95.6666C319.362 96.7995 317.6 97.1772 316.09 96.5478L314.39 98.2471C314.013 98.6248 313.635 98.9395 313.194 99.2542C316.278 101.394 320.495 101.079 323.202 98.373L326.034 95.5408C329.055 92.4567 329.055 87.4846 325.971 84.4635Z" fill="#0087E2"/>
<path d="M313.257 94.1554L311.936 92.8337C310.362 91.2602 310.362 88.7427 311.936 87.1692L313.32 85.7845L311.81 84.274C311.432 83.8963 310.929 83.5817 310.425 83.3299L309.292 84.4628C306.271 87.4839 306.271 92.4561 309.292 95.4771L310.425 96.61C310.929 96.4212 311.369 96.1065 311.747 95.7289L313.257 94.1554Z" fill="#0E6CA0"/>
<path d="M313.195 94.1554L314.517 92.8337C316.09 91.2602 316.09 88.7427 314.517 87.1692L313.132 85.7845L314.642 84.274C315.02 83.8963 315.524 83.5817 316.027 83.3299L317.16 84.4628C320.181 87.4839 320.181 92.4561 317.16 95.4771L316.027 96.61C315.524 96.4212 315.083 96.1065 314.705 95.7289L313.195 94.1554Z" fill="#00B4E5"/>
<path d="M310.361 83.3944C310.865 83.5832 311.368 83.8979 311.746 84.2756L313.257 85.7861L314.767 84.2756C315.145 83.8979 315.648 83.5832 316.152 83.3944L314.389 81.6321C314.012 81.2545 313.634 80.9398 313.257 80.688C312.879 80.9398 312.501 81.2545 312.124 81.6321L310.361 83.3944Z" fill="#103254"/>
<path d="M316.152 96.6117C315.648 96.4228 315.145 96.1081 314.767 95.7305L313.257 94.22L311.746 95.7305C311.368 96.1081 310.865 96.4228 310.361 96.6117L312.124 98.3739C312.501 98.7516 312.879 99.0663 313.257 99.318C313.634 99.0663 314.075 98.7516 314.389 98.3739L316.152 96.6117Z" fill="#18527D"/>
<path d="M323.327 80.7497V79.5539H322.887V79.3021H324.02V79.5539H323.579V80.7497H323.327Z" fill="#18527D"/>
<path d="M324.209 80.7496V79.302H324.65L324.901 80.2461L325.153 79.302H325.594V80.7496H325.342V79.6167L325.027 80.7496H324.775L324.524 79.6167V80.7496H324.209Z" fill="#18527D"/>
</g>
<g clip-path="url(#clip6_186_10592)">
<path d="M432.589 279.27C432.214 279.27 431.932 279.176 431.557 278.988L422.355 273.636C421.416 273.073 420.29 273.073 419.351 273.636L416.252 275.42C415.313 275.984 414.093 275.608 413.529 274.669C412.966 273.73 413.342 272.51 414.28 271.946L417.379 270.162C419.538 268.942 422.261 268.942 424.421 270.162L433.622 275.514C434.561 276.077 434.937 277.298 434.373 278.237C433.998 278.894 433.341 279.27 432.589 279.27Z" fill="#00B4E5"/>
<path d="M409.21 272.228C408.552 272.228 407.895 271.852 407.52 271.195C406.956 270.256 407.332 269.035 408.271 268.472L417.472 263.12C419.632 261.9 422.355 261.9 424.514 263.12L427.612 264.904C428.551 265.467 428.927 266.688 428.364 267.627C427.8 268.566 426.58 268.941 425.641 268.378L422.542 266.594C421.603 266.031 420.477 266.031 419.538 266.594L410.336 271.946C409.867 272.134 409.585 272.228 409.21 272.228Z" fill="#0087E2"/>
<path d="M420.947 278.238C419.726 278.238 418.505 277.957 417.473 277.299L414.374 275.515C413.435 274.952 413.06 273.732 413.623 272.793C414.186 271.854 415.407 271.478 416.346 272.041L419.444 273.825C420.383 274.389 421.51 274.389 422.449 273.825H422.543L430.711 269.506C431.65 269.037 432.871 269.412 433.434 270.351C433.904 271.29 433.528 272.511 432.589 273.074L424.421 277.393C423.294 277.957 422.073 278.238 420.947 278.238Z" fill="#0E6CA0"/>
<path d="M420.947 285.278C419.727 285.278 418.506 284.997 417.473 284.34L408.272 278.988C407.333 278.424 406.957 277.204 407.521 276.265C408.084 275.326 409.304 274.95 410.243 275.514L419.445 280.866C420.384 281.429 421.51 281.429 422.449 280.866L431.651 275.514C432.59 274.95 433.81 275.326 434.374 276.265C434.937 277.204 434.561 278.424 433.623 278.988L424.421 284.34C423.388 284.903 422.168 285.278 420.947 285.278Z" fill="#FFBE1D"/>
<path d="M432.59 265.281C432.214 265.281 431.933 265.187 431.557 264.999L422.356 259.647C421.417 259.084 420.29 259.084 419.351 259.647L410.15 264.999C409.211 265.563 407.99 265.187 407.427 264.248C406.863 263.309 407.239 262.089 408.178 261.525L417.379 256.173C419.539 254.953 422.262 254.953 424.421 256.173L433.623 261.525C434.562 262.089 434.937 263.309 434.374 264.248C433.998 264.905 433.341 265.281 432.59 265.281Z" fill="#00B4E5"/>
<path d="M420.947 271.195C419.727 271.195 418.506 270.914 417.473 270.257L408.272 264.905C407.333 264.341 406.957 263.121 407.521 262.182C408.084 261.243 409.304 260.867 410.243 261.431L419.445 266.783C420.384 267.346 421.51 267.346 422.449 266.783L425.548 264.999C426.487 264.435 427.707 264.811 428.271 265.75C428.834 266.689 428.459 267.909 427.52 268.473L424.421 270.257C423.388 270.914 422.168 271.195 420.947 271.195Z" fill="#18527D"/>
<path d="M416.252 275.516L419.257 273.826L416.252 272.136C415.595 271.761 414.844 271.761 414.281 272.136C414.281 272.136 414.187 272.136 414.187 272.23C414.187 272.23 414.187 272.23 414.093 272.23L413.999 272.324C413.999 272.324 413.999 272.324 413.905 272.418L413.811 272.512C413.811 272.512 413.811 272.512 413.717 272.606C413.717 272.606 413.717 272.606 413.623 272.699L413.53 272.793C413.53 272.793 413.53 272.793 413.53 272.887L413.436 272.981C413.436 272.981 413.436 272.981 413.436 273.075C413.436 273.075 413.436 273.169 413.342 273.169V273.263V273.357V273.451V273.544V273.638V273.732V273.826V273.92V274.014V274.108V274.202V274.296V274.39V274.483V274.577V274.671V274.765V274.859C413.342 274.859 413.342 274.953 413.436 274.953C413.436 274.953 413.436 274.953 413.436 275.047C413.436 275.047 413.436 275.141 413.53 275.141C413.53 275.141 413.53 275.141 413.53 275.235L413.623 275.328C413.623 275.328 413.623 275.328 413.717 275.422C413.717 275.422 413.717 275.422 413.811 275.516L413.905 275.61C413.905 275.61 413.905 275.61 413.999 275.704L414.093 275.798C414.093 275.798 414.093 275.798 414.187 275.798L414.281 275.892C414.844 275.798 415.595 275.892 416.252 275.516Z" fill="#103254"/>
<path d="M425.548 265L422.543 266.69L425.548 268.38C426.205 268.755 426.956 268.755 427.519 268.38C427.519 268.38 427.613 268.38 427.613 268.286C427.613 268.286 427.613 268.286 427.707 268.286L427.801 268.192C427.801 268.192 427.801 268.192 427.895 268.098L427.989 268.004C427.989 268.004 427.989 268.004 428.083 267.91C428.083 267.91 428.083 267.91 428.176 267.816L428.27 267.723C428.27 267.723 428.27 267.723 428.27 267.629L428.364 267.535C428.364 267.535 428.364 267.535 428.364 267.441C428.364 267.441 428.364 267.347 428.458 267.347V267.253V267.159V267.065V266.971V266.878V266.784V266.69V266.596V266.502V266.408V266.314V266.22V266.126V266.033V265.939V265.845V265.751V265.657C428.458 265.657 428.458 265.563 428.364 265.563C428.364 265.563 428.364 265.563 428.364 265.469C428.364 265.469 428.364 265.375 428.27 265.375C428.27 265.375 428.27 265.375 428.27 265.281L428.176 265.188C428.176 265.188 428.177 265.187 428.083 265.094C428.083 265.094 428.083 265 427.989 265L427.895 264.906C427.895 264.906 427.895 264.906 427.801 264.812L427.707 264.718C427.707 264.718 427.707 264.718 427.613 264.718L427.519 264.624C426.956 264.718 426.205 264.624 425.548 265Z" fill="#103254"/>
<path d="M431.744 259.178V257.676H431.181V257.394H432.589V257.676H432.026V259.178H431.744Z" fill="#18527D"/>
<path d="M432.871 259.178V257.394H433.434L433.716 258.614L433.998 257.394H434.561V259.178H434.186V257.676L433.81 259.084H433.434L433.247 257.676V259.084H432.871V259.178Z" fill="#18527D"/>
</g>
<g clip-path="url(#clip7_186_10592)">
<path d="M86.9624 201.691H76.2568C77.603 201.691 78.6287 202.653 78.6287 203.935C78.6287 205.153 77.603 206.178 76.2568 206.178H87.0265C88.2445 206.178 89.2702 205.217 89.2702 203.935C89.2061 202.717 88.2445 201.691 86.9624 201.691Z" fill="#00B2E3"/>
<path d="M86.9622 212.462H80.8081C79.5901 212.462 78.5645 211.5 78.5645 210.218C78.5645 208.936 79.526 207.974 80.8081 207.974H86.9622C88.1802 207.974 89.2059 208.936 89.2059 210.218C89.2059 211.5 88.2443 212.462 86.9622 212.462Z" fill="#FDBC1F"/>
<path d="M81.2571 197.651C81.2571 196.433 82.2187 195.408 83.629 195.408H64.8462C63.6282 195.408 62.6025 196.369 62.6025 197.651C62.6025 198.869 63.5641 199.895 64.8462 199.895H83.629C82.2187 199.831 81.2571 198.869 81.2571 197.651Z" fill="#3281C4"/>
<path d="M86.9625 199.83H83.3726C82.1546 199.83 81.1289 198.869 81.1289 197.587C81.1289 196.369 82.0905 195.343 83.3726 195.343H86.9625C88.1805 195.343 89.2062 196.305 89.2062 197.587C89.2062 198.869 88.2446 199.83 86.9625 199.83Z" fill="#0F3253"/>
<path d="M76.4498 206.114H72.8599C71.6419 206.114 70.6162 205.152 70.6162 203.87C70.6162 202.652 71.5778 201.626 72.8599 201.626H76.4498C77.6678 201.626 78.6935 202.588 78.6935 203.87C78.6294 205.152 77.6678 206.114 76.4498 206.114Z" fill="#0F6C9F"/>
<path d="M89.912 196.754V195.664H89.5273V195.408H90.553V195.664H90.1684V196.754H89.912Z" fill="#15537E"/>
<path d="M90.7451 196.754V195.408H91.1298L91.3862 196.305L91.6426 195.408H92.0272V196.754H91.7708V195.728L91.5144 196.754H91.258L91.0015 195.728V196.754H90.7451Z" fill="#15537E"/>
</g>
<g clip-path="url(#clip8_186_10592)">
<path d="M405.723 149.565L405.124 149.066L398.644 148.368L396.849 142.087L396.351 141.589C395.453 140.791 394.057 140.791 393.16 141.589L395.653 150.362C395.752 150.661 395.952 150.96 396.251 151.26C396.55 151.459 396.849 151.658 397.148 151.658L406.221 152.556C406.919 151.658 406.62 150.362 405.723 149.565Z" fill="#18527D"/>
<path d="M410.01 151.159C410.01 151.259 410.01 151.259 410.01 151.359C409.91 152.356 409.113 152.954 408.116 152.854L406.221 152.655C406.122 152.755 406.022 152.954 405.922 153.054L400.239 159.834C400.837 159.136 401.934 159.036 402.632 159.634C403.33 160.232 403.43 161.329 402.832 162.027L408.515 155.247C409.711 154.051 410.11 152.655 410.01 151.159Z" fill="#0087E2"/>
<path d="M396.051 138.996L396.949 142.187L405.124 149.066L408.414 149.365C409.212 149.465 409.91 150.063 409.91 150.861C409.81 149.365 409.112 147.87 407.816 146.873L398.544 139.096C397.348 138.099 395.852 137.6 394.356 137.7C395.154 137.8 395.852 138.298 396.051 138.996Z" fill="#0087E2"/>
<path d="M393.958 137.8C392.662 137.999 391.266 138.697 390.269 139.794L387.478 143.184C388.076 142.486 389.172 142.386 389.87 142.984C390.568 143.582 390.668 144.679 390.07 145.377L392.861 141.987C392.961 141.887 393.061 141.788 393.161 141.688L392.662 139.893C392.463 138.996 393.061 138.099 393.958 137.8Z" fill="#0087E2"/>
<path d="M396.45 141.788L396.949 142.286L396.052 139.096C395.852 138.398 395.154 137.899 394.456 137.8C394.357 137.8 394.157 137.8 394.058 137.8H393.958C393.061 138.099 392.462 138.996 392.761 139.893L393.26 141.688C394.157 140.99 395.453 140.99 396.45 141.788Z" fill="#103254"/>
<path d="M410.01 151.359C410.01 151.259 410.01 151.259 410.01 151.159C410.01 151.06 410.01 151.06 410.01 150.96C409.911 150.162 409.312 149.564 408.515 149.464L405.225 149.165L405.823 149.664C406.72 150.461 406.92 151.758 406.421 152.755L408.315 152.954C409.113 152.954 409.911 152.256 410.01 151.359Z" fill="#103254"/>
<path d="M389.87 142.985C389.172 142.387 388.075 142.487 387.477 143.185L383.888 147.472C383.29 148.17 383.389 149.266 384.087 149.865C384.785 150.463 385.882 150.363 386.48 149.665L390.069 145.378C390.668 144.68 390.668 143.583 389.87 142.985Z" fill="#00B4E5"/>
<path d="M399.939 163.025C399.241 162.427 399.142 161.33 399.74 160.632L396.151 164.919C395.552 165.617 395.652 166.714 396.35 167.312C397.048 167.91 398.145 167.811 398.743 167.113L402.332 162.826C401.834 163.523 400.737 163.623 399.939 163.025Z" fill="#00B4E5"/>
<path d="M391.366 151.958C390.668 151.36 389.571 151.459 388.973 152.157L385.882 155.747C385.284 156.445 385.384 157.541 386.081 158.14C386.779 158.738 387.876 158.638 388.474 157.94L391.565 154.351C392.163 153.653 392.064 152.556 391.366 151.958Z" fill="#FFBE1D"/>
<path d="M397.148 155.646C396.45 155.048 395.354 155.147 394.755 155.845L393.36 157.54C392.761 158.238 392.861 159.335 393.559 159.933C394.257 160.531 395.354 160.432 395.952 159.734L397.348 158.039C398.046 157.341 397.946 156.244 397.148 155.646Z" fill="#0E6CA0"/>
<path d="M402.831 159.634C402.133 159.036 401.036 159.136 400.438 159.834L399.84 160.532C399.242 161.229 399.342 162.326 400.039 162.924C400.737 163.523 401.834 163.423 402.432 162.725L403.031 162.027C403.629 161.329 403.529 160.232 402.831 159.634Z" fill="#18527D"/>
<path d="M402.233 167.709V166.214H401.734V165.915H403.23V166.214H402.632V167.709H402.233Z" fill="#18527D"/>
<path d="M403.43 167.709V165.915H404.028L404.327 167.111L404.626 165.915H405.224V167.709H404.925V166.313L404.526 167.709H404.128L403.729 166.313V167.709H403.43Z" fill="#18527D"/>
</g>
<circle cx="224.415" cy="11.8048" r="1.91784" fill="#1DE1F4"/>
<g clip-path="url(#clip9_186_10592)">
<path d="M251.799 30.323L250.785 31.3118C250.652 31.4408 250.553 31.6001 250.496 31.7759C250.439 31.9518 250.426 32.1389 250.457 32.321L251.348 37.5125C251.372 37.6629 251.355 37.8172 251.297 37.9581C251.239 38.0991 251.143 38.2211 251.019 38.3106C250.896 38.4002 250.75 38.4536 250.598 38.465C250.446 38.4764 250.294 38.4454 250.159 38.3753L249.874 38.226L259.946 44.0242V29.0454C259.947 27.1291 259.578 25.2306 258.86 23.454L251.799 30.323V30.323Z" fill="#103254"/>
<path d="M238.587 37.5122L239.351 33.0506L239.477 32.322C239.509 32.1399 239.495 31.9529 239.438 31.7771C239.381 31.6013 239.282 31.442 239.15 31.3128L235.377 27.6358C235.269 27.5287 235.192 27.3935 235.157 27.2454C235.121 27.0973 235.126 26.9421 235.174 26.7971C235.221 26.6522 235.307 26.5232 235.424 26.4247C235.54 26.3261 235.681 26.2618 235.832 26.239L236.31 26.1692L230.124 27.0223C230.034 27.6927 229.988 28.3685 229.987 29.045C229.989 31.7351 230.715 34.3751 232.088 36.6882C233.462 39.0012 235.432 40.9021 237.793 42.1915L238.59 37.5355C238.59 37.5355 238.586 37.5177 238.587 37.5122Z" fill="#FFBE1D"/>
<path d="M259.946 44.0239L249.874 38.2258L245.492 35.9237C245.329 35.8381 245.147 35.7933 244.962 35.7933C244.778 35.7933 244.596 35.8381 244.432 35.9237L239.776 38.375C239.642 38.4441 239.492 38.475 239.341 38.4643C239.191 38.4536 239.046 38.4018 238.923 38.3144C238.8 38.227 238.704 38.1074 238.644 37.9688C238.585 37.8303 238.565 37.678 238.586 37.5287L237.789 42.1848C239.989 43.3928 242.459 44.0245 244.969 44.0212L259.946 44.0239Z" fill="#0087E2"/>
<path d="M236.31 26.1692L241.044 25.4845C241.227 25.4574 241.4 25.3862 241.55 25.2772C241.699 25.1682 241.82 25.0246 241.901 24.8587L244.229 20.1355C244.298 19.9981 244.405 19.8826 244.536 19.8019C244.667 19.7212 244.817 19.6785 244.971 19.6785C245.125 19.6785 245.276 19.7212 245.407 19.8019C245.538 19.8826 245.644 19.9981 245.714 20.1355L242.825 14.2209C239.607 14.6903 236.628 16.1924 234.338 18.5012C232.047 20.81 230.568 23.8004 230.124 27.0224L236.307 26.1692H236.31Z" fill="#00B4E5"/>
<path d="M244.968 14.0645C244.251 14.065 243.535 14.1172 242.826 14.2206L247.392 23.5587L248.033 24.8583C248.114 25.0231 248.235 25.1658 248.383 25.2743C248.532 25.3828 248.704 25.4538 248.886 25.4814L254.103 26.2387C254.255 26.2609 254.398 26.3252 254.515 26.4242C254.632 26.5232 254.719 26.653 254.766 26.7989C254.813 26.9448 254.819 27.101 254.782 27.2498C254.745 27.3986 254.667 27.5341 254.557 27.641L258.861 23.4533C257.743 20.6829 255.824 18.3094 253.349 16.6367C250.873 14.964 247.955 14.0683 244.968 14.0645V14.0645Z" fill="#0E6CA0"/>
<path d="M256.195 16.4212V14.463H255.497V14.0645H257.376V14.463H256.678V16.4212H256.195Z" fill="#18527D"/>
<path d="M257.67 16.4212V14.0645H258.383L258.811 15.6722L259.232 14.0645H259.946V16.4212H259.505V14.5657L259.037 16.4212H258.579L258.112 14.5657V16.4212H257.67Z" fill="#18527D"/>
</g>
<defs>
<clipPath id="clip0_186_10592">
<rect width="29.9595" height="30.0219" fill="white" transform="translate(439.406 78.3884)"/>
</clipPath>
<clipPath id="clip1_186_10592">
<rect width="29.9595" height="30.0219" fill="white" transform="translate(149.338 65.041)"/>
</clipPath>
<clipPath id="clip2_186_10592">
<rect width="29.9595" height="30.0219" fill="white" transform="translate(13.9912 250.032)"/>
</clipPath>
<clipPath id="clip3_186_10592">
<rect width="29.9595" height="30.0219" fill="white" transform="translate(449.293 192.025)"/>
</clipPath>
<clipPath id="clip4_186_10592">
<rect width="29.9595" height="30.0219" fill="white" transform="translate(51.6162 112.595)"/>
</clipPath>
<clipPath id="clip5_186_10592">
<rect width="29.9595" height="30.0219" fill="white" transform="translate(298.27 74.9694)"/>
</clipPath>
<clipPath id="clip6_186_10592">
<rect width="29.9595" height="30.0219" fill="white" transform="translate(405.92 255.257)"/>
</clipPath>
<clipPath id="clip7_186_10592">
<rect width="29.9595" height="30.0219" fill="white" transform="translate(62.0674 188.891)"/>
</clipPath>
<clipPath id="clip8_186_10592">
<rect width="29.9595" height="30.0219" fill="white" transform="translate(381.781 137.685)"/>
</clipPath>
<clipPath id="clip9_186_10592">
<rect width="29.959" height="29.959" fill="white" transform="translate(229.988 14.0671)"/>
</clipPath>
</defs>
</svg>
