<svg width="488" height="433" viewBox="0 0 488 433" fill="none" xmlns="http://www.w3.org/2000/svg">
<path d="M182.246 206.637C178.139 200.041 178.284 191.777 182.246 185.398C183.769 187.838 184.759 190.617 185.122 193.565C185.702 198.18 184.663 202.747 182.246 206.637Z" fill="#18527D"/>
<path d="M199.45 228.794L198.097 230.534C197.348 231.501 196.502 232.395 195.608 233.192C192.563 235.898 188.794 237.638 184.662 238.145C183.865 238.242 183.067 238.29 182.27 238.29C181.472 238.29 180.675 238.242 179.878 238.145C175.746 237.638 171.976 235.898 168.932 233.192C168.038 232.395 167.192 231.501 166.443 230.534L165.09 228.794L172.242 219.637L175.311 223.551C176.809 225.46 178.911 226.644 181.279 226.934C181.569 226.982 181.956 226.982 182.246 227.006C182.608 227.006 182.971 226.982 183.309 226.934C185.677 226.644 187.779 225.46 189.253 223.575L192.346 219.612L199.45 228.794Z" fill="#0087E2"/>
<path d="M146.871 204.777C147.499 206.058 148.248 207.29 149.142 208.45L157.914 219.686L165.066 210.528L158.034 201.515C156.56 199.63 155.932 197.311 156.222 194.943C156.416 193.348 157.02 191.826 157.986 190.569L146.871 204.777Z" fill="#0087E2"/>
<path d="M154.869 223.6C153.395 225.484 151.293 226.668 148.925 226.958C146.557 227.248 144.237 226.596 142.352 225.146C140.468 223.696 139.284 221.57 138.994 219.202C138.704 216.834 139.332 214.49 140.806 212.63L146.919 204.801C145.228 201.345 144.575 197.455 145.059 193.541C145.518 189.916 146.895 186.533 149.07 183.706L131.914 205.671C128.604 209.923 127.13 215.215 127.782 220.555C128.434 225.919 131.141 230.679 135.393 234.014C138.97 236.817 143.295 238.291 147.789 238.291C148.611 238.291 149.456 238.242 150.302 238.146C155.666 237.493 160.426 234.787 163.761 230.534L165.114 228.795L157.962 219.637L154.869 223.6Z" fill="#FFBE1D"/>
<path d="M206.701 190.782C207.547 191.991 208.078 193.44 208.271 194.938C208.561 197.306 207.909 199.626 206.459 201.511L199.428 210.548L206.58 219.706L215.351 208.47C216.245 207.334 217.018 206.053 217.647 204.797L206.701 190.782Z" fill="#0087E2"/>
<path d="M229.075 234.014C225.378 236.889 221.004 238.291 216.679 238.291C210.662 238.291 204.718 235.633 200.731 230.534L199.306 228.698L206.458 219.54L209.623 223.6C212.644 227.466 218.25 228.166 222.14 225.146C224.024 223.672 225.208 221.57 225.498 219.202C225.788 216.834 225.136 214.514 223.686 212.63L217.549 204.752C219.24 201.297 219.893 197.407 219.409 193.492C218.974 189.892 217.597 186.558 215.471 183.755L232.578 205.671C239.416 214.466 237.846 227.176 229.075 234.014Z" fill="#18527D"/>
<path d="M182.245 206.638C181.859 207.266 181.448 207.87 180.989 208.45L172.218 219.686L165.065 210.528L172.097 201.515C173.571 199.63 174.199 197.311 173.909 194.943C173.619 192.575 172.435 190.473 170.55 188.999C168.666 187.525 166.346 186.897 163.978 187.186C162.383 187.38 160.909 187.984 159.677 188.95C159.073 189.409 158.517 189.941 158.058 190.569L146.895 204.826C145.203 201.346 144.551 197.48 145.034 193.566C145.493 189.941 146.87 186.558 149.045 183.731C149.045 183.731 149.891 182.692 150.205 182.354C153.588 178.705 157.792 176.579 162.601 175.999C167.941 175.347 173.232 176.796 177.485 180.131C179.394 181.629 180.989 183.417 182.245 185.423C178.307 191.777 178.162 200.041 182.245 206.638Z" fill="#00B4E5"/>
<path d="M217.597 204.826L207.062 191.318C206.506 190.618 205.66 189.651 204.911 188.999C203.316 187.766 201.383 187.114 199.426 187.114C197.517 187.114 195.584 187.718 193.941 188.999C190.075 192.019 189.374 197.625 192.395 201.515L199.45 210.552L192.298 219.71L183.503 208.45C183.043 207.87 182.633 207.266 182.246 206.638C184.662 202.747 185.677 198.157 185.122 193.541C184.759 190.593 183.768 187.839 182.27 185.374C183.503 183.393 185.073 181.605 187.006 180.083C194.448 174.259 204.645 174.501 211.846 180.083C213.924 181.677 215.519 183.804 215.519 183.804C217.645 186.607 219.022 189.941 219.457 193.541C219.941 197.48 219.264 201.346 217.597 204.826Z" fill="#0E6CA0"/>
<path d="M172.218 219.661L165.065 228.818L157.913 219.661L165.065 210.503L172.218 219.661Z" fill="#18527D"/>
<path d="M206.577 219.661L199.424 228.843L192.248 219.661L199.424 210.503L206.577 219.661Z" fill="#103254"/>
<path d="M252.94 241.792C250.041 241.792 247.673 244.136 247.673 247.06L247.673 259.407L238.636 259.407C227.859 259.407 219.088 268.154 219.088 278.907C219.088 289.659 227.859 298.406 238.636 298.406C249.413 298.406 258.184 289.659 258.184 278.907L258.184 278.834L258.184 264.65L258.184 247.036C258.184 244.136 255.84 241.792 252.94 241.792ZM247.673 278.883C247.673 283.836 243.613 287.871 238.636 287.871C233.658 287.871 229.599 283.836 229.599 278.883C229.599 273.929 233.658 269.894 238.636 269.894L247.673 269.894L247.673 278.834L247.673 278.883Z" fill="#18527D"/>
<path d="M162.547 259.408C158.777 259.408 155.322 260.809 152.664 263.105C150.006 260.809 146.551 259.408 142.781 259.408L132.898 259.408C129.999 259.408 127.631 261.752 127.631 264.675L127.631 293.067C127.631 295.966 129.975 298.334 132.898 298.334C135.822 298.334 138.166 295.991 138.166 293.067L138.166 269.919L142.781 269.919C145.318 269.919 147.396 271.997 147.396 274.534L147.396 293.043C147.396 295.942 149.74 298.31 152.664 298.31C155.563 298.31 157.931 295.966 157.931 293.043L157.931 274.534C157.931 271.997 160.009 269.919 162.547 269.919C165.084 269.919 167.162 271.997 167.162 274.534L167.162 293.043C167.162 295.942 169.505 298.31 172.429 298.31C175.329 298.31 177.697 295.966 177.697 293.043L177.697 274.534C177.673 266.198 170.883 259.408 162.547 259.408Z" fill="#18527D"/>
<path d="M216.503 260.035C213.942 258.682 210.752 259.673 209.399 262.234L201.619 276.974L199.057 281.782L188.74 262.234C187.387 259.673 184.197 258.682 181.636 260.035C179.075 261.389 178.084 264.578 179.437 267.139L193.089 293.018L187 304.471C185.647 307.033 186.613 310.222 189.175 311.575C189.972 311.986 190.794 312.203 191.639 312.203C193.524 312.203 195.336 311.189 196.279 309.401L203.31 296.159C203.455 295.966 203.576 295.748 203.697 295.531L210.873 281.927L210.921 281.831L218.654 267.164C220.055 264.578 219.064 261.389 216.503 260.035Z" fill="#18527D"/>
<path d="M338.43 259.987C335.869 258.634 332.679 259.625 331.326 262.186L321.009 281.758L310.691 262.186C309.338 259.625 306.148 258.634 303.587 259.987C301.026 261.34 300.035 264.53 301.388 267.091L316.345 295.483C317.263 297.198 319.051 298.286 321.009 298.286C322.966 298.286 324.754 297.198 325.672 295.483L340.629 267.091C341.982 264.506 340.991 261.34 338.43 259.987Z" fill="#18527D"/>
<path d="M281.549 259.358C270.797 259.358 262.05 268.105 262.05 278.857C262.05 289.61 270.797 298.357 281.549 298.357C287.614 298.357 293.22 295.602 296.941 290.818C298.729 288.523 298.319 285.212 296.023 283.448C293.728 281.66 290.417 282.071 288.653 284.367C286.938 286.565 284.352 287.846 281.549 287.846C276.596 287.846 272.585 283.811 272.585 278.882C272.585 273.952 276.62 269.917 281.549 269.917C282.709 269.917 283.797 270.135 284.836 270.521L279.23 273.735C276.717 275.185 275.823 278.398 277.273 280.911C278.722 283.424 281.936 284.318 284.449 282.869L296.337 276.079C297.57 275.378 298.464 274.194 298.826 272.817C299.188 271.439 298.971 269.99 298.222 268.781C294.646 262.861 288.412 259.358 281.549 259.358Z" fill="#18527D"/>
<path d="M356.166 265.037C356.069 265.013 355.996 264.892 355.924 264.675C355.924 264.53 355.876 264.336 355.876 264.046L355.827 263.007C355.803 262.5 355.731 262.162 355.537 261.92C355.416 261.775 355.247 261.606 355.054 261.509C355.296 261.34 355.513 261.147 355.658 260.905C355.876 260.567 355.996 260.156 355.996 259.649C355.996 258.682 355.586 258.006 354.788 257.643C354.377 257.45 353.846 257.353 353.242 257.353L349.448 257.353L349.448 265.351L349.448 265.544L349.617 265.544L350.681 265.544L350.874 265.544L350.874 265.351L350.874 262.186L353.097 262.186C353.483 262.186 353.798 262.234 353.991 262.307C354.257 262.452 354.426 262.742 354.45 263.201L354.522 264.505C354.547 264.82 354.571 265.013 354.571 265.158C354.595 265.279 354.619 265.375 354.667 265.472L354.716 265.569L354.812 265.569L356.117 265.569L356.311 265.569L356.311 265.375L356.311 265.182L356.311 265.085L356.166 265.037ZM354.184 260.712C353.918 260.881 353.58 260.954 353.097 260.954L350.826 260.954L350.826 258.658L353.242 258.658C353.58 258.658 353.822 258.706 354.039 258.803C354.377 258.972 354.547 259.286 354.547 259.77C354.547 260.229 354.426 260.543 354.184 260.712Z" fill="#18527D"/>
<path d="M352.613 269.338C348.336 269.338 344.856 265.858 344.856 261.581C344.856 257.305 348.336 253.825 352.613 253.825C356.89 253.825 360.369 257.305 360.369 261.581C360.369 265.858 356.89 269.338 352.613 269.338ZM352.613 255.275C349.133 255.275 346.306 258.102 346.306 261.581C346.306 265.061 349.133 267.888 352.613 267.888C356.092 267.888 358.919 265.061 358.919 261.581C358.919 258.102 356.092 255.275 352.613 255.275Z" fill="#18527D"/>
<path d="M388.667 343.537C362.923 381.01 323.645 407.035 279.1 416.133C234.555 425.231 188.218 416.694 149.841 392.318C111.464 367.942 84.04 329.628 73.3412 285.44C62.6425 241.253 69.5033 194.638 92.4797 155.407C115.456 116.176 152.756 87.3879 196.529 75.1027C240.302 62.8175 287.134 67.993 327.168 89.5398C367.203 111.087 397.317 147.324 411.172 190.626C425.028 233.927 421.545 280.916 401.455 321.701" stroke="white" stroke-width="0.522572"/>
<path d="M388.668 343.537C362.924 381.011 323.646 407.035 279.101 416.134C234.557 425.232 188.219 416.695 149.842 392.318C111.465 367.942 84.0411 329.629 73.3423 285.441C62.6436 241.253 69.5044 194.638 92.4808 155.407C115.457 116.176 152.757 87.3884 196.53 75.1032" stroke="white" stroke-width="2.61286"/>
<circle cx="395.963" cy="332.221" r="3.14321" fill="white"/>
<g clip-path="url(#clip0_1_9396)">
<path d="M454.657 89.1207H449.881C449.446 89.617 449.198 90.2993 449.198 90.9816C449.198 91.7259 449.446 92.3462 449.881 92.9044H454.595C455.401 92.9044 456.145 93.2146 456.704 93.7728C456.766 93.8349 456.828 93.8969 456.89 93.9589H461.108C460.797 92.9044 460.239 91.912 459.433 91.1056C458.13 89.803 456.456 89.1207 454.657 89.1207Z" fill="#0F6C9F"/>
<path d="M456.704 97.9276C456.145 98.4858 455.401 98.796 454.595 98.796H442.189V102.58H438.405H454.595C456.393 102.58 458.068 101.897 459.371 100.595C460.177 99.7884 460.797 98.796 461.108 97.6794H456.952C456.89 97.8035 456.828 97.8655 456.704 97.9276Z" fill="#3281C4"/>
<path d="M442.189 95.8186C442.189 94.2058 443.492 92.8412 445.166 92.8412H445.725C445.539 92.2209 445.476 91.6006 445.476 90.9183C445.476 90.2981 445.539 89.6778 445.725 89.0575H445.166C441.445 89.0575 438.467 92.0969 438.405 95.7565V98.7339H442.189V95.8186Z" fill="#00B2E3"/>
<path d="M452.175 93.9573C451.245 93.9573 450.438 93.5231 449.88 92.9028H445.662C446.468 95.6941 449.074 97.741 452.113 97.741H456.889C457.323 97.2448 457.572 96.5625 457.572 95.8802C457.572 95.1979 457.323 94.5156 456.889 93.9573H452.175Z" fill="#FDBC1F"/>
<path d="M450.067 88.8717C450.625 88.3135 451.369 88.0033 452.176 88.0033H460.611C461.046 87.5071 461.294 86.8248 461.294 86.1425C461.294 85.4602 461.046 84.7779 460.611 84.2196H452.238C450.439 84.2196 448.764 84.9019 447.461 86.2045C446.655 87.0109 446.097 88.0033 445.725 89.1198H449.881C449.943 88.9958 450.005 88.9337 450.067 88.8717Z" fill="#FDBC1F"/>
<path d="M461.108 93.9573H456.89C457.324 94.5156 457.572 95.1359 457.572 95.8802C457.572 96.5625 457.324 97.2448 456.89 97.7411H461.046C461.232 97.1208 461.294 96.5005 461.294 95.8802C461.356 95.1979 461.294 94.5156 461.108 93.9573Z" fill="#0F3253"/>
<path d="M445.725 92.8412H449.943C449.509 92.345 449.261 91.6627 449.261 90.9183C449.261 90.236 449.509 89.5537 449.943 89.0575H445.787C445.601 89.6778 445.539 90.2981 445.539 90.9183C445.415 91.6627 445.539 92.283 445.725 92.8412Z" fill="#15537E"/>
<path d="M442.189 98.7963H438.405V102.58H442.189V98.7963Z" fill="#0F6C9F"/>
<path d="M468.365 93.9573H464.581H461.046C461.232 94.5776 461.294 95.1979 461.294 95.8802C461.294 96.5005 461.232 97.1208 461.046 97.7411H468.303L468.365 93.9573Z" fill="#15537E"/>
<path d="M460.549 88.0026H461.604C463.217 88.0026 464.581 89.3052 464.581 90.9799V93.9573H468.365V90.9799C468.365 87.2582 465.326 84.2809 461.604 84.2809H460.487C460.922 84.8391 461.17 85.4594 461.17 86.2037C461.232 86.824 460.984 87.5063 460.549 88.0026Z" fill="#0F6C9F"/>
<path d="M461.605 101.092V99.9131H461.232V99.665H462.349V99.9131H461.915V101.092H461.605Z" fill="#15537E"/>
<path d="M462.535 101.092V99.6652H462.969L463.217 100.658L463.466 99.6652H463.9V101.092H463.652V99.9754L463.342 101.092H463.093L462.783 99.9754V101.092H462.535Z" fill="#15537E"/>
</g>
<g clip-path="url(#clip1_1_9396)">
<path d="M166.883 94.0946V92.4896H166.348V92.133H167.863V92.4896H167.328V94.0946H166.883Z" fill="#15537E"/>
<path d="M168.131 94.0945V92.1329H168.755L169.112 93.4703L169.468 92.1329H170.092V94.0945H169.736V92.5787L169.379 94.0945H168.844L168.488 92.5787V94.0945H168.131Z" fill="#15537E"/>
<path d="M162.603 80.8088C162.157 80.363 162.157 79.6497 162.603 79.2039C163.406 78.4014 163.406 77.1532 162.603 76.4399C161.801 75.6374 160.552 75.6374 159.839 76.4399C158.858 77.4207 158.323 78.6689 158.323 80.0064C158.323 81.3438 158.858 82.5921 159.839 83.5729L159.928 83.6621C159.572 83.3054 159.393 82.5921 159.393 82.1463C159.393 81.7005 159.572 81.1655 159.928 80.898C160.285 80.5414 160.731 80.363 161.176 80.363C161.622 80.4522 162.157 80.5414 162.603 80.8088Z" fill="#15537E"/>
<path d="M167.149 70.6426C164.652 69.6618 161.888 69.6618 159.392 70.7318C156.895 71.8017 155.023 73.7633 153.953 76.2599C153.507 77.2407 154.042 78.3998 155.023 78.8456C156.004 79.2914 157.163 78.7564 157.609 77.7756C158.857 74.6549 162.513 73.05 165.633 74.2983C168.754 75.5466 170.359 79.2022 169.111 82.3229C168.932 82.7687 168.754 83.1254 168.486 83.4821C168.843 82.9471 169.556 82.7687 170.181 82.7687C170.537 82.7687 170.894 82.8579 171.161 83.0362C171.607 83.3037 171.875 83.7495 171.964 84.1954C172.053 84.6412 172.053 85.3545 171.785 85.7111C172.231 85.087 172.588 84.4628 172.855 83.7495C174.817 78.5781 172.32 72.6933 167.149 70.6426Z" fill="#3281C4"/>
<path d="M166.169 89.547C165.366 89.547 164.742 89.1012 164.475 88.3879C164.296 87.942 164.296 87.4071 164.564 86.9612C164.742 86.5154 165.277 85.9805 165.723 85.8021C165.723 85.8021 165.723 85.8021 165.812 85.8021C164.385 86.4263 162.691 86.5154 161.086 85.8913C160.106 85.4455 158.947 85.9805 158.501 86.9612C158.055 87.942 158.59 89.1012 159.571 89.547C160.819 89.9928 162.067 90.2603 163.316 90.2603C164.564 90.2603 165.812 89.9928 166.882 89.6361C166.704 89.547 166.347 89.547 166.169 89.547Z" fill="#3281C4"/>
<path d="M166.17 89.6339C165.367 89.6339 164.565 89.099 164.297 88.2965C163.941 87.3157 164.476 86.1566 165.457 85.7999C166.705 85.3541 167.775 84.5516 168.488 83.3925C169.112 82.5009 170.36 82.2334 171.252 82.8575C172.144 83.4817 172.411 84.73 171.787 85.6216C170.628 87.4049 168.845 88.7423 166.883 89.5448C166.616 89.6339 166.348 89.6339 166.17 89.6339Z" fill="#0F6C9F"/>
<path d="M163.316 85.0896C161.978 85.0896 160.73 84.5546 159.749 83.5738C158.947 82.7714 158.947 81.5231 159.749 80.8098C160.552 80.0073 161.8 80.0073 162.513 80.8098C162.692 80.9881 163.048 81.1664 163.316 81.1664C163.583 81.1664 163.851 81.0773 164.118 80.8098C164.921 80.0073 166.169 80.0073 166.882 80.8098C167.685 81.6123 167.685 82.8605 166.882 83.5738C165.991 84.5546 164.742 85.0896 163.316 85.0896Z" fill="#0F3253"/>
<path d="M163.315 65.0263C164.296 65.0263 165.099 66.0071 165.099 66.9879C165.099 67.9687 164.296 68.9495 163.315 68.9495C169.379 68.9495 174.372 73.9426 174.372 80.0057C174.372 81.0756 175.263 81.9673 176.333 81.9673C177.403 81.9673 178.295 81.0756 178.295 80.0057C178.384 71.8027 171.608 65.0263 163.315 65.0263Z" fill="#00B2E3"/>
<path d="M150.298 81.8799C149.317 81.8799 148.336 81.0775 148.336 80.0967C148.336 88.3888 155.112 95.076 163.315 95.076C164.385 95.076 165.277 94.1844 165.277 93.1145C165.277 92.0445 164.385 91.1529 163.315 91.1529C157.252 91.1529 152.259 86.1598 152.259 80.0967C152.259 81.0775 151.278 81.8799 150.298 81.8799Z" fill="#00B2E3"/>
<path d="M150.298 82.0564C149.228 82.0564 148.336 81.1648 148.336 80.0948C148.336 71.8027 155.112 65.0263 163.315 65.0263C164.385 65.0263 165.277 65.9179 165.277 66.9879C165.277 68.0578 164.385 68.9495 163.315 68.9495C157.252 68.9495 152.259 73.9426 152.259 80.0057C152.259 81.1648 151.367 82.0564 150.298 82.0564Z" fill="#FDBC1F"/>
</g>
<g clip-path="url(#clip2_1_9396)">
<path d="M39.967 256.465V254.973H39.4697V254.6H40.9615V254.973H40.4643V256.465H39.967Z" fill="#15537E"/>
<path d="M41.21 256.465V254.6H41.7072L42.0801 255.844L42.4531 254.6H42.9503V256.465H42.5774V254.973L42.2045 256.465H41.8315L41.4586 254.973V256.465H41.21Z" fill="#15537E"/>
<path d="M37.4808 263.301C36.3619 263.301 35.3674 262.431 35.3674 261.188C35.3674 263.426 33.5027 265.29 31.2651 265.29H28.5302C27.66 265.29 26.9141 265.788 26.6655 266.534L23.5576 272.874H24.9251C26.0439 272.874 27.0384 273.744 27.0384 274.863C27.0384 275.236 26.9141 275.608 26.7898 275.857L29.7733 269.641H31.1408C35.7404 269.641 39.5941 265.912 39.5941 261.188C39.5941 262.431 38.5996 263.301 37.4808 263.301Z" fill="#3281C4"/>
<path d="M15.2302 273H18.5867L20.7 268.524C21.1973 267.406 20.8243 266.162 19.7055 265.665C18.5867 265.168 17.3436 265.541 16.8463 266.66L13.2412 274.118C13.6142 273.373 14.36 273 15.2302 273Z" fill="#FDBC1F"/>
<path d="M37.482 263.426C36.3632 263.426 35.3687 262.432 35.3687 261.313C35.3687 259.075 33.504 257.211 31.2664 257.211H22.1914C21.0726 257.211 20.0781 256.216 20.0781 255.097C20.0781 253.978 21.0726 252.984 22.1914 252.984H31.2664C35.866 252.984 39.7197 256.713 39.7197 261.437C39.5954 262.432 38.6009 263.426 37.482 263.426Z" fill="#00B2E3"/>
<path d="M24.801 277.102H15.1046C13.9857 277.102 12.9912 276.107 12.9912 274.988C12.9912 273.869 13.9857 272.875 15.1046 272.875H24.801C25.9198 272.875 26.9144 273.869 26.9144 274.988C26.9144 276.107 26.0441 277.102 24.801 277.102Z" fill="#15537E"/>
<path d="M21.8174 263.427C22.9846 263.427 23.9308 262.481 23.9308 261.313C23.9308 260.146 22.9846 259.2 21.8174 259.2C20.6503 259.2 19.7041 260.146 19.7041 261.313C19.7041 262.481 20.6503 263.427 21.8174 263.427Z" fill="#4880C1"/>
<path d="M16.9699 276.356L18.586 272.875H15.2295C14.1107 272.875 13.1162 273.869 13.1162 274.988C13.1162 276.107 14.1107 277.102 15.2295 277.102H16.2241C16.4727 276.977 16.7213 276.604 16.9699 276.356Z" fill="#1D3554"/>
</g>
<g clip-path="url(#clip3_1_9396)">
<path d="M452.112 201.229V199.901C452.112 198.822 451.282 197.992 450.203 197.992C449.124 197.992 448.294 198.822 448.294 199.901V202.889C448.294 203.968 449.124 204.797 450.203 204.797C451.448 204.797 452.443 205.793 452.443 207.038C452.443 208.283 451.448 209.279 450.203 209.279C449.124 209.279 448.294 210.109 448.294 211.188V214.175C448.294 215.254 449.124 216.084 450.203 216.084C451.282 216.084 452.112 215.254 452.112 214.175V212.848C452.692 212.682 453.273 212.35 453.771 212.018V202.225C453.273 201.727 452.692 201.478 452.112 201.229Z" fill="#15537E"/>
<path d="M455.68 216.083C454.601 216.083 453.771 215.253 453.771 214.174V202.141C453.771 201.062 454.601 200.232 455.68 200.232C456.759 200.232 457.589 201.062 457.589 202.141V214.174C457.589 215.253 456.759 216.083 455.68 216.083Z" fill="#3281C4"/>
<path d="M472.195 216.084C471.116 216.084 470.286 215.254 470.286 214.175V199.901C470.286 198.822 471.116 197.992 472.195 197.992C473.274 197.992 474.104 198.822 474.104 199.901V214.175C474.104 215.254 473.191 216.084 472.195 216.084Z" fill="#00B2E3"/>
<path d="M466.634 212.267C465.555 212.267 464.726 211.437 464.726 210.358V199.901C464.726 198.822 465.555 197.992 466.634 197.992C467.713 197.992 468.543 198.822 468.543 199.901V210.358C468.626 211.437 467.713 212.267 466.634 212.267Z" fill="#0F6C9F"/>
<path d="M461.157 216.084C460.078 216.084 459.248 215.254 459.248 214.175V206.623C459.248 205.544 460.078 204.714 461.157 204.714C462.236 204.714 463.066 205.544 463.066 206.623V214.175C463.149 215.254 462.236 216.084 461.157 216.084Z" fill="#FDBC1F"/>
<path d="M456.261 207.037C456.261 209.029 455.265 210.855 453.771 211.933V202.058C455.265 203.219 456.261 204.962 456.261 207.037Z" fill="#0F3253"/>
<path d="M476.013 199.486V198.241H475.598V197.992H476.76V198.241H476.345V199.486H476.013Z" fill="#15537E"/>
<path d="M476.926 199.486V197.992H477.341L477.59 198.988L477.839 197.992H478.254V199.486H478.005V198.324L477.673 199.486H477.424L477.092 198.324V199.486H476.926Z" fill="#15537E"/>
</g>
<g clip-path="url(#clip4_1_9396)">
<path d="M74.948 120.282H53.3473C51.8576 120.282 50.6162 119.041 50.6162 117.551C50.6162 116.061 51.8576 114.82 53.3473 114.82H74.948C76.4378 114.82 77.6792 116.061 77.6792 117.551C77.6792 119.041 76.4378 120.282 74.948 120.282Z" fill="#0087E2"/>
<path d="M74.9478 122.764H69.5684C70.5615 122.764 71.3891 123.591 71.3891 124.584C71.3891 125.578 70.5615 126.405 69.5684 126.405H74.9478C75.941 126.405 76.7686 125.578 76.7686 124.584C76.7686 123.591 75.941 122.764 74.9478 122.764Z" fill="#00B4E5"/>
<path d="M74.9492 128.888H64.4385C65.4316 128.888 66.2592 129.716 66.2592 130.709C66.2592 131.702 65.4316 132.53 64.4385 132.53H74.8664C75.8595 132.53 76.6871 131.702 76.6871 130.709C76.6871 129.716 75.9423 128.888 74.9492 128.888Z" fill="#00B4E5"/>
<path d="M74.948 140.393H53.3473C51.8576 140.393 50.6162 139.152 50.6162 137.662C50.6162 136.172 51.8576 134.931 53.3473 134.931H74.948C76.4378 134.931 77.6792 136.172 77.6792 137.662C77.6792 139.152 76.4378 140.393 74.948 140.393Z" fill="#FFBE1D"/>
<path d="M69.5691 126.405H63.4448C62.4516 126.405 61.624 125.578 61.624 124.585C61.624 123.591 62.4516 122.764 63.4448 122.764H69.5691C70.5623 122.764 71.3899 123.591 71.3899 124.585C71.3899 125.578 70.5623 126.405 69.5691 126.405Z" fill="#0E6CA0"/>
<path d="M64.5203 132.447H58.396C57.4028 132.447 56.5752 131.619 56.5752 130.626C56.5752 129.633 57.4028 128.805 58.396 128.805H64.5203C65.5134 128.805 66.341 129.633 66.341 130.626C66.341 131.619 65.5134 132.447 64.5203 132.447Z" fill="#103254"/>
<path d="M78.4245 116.227V115.068H78.0107V114.82H79.0866V115.068H78.6728V116.227H78.4245Z" fill="#18527D"/>
<path d="M79.252 116.227V114.903H79.6658L79.914 115.813L80.1623 114.903H80.5761V116.227H80.3278V115.151L80.0796 116.227H79.8312L79.583 115.151V116.227H79.252Z" fill="#18527D"/>
</g>
<g clip-path="url(#clip5_1_9396)">
<path d="M299.481 84.4635L302.313 81.6312C304.956 78.9878 309.173 78.6102 312.257 80.7501C311.88 81.0018 311.502 81.3165 311.124 81.6942L309.362 83.4565C307.852 82.8271 306.089 83.1418 304.956 84.3376L302.124 87.1699C300.551 88.7433 300.551 91.2609 302.124 92.8344L304.956 95.6666C306.089 96.7995 307.852 97.1772 309.362 96.5478L311.062 98.2471C311.439 98.6248 311.817 98.9395 312.257 99.2542C309.173 101.394 304.956 101.079 302.25 98.373L299.418 95.5408C296.46 92.4567 296.46 87.4846 299.481 84.4635Z" fill="#FFBE1D"/>
<path d="M324.971 84.4635L322.139 81.6312C319.495 78.9878 315.278 78.6102 312.194 80.7501C312.572 81.0018 312.95 81.3165 313.327 81.6942L315.09 83.4565C316.6 82.8271 318.362 83.1418 319.495 84.3376L322.328 87.1699C323.901 88.7433 323.901 91.2609 322.328 92.8344L319.495 95.6666C318.362 96.7995 316.6 97.1772 315.09 96.5478L313.39 98.2471C313.013 98.6248 312.635 98.9395 312.194 99.2542C315.278 101.394 319.495 101.079 322.202 98.373L325.034 95.5408C328.055 92.4567 328.055 87.4846 324.971 84.4635Z" fill="#0087E2"/>
<path d="M312.257 94.1554L310.936 92.8337C309.362 91.2602 309.362 88.7427 310.936 87.1692L312.32 85.7845L310.81 84.274C310.432 83.8963 309.929 83.5817 309.425 83.3299L308.292 84.4628C305.271 87.4839 305.271 92.4561 308.292 95.4771L309.425 96.61C309.929 96.4212 310.369 96.1065 310.747 95.7289L312.257 94.1554Z" fill="#0E6CA0"/>
<path d="M312.195 94.1554L313.517 92.8337C315.09 91.2602 315.09 88.7427 313.517 87.1692L312.132 85.7845L313.642 84.274C314.02 83.8963 314.524 83.5817 315.027 83.3299L316.16 84.4628C319.181 87.4839 319.181 92.4561 316.16 95.4771L315.027 96.61C314.524 96.4212 314.083 96.1065 313.705 95.7289L312.195 94.1554Z" fill="#00B4E5"/>
<path d="M309.361 83.3944C309.865 83.5832 310.368 83.8979 310.746 84.2756L312.257 85.7861L313.767 84.2756C314.145 83.8979 314.648 83.5832 315.152 83.3944L313.389 81.6321C313.012 81.2545 312.634 80.9398 312.257 80.688C311.879 80.9398 311.501 81.2545 311.124 81.6321L309.361 83.3944Z" fill="#103254"/>
<path d="M315.152 96.6117C314.648 96.4228 314.145 96.1081 313.767 95.7305L312.257 94.22L310.746 95.7305C310.368 96.1081 309.865 96.4228 309.361 96.6117L311.124 98.3739C311.501 98.7516 311.879 99.0663 312.257 99.318C312.634 99.0663 313.075 98.7516 313.389 98.3739L315.152 96.6117Z" fill="#18527D"/>
<path d="M322.327 80.7497V79.5539H321.887V79.3021H323.02V79.5539H322.579V80.7497H322.327Z" fill="#18527D"/>
<path d="M323.209 80.7496V79.302H323.65L323.901 80.2461L324.153 79.302H324.594V80.7496H324.342V79.6167L324.027 80.7496H323.775L323.524 79.6167V80.7496H323.209Z" fill="#18527D"/>
</g>
<g clip-path="url(#clip6_1_9396)">
<path d="M431.589 279.27C431.214 279.27 430.932 279.176 430.557 278.988L421.355 273.636C420.416 273.073 419.29 273.073 418.351 273.636L415.252 275.42C414.313 275.984 413.093 275.608 412.529 274.669C411.966 273.73 412.342 272.51 413.28 271.946L416.379 270.162C418.538 268.942 421.261 268.942 423.421 270.162L432.622 275.514C433.561 276.077 433.937 277.298 433.373 278.237C432.998 278.894 432.341 279.27 431.589 279.27Z" fill="#00B4E5"/>
<path d="M408.21 272.228C407.552 272.228 406.895 271.852 406.52 271.195C405.956 270.256 406.332 269.035 407.271 268.472L416.472 263.12C418.632 261.9 421.355 261.9 423.514 263.12L426.612 264.904C427.551 265.467 427.927 266.688 427.364 267.627C426.8 268.566 425.58 268.941 424.641 268.378L421.542 266.594C420.603 266.031 419.477 266.031 418.538 266.594L409.336 271.946C408.867 272.134 408.585 272.228 408.21 272.228Z" fill="#0087E2"/>
<path d="M419.947 278.238C418.726 278.238 417.505 277.957 416.473 277.299L413.374 275.515C412.435 274.952 412.06 273.732 412.623 272.793C413.186 271.854 414.407 271.478 415.346 272.041L418.444 273.825C419.383 274.389 420.51 274.389 421.449 273.825H421.543L429.711 269.506C430.65 269.037 431.871 269.412 432.434 270.351C432.904 271.29 432.528 272.511 431.589 273.074L423.421 277.393C422.294 277.957 421.073 278.238 419.947 278.238Z" fill="#0E6CA0"/>
<path d="M419.947 285.278C418.727 285.278 417.506 284.997 416.473 284.34L407.272 278.988C406.333 278.424 405.957 277.204 406.521 276.265C407.084 275.326 408.304 274.95 409.243 275.514L418.445 280.866C419.384 281.429 420.51 281.429 421.449 280.866L430.651 275.514C431.59 274.95 432.81 275.326 433.374 276.265C433.937 277.204 433.561 278.424 432.623 278.988L423.421 284.34C422.388 284.903 421.168 285.278 419.947 285.278Z" fill="#FFBE1D"/>
<path d="M431.59 265.281C431.214 265.281 430.933 265.187 430.557 264.999L421.356 259.647C420.417 259.084 419.29 259.084 418.351 259.647L409.15 264.999C408.211 265.563 406.99 265.187 406.427 264.248C405.863 263.309 406.239 262.089 407.178 261.525L416.379 256.173C418.539 254.953 421.262 254.953 423.421 256.173L432.623 261.525C433.562 262.089 433.937 263.309 433.374 264.248C432.998 264.905 432.341 265.281 431.59 265.281Z" fill="#00B4E5"/>
<path d="M419.947 271.195C418.727 271.195 417.506 270.914 416.473 270.257L407.272 264.905C406.333 264.341 405.957 263.121 406.521 262.182C407.084 261.243 408.304 260.867 409.243 261.431L418.445 266.783C419.384 267.346 420.51 267.346 421.449 266.783L424.548 264.999C425.487 264.435 426.707 264.811 427.271 265.75C427.834 266.689 427.459 267.909 426.52 268.473L423.421 270.257C422.388 270.914 421.168 271.195 419.947 271.195Z" fill="#18527D"/>
<path d="M415.252 275.516L418.257 273.826L415.252 272.136C414.595 271.761 413.844 271.761 413.281 272.136C413.281 272.136 413.187 272.136 413.187 272.23C413.187 272.23 413.187 272.23 413.093 272.23L412.999 272.324C412.999 272.324 412.999 272.324 412.905 272.418L412.811 272.512C412.811 272.512 412.811 272.512 412.717 272.606C412.717 272.606 412.717 272.606 412.623 272.699L412.53 272.793C412.53 272.793 412.53 272.793 412.53 272.887L412.436 272.981C412.436 272.981 412.436 272.981 412.436 273.075C412.436 273.075 412.436 273.169 412.342 273.169V273.263V273.357V273.451V273.544V273.638V273.732V273.826V273.92V274.014V274.108V274.202V274.296V274.39V274.483V274.577V274.671V274.765V274.859C412.342 274.859 412.342 274.953 412.436 274.953C412.436 274.953 412.436 274.953 412.436 275.047C412.436 275.047 412.436 275.141 412.53 275.141C412.53 275.141 412.53 275.141 412.53 275.235L412.623 275.328C412.623 275.328 412.623 275.328 412.717 275.422C412.717 275.422 412.717 275.422 412.811 275.516L412.905 275.61C412.905 275.61 412.905 275.61 412.999 275.704L413.093 275.798C413.093 275.798 413.093 275.798 413.187 275.798L413.281 275.892C413.844 275.798 414.595 275.892 415.252 275.516Z" fill="#103254"/>
<path d="M424.548 265L421.543 266.69L424.548 268.38C425.205 268.755 425.956 268.755 426.519 268.38C426.519 268.38 426.613 268.38 426.613 268.286C426.613 268.286 426.613 268.286 426.707 268.286L426.801 268.192C426.801 268.192 426.801 268.192 426.895 268.098L426.989 268.004C426.989 268.004 426.989 268.004 427.083 267.91C427.083 267.91 427.083 267.91 427.176 267.816L427.27 267.723C427.27 267.723 427.27 267.723 427.27 267.629L427.364 267.535C427.364 267.535 427.364 267.535 427.364 267.441C427.364 267.441 427.364 267.347 427.458 267.347V267.253V267.159V267.065V266.971V266.878V266.784V266.69V266.596V266.502V266.408V266.314V266.22V266.126V266.033V265.939V265.845V265.751V265.657C427.458 265.657 427.458 265.563 427.364 265.563C427.364 265.563 427.364 265.563 427.364 265.469C427.364 265.469 427.364 265.375 427.27 265.375C427.27 265.375 427.27 265.375 427.27 265.281L427.176 265.188C427.176 265.188 427.177 265.187 427.083 265.094C427.083 265.094 427.083 265 426.989 265L426.895 264.906C426.895 264.906 426.895 264.906 426.801 264.812L426.707 264.718C426.707 264.718 426.707 264.718 426.613 264.718L426.519 264.624C425.956 264.718 425.205 264.624 424.548 265Z" fill="#103254"/>
<path d="M430.744 259.178V257.676H430.181V257.394H431.589V257.676H431.026V259.178H430.744Z" fill="#18527D"/>
<path d="M431.871 259.178V257.394H432.434L432.716 258.614L432.998 257.394H433.561V259.178H433.186V257.676L432.81 259.084H432.434L432.247 257.676V259.084H431.871V259.178Z" fill="#18527D"/>
</g>
<g clip-path="url(#clip7_1_9396)">
<path d="M85.9624 201.691H75.2568C76.603 201.691 77.6287 202.653 77.6287 203.935C77.6287 205.153 76.603 206.178 75.2568 206.178H86.0265C87.2445 206.178 88.2702 205.217 88.2702 203.935C88.2061 202.717 87.2445 201.691 85.9624 201.691Z" fill="#00B2E3"/>
<path d="M85.9622 212.462H79.8081C78.5901 212.462 77.5645 211.5 77.5645 210.218C77.5645 208.936 78.526 207.974 79.8081 207.974H85.9622C87.1802 207.974 88.2059 208.936 88.2059 210.218C88.2059 211.5 87.2443 212.462 85.9622 212.462Z" fill="#FDBC1F"/>
<path d="M80.2571 197.651C80.2571 196.433 81.2187 195.408 82.629 195.408H63.8462C62.6282 195.408 61.6025 196.369 61.6025 197.651C61.6025 198.869 62.5641 199.895 63.8462 199.895H82.629C81.2187 199.831 80.2571 198.869 80.2571 197.651Z" fill="#3281C4"/>
<path d="M85.9625 199.83H82.3726C81.1546 199.83 80.1289 198.869 80.1289 197.587C80.1289 196.369 81.0905 195.343 82.3726 195.343H85.9625C87.1805 195.343 88.2062 196.305 88.2062 197.587C88.2062 198.869 87.2446 199.83 85.9625 199.83Z" fill="#0F3253"/>
<path d="M75.4498 206.114H71.8599C70.6419 206.114 69.6162 205.152 69.6162 203.87C69.6162 202.652 70.5778 201.626 71.8599 201.626H75.4498C76.6678 201.626 77.6935 202.588 77.6935 203.87C77.6294 205.152 76.6678 206.114 75.4498 206.114Z" fill="#0F6C9F"/>
<path d="M88.912 196.754V195.664H88.5273V195.408H89.553V195.664H89.1684V196.754H88.912Z" fill="#15537E"/>
<path d="M89.7451 196.754V195.408H90.1298L90.3862 196.305L90.6426 195.408H91.0272V196.754H90.7708V195.728L90.5144 196.754H90.258L90.0015 195.728V196.754H89.7451Z" fill="#15537E"/>
</g>
<g clip-path="url(#clip8_1_9396)">
<path d="M404.723 149.565L404.124 149.066L397.644 148.368L395.849 142.087L395.351 141.589C394.453 140.791 393.057 140.791 392.16 141.589L394.653 150.362C394.752 150.661 394.952 150.96 395.251 151.26C395.55 151.459 395.849 151.658 396.148 151.658L405.221 152.556C405.919 151.658 405.62 150.362 404.723 149.565Z" fill="#18527D"/>
<path d="M409.01 151.159C409.01 151.259 409.01 151.259 409.01 151.359C408.91 152.356 408.113 152.954 407.116 152.854L405.221 152.655C405.122 152.755 405.022 152.954 404.922 153.054L399.239 159.834C399.837 159.136 400.934 159.036 401.632 159.634C402.33 160.232 402.43 161.329 401.832 162.027L407.515 155.247C408.711 154.051 409.11 152.655 409.01 151.159Z" fill="#0087E2"/>
<path d="M395.051 138.996L395.949 142.187L404.124 149.066L407.414 149.365C408.212 149.465 408.91 150.063 408.91 150.861C408.81 149.365 408.112 147.87 406.816 146.873L397.544 139.096C396.348 138.099 394.852 137.6 393.356 137.7C394.154 137.8 394.852 138.298 395.051 138.996Z" fill="#0087E2"/>
<path d="M392.958 137.8C391.662 137.999 390.266 138.697 389.269 139.794L386.478 143.184C387.076 142.486 388.172 142.386 388.87 142.984C389.568 143.582 389.668 144.679 389.07 145.377L391.861 141.987C391.961 141.887 392.061 141.788 392.161 141.688L391.662 139.893C391.463 138.996 392.061 138.099 392.958 137.8Z" fill="#0087E2"/>
<path d="M395.45 141.788L395.949 142.286L395.052 139.096C394.852 138.398 394.154 137.899 393.456 137.8C393.357 137.8 393.157 137.8 393.058 137.8H392.958C392.061 138.099 391.462 138.996 391.761 139.893L392.26 141.688C393.157 140.99 394.453 140.99 395.45 141.788Z" fill="#103254"/>
<path d="M409.01 151.359C409.01 151.259 409.01 151.259 409.01 151.159C409.01 151.06 409.01 151.06 409.01 150.96C408.911 150.162 408.312 149.564 407.515 149.464L404.225 149.165L404.823 149.664C405.72 150.461 405.92 151.758 405.421 152.755L407.315 152.954C408.113 152.954 408.911 152.256 409.01 151.359Z" fill="#103254"/>
<path d="M388.87 142.985C388.172 142.387 387.075 142.487 386.477 143.185L382.888 147.472C382.29 148.17 382.389 149.266 383.087 149.865C383.785 150.463 384.882 150.363 385.48 149.665L389.069 145.378C389.668 144.68 389.668 143.583 388.87 142.985Z" fill="#00B4E5"/>
<path d="M398.939 163.025C398.241 162.427 398.142 161.33 398.74 160.632L395.151 164.919C394.552 165.617 394.652 166.714 395.35 167.312C396.048 167.91 397.145 167.811 397.743 167.113L401.332 162.826C400.834 163.523 399.737 163.623 398.939 163.025Z" fill="#00B4E5"/>
<path d="M390.366 151.958C389.668 151.36 388.571 151.459 387.973 152.157L384.882 155.747C384.284 156.445 384.384 157.541 385.081 158.14C385.779 158.738 386.876 158.638 387.474 157.94L390.565 154.351C391.163 153.653 391.064 152.556 390.366 151.958Z" fill="#FFBE1D"/>
<path d="M396.148 155.646C395.45 155.048 394.354 155.147 393.755 155.845L392.36 157.54C391.761 158.238 391.861 159.335 392.559 159.933C393.257 160.531 394.354 160.432 394.952 159.734L396.348 158.039C397.046 157.341 396.946 156.244 396.148 155.646Z" fill="#0E6CA0"/>
<path d="M401.831 159.634C401.133 159.036 400.036 159.136 399.438 159.834L398.84 160.532C398.242 161.229 398.342 162.326 399.039 162.924C399.737 163.523 400.834 163.423 401.432 162.725L402.031 162.027C402.629 161.329 402.529 160.232 401.831 159.634Z" fill="#18527D"/>
<path d="M401.233 167.709V166.214H400.734V165.915H402.23V166.214H401.632V167.709H401.233Z" fill="#18527D"/>
<path d="M402.43 167.709V165.915H403.028L403.327 167.111L403.626 165.915H404.224V167.709H403.925V166.313L403.526 167.709H403.128L402.729 166.313V167.709H402.43Z" fill="#18527D"/>
</g>
<circle cx="223.415" cy="11.8048" r="1.91784" fill="#1DE1F4"/>
<g clip-path="url(#clip9_1_9396)">
<path d="M250.799 30.323L249.785 31.3118C249.652 31.4408 249.553 31.6001 249.496 31.7759C249.439 31.9518 249.426 32.1389 249.457 32.321L250.348 37.5125C250.372 37.6629 250.355 37.8172 250.297 37.9581C250.239 38.0991 250.143 38.2211 250.019 38.3106C249.896 38.4002 249.75 38.4536 249.598 38.465C249.446 38.4764 249.294 38.4454 249.159 38.3753L248.874 38.226L258.946 44.0242V29.0454C258.947 27.1291 258.578 25.2306 257.86 23.454L250.799 30.323V30.323Z" fill="#103254"/>
<path d="M237.587 37.5122L238.351 33.0506L238.477 32.322C238.509 32.1399 238.495 31.9529 238.438 31.7771C238.381 31.6013 238.282 31.442 238.15 31.3128L234.377 27.6358C234.269 27.5287 234.192 27.3935 234.157 27.2454C234.121 27.0973 234.126 26.9421 234.174 26.7971C234.221 26.6522 234.307 26.5232 234.424 26.4247C234.54 26.3261 234.681 26.2618 234.832 26.239L235.31 26.1692L229.124 27.0223C229.034 27.6927 228.988 28.3685 228.987 29.045C228.989 31.7351 229.715 34.3751 231.088 36.6882C232.462 39.0012 234.432 40.9021 236.793 42.1915L237.59 37.5355C237.59 37.5355 237.586 37.5177 237.587 37.5122Z" fill="#FFBE1D"/>
<path d="M258.946 44.0239L248.874 38.2258L244.492 35.9237C244.329 35.8381 244.147 35.7933 243.962 35.7933C243.778 35.7933 243.596 35.8381 243.432 35.9237L238.776 38.375C238.642 38.4441 238.492 38.475 238.341 38.4643C238.191 38.4536 238.046 38.4018 237.923 38.3144C237.8 38.227 237.704 38.1074 237.644 37.9688C237.585 37.8303 237.565 37.678 237.586 37.5287L236.789 42.1848C238.989 43.3928 241.459 44.0245 243.969 44.0212L258.946 44.0239Z" fill="#0087E2"/>
<path d="M235.31 26.1692L240.044 25.4845C240.227 25.4574 240.4 25.3862 240.55 25.2772C240.699 25.1682 240.82 25.0246 240.901 24.8587L243.229 20.1355C243.298 19.9981 243.405 19.8826 243.536 19.8019C243.667 19.7212 243.817 19.6785 243.971 19.6785C244.125 19.6785 244.276 19.7212 244.407 19.8019C244.538 19.8826 244.644 19.9981 244.714 20.1355L241.825 14.2209C238.607 14.6903 235.628 16.1924 233.338 18.5012C231.047 20.81 229.568 23.8004 229.124 27.0224L235.307 26.1692H235.31Z" fill="#00B4E5"/>
<path d="M243.968 14.0645C243.251 14.065 242.535 14.1172 241.826 14.2206L246.392 23.5587L247.033 24.8583C247.114 25.0231 247.235 25.1658 247.383 25.2743C247.532 25.3828 247.704 25.4538 247.886 25.4814L253.103 26.2387C253.255 26.2609 253.398 26.3252 253.515 26.4242C253.632 26.5232 253.719 26.653 253.766 26.7989C253.813 26.9448 253.819 27.101 253.782 27.2498C253.745 27.3986 253.667 27.5341 253.557 27.641L257.861 23.4533C256.743 20.6829 254.824 18.3094 252.349 16.6367C249.873 14.964 246.955 14.0683 243.968 14.0645V14.0645Z" fill="#0E6CA0"/>
<path d="M255.195 16.4212V14.463H254.497V14.0645H256.376V14.463H255.678V16.4212H255.195Z" fill="#18527D"/>
<path d="M256.67 16.4212V14.0645H257.383L257.811 15.6722L258.232 14.0645H258.946V16.4212H258.505V14.5657L258.037 16.4212H257.579L257.112 14.5657V16.4212H256.67Z" fill="#18527D"/>
</g>
<circle cx="82.8435" cy="106.39" r="2.87671" fill="#1DE1F4"/>
<circle cx="175.339" cy="58.3137" r="1.91784" fill="#1DE1F4"/>
<circle cx="325.841" cy="70.3326" r="2.87671" fill="#1DE1F4"/>
<circle cx="475.296" cy="103.255" r="1.91784" fill="#1DE1F4"/>
<circle cx="98.5214" cy="188.957" r="1.91784" fill="#1DE1F4"/>
<circle cx="15.4324" cy="244.872" r="2.87671" fill="#1DE1F4"/>
<circle cx="440.806" cy="285.11" r="1.91784" fill="#1DE1F4"/>
<circle cx="443.941" cy="184.253" r="2.87672" fill="#1DE1F4"/>
<circle cx="403.181" cy="126.248" r="1.91784" fill="#1DE1F4"/>
<defs>
<clipPath id="clip0_1_9396">
<rect width="29.9595" height="30.0219" fill="white" transform="translate(438.406 78.3884)"/>
</clipPath>
<clipPath id="clip1_1_9396">
<rect width="29.9595" height="30.0219" fill="white" transform="translate(148.338 65.041)"/>
</clipPath>
<clipPath id="clip2_1_9396">
<rect width="29.9595" height="30.0219" fill="white" transform="translate(12.9912 250.032)"/>
</clipPath>
<clipPath id="clip3_1_9396">
<rect width="29.9595" height="30.0219" fill="white" transform="translate(448.293 192.025)"/>
</clipPath>
<clipPath id="clip4_1_9396">
<rect width="29.9595" height="30.0219" fill="white" transform="translate(50.6162 112.595)"/>
</clipPath>
<clipPath id="clip5_1_9396">
<rect width="29.9595" height="30.0219" fill="white" transform="translate(297.27 74.9694)"/>
</clipPath>
<clipPath id="clip6_1_9396">
<rect width="29.9595" height="30.0219" fill="white" transform="translate(404.92 255.257)"/>
</clipPath>
<clipPath id="clip7_1_9396">
<rect width="29.9595" height="30.0219" fill="white" transform="translate(61.0674 188.891)"/>
</clipPath>
<clipPath id="clip8_1_9396">
<rect width="29.9595" height="30.0219" fill="white" transform="translate(380.781 137.685)"/>
</clipPath>
<clipPath id="clip9_1_9396">
<rect width="29.959" height="29.959" fill="white" transform="translate(228.988 14.0671)"/>
</clipPath>
</defs>
</svg>
