<svg width="173" height="173" viewBox="0 0 173 173" fill="none" xmlns="http://www.w3.org/2000/svg">
<g clip-path="url(#clip0_1_26204)">
<path d="M98.6892 159.488C139.598 159.488 172.761 126.325 172.761 85.4159C172.761 44.507 139.598 11.3439 98.6892 11.3439C57.7803 11.3439 24.6172 44.507 24.6172 85.4159C24.6172 126.325 57.7803 159.488 98.6892 159.488Z" stroke="#373535" stroke-width="1.08538" stroke-miterlimit="10"/>
<path d="M94.4275 155.219C132.978 155.219 164.23 123.967 164.23 85.4165C164.23 46.8656 132.978 15.614 94.4275 15.614C55.8766 15.614 24.625 46.8656 24.625 85.4165C24.625 123.967 55.8766 155.219 94.4275 155.219Z" stroke="#373535" stroke-width="1.08538" stroke-miterlimit="10"/>
<path d="M89.8985 151.232C125.948 151.232 155.172 122.009 155.172 85.959C155.172 49.9094 125.948 20.6855 89.8985 20.6855C53.8489 20.6855 24.625 49.9094 24.625 85.959C24.625 122.009 53.8489 151.232 89.8985 151.232Z" stroke="#373535" stroke-width="1.08538" stroke-miterlimit="10"/>
<path d="M127.064 129.094C150.499 105.658 150.499 67.6617 127.064 44.226C103.628 20.7904 65.6313 20.7904 42.1957 44.226C18.7601 67.6616 18.7601 105.658 42.1957 129.094C65.6313 152.53 103.628 152.53 127.064 129.094Z" stroke="#373535" stroke-width="1.08538" stroke-miterlimit="10"/>
<path d="M79.3358 141.358C109.552 141.358 134.047 116.863 134.047 86.6469C134.047 56.4309 109.552 31.936 79.3358 31.936C49.1199 31.936 24.625 56.4309 24.625 86.6469C24.625 116.863 49.1199 141.358 79.3358 141.358Z" stroke="#373535" stroke-width="1.08538" stroke-miterlimit="10"/>
<path d="M74.5544 134.879C102.134 134.879 124.492 112.734 124.492 85.4161C124.492 58.0985 102.134 35.9532 74.5544 35.9532C46.9749 35.9532 24.6172 58.0985 24.6172 85.4161C24.6172 112.734 46.9749 134.879 74.5544 134.879Z" stroke="#373535" stroke-width="1.08538" stroke-miterlimit="10"/>
<path d="M99.0757 111.265C113.109 111.265 124.485 99.9951 124.485 86.0928C124.485 72.1904 113.109 60.9203 99.0757 60.9203C85.0423 60.9203 73.666 72.1904 73.666 86.0928C73.666 99.9951 85.0423 111.265 99.0757 111.265Z" stroke="#373535" stroke-width="1.08538" stroke-miterlimit="10"/>
<path d="M103.493 106.892C115.091 106.892 124.493 97.5794 124.493 86.0923C124.493 74.6053 115.091 65.2932 103.493 65.2932C91.8958 65.2932 82.4941 74.6053 82.4941 86.0923C82.4941 97.5794 91.8958 106.892 103.493 106.892Z" stroke="#373535" stroke-width="1.08538" stroke-miterlimit="10"/>
<path d="M107.875 101.872C117.049 101.872 124.486 94.5047 124.486 85.4166C124.486 76.3285 117.049 68.9611 107.875 68.9611C98.7008 68.9611 91.2637 76.3285 91.2637 85.4166C91.2637 94.5047 98.7008 101.872 107.875 101.872Z" stroke="#373535" stroke-width="1.08538" stroke-miterlimit="10"/>
<path d="M94.5379 115.755C111.077 115.755 124.484 102.474 124.484 86.0906C124.484 69.7074 111.077 56.4262 94.5379 56.4262C77.9991 56.4262 64.5918 69.7074 64.5918 86.0906C64.5918 102.474 77.9991 115.755 94.5379 115.755Z" stroke="#373535" stroke-width="1.08538" stroke-miterlimit="10"/>
<path d="M90.5738 119.685C109.303 119.685 124.485 104.645 124.485 86.0923C124.485 67.5395 109.303 52.4994 90.5738 52.4994C71.8449 52.4994 56.6621 67.5395 56.6621 86.0923C56.6621 104.645 71.8449 119.685 90.5738 119.685Z" stroke="#373535" stroke-width="1.08538" stroke-miterlimit="10"/>
<path d="M86.5639 123.657C107.512 123.657 124.493 106.838 124.493 86.0911C124.493 65.344 107.512 48.5251 86.5639 48.5251C65.6162 48.5251 48.6348 65.344 48.6348 86.0911C48.6348 106.838 65.6162 123.657 86.5639 123.657Z" stroke="#373535" stroke-width="1.08538" stroke-miterlimit="10"/>
<path d="M82.2494 127.935C105.576 127.935 124.485 109.201 124.485 86.092C124.485 62.9827 105.576 44.249 82.2494 44.249C58.9233 44.249 40.0137 62.9827 40.0137 86.092C40.0137 109.201 58.9233 127.935 82.2494 127.935Z" stroke="#373535" stroke-width="1.08538" stroke-miterlimit="10"/>
<path d="M77.8762 132.101C103.622 132.101 124.493 111.426 124.493 85.9217C124.493 60.4177 103.622 39.7426 77.8762 39.7426C52.1307 39.7426 31.2598 60.4177 31.2598 85.9217C31.2598 111.426 52.1307 132.101 77.8762 132.101Z" stroke="#373535" stroke-width="1.08538" stroke-miterlimit="10"/>
</g>
<defs>
<clipPath id="clip0_1_26204">
<rect width="173" height="173" fill="white"/>
</clipPath>
</defs>
</svg>
