<svg width="173" height="173" viewBox="0 0 173 173" fill="none" xmlns="http://www.w3.org/2000/svg">
<path d="M90.7055 15.8655C93.1035 13.4675 93.1035 9.57956 90.7055 7.18157C88.3075 4.78358 84.4196 4.78362 82.0216 7.18161C79.6236 9.5796 79.6236 13.4675 82.0216 15.8655C84.4196 18.2635 88.3075 18.2635 90.7055 15.8655Z" fill="#373535"/>
<path d="M90.7074 165.819C93.1054 163.421 93.1055 159.533 90.7075 157.135C88.3095 154.737 84.4216 154.737 82.0236 157.135C79.6256 159.533 79.6256 163.421 82.0236 165.819C84.4216 168.217 88.3095 168.217 90.7074 165.819Z" fill="#373535"/>
<path d="M54.1888 18.4747C54.7946 19.5252 55.0753 20.7318 54.9955 21.9418C54.9157 23.1519 54.4789 24.3111 53.7403 25.2729C53.0017 26.2348 51.9945 26.956 50.8461 27.3455C49.6977 27.735 48.4595 27.7753 47.2882 27.4612C46.1169 27.1471 45.065 26.4928 44.2655 25.5809C43.466 24.6691 42.9548 23.5407 42.7966 22.3384C42.6383 21.1361 42.8401 19.9138 43.3764 18.8261C43.9127 17.7385 44.7595 16.8343 45.8096 16.2278C47.2196 15.4184 48.8927 15.2004 50.463 15.6215C52.0333 16.0426 53.373 17.0684 54.1888 18.4747Z" fill="#373535"/>
<path d="M129.196 148.364C129.804 149.416 130.085 150.624 130.006 151.836C129.927 153.048 129.49 154.209 128.751 155.173C128.011 156.136 127.003 156.859 125.853 157.249C124.703 157.64 123.463 157.681 122.29 157.366C121.117 157.052 120.063 156.397 119.262 155.484C118.461 154.571 117.949 153.441 117.791 152.236C117.632 151.032 117.834 149.808 118.372 148.719C118.909 147.63 119.757 146.724 120.809 146.117C122.22 145.305 123.895 145.086 125.467 145.507C127.039 145.928 128.38 146.956 129.196 148.364Z" fill="#373535"/>
<path d="M24.5 43.7016C25.5502 44.3081 26.3969 45.2123 26.9332 46.3C27.4695 47.3876 27.6713 48.6099 27.513 49.8122C27.3548 51.0145 26.8436 52.1429 26.0441 53.0547C25.2446 53.9666 24.1927 54.6209 23.0214 54.935C21.8501 55.2491 20.612 55.2088 19.4635 54.8193C18.3151 54.4298 17.3079 53.7086 16.5693 52.7467C15.8308 51.7849 15.3939 50.6257 15.3141 49.4156C15.2343 48.2056 15.515 46.999 16.1208 45.9485C16.5233 45.2506 17.0593 44.6388 17.6983 44.1481C18.3373 43.6574 19.0667 43.2975 19.8449 43.0888C20.623 42.8802 21.4347 42.8269 22.2334 42.932C23.0322 43.0372 23.8024 43.2987 24.5 43.7016Z" fill="#373535"/>
<path d="M154.342 118.675C155.391 119.283 156.237 120.187 156.772 121.275C157.307 122.363 157.507 123.585 157.348 124.787C157.189 125.988 156.678 127.116 155.878 128.027C155.078 128.938 154.027 129.592 152.856 129.906C151.685 130.219 150.447 130.179 149.299 129.789C148.151 129.4 147.145 128.679 146.406 127.718C145.668 126.757 145.231 125.598 145.15 124.388C145.07 123.179 145.35 121.973 145.955 120.922C146.357 120.223 146.894 119.61 147.533 119.119C148.173 118.628 148.903 118.267 149.682 118.059C150.461 117.85 151.274 117.797 152.074 117.903C152.873 118.009 153.644 118.271 154.342 118.675Z" fill="#373535"/>
<path d="M17.3357 87.8919C18.1147 84.5913 16.0705 81.2842 12.7699 80.5052C9.46936 79.7262 6.16219 81.7703 5.38318 85.0709C4.60417 88.3715 6.64832 91.6786 9.9489 92.4577C13.2495 93.2367 16.5567 91.1925 17.3357 87.8919Z" fill="#373535"/>
<path d="M165.676 90.84C168.074 88.442 168.074 84.5541 165.676 82.1561C163.278 79.7581 159.39 79.7581 156.992 82.1561C154.594 84.5541 154.594 88.442 156.992 90.84C159.39 93.238 163.278 93.238 165.676 90.84Z" fill="#373535"/>
<path d="M18.3677 118.676C19.4182 118.071 20.6248 117.79 21.8349 117.87C23.0449 117.949 24.2041 118.386 25.166 119.125C26.1278 119.863 26.8491 120.871 27.2386 122.019C27.6281 123.168 27.6683 124.406 27.3542 125.577C27.0401 126.748 26.3858 127.8 25.474 128.6C24.5621 129.399 23.4338 129.91 22.2314 130.069C21.0291 130.227 19.8068 130.025 18.7192 129.489C17.6315 128.952 16.7273 128.106 16.1208 127.056C15.7179 126.358 15.4564 125.588 15.3513 124.789C15.2461 123.99 15.2994 123.179 15.5081 122.4C15.7167 121.622 16.0767 120.893 16.5674 120.254C17.058 119.615 17.6698 119.079 18.3677 118.676Z" fill="#373535"/>
<path d="M148.226 43.7019C149.277 43.0961 150.483 42.8153 151.693 42.8952C152.903 42.975 154.063 43.4118 155.024 44.1504C155.986 44.889 156.708 45.8962 157.097 47.0446C157.486 48.193 157.527 49.4312 157.213 50.6025C156.899 51.7738 156.244 52.8257 155.332 53.6252C154.421 54.4246 153.292 54.9358 152.09 55.0941C150.888 55.2523 149.665 55.0506 148.578 54.5143C147.49 53.978 146.586 53.1312 145.979 52.0811C145.168 50.6716 144.948 48.9977 145.37 47.4268C145.791 45.8559 146.818 44.5162 148.226 43.7019Z" fill="#373535"/>
<path d="M43.5632 148.365C44.1697 147.315 45.0739 146.468 46.1616 145.932C47.2492 145.396 48.4715 145.194 49.6738 145.352C50.8761 145.51 52.0045 146.022 52.9164 146.821C53.8282 147.621 54.4825 148.672 54.7966 149.844C55.1107 151.015 55.0704 152.253 54.6809 153.402C54.2914 154.55 53.5702 155.557 52.6084 156.296C51.6465 157.034 50.4873 157.471 49.2773 157.551C48.0672 157.631 46.8606 157.35 45.8101 156.744C44.4022 155.93 43.3749 154.59 42.9537 153.019C42.5324 151.449 42.7516 149.775 43.5632 148.365Z" fill="#373535"/>
<path d="M118.537 18.4752C119.145 17.4234 120.05 16.5753 121.139 16.0381C122.229 15.5009 123.453 15.2988 124.657 15.4573C125.861 15.6159 126.991 16.1279 127.904 16.9287C128.817 17.7295 129.472 18.7832 129.787 19.9563C130.101 21.1295 130.06 22.3695 129.67 23.5195C129.279 24.6695 128.556 25.6779 127.593 26.4172C126.629 27.1564 125.468 27.5933 124.256 27.6726C123.044 27.7519 121.836 27.47 120.784 26.8626C119.377 26.0451 118.351 24.7041 117.93 23.1325C117.509 21.5608 117.728 19.8865 118.537 18.4752Z" fill="#373535"/>
<path d="M92.5798 12.922C93.3588 9.62138 91.3147 6.31426 88.0141 5.53525C84.7135 4.75624 81.4063 6.80034 80.6273 10.1009C79.8483 13.4015 81.8924 16.7087 85.193 17.4877C88.4936 18.2668 91.8008 16.2226 92.5798 12.922Z" fill="#373535"/>
<path d="M92.5935 162.871C93.3725 159.57 91.3283 156.263 88.0277 155.484C84.7271 154.705 81.42 156.749 80.641 160.05C79.862 163.351 81.9061 166.658 85.2067 167.437C88.5073 168.216 91.8145 166.172 92.5935 162.871Z" fill="#373535"/>
<path d="M54.4714 18.4743C55.0789 19.526 55.3607 20.7342 55.2815 21.9461C55.2022 23.158 54.7653 24.3192 54.026 25.2828C53.2868 26.2464 52.2784 26.9692 51.1284 27.3597C49.9783 27.7502 48.7383 27.7908 47.5651 27.4766C46.392 27.1623 45.3384 26.5072 44.5376 25.5941C43.7368 24.681 43.2248 23.5509 43.0662 22.3468C42.9077 21.1427 43.1098 19.9186 43.647 18.8293C44.1841 17.7401 45.0323 16.8346 46.0841 16.2274C47.4943 15.4132 49.1702 15.1926 50.7431 15.614C52.316 16.0353 53.6571 17.0642 54.4714 18.4743Z" fill="#373535"/>
<path d="M129.449 148.363C130.054 149.414 130.333 150.62 130.253 151.83C130.173 153.039 129.736 154.198 128.997 155.159C128.259 156.12 127.252 156.841 126.104 157.231C124.956 157.62 123.718 157.66 122.547 157.347C121.376 157.033 120.325 156.379 119.525 155.468C118.726 154.557 118.214 153.429 118.055 152.228C117.896 151.026 118.097 149.804 118.632 148.716C119.167 147.629 120.012 146.724 121.061 146.116C121.759 145.712 122.53 145.45 123.33 145.344C124.129 145.238 124.942 145.291 125.721 145.5C126.5 145.708 127.23 146.069 127.87 146.56C128.51 147.052 129.046 147.664 129.449 148.363Z" fill="#373535"/>
<path d="M24.7834 43.7007C25.8325 44.3082 26.6779 45.2129 27.213 46.3007C27.7481 47.3884 27.9488 48.6103 27.7898 49.812C27.6307 51.0138 27.1191 52.1414 26.3195 53.0525C25.5199 53.9636 24.4682 54.6173 23.2973 54.931C22.1264 55.2447 20.8887 55.2043 19.7408 54.8149C18.5928 54.4256 17.5859 53.7047 16.8475 52.7434C16.109 51.7821 15.6719 50.6235 15.5916 49.4139C15.5113 48.2044 15.7912 46.9982 16.3961 45.9476C16.7985 45.2486 17.3349 44.6359 17.9746 44.1445C18.6142 43.6532 19.3445 43.2928 20.1236 43.0841C20.9027 42.8754 21.7153 42.8224 22.5149 42.9282C23.3146 43.034 24.0854 43.2966 24.7834 43.7007Z" fill="#373535"/>
<path d="M154.642 118.677C155.687 119.287 156.529 120.193 157.06 121.281C157.592 122.369 157.789 123.59 157.628 124.79C157.467 125.99 156.954 127.115 156.154 128.024C155.354 128.933 154.303 129.585 153.133 129.897C151.963 130.21 150.727 130.169 149.58 129.78C148.434 129.391 147.428 128.672 146.69 127.712C145.951 126.752 145.514 125.595 145.432 124.387C145.35 123.179 145.628 121.974 146.23 120.924C146.632 120.221 147.17 119.606 147.811 119.112C148.453 118.619 149.186 118.257 149.968 118.048C150.75 117.839 151.565 117.787 152.368 117.895C153.17 118.003 153.943 118.269 154.642 118.677Z" fill="#373535"/>
<path d="M16.0063 90.8445C18.4043 88.4465 18.4043 84.5586 16.0063 82.1606C13.6083 79.7626 9.72041 79.7626 7.32242 82.1606C4.92443 84.5586 4.92443 88.4466 7.32242 90.8445C9.72041 93.2425 13.6083 93.2425 16.0063 90.8445Z" fill="#373535"/>
<path d="M161.617 92.6377C165.008 92.6377 167.757 89.8886 167.757 86.4973C167.757 83.106 165.008 80.3568 161.617 80.3568C158.226 80.3568 155.477 83.106 155.477 86.4973C155.477 89.8886 158.226 92.6377 161.617 92.6377Z" fill="#373535"/>
<path d="M18.6441 118.676C19.6946 118.071 20.9012 117.79 22.1113 117.87C23.3213 117.949 24.4805 118.386 25.4424 119.125C26.4042 119.863 27.1254 120.871 27.5149 122.019C27.9044 123.168 27.9446 124.406 27.6306 125.577C27.3165 126.748 26.6622 127.8 25.7504 128.6C24.8385 129.399 23.7101 129.91 22.5078 130.069C21.3055 130.227 20.0832 130.025 18.9956 129.489C17.9079 128.952 17.0037 128.106 16.3972 127.056C15.5856 125.646 15.3664 123.972 15.7877 122.401C16.2089 120.83 17.2362 119.491 18.6441 118.676Z" fill="#373535"/>
<path d="M148.508 43.7019C149.559 43.0961 150.765 42.8153 151.976 42.8952C153.186 42.975 154.345 43.4118 155.307 44.1504C156.268 44.889 156.99 45.8962 157.379 47.0446C157.769 48.193 157.809 49.4312 157.495 50.6025C157.181 51.7738 156.526 52.8257 155.615 53.6252C154.703 54.4246 153.574 54.9358 152.372 55.0941C151.17 55.2523 149.947 55.0506 148.86 54.5143C147.772 53.978 146.868 53.1312 146.261 52.0811C145.859 51.3834 145.597 50.6132 145.492 49.8145C145.387 49.0157 145.44 48.2041 145.649 47.4259C145.857 46.6478 146.217 45.9184 146.708 45.2794C147.199 44.6404 147.81 44.1043 148.508 43.7019Z" fill="#373535"/>
<path d="M43.8386 148.365C44.4448 147.312 45.3498 146.463 46.439 145.924C47.5282 145.386 48.7526 145.183 49.9573 145.341C51.162 145.498 52.2928 146.01 53.2066 146.811C54.1204 147.611 54.7762 148.665 55.0909 149.839C55.4056 151.012 55.365 152.253 54.9744 153.403C54.5838 154.554 53.8607 155.562 52.8965 156.302C51.9324 157.041 50.7706 157.478 49.5582 157.556C48.3457 157.635 47.1372 157.353 46.0854 156.744C44.6776 155.93 43.6503 154.59 43.2291 153.019C42.8078 151.448 43.027 149.775 43.8386 148.365Z" fill="#373535"/>
<path d="M118.821 18.4742C119.429 17.4254 120.334 16.5805 121.423 16.0461C122.511 15.5118 123.733 15.312 124.935 15.472C126.136 15.6319 127.264 16.1445 128.174 16.945C129.085 17.7454 129.738 18.7978 130.05 19.9692C130.363 21.1405 130.321 22.3782 129.931 23.5259C129.54 24.6737 128.818 25.6799 127.856 26.4175C126.894 27.1551 125.735 27.5909 124.525 27.6699C123.315 27.749 122.109 27.4676 121.059 26.8615C119.651 26.0458 118.624 24.7041 118.204 23.1313C117.784 21.5585 118.006 19.8834 118.821 18.4742Z" fill="#373535"/>
<path d="M91.3153 29.4339C91.3153 30.358 91.0412 31.2614 90.5278 32.0297C90.0144 32.7981 89.2847 33.3969 88.431 33.7505C87.5772 34.1042 86.6378 34.1967 85.7314 34.0164C84.8251 33.8361 83.9926 33.3911 83.3392 32.7377C82.6858 32.0843 82.2407 31.2518 82.0605 30.3454C81.8802 29.4391 81.9728 28.4997 82.3264 27.6459C82.6801 26.7922 83.2789 26.0625 84.0473 25.5491C84.8156 25.0357 85.7189 24.7617 86.643 24.7617C87.8822 24.7617 89.0705 25.2539 89.9467 26.1302C90.823 27.0064 91.3153 28.1948 91.3153 29.4339Z" fill="#373535"/>
<path d="M91.3153 143.579C91.3153 144.503 91.0412 145.406 90.5278 146.175C90.0144 146.943 89.2847 147.542 88.431 147.896C87.5772 148.249 86.6378 148.342 85.7314 148.162C84.8251 147.981 83.9926 147.536 83.3392 146.883C82.6858 146.229 82.2407 145.397 82.0605 144.491C81.8802 143.584 81.9728 142.645 82.3264 141.791C82.6801 140.937 83.2789 140.208 84.0473 139.694C84.8156 139.181 85.7189 138.907 86.643 138.907C87.8822 138.907 89.0705 139.399 89.9467 140.275C90.823 141.151 91.3153 142.34 91.3153 143.579Z" fill="#373535"/>
<path d="M62.155 34.7458C62.6167 35.5462 62.8307 36.4655 62.77 37.3875C62.7092 38.3095 62.3764 39.1927 61.8138 39.9256C61.2511 40.6585 60.4837 41.2081 59.6087 41.5049C58.7337 41.8018 57.7903 41.8325 56.8979 41.5932C56.0054 41.3539 55.2039 40.8554 54.5948 40.1607C53.9856 39.4659 53.5961 38.6062 53.4755 37.6901C53.3549 36.774 53.5087 35.8428 53.9173 35.014C54.326 34.1853 54.9711 33.4964 55.7712 33.0343C56.3025 32.7263 56.8893 32.5262 57.4981 32.4455C58.1068 32.3649 58.7255 32.4052 59.3186 32.5642C59.9117 32.7232 60.4676 32.9978 60.9544 33.3722C61.4411 33.7466 61.8491 34.2134 62.155 34.7458Z" fill="#373535"/>
<path d="M119.227 133.594C119.689 134.395 119.903 135.314 119.842 136.236C119.781 137.158 119.449 138.041 118.886 138.774C118.323 139.507 117.556 140.057 116.681 140.353C115.806 140.65 114.863 140.681 113.97 140.442C113.078 140.202 112.276 139.704 111.667 139.009C111.058 138.314 110.668 137.455 110.548 136.539C110.427 135.622 110.581 134.691 110.99 133.862C111.398 133.034 112.043 132.345 112.844 131.883C113.375 131.576 113.962 131.377 114.57 131.296C115.179 131.216 115.797 131.257 116.39 131.416C116.983 131.575 117.539 131.849 118.025 132.223C118.512 132.597 118.921 133.063 119.227 133.594Z" fill="#373535"/>
<path d="M39.5557 53.9212C40.3558 54.3833 41.001 55.0722 41.4096 55.9009C41.8183 56.7296 41.972 57.6609 41.8514 58.577C41.7308 59.4931 41.3413 60.3528 40.7322 61.0476C40.123 61.7423 39.3215 62.2408 38.429 62.4801C37.5366 62.7194 36.5932 62.6886 35.7182 62.3918C34.8432 62.095 34.0758 61.5454 33.5132 60.8125C32.9505 60.0796 32.6177 59.1964 32.557 58.2744C32.4962 57.3524 32.7102 56.4331 33.1719 55.6327C33.7928 54.5606 34.8134 53.7784 36.01 53.4576C37.2067 53.1368 38.4817 53.3035 39.5557 53.9212Z" fill="#373535"/>
<path d="M138.403 110.993C139.204 111.454 139.851 112.143 140.261 112.971C140.67 113.8 140.825 114.732 140.705 115.648C140.586 116.565 140.197 117.426 139.588 118.121C138.978 118.816 138.177 119.316 137.284 119.555C136.391 119.795 135.447 119.764 134.572 119.467C133.696 119.171 132.929 118.621 132.366 117.887C131.803 117.154 131.471 116.27 131.41 115.347C131.35 114.425 131.565 113.505 132.027 112.705C132.647 111.633 133.666 110.851 134.861 110.53C136.057 110.209 137.33 110.376 138.403 110.993Z" fill="#373535"/>
<path d="M29.5707 81.8341C30.4948 81.8341 31.3981 82.1081 32.1665 82.6215C32.9348 83.1349 33.5337 83.8646 33.8873 84.7184C34.2409 85.5721 34.3335 86.5116 34.1532 87.4179C33.9729 88.3242 33.5279 89.1567 32.8745 89.8102C32.2211 90.4636 31.3885 90.9086 30.4822 91.0888C29.5759 91.2691 28.6365 91.1766 27.7827 90.823C26.929 90.4693 26.1993 89.8705 25.6859 89.1021C25.1725 88.3338 24.8984 87.4305 24.8984 86.5064C24.8984 85.2672 25.3907 84.0788 26.2669 83.2026C27.1431 82.3264 28.3315 81.8341 29.5707 81.8341Z" fill="#373535"/>
<path d="M143.715 81.8341C144.639 81.8341 145.543 82.1081 146.311 82.6215C147.079 83.1349 147.678 83.8646 148.032 84.7184C148.385 85.5721 148.478 86.5116 148.298 87.4179C148.117 88.3242 147.672 89.1567 147.019 89.8102C146.366 90.4636 145.533 90.9086 144.627 91.0888C143.72 91.2691 142.781 91.1766 141.927 90.823C141.074 90.4693 140.344 89.8705 139.83 89.1021C139.317 88.3338 139.043 87.4305 139.043 86.5064C139.043 85.2672 139.535 84.0788 140.411 83.2026C141.288 82.3264 142.476 81.8341 143.715 81.8341Z" fill="#373535"/>
<path d="M34.8826 110.993C35.683 110.531 36.6023 110.317 37.5243 110.378C38.4463 110.439 39.3296 110.772 40.0625 111.334C40.7954 111.897 41.3449 112.664 41.6418 113.539C41.9386 114.414 41.9693 115.358 41.73 116.25C41.4908 117.143 40.9922 117.944 40.2975 118.553C39.6028 119.163 38.743 119.552 37.8269 119.673C36.9109 119.793 35.9796 119.639 35.1509 119.231C34.3222 118.822 33.6332 118.177 33.1711 117.377C32.8642 116.845 32.665 116.259 32.5849 115.65C32.5048 115.042 32.5454 114.423 32.7043 113.83C32.8632 113.238 33.1374 112.682 33.5112 112.195C33.885 111.708 34.351 111.3 34.8826 110.993Z" fill="#373535"/>
<path d="M133.73 53.9219C134.53 53.4589 135.449 53.2436 136.371 53.303C137.293 53.3624 138.177 53.694 138.911 54.2558C139.645 54.8176 140.195 55.5843 140.493 56.4591C140.791 57.3338 140.823 58.2773 140.585 59.1702C140.347 60.063 139.849 60.8652 139.155 61.4752C138.461 62.0852 137.601 62.4757 136.685 62.5972C135.769 62.7188 134.838 62.5659 134.008 62.158C133.179 61.7501 132.49 61.1055 132.027 60.3057C131.406 59.2332 131.237 57.9582 131.556 56.761C131.876 55.5638 132.658 54.5426 133.73 53.9219Z" fill="#373535"/>
<path d="M54.0657 133.593C54.5286 132.793 55.2182 132.149 56.0474 131.741C56.8767 131.333 57.8082 131.18 58.7242 131.302C59.6403 131.423 60.4998 131.814 61.194 132.424C61.8881 133.034 62.3858 133.836 62.6241 134.729C62.8623 135.622 62.8304 136.565 62.5325 137.44C62.2345 138.315 61.6838 139.081 60.9501 139.643C60.2163 140.205 59.3325 140.536 58.4103 140.596C57.4881 140.655 56.5689 140.44 55.7692 139.977C54.6968 139.356 53.9149 138.335 53.5955 137.138C53.276 135.941 53.4452 134.666 54.0657 133.593Z" fill="#373535"/>
<path d="M111.131 34.7446C111.592 33.9433 112.28 33.2969 113.109 32.8871C113.937 32.4772 114.869 32.3224 115.786 32.4422C116.702 32.562 117.563 32.9511 118.258 33.5601C118.954 34.1692 119.453 34.9709 119.693 35.8637C119.932 36.7565 119.902 37.7004 119.605 38.5759C119.308 39.4514 118.758 40.219 118.024 40.7818C117.291 41.3446 116.407 41.6771 115.485 41.7374C114.562 41.7976 113.642 41.5829 112.842 41.1203C111.77 40.5009 110.988 39.4818 110.668 38.2864C110.347 37.0911 110.513 35.8173 111.131 34.7446Z" fill="#373535"/>
<path d="M86.5459 47.0827C88.4901 47.0827 90.0663 45.5065 90.0663 43.5623C90.0663 41.618 88.4901 40.0419 86.5459 40.0419C84.6016 40.0419 83.0254 41.618 83.0254 43.5623C83.0254 45.5065 84.6016 47.0827 86.5459 47.0827Z" fill="#373535"/>
<path d="M90.0668 129.651C90.0668 130.349 89.8597 131.032 89.4716 131.612C89.0836 132.193 88.532 132.645 87.8868 132.912C87.2415 133.179 86.5316 133.248 85.8469 133.111C85.1622 132.975 84.5336 132.638 84.0404 132.143C83.5473 131.649 83.2118 131.02 83.0766 130.335C82.9413 129.65 83.0124 128.94 83.2807 128.295C83.549 127.651 84.0026 127.1 84.5839 126.713C85.1652 126.327 85.8482 126.121 86.5464 126.123C87.0094 126.123 87.4678 126.214 87.8955 126.391C88.3231 126.569 88.7116 126.829 89.0386 127.157C89.3656 127.484 89.6247 127.874 89.8012 128.302C89.9776 128.73 90.0679 129.188 90.0668 129.651Z" fill="#373535"/>
<path d="M68.0753 47.5621C68.4247 48.1664 68.5871 48.8607 68.5418 49.5572C68.4966 50.2538 68.2458 50.9213 67.8211 51.4752C67.3965 52.0292 66.817 52.4448 66.1561 52.6694C65.4953 52.894 64.7826 52.9175 64.1083 52.7371C63.4341 52.5566 62.8285 52.1802 62.3682 51.6554C61.9079 51.1307 61.6135 50.4812 61.5224 49.7892C61.4313 49.0972 61.5474 48.3937 61.8562 47.7677C62.165 47.1417 62.6525 46.6213 63.257 46.2724C64.0676 45.8071 65.0294 45.6816 65.9323 45.9232C66.8351 46.1649 67.6056 46.7541 68.0753 47.5621Z" fill="#373535"/>
<path d="M111.115 122.123C111.463 122.726 111.624 123.419 111.578 124.113C111.532 124.808 111.282 125.474 110.858 126.026C110.434 126.578 109.855 126.992 109.196 127.216C108.537 127.439 107.826 127.462 107.154 127.282C106.481 127.102 105.877 126.726 105.418 126.203C104.959 125.679 104.666 125.031 104.575 124.341C104.484 123.651 104.6 122.949 104.908 122.325C105.216 121.701 105.702 121.181 106.305 120.833C106.705 120.602 107.147 120.452 107.606 120.392C108.064 120.331 108.53 120.362 108.977 120.481C109.424 120.601 109.842 120.808 110.209 121.09C110.576 121.371 110.884 121.722 111.115 122.123Z" fill="#373535"/>
<path d="M51.0251 62.0338C51.628 62.382 52.1141 62.9011 52.422 63.5255C52.7298 64.1499 52.8457 64.8516 52.7549 65.5418C52.664 66.232 52.3705 66.8798 51.9115 67.4033C51.4525 67.9268 50.8487 68.3024 50.1762 68.4827C49.5038 68.663 48.793 68.6399 48.1337 68.4162C47.4745 68.1926 46.8963 67.7785 46.4723 67.2263C46.0483 66.6742 45.7976 66.0086 45.7518 65.314C45.706 64.6193 45.8672 63.9266 46.215 63.3236C46.446 62.9229 46.7538 62.5718 47.1206 62.2901C47.4874 62.0085 47.9061 61.8019 48.3528 61.6821C48.7995 61.5623 49.2654 61.5317 49.724 61.5921C50.1825 61.6524 50.6246 61.8025 51.0251 62.0338Z" fill="#373535"/>
<path d="M125.585 105.074C126.19 105.422 126.677 105.943 126.986 106.569C127.295 107.195 127.411 107.898 127.32 108.59C127.229 109.282 126.934 109.932 126.474 110.457C126.014 110.981 125.408 111.358 124.734 111.538C124.06 111.719 123.347 111.695 122.686 111.47C122.025 111.246 121.446 110.83 121.021 110.276C120.596 109.722 120.346 109.055 120.3 108.358C120.255 107.662 120.418 106.967 120.767 106.363C121.238 105.557 122.009 104.969 122.911 104.728C123.813 104.486 124.774 104.61 125.585 105.074Z" fill="#373535"/>
<path d="M43.4973 83.0823C44.1951 83.0823 44.8774 83.2892 45.4576 83.677C46.0379 84.0647 46.4902 84.6158 46.7572 85.2605C47.0243 85.9053 47.0941 86.6147 46.958 87.2992C46.8218 87.9837 46.4858 88.6124 45.9923 89.1059C45.4988 89.5993 44.8702 89.9354 44.1857 90.0716C43.5012 90.2077 42.7917 90.1378 42.147 89.8708C41.5022 89.6037 40.9511 89.1514 40.5634 88.5712C40.1757 87.9909 39.9688 87.3087 39.9688 86.6108C39.9677 86.1472 40.0582 85.6878 40.2352 85.2593C40.4121 84.8307 40.672 84.4413 40.9998 84.1134C41.3277 83.7855 41.7171 83.5257 42.1457 83.3487C42.5743 83.1718 43.0336 83.0812 43.4973 83.0823Z" fill="#373535"/>
<path d="M129.585 90.1231C131.529 90.1231 133.105 88.547 133.105 86.6027C133.105 84.6584 131.529 83.0823 129.585 83.0823C127.641 83.0823 126.064 84.6584 126.064 86.6027C126.064 88.547 127.641 90.1231 129.585 90.1231Z" fill="#373535"/>
<path d="M47.5043 105.074C48.1086 104.725 48.8029 104.562 49.4994 104.608C50.196 104.653 50.8634 104.904 51.4174 105.328C51.9714 105.753 52.3869 106.333 52.6116 106.993C52.8362 107.654 52.8597 108.367 52.6792 109.041C52.4987 109.715 52.1223 110.321 51.5976 110.781C51.0729 111.242 50.4234 111.536 49.7314 111.627C49.0393 111.718 48.3358 111.602 47.7098 111.293C47.0838 110.985 46.5635 110.497 46.2146 109.893C45.7471 109.082 45.6204 108.12 45.8622 107.216C46.104 106.313 46.6947 105.542 47.5043 105.074Z" fill="#373535"/>
<path d="M122.057 62.0328C122.661 61.685 123.353 61.5238 124.048 61.5696C124.743 61.6154 125.408 61.8661 125.96 62.2901C126.512 62.7141 126.927 63.2923 127.15 63.9516C127.374 64.6109 127.397 65.3217 127.217 65.9941C127.036 66.6665 126.661 67.2704 126.137 67.7294C125.614 68.1884 124.966 68.4818 124.276 68.5727C123.586 68.6635 122.884 68.5477 122.259 68.2398C121.635 67.9319 121.116 67.4458 120.768 66.843C120.303 66.0336 120.177 65.0731 120.419 64.1715C120.661 63.27 121.25 62.501 122.057 62.0328Z" fill="#373535"/>
<path d="M61.9669 122.123C62.3149 121.518 62.8347 121.029 63.4606 120.719C64.0866 120.409 64.7904 120.292 65.483 120.382C66.1756 120.472 66.8258 120.766 67.3513 121.227C67.8767 121.687 68.2538 122.293 68.4347 122.967C68.6156 123.642 68.5922 124.355 68.3675 125.016C68.1427 125.678 67.7268 126.257 67.1723 126.682C66.6178 127.107 65.9496 127.358 65.2526 127.402C64.5556 127.447 63.861 127.284 63.2567 126.934C62.4492 126.465 61.8602 125.696 61.6184 124.795C61.3767 123.893 61.502 122.933 61.9669 122.123Z" fill="#373535"/>
<path d="M105.015 47.5634C105.365 46.9616 105.884 46.4768 106.509 46.1701C107.133 45.8634 107.834 45.7486 108.524 45.8403C109.214 45.9319 109.861 46.2258 110.384 46.6849C110.906 47.144 111.281 47.7477 111.461 48.4197C111.641 49.0918 111.618 49.8021 111.394 50.4609C111.171 51.1197 110.757 51.6976 110.205 52.1215C109.654 52.5454 108.989 52.7963 108.295 52.8426C107.601 52.8889 106.908 52.7285 106.305 52.3816C105.496 51.9134 104.905 51.1429 104.663 50.2394C104.421 49.3359 104.548 48.3734 105.015 47.5634Z" fill="#373535"/>
<path d="M86.5454 57.9607C87.9566 57.9607 89.1005 56.8168 89.1005 55.4056C89.1005 53.9944 87.9566 52.8505 86.5454 52.8505C85.1342 52.8505 83.9902 53.9944 83.9902 55.4056C83.9902 56.8168 85.1342 57.9607 86.5454 57.9607Z" fill="#373535"/>
<path d="M86.5454 120.363C87.9566 120.363 89.1005 119.219 89.1005 117.808C89.1005 116.397 87.9566 115.253 86.5454 115.253C85.1342 115.253 83.9902 116.397 83.9902 117.808C83.9902 119.219 85.1342 120.363 86.5454 120.363Z" fill="#373535"/>
<path d="M73.153 58.3107C73.4063 58.7482 73.5242 59.251 73.4917 59.7555C73.4592 60.26 73.2778 60.7435 72.9704 61.1448C72.663 61.5462 72.2434 61.8473 71.7648 62.0101C71.2862 62.1729 70.7701 62.1901 70.2817 62.0595C69.7933 61.9289 69.3547 61.6564 69.0213 61.2764C68.6878 60.8964 68.4746 60.426 68.4086 59.9248C68.3426 59.4236 68.4267 58.9141 68.6504 58.4607C68.8741 58.0073 69.2271 57.6305 69.665 57.3779C69.9551 57.2093 70.2756 57.0997 70.6082 57.0554C70.9407 57.011 71.2788 57.0328 71.6029 57.1195C71.927 57.2062 72.2308 57.356 72.4968 57.5605C72.7628 57.7649 72.9858 58.0198 73.153 58.3107Z" fill="#373535"/>
<path d="M104.358 112.35C104.611 112.788 104.728 113.29 104.695 113.794C104.662 114.298 104.48 114.781 104.173 115.182C103.865 115.583 103.446 115.883 102.968 116.046C102.49 116.209 101.974 116.226 101.486 116.096C100.998 115.966 100.56 115.694 100.226 115.315C99.8928 114.935 99.6791 114.466 99.6123 113.965C99.5455 113.464 99.6286 112.955 99.851 112.502C100.073 112.048 100.425 111.671 100.862 111.417C101.153 111.249 101.474 111.139 101.807 111.095C102.14 111.05 102.479 111.072 102.804 111.158C103.128 111.245 103.433 111.395 103.7 111.6C103.966 111.804 104.19 112.059 104.358 112.35Z" fill="#373535"/>
<path d="M60.7991 68.7649C61.2373 69.0168 61.591 69.3929 61.8153 69.8458C62.0397 70.2987 62.1248 70.8079 62.0597 71.3091C61.9947 71.8103 61.7824 72.281 61.4499 72.6615C61.1173 73.0421 60.6793 73.3155 60.1913 73.4471C59.7034 73.5788 59.1873 73.5627 58.7085 73.4011C58.2296 73.2394 57.8095 72.9393 57.5012 72.5389C57.1929 72.1384 57.0103 71.6554 56.9764 71.1512C56.9426 70.6469 57.0591 70.1439 57.3112 69.7059C57.649 69.1187 58.2063 68.6897 58.8603 68.5132C59.5144 68.3368 60.2118 68.4273 60.7991 68.7649Z" fill="#373535"/>
<path d="M114.838 99.9958C115.276 100.248 115.629 100.625 115.852 101.079C116.076 101.532 116.16 102.042 116.094 102.543C116.028 103.044 115.815 103.514 115.482 103.894C115.148 104.274 114.709 104.547 114.221 104.677C113.733 104.808 113.217 104.791 112.738 104.628C112.259 104.465 111.84 104.164 111.532 103.763C111.225 103.361 111.044 102.878 111.011 102.373C110.979 101.869 111.096 101.366 111.35 100.929C111.517 100.638 111.74 100.383 112.006 100.178C112.272 99.974 112.576 99.8241 112.9 99.7375C113.224 99.6508 113.562 99.629 113.895 99.6733C114.227 99.7177 114.548 99.8273 114.838 99.9958Z" fill="#373535"/>
<path d="M55.3403 89.1571C56.7515 89.1571 57.8954 88.0131 57.8954 86.602C57.8954 85.1908 56.7515 84.0468 55.3403 84.0468C53.9292 84.0468 52.7852 85.1908 52.7852 86.602C52.7852 88.0131 53.9292 89.1571 55.3403 89.1571Z" fill="#373535"/>
<path d="M117.743 89.1571C119.154 89.1571 120.298 88.0131 120.298 86.602C120.298 85.1908 119.154 84.0468 117.743 84.0468C116.331 84.0468 115.188 85.1908 115.188 86.602C115.188 88.0131 116.331 89.1571 117.743 89.1571Z" fill="#373535"/>
<path d="M58.2445 99.995C58.682 99.7416 59.1847 99.6237 59.6892 99.6563C60.1937 99.6888 60.6772 99.8702 61.0786 100.178C61.4799 100.485 61.781 100.905 61.9439 101.383C62.1067 101.862 62.1239 102.378 61.9933 102.866C61.8627 103.355 61.5901 103.793 61.2101 104.127C60.8301 104.46 60.3598 104.673 59.8586 104.739C59.3574 104.805 58.8478 104.721 58.3945 104.498C57.9411 104.274 57.5643 103.921 57.3116 103.483C57.1431 103.193 57.0335 102.872 56.9891 102.54C56.9448 102.207 56.9666 101.869 57.0533 101.545C57.1399 101.221 57.2898 100.917 57.4942 100.651C57.6987 100.385 57.9536 100.162 58.2445 99.995Z" fill="#373535"/>
<path d="M112.283 68.7647C112.721 68.5123 113.223 68.3952 113.727 68.4282C114.231 68.4612 114.714 68.6429 115.115 68.9502C115.516 69.2575 115.816 69.6767 115.979 70.1548C116.142 70.633 116.159 71.1486 116.029 71.6366C115.899 72.1246 115.627 72.5631 115.247 72.8966C114.868 73.2301 114.399 73.4438 113.898 73.5106C113.397 73.5774 112.888 73.4943 112.435 73.2719C111.981 73.0494 111.604 72.6976 111.35 72.2608C111.18 71.9704 111.07 71.6492 111.025 71.3158C110.98 70.9824 111.001 70.6434 111.088 70.3183C111.175 69.9932 111.325 69.6886 111.53 69.4219C111.735 69.1553 111.991 68.9319 112.283 68.7647Z" fill="#373535"/>
<path d="M68.7316 112.35C68.9842 111.913 69.361 111.559 69.8144 111.336C70.2678 111.112 70.7773 111.028 71.2785 111.094C71.7797 111.16 72.2501 111.373 72.6301 111.707C73.0101 112.04 73.2826 112.479 73.4132 112.967C73.5438 113.455 73.5266 113.972 73.3638 114.45C73.201 114.929 72.8999 115.348 72.4985 115.656C72.0972 115.963 71.6137 116.145 71.1092 116.177C70.6047 116.21 70.1019 116.092 69.6644 115.838C69.3735 115.671 69.1186 115.448 68.9141 115.182C68.7097 114.916 68.5599 114.612 68.4732 114.288C68.3865 113.964 68.3647 113.626 68.4091 113.294C68.4534 112.961 68.563 112.64 68.7316 112.35Z" fill="#373535"/>
<path d="M99.9289 58.3093C100.182 57.8714 100.558 57.5183 101.012 57.2946C101.465 57.0709 101.975 56.9868 102.476 57.0528C102.977 57.1188 103.447 57.3321 103.827 57.6655C104.207 57.9989 104.48 58.4376 104.61 58.9259C104.741 59.4143 104.724 59.9304 104.561 60.409C104.398 60.8876 104.097 61.3072 103.696 61.6146C103.295 61.922 102.811 62.1034 102.306 62.1359C101.802 62.1684 101.299 62.0506 100.862 61.7972C100.571 61.6301 100.316 61.407 100.111 61.141C99.907 60.875 99.7572 60.5712 99.6705 60.2471C99.5838 59.923 99.562 59.585 99.6063 59.2524C99.6507 58.9199 99.7603 58.5993 99.9289 58.3093Z" fill="#373535"/>
<path d="M86.5455 66.2663C87.549 66.2663 88.3625 65.4528 88.3625 64.4493C88.3625 63.4458 87.549 62.6324 86.5455 62.6324C85.542 62.6324 84.7285 63.4458 84.7285 64.4493C84.7285 65.4528 85.542 66.2663 86.5455 66.2663Z" fill="#373535"/>
<path d="M86.5455 110.573C87.549 110.573 88.3625 109.759 88.3625 108.756C88.3625 107.753 87.549 106.939 86.5455 106.939C85.542 106.939 84.7285 107.753 84.7285 108.756C84.7285 109.759 85.542 110.573 86.5455 110.573Z" fill="#373535"/>
<path d="M77.0377 66.5176C77.2157 66.8277 77.2979 67.1835 77.2738 67.5403C77.2497 67.897 77.1205 68.2386 76.9024 68.5219C76.6843 68.8052 76.3871 69.0175 76.0484 69.132C75.7097 69.2465 75.3447 69.2581 74.9994 69.1653C74.6541 69.0725 74.3441 68.8794 74.1085 68.6105C73.8728 68.3416 73.7222 68.0088 73.6756 67.6544C73.629 67.2999 73.6885 66.9395 73.8465 66.6188C74.0046 66.2981 74.2541 66.0314 74.5636 65.8525C74.7697 65.7334 74.9971 65.6561 75.2331 65.625C75.4691 65.594 75.7088 65.6098 75.9387 65.6716C76.1685 65.7334 76.3839 65.8399 76.5725 65.9851C76.7611 66.1303 76.9191 66.3112 77.0377 66.5176Z" fill="#373535"/>
<path d="M99.1835 104.879C99.4223 105.297 99.4864 105.792 99.3618 106.257C99.2372 106.722 98.9341 107.119 98.5184 107.361C98.2072 107.541 97.8496 107.624 97.491 107.601C97.1324 107.577 96.7889 107.448 96.5038 107.229C96.2187 107.01 96.0049 106.712 95.8894 106.372C95.7739 106.031 95.7619 105.664 95.8549 105.317C95.9479 104.97 96.1418 104.658 96.412 104.421C96.6822 104.184 97.0165 104.033 97.3727 103.986C97.729 103.939 98.0912 103.999 98.4135 104.158C98.7358 104.317 99.0038 104.568 99.1835 104.879Z" fill="#373535"/>
<path d="M68.2712 73.9567C68.6856 74.2005 68.987 74.598 69.11 75.0627C69.233 75.5275 69.1677 76.022 68.9283 76.4389C68.6724 76.8242 68.2791 77.0974 67.8288 77.2028C67.3784 77.3083 66.9047 77.238 66.5044 77.0062C66.1041 76.7745 65.8072 76.3988 65.6743 75.9558C65.5414 75.5128 65.5824 75.0357 65.7891 74.6219C66.0316 74.2062 66.4284 73.903 66.8932 73.7784C67.3581 73.6539 67.8534 73.7179 68.2712 73.9567Z" fill="#373535"/>
<path d="M106.629 96.1099C106.944 96.284 107.2 96.548 107.364 96.8683C107.528 97.1886 107.593 97.5505 107.55 97.9079C107.508 98.2652 107.359 98.6017 107.124 98.8743C106.889 99.1468 106.578 99.3431 106.231 99.438C105.884 99.5329 105.516 99.5221 105.175 99.4069C104.834 99.2918 104.536 99.0775 104.317 98.7916C104.098 98.5057 103.97 98.1611 103.949 97.8019C103.927 97.4426 104.013 97.0851 104.196 96.775C104.435 96.3691 104.823 96.0725 105.277 95.9483C105.732 95.824 106.217 95.882 106.629 96.1099Z" fill="#373535"/>
<path d="M64.3932 88.4208C65.3966 88.4208 66.2101 87.6073 66.2101 86.6038C66.2101 85.6003 65.3966 84.7868 64.3932 84.7868C63.3897 84.7868 62.5762 85.6003 62.5762 86.6038C62.5762 87.6073 63.3897 88.4208 64.3932 88.4208Z" fill="#373535"/>
<path d="M108.698 88.4208C109.701 88.4208 110.515 87.6073 110.515 86.6038C110.515 85.6003 109.701 84.7868 108.698 84.7868C107.694 84.7868 106.881 85.6003 106.881 86.6038C106.881 87.6073 107.694 88.4208 108.698 88.4208Z" fill="#373535"/>
<path d="M66.4533 96.1104C66.7646 95.9252 67.124 95.8373 67.4856 95.8579C67.8472 95.8785 68.1944 96.0066 68.4826 96.226C68.7708 96.4453 68.9869 96.7457 69.1031 97.0887C69.2194 97.4317 69.2305 97.8016 69.135 98.151C69.0395 98.5003 68.8417 98.8132 68.5672 99.0494C68.2926 99.2855 67.9538 99.4343 67.5941 99.4765C67.2344 99.5187 66.8703 99.4525 66.5485 99.2863C66.2267 99.1201 65.9619 98.8616 65.7882 98.5438C65.5603 98.1315 65.5023 97.6465 65.6265 97.192C65.7507 96.7375 66.0474 96.3495 66.4533 96.1104Z" fill="#373535"/>
<path d="M104.862 73.957C105.172 73.7799 105.527 73.6985 105.883 73.723C106.24 73.7476 106.581 73.8771 106.863 74.0951C107.146 74.3131 107.358 74.6099 107.473 74.9482C107.587 75.2864 107.599 75.6509 107.506 75.9958C107.414 76.3407 107.221 76.6506 106.953 76.8863C106.685 77.122 106.353 77.2731 105.999 77.3205C105.645 77.3679 105.285 77.3095 104.964 77.1526C104.644 76.9958 104.377 76.7475 104.197 76.4391C104.077 76.2325 104 76.0043 103.969 75.7678C103.938 75.5312 103.953 75.2908 104.015 75.0603C104.077 74.8298 104.183 74.6137 104.329 74.4244C104.474 74.2351 104.655 74.0763 104.862 73.957Z" fill="#373535"/>
<path d="M73.8988 104.879C74.0785 104.568 74.3464 104.317 74.6687 104.158C74.991 103.999 75.3532 103.939 75.7095 103.986C76.0658 104.033 76.4001 104.184 76.6703 104.421C76.9405 104.658 77.1344 104.97 77.2274 105.317C77.3204 105.664 77.3084 106.031 77.1929 106.372C77.0774 106.712 76.8636 107.01 76.5785 107.229C76.2934 107.448 75.9499 107.577 75.5913 107.601C75.2327 107.624 74.8752 107.541 74.564 107.361C74.3565 107.243 74.1746 107.084 74.0287 106.895C73.8828 106.706 73.7758 106.489 73.714 106.259C73.6522 106.028 73.6366 105.787 73.6684 105.55C73.7001 105.314 73.7784 105.085 73.8988 104.879Z" fill="#373535"/>
<path d="M96.0516 66.5185C96.2313 66.2092 96.4986 65.9602 96.8198 65.8029C97.1411 65.6456 97.5017 65.587 97.8562 65.6346C98.2107 65.6822 98.5431 65.8338 98.8114 66.0702C99.0797 66.3067 99.272 66.6174 99.3638 66.9631C99.4556 67.3088 99.4428 67.6739 99.3272 68.0123C99.2115 68.3508 98.9981 68.6473 98.714 68.8645C98.4298 69.0817 98.0877 69.2098 97.7307 69.2326C97.3738 69.2553 97.018 69.1718 96.7086 68.9925C96.5029 68.8733 96.3227 68.7147 96.1783 68.5258C96.0339 68.3369 95.9282 68.1214 95.8672 67.8917C95.8062 67.6619 95.7911 67.4223 95.8227 67.1867C95.8544 66.9511 95.9321 66.724 96.0516 66.5185Z" fill="#373535"/>
<path d="M87.777 71.4921C87.777 71.7379 87.704 71.9782 87.5673 72.1824C87.4305 72.3867 87.2363 72.5458 87.009 72.6394C86.7818 72.7331 86.5318 72.7572 86.2908 72.7087C86.0499 72.6601 85.8288 72.5411 85.6555 72.3668C85.4823 72.1924 85.3648 71.9705 85.3178 71.7292C85.2708 71.4879 85.2966 71.2381 85.3918 71.0115C85.4869 70.7849 85.6472 70.5916 85.8524 70.4562C86.0575 70.3208 86.2983 70.2494 86.5441 70.251C86.7067 70.251 86.8677 70.2832 87.0178 70.3457C87.1679 70.4081 87.3042 70.4997 87.4188 70.615C87.5334 70.7304 87.624 70.8673 87.6855 71.0178C87.747 71.1683 87.7781 71.3295 87.777 71.4921Z" fill="#373535"/>
<path d="M87.777 101.722C87.777 101.967 87.704 102.208 87.5673 102.412C87.4305 102.616 87.2363 102.775 87.009 102.869C86.7818 102.963 86.5318 102.987 86.2908 102.938C86.0499 102.89 85.8288 102.771 85.6555 102.596C85.4823 102.422 85.3648 102.2 85.3178 101.959C85.2708 101.717 85.2966 101.468 85.3918 101.241C85.4869 101.014 85.6472 100.821 85.8524 100.686C86.0575 100.55 86.2983 100.479 86.5441 100.481C86.7067 100.481 86.8677 100.513 87.0178 100.575C87.1679 100.638 87.3042 100.729 87.4188 100.845C87.5334 100.96 87.624 101.097 87.6855 101.247C87.747 101.398 87.7781 101.559 87.777 101.722Z" fill="#373535"/>
<path d="M80.056 72.8937C80.1797 73.1062 80.2373 73.3508 80.2218 73.5962C80.2062 73.8416 80.1181 74.0769 79.9686 74.2722C79.8191 74.4675 79.615 74.6139 79.3821 74.6929C79.1492 74.772 78.898 74.78 78.6606 74.7161C78.4231 74.6522 78.21 74.5191 78.0482 74.3338C77.8865 74.1486 77.7835 73.9194 77.7523 73.6755C77.721 73.4315 77.7629 73.1838 77.8727 72.9637C77.9824 72.7437 78.1551 72.5612 78.3687 72.4394C78.6535 72.2795 78.9896 72.2376 79.305 72.3225C79.6203 72.4074 79.89 72.6124 80.056 72.8937Z" fill="#373535"/>
<path d="M95.1772 99.0781C95.2999 99.2907 95.3568 99.5349 95.3408 99.7798C95.3247 100.025 95.2364 100.259 95.087 100.454C94.9376 100.649 94.7337 100.795 94.5013 100.874C94.2689 100.953 94.0182 100.961 93.7811 100.897C93.544 100.834 93.3311 100.701 93.1693 100.517C93.0075 100.332 92.904 100.104 92.872 99.8606C92.8399 99.6173 92.8807 99.3699 92.9893 99.1497C93.0979 98.9296 93.2692 98.7466 93.4818 98.6238C93.6227 98.5413 93.7785 98.4875 93.9404 98.4657C94.1022 98.4438 94.2667 98.4543 94.4245 98.4966C94.5822 98.5388 94.7299 98.612 94.8591 98.7118C94.9884 98.8117 95.0965 98.9361 95.1772 99.0781Z" fill="#373535"/>
<path d="M74.0371 77.9712C74.2508 78.0929 74.4235 78.2754 74.5333 78.4955C74.6431 78.7156 74.6849 78.9633 74.6537 79.2072C74.6224 79.4512 74.5194 79.6803 74.3577 79.8656C74.1959 80.0509 73.9828 80.1839 73.7453 80.2479C73.5079 80.3118 73.2567 80.3037 73.0238 80.2247C72.791 80.1457 72.5868 79.9992 72.4373 79.8039C72.2878 79.6087 72.1997 79.3734 72.1841 79.128C72.1686 78.8825 72.2263 78.638 72.3499 78.4254C72.516 78.1442 72.7856 77.9391 73.1009 77.8542C73.4163 77.7693 73.7524 77.8113 74.0371 77.9712Z" fill="#373535"/>
<path d="M100.254 93.101C100.467 93.2238 100.638 93.4068 100.747 93.6269C100.855 93.8471 100.896 94.0945 100.864 94.3378C100.832 94.5812 100.729 94.8096 100.567 94.9941C100.405 95.1787 100.192 95.3111 99.9549 95.3746C99.7178 95.4381 99.4671 95.4299 99.2347 95.351C99.0023 95.2721 98.7984 95.1261 98.649 94.9313C98.4996 94.7366 98.4113 94.5019 98.3952 94.257C98.3792 94.0121 98.4361 93.7679 98.5588 93.5553C98.6395 93.4133 98.7476 93.2889 98.8769 93.189C99.0061 93.0892 99.1538 93.016 99.3115 92.9738C99.4693 92.9315 99.6338 92.921 99.7956 92.9428C99.9575 92.9647 100.113 93.0185 100.254 93.101Z" fill="#373535"/>
<path d="M71.4244 85.3692C71.6705 85.3676 71.9116 85.4393 72.1169 85.575C72.3223 85.7108 72.4826 85.9045 72.5775 86.1316C72.6725 86.3587 72.6977 86.6089 72.6501 86.8504C72.6025 87.0919 72.4841 87.3138 72.31 87.4879C72.136 87.6619 71.9141 87.7803 71.6726 87.8279C71.4311 87.8755 71.1809 87.8503 70.9538 87.7553C70.7267 87.6604 70.5329 87.5001 70.3972 87.2947C70.2614 87.0894 70.1898 86.8483 70.1914 86.6022C70.1914 86.2752 70.3213 85.9616 70.5526 85.7304C70.7838 85.4991 71.0974 85.3692 71.4244 85.3692Z" fill="#373535"/>
<path d="M101.657 85.3692C101.903 85.3676 102.144 85.4393 102.349 85.575C102.555 85.7108 102.715 85.9045 102.81 86.1316C102.905 86.3587 102.93 86.6089 102.882 86.8504C102.835 87.0919 102.716 87.3138 102.542 87.4879C102.368 87.6619 102.146 87.7803 101.905 87.8279C101.663 87.8755 101.413 87.8503 101.186 87.7553C100.959 87.6604 100.765 87.5001 100.63 87.2947C100.494 87.0894 100.422 86.8483 100.424 86.6022C100.426 86.2759 100.557 85.9635 100.787 85.7327C101.018 85.5019 101.33 85.3714 101.657 85.3692Z" fill="#373535"/>
<path d="M72.8368 93.0993C73.0482 92.9782 73.2907 92.9224 73.5338 92.939C73.7768 92.9556 74.0095 93.0438 74.2025 93.1926C74.3954 93.3413 74.54 93.5439 74.618 93.7748C74.6959 94.0056 74.7036 94.2544 74.6403 94.4896C74.577 94.7249 74.4453 94.9361 74.262 95.0966C74.0788 95.2571 73.8521 95.3597 73.6105 95.3915C73.369 95.4233 73.1234 95.3828 72.9048 95.2751C72.6863 95.1674 72.5045 94.9974 72.3825 94.7865C72.3012 94.646 72.2485 94.4908 72.2273 94.3298C72.2062 94.1688 72.217 94.0053 72.2592 93.8485C72.3014 93.6918 72.3741 93.5449 72.4732 93.4163C72.5724 93.2877 72.6959 93.18 72.8368 93.0993Z" fill="#373535"/>
<path d="M99.0122 77.9732C99.2248 77.8505 99.4689 77.7935 99.7138 77.8096C99.9588 77.8256 100.193 77.9139 100.388 78.0634C100.583 78.2128 100.729 78.4166 100.808 78.649C100.887 78.8815 100.895 79.1321 100.831 79.3692C100.768 79.6063 100.636 79.8192 100.451 79.9811C100.266 80.1429 100.038 80.2464 99.7947 80.2784C99.5514 80.3105 99.3039 80.2696 99.0838 80.1611C98.8636 80.0525 98.6806 79.8811 98.5579 79.6685C98.3955 79.383 98.3521 79.0449 98.4371 78.7276C98.5221 78.4103 98.7288 78.1393 99.0122 77.9732Z" fill="#373535"/>
<path d="M77.9158 99.079C78.0378 98.8681 78.2195 98.6981 78.4381 98.5905C78.6567 98.4828 78.9021 98.4423 79.1437 98.474C79.3853 98.5058 79.6121 98.6084 79.7953 98.7689C79.9786 98.9294 80.1102 99.1407 80.1736 99.3759C80.2369 99.6112 80.2291 99.8599 80.1512 100.091C80.0733 100.322 79.9287 100.524 79.7357 100.673C79.5428 100.822 79.31 100.91 79.067 100.927C78.8239 100.943 78.5814 100.887 78.37 100.766C78.2291 100.686 78.1056 100.578 78.0065 100.449C77.9074 100.321 77.8346 100.174 77.7924 100.017C77.7502 99.8602 77.7394 99.6967 77.7605 99.5357C77.7817 99.3748 77.8345 99.2196 77.9158 99.079Z" fill="#373535"/>
<path d="M93.0276 72.8955C93.1503 72.6829 93.3333 72.5115 93.5535 72.4029C93.7736 72.2943 94.021 72.2535 94.2643 72.2856C94.5077 72.3176 94.7361 72.4211 94.9206 72.5829C95.1052 72.7448 95.2376 72.9577 95.3011 73.1948C95.3647 73.4319 95.3565 73.6825 95.2776 73.9149C95.1987 74.1474 95.0526 74.3512 94.8578 74.5006C94.6631 74.65 94.4285 74.7384 94.1835 74.7544C93.9386 74.7705 93.6944 74.7135 93.4818 74.5908C93.1967 74.4262 92.9888 74.1551 92.9036 73.8372C92.8184 73.5193 92.863 73.1805 93.0276 72.8955Z" fill="#373535"/>
<path d="M87.3489 76.8054C87.3489 77.0205 87.2634 77.2268 87.1112 77.379C86.9591 77.5311 86.7528 77.6165 86.5377 77.6165C86.3226 77.6165 86.1162 77.5311 85.9641 77.379C85.812 77.2268 85.7266 77.0205 85.7266 76.8054C85.7266 76.5903 85.812 76.3839 85.9641 76.2318C86.1162 76.0797 86.3226 75.9942 86.5377 75.9942C86.7528 75.9942 86.9591 76.0797 87.1112 76.2318C87.2634 76.3839 87.3489 76.5903 87.3489 76.8054Z" fill="#373535"/>
<path d="M86.5452 97.2138C86.9887 97.2138 87.3483 96.8543 87.3483 96.4108C87.3483 95.9673 86.9887 95.6077 86.5452 95.6077C86.1017 95.6077 85.7422 95.9673 85.7422 96.4108C85.7422 96.8543 86.1017 97.2138 86.5452 97.2138Z" fill="#373535"/>
<path d="M81.637 78.9204C82.0805 78.9204 82.4401 78.5609 82.4401 78.1174C82.4401 77.6739 82.0805 77.3143 81.637 77.3143C81.1935 77.3143 80.834 77.6739 80.834 78.1174C80.834 78.5609 81.1935 78.9204 81.637 78.9204Z" fill="#373535"/>
<path d="M92.1427 94.7237C92.2239 94.8629 92.2618 95.0231 92.2516 95.1839C92.2414 95.3448 92.1834 95.4989 92.0852 95.6267C91.9871 95.7544 91.8531 95.8501 91.7004 95.9014C91.5476 95.9527 91.383 95.9573 91.2276 95.9147C91.0722 95.8722 90.933 95.7842 90.8278 95.6622C90.7226 95.5402 90.656 95.3896 90.6367 95.2296C90.6174 95.0697 90.6462 94.9076 90.7194 94.764C90.7926 94.6205 90.9068 94.502 91.0476 94.4236C91.2331 94.3204 91.4518 94.294 91.6565 94.3501C91.8612 94.4063 92.0357 94.5404 92.1427 94.7237Z" fill="#373535"/>
<path d="M78.4493 81.0053C78.5899 81.0844 78.7037 81.2036 78.7761 81.3477C78.8485 81.4918 78.8764 81.6542 78.8561 81.8142C78.8358 81.9741 78.7683 82.1244 78.6622 82.2459C78.5561 82.3673 78.4162 82.4543 78.2604 82.4959C78.1046 82.5374 77.9399 82.5316 77.7874 82.4791C77.6349 82.4267 77.5016 82.3299 77.4043 82.2013C77.3071 82.0727 77.2504 81.9179 77.2415 81.7569C77.2326 81.5959 77.2718 81.4359 77.3543 81.2973C77.4626 81.1153 77.6377 80.9829 77.8424 80.9284C78.047 80.8738 78.2648 80.9014 78.4493 81.0053Z" fill="#373535"/>
<path d="M95.4357 90.812C95.5762 90.8911 95.6899 91.0103 95.7624 91.1544C95.8348 91.2984 95.8628 91.4608 95.8425 91.6208C95.8222 91.7808 95.7546 91.9311 95.6485 92.0525C95.5424 92.1739 95.4025 92.261 95.2467 92.3025C95.0909 92.3441 94.9263 92.3382 94.7738 92.2858C94.6213 92.2333 94.4879 92.1366 94.3907 92.0079C94.2934 91.8793 94.2367 91.7246 94.2278 91.5636C94.2189 91.4026 94.2582 91.2425 94.3407 91.104C94.449 90.922 94.6241 90.7896 94.8287 90.735C95.0334 90.6804 95.2512 90.7081 95.4357 90.812Z" fill="#373535"/>
<path d="M76.7386 87.4069C77.1821 87.4069 77.5416 87.0474 77.5416 86.6039C77.5416 86.1604 77.1821 85.8009 76.7386 85.8009C76.2951 85.8009 75.9355 86.1604 75.9355 86.6039C75.9355 87.0474 76.2951 87.4069 76.7386 87.4069Z" fill="#373535"/>
<path d="M96.3444 85.8009C96.5048 85.8009 96.6616 85.8484 96.795 85.9376C96.9284 86.0267 97.0323 86.1534 97.0937 86.3016C97.1551 86.4498 97.1713 86.6129 97.14 86.7703C97.1087 86.9276 97.0314 87.0721 96.918 87.1856C96.8045 87.299 96.6599 87.3763 96.5026 87.4076C96.3452 87.4389 96.1822 87.4228 96.0339 87.3614C95.8857 87.3 95.7591 87.1961 95.6699 87.0627C95.5808 86.9293 95.5332 86.7724 95.5332 86.612C95.5332 86.3969 95.6186 86.1906 95.7707 86.0384C95.9229 85.8863 96.1292 85.8009 96.3444 85.8009Z" fill="#373535"/>
<path d="M77.6564 90.8135C77.7955 90.7323 77.9558 90.6944 78.1166 90.7047C78.2774 90.7149 78.4315 90.7728 78.5593 90.871C78.6871 90.9691 78.7827 91.1031 78.834 91.2559C78.8853 91.4086 78.8899 91.5732 78.8473 91.7286C78.8048 91.884 78.7169 92.0232 78.5948 92.1284C78.4728 92.2337 78.3222 92.3002 78.1622 92.3195C78.0023 92.3388 77.8402 92.31 77.6967 92.2368C77.5531 92.1636 77.4346 92.0494 77.3562 91.9086C77.253 91.7231 77.2266 91.5045 77.2828 91.2998C77.3389 91.095 77.473 90.9205 77.6564 90.8135Z" fill="#373535"/>
<path d="M94.6332 81.0053C94.8178 80.9014 95.0356 80.8738 95.2402 80.9284C95.4448 80.9829 95.62 81.1153 95.7283 81.2973C95.8347 81.4826 95.8637 81.7024 95.8091 81.9089C95.7544 82.1155 95.6204 82.2921 95.4363 82.4005C95.2533 82.4832 95.0461 82.4951 94.8548 82.4339C94.6636 82.3726 94.5019 82.2426 94.4009 82.069C94.3 81.8954 94.267 81.6906 94.3084 81.4941C94.3499 81.2976 94.4627 81.1234 94.6251 81.0053H94.6332Z" fill="#373535"/>
<path d="M80.9481 94.7232C81.0272 94.5827 81.1464 94.469 81.2905 94.3965C81.4346 94.3241 81.5969 94.2962 81.7569 94.3165C81.9168 94.3368 82.0671 94.4043 82.1886 94.5104C82.31 94.6165 82.397 94.7564 82.4386 94.9122C82.4801 95.068 82.4743 95.2327 82.4219 95.3852C82.3694 95.5376 82.2727 95.671 82.144 95.7683C82.0154 95.8655 81.8607 95.9222 81.6997 95.9311C81.5387 95.94 81.3787 95.9008 81.2401 95.8183C81.0581 95.71 80.9257 95.5348 80.8711 95.3302C80.8166 95.1256 80.8442 94.9078 80.9481 94.7232Z" fill="#373535"/>
<path d="M90.7468 77.6871C90.8551 77.5029 91.0317 77.369 91.2383 77.3143C91.4448 77.2596 91.6646 77.2887 91.8499 77.3951C91.9893 77.4752 92.1019 77.5949 92.1731 77.7391C92.2444 77.8832 92.2711 78.0453 92.25 78.2047C92.229 78.3641 92.161 78.5136 92.0548 78.6343C91.9486 78.755 91.8089 78.8415 91.6535 78.8826C91.498 78.9237 91.3339 78.9178 91.1818 78.8654C91.0298 78.8131 90.8968 78.7167 90.7996 78.5886C90.7025 78.4605 90.6456 78.3064 90.6362 78.1459C90.6268 77.9854 90.6652 77.8257 90.7468 77.6871Z" fill="#373535"/>
</svg>
