<svg width="137" height="137" viewBox="0 0 137 137" fill="none" xmlns="http://www.w3.org/2000/svg">
<g clip-path="url(#clip0_82_229)">
<path d="M68.2666 -0.0632324V136.3" stroke="white" stroke-width="0.855568" stroke-miterlimit="10"/>
<path d="M63.9844 0.067627L72.5504 136.17" stroke="white" stroke-width="0.855568" stroke-miterlimit="10"/>
<path d="M59.7207 0.470947L76.8116 135.764" stroke="white" stroke-width="0.855568" stroke-miterlimit="10"/>
<path d="M55.4863 1.13745L81.0403 135.092" stroke="white" stroke-width="0.855568" stroke-miterlimit="10"/>
<path d="M51.3076 2.07666L85.2217 134.157" stroke="white" stroke-width="0.855568" stroke-miterlimit="10"/>
<path d="M47.1953 3.27148L89.3391 132.963" stroke="white" stroke-width="0.855568" stroke-miterlimit="10"/>
<path d="M43.166 4.72021L93.368 131.515" stroke="white" stroke-width="0.855568" stroke-miterlimit="10"/>
<path d="M39.2344 6.42285L97.3023 129.814" stroke="white" stroke-width="0.855568" stroke-miterlimit="10"/>
<path d="M35.417 8.36621L101.117 127.872" stroke="white" stroke-width="0.855568" stroke-miterlimit="10"/>
<path d="M31.7314 10.5491L104.804 125.69" stroke="white" stroke-width="0.855568" stroke-miterlimit="10"/>
<path d="M28.1895 12.957L108.345 123.279" stroke="white" stroke-width="0.855568" stroke-miterlimit="10"/>
<path d="M24.8057 15.5803L111.729 120.658" stroke="white" stroke-width="0.855568" stroke-miterlimit="10"/>
<path d="M21.5938 18.4133L114.942 117.822" stroke="white" stroke-width="0.855568" stroke-miterlimit="10"/>
<path d="M18.5596 21.4399L117.968 114.795" stroke="white" stroke-width="0.855568" stroke-miterlimit="10"/>
<path d="M15.7324 24.6548L120.804 111.585" stroke="white" stroke-width="0.855568" stroke-miterlimit="10"/>
<path d="M13.1025 28.0371L123.432 108.2" stroke="white" stroke-width="0.855568" stroke-miterlimit="10"/>
<path d="M10.6934 31.5859L125.834 104.651" stroke="white" stroke-width="0.855568" stroke-miterlimit="10"/>
<path d="M8.51758 35.2717L128.017 100.965" stroke="white" stroke-width="0.855568" stroke-miterlimit="10"/>
<path d="M6.56836 39.0867L129.959 97.1477" stroke="white" stroke-width="0.855568" stroke-miterlimit="10"/>
<path d="M4.86621 43.0203L131.661 93.2154" stroke="white" stroke-width="0.855568" stroke-miterlimit="10"/>
<path d="M3.41797 47.051L133.117 89.188" stroke="white" stroke-width="0.855568" stroke-miterlimit="10"/>
<path d="M2.22363 51.1602L134.311 85.0743" stroke="white" stroke-width="0.855568" stroke-miterlimit="10"/>
<path d="M1.29102 55.3401L135.245 80.8941" stroke="white" stroke-width="0.855568" stroke-miterlimit="10"/>
<path d="M0.618164 59.5693L135.911 76.6671" stroke="white" stroke-width="0.855568" stroke-miterlimit="10"/>
<path d="M0.212891 63.8386L136.315 72.3978" stroke="white" stroke-width="0.855568" stroke-miterlimit="10"/>
<path d="M0.0820312 68.114H136.452" stroke="white" stroke-width="0.855568" stroke-miterlimit="10"/>
<path d="M0.212891 72.3978L136.315 63.8386" stroke="white" stroke-width="0.855568" stroke-miterlimit="10"/>
<path d="M0.618164 76.6671L135.911 59.5693" stroke="white" stroke-width="0.855568" stroke-miterlimit="10"/>
<path d="M1.29102 80.8941L135.245 55.3401" stroke="white" stroke-width="0.855568" stroke-miterlimit="10"/>
<path d="M2.22363 85.0743L134.311 51.1602" stroke="white" stroke-width="0.855568" stroke-miterlimit="10"/>
<path d="M3.41797 89.188L133.117 47.051" stroke="white" stroke-width="0.855568" stroke-miterlimit="10"/>
<path d="M4.86621 93.2154L131.661 43.0203" stroke="white" stroke-width="0.855568" stroke-miterlimit="10"/>
<path d="M6.56836 97.1477L129.959 39.0867" stroke="white" stroke-width="0.855568" stroke-miterlimit="10"/>
<path d="M8.51758 100.965L128.017 35.2717" stroke="white" stroke-width="0.855568" stroke-miterlimit="10"/>
<path d="M10.6934 104.651L125.834 31.5859" stroke="white" stroke-width="0.855568" stroke-miterlimit="10"/>
<path d="M13.1025 108.2L123.432 28.0371" stroke="white" stroke-width="0.855568" stroke-miterlimit="10"/>
<path d="M15.7324 111.585L120.804 24.6548" stroke="white" stroke-width="0.855568" stroke-miterlimit="10"/>
<path d="M18.5596 114.795L117.968 21.4399" stroke="white" stroke-width="0.855568" stroke-miterlimit="10"/>
<path d="M21.5938 117.822L114.942 18.4133" stroke="white" stroke-width="0.855568" stroke-miterlimit="10"/>
<path d="M24.8057 120.658L111.729 15.5803" stroke="white" stroke-width="0.855568" stroke-miterlimit="10"/>
<path d="M28.1895 123.279L108.345 12.957" stroke="white" stroke-width="0.855568" stroke-miterlimit="10"/>
<path d="M31.7314 125.69L104.804 10.5491" stroke="white" stroke-width="0.855568" stroke-miterlimit="10"/>
<path d="M35.417 127.872L101.117 8.36621" stroke="white" stroke-width="0.855568" stroke-miterlimit="10"/>
<path d="M39.2344 129.814L97.3023 6.42285" stroke="white" stroke-width="0.855568" stroke-miterlimit="10"/>
<path d="M43.166 131.515L93.368 4.72021" stroke="white" stroke-width="0.855568" stroke-miterlimit="10"/>
<path d="M47.1953 132.963L89.3391 3.27148" stroke="white" stroke-width="0.855568" stroke-miterlimit="10"/>
<path d="M51.3076 134.157L85.2217 2.07666" stroke="white" stroke-width="0.855568" stroke-miterlimit="10"/>
<path d="M55.4863 135.092L81.0403 1.13745" stroke="white" stroke-width="0.855568" stroke-miterlimit="10"/>
<path d="M59.7207 135.764L76.8116 0.470947" stroke="white" stroke-width="0.855568" stroke-miterlimit="10"/>
<path d="M63.9844 136.17L72.5504 0.067627" stroke="white" stroke-width="0.855568" stroke-miterlimit="10"/>
</g>
<defs>
<clipPath id="clip0_82_229">
<rect width="136.37" height="136.37" fill="white" transform="translate(0.0712891 0.263184)"/>
</clipPath>
</defs>
</svg>
