<svg width="31" height="31" viewBox="0 0 31 31" fill="none" xmlns="http://www.w3.org/2000/svg">
<g clip-path="url(#clip0_186_10626)">
<path d="M16.6567 11.1207H11.8806C11.4464 11.617 11.1982 12.2993 11.1982 12.9816C11.1982 13.7259 11.4464 14.3462 11.8806 14.9044H16.5947C17.401 14.9044 18.1454 15.2146 18.7037 15.7728C18.7657 15.8349 18.8277 15.8969 18.8897 15.9589H23.1076C22.7975 14.9044 22.2393 13.912 21.4329 13.1056C20.1303 11.803 18.4555 11.1207 16.6567 11.1207Z" fill="#0F6C9F"/>
<path d="M18.7036 19.9276C18.1453 20.4858 17.401 20.796 16.5946 20.796H4.18899V24.5797H0.405273H16.5946C18.3934 24.5797 20.0682 23.8974 21.3708 22.5948C22.1772 21.7884 22.7974 20.796 23.1076 19.6794H18.9517C18.8897 19.8035 18.8276 19.8655 18.7036 19.9276Z" fill="#3281C4"/>
<path d="M4.18899 17.8186C4.18899 16.2058 5.49159 14.8412 7.16635 14.8412H7.7246C7.53851 14.2209 7.47649 13.6006 7.47649 12.9183C7.47649 12.2981 7.53851 11.6778 7.7246 11.0575H7.16635C3.44466 11.0575 0.467302 14.0969 0.405273 17.7565V20.7339H4.18899V17.8186Z" fill="#00B2E3"/>
<path d="M14.1751 15.9573C13.2446 15.9573 12.4383 15.5231 11.88 14.9028H7.66211C8.46848 17.6941 11.0737 19.741 14.113 19.741H18.8892C19.3234 19.2448 19.5715 18.5625 19.5715 17.8802C19.5715 17.1979 19.3234 16.5156 18.8892 15.9573H14.1751Z" fill="#FDBC1F"/>
<path d="M12.0666 10.8717C12.6248 10.3135 13.3692 10.0033 14.1755 10.0033H22.6114C23.0456 9.5071 23.2937 8.82479 23.2937 8.14248C23.2937 7.46017 23.0456 6.77786 22.6114 6.2196H14.2376C12.4387 6.2196 10.764 6.9019 9.46139 8.20449C8.65502 9.01086 8.09678 10.0033 7.72461 11.1198H11.8805C11.9425 10.9958 12.0046 10.9337 12.0666 10.8717Z" fill="#FDBC1F"/>
<path d="M23.1076 15.9573H18.8896C19.3238 16.5156 19.572 17.1359 19.572 17.8802C19.572 18.5625 19.3238 19.2448 18.8896 19.7411H23.0455C23.2316 19.1208 23.2937 18.5005 23.2937 17.8802C23.3557 17.1979 23.2936 16.5156 23.1076 15.9573Z" fill="#0F3253"/>
<path d="M7.72527 14.8412H11.9432C11.509 14.345 11.2609 13.6627 11.2609 12.9183C11.2609 12.236 11.509 11.5537 11.9432 11.0575H7.7873C7.60122 11.6778 7.5392 12.2981 7.5392 12.9183C7.41514 13.6627 7.53919 14.283 7.72527 14.8412Z" fill="#15537E"/>
<path d="M4.18899 20.7963H0.405273V24.58H4.18899V20.7963Z" fill="#0F6C9F"/>
<path d="M30.3652 15.9573H26.5815H23.0459C23.232 16.5776 23.294 17.1979 23.294 17.8802C23.294 18.5005 23.232 19.1208 23.0459 19.7411H30.3032L30.3652 15.9573Z" fill="#15537E"/>
<path d="M22.5493 10.0026H23.6038C25.2166 10.0026 26.5812 11.3052 26.5812 12.9799V15.9573H30.3649V12.9799C30.3649 9.25823 27.3255 6.28088 23.6038 6.28088H22.4873C22.9215 6.83914 23.1696 7.4594 23.1696 8.20374C23.2316 8.82402 22.9835 9.50635 22.5493 10.0026Z" fill="#0F6C9F"/>
<path d="M23.6046 23.0917V21.9131H23.2324V21.665H24.3489V21.9131H23.9147V23.0917H23.6046Z" fill="#15537E"/>
<path d="M24.5352 23.0919V21.6652H24.9693L25.2175 22.6577L25.4656 21.6652H25.8998V23.0919H25.6517V21.9754L25.3415 23.0919H25.0934L24.7833 21.9754V23.0919H24.5352Z" fill="#15537E"/>
</g>
<defs>
<clipPath id="clip0_186_10626">
<rect width="29.9595" height="30.0219" fill="white" transform="translate(0.40625 0.388428)"/>
</clipPath>
</defs>
</svg>
