<svg width="60" height="70" viewBox="0 0 60 70" fill="none" xmlns="http://www.w3.org/2000/svg">
<g clip-path="url(#clip0_962_16295)">
<path d="M13.9975 30.988C13.9896 30.988 13.9975 30.988 13.9975 30.988C13.9896 30.988 13.9975 30.988 13.9975 30.988ZM36.8961 68.1503C36.9196 68.2286 37.0448 68.44 37.5537 68.8236C37.7651 68.9801 37.9921 69.0428 38.2348 69.0036C38.8219 68.9175 39.4013 68.2834 39.5735 68.0485L42.0238 64.9093L41.7498 66.1932C41.6794 66.5063 41.5854 67.4379 41.9455 67.9311C42.0943 68.1347 42.3057 68.2443 42.5875 68.2677C42.9241 68.2991 43.1825 68.2364 43.3312 68.0642C43.6443 67.7197 43.5191 67.0308 43.5191 67.023L43.5034 66.9212C43.4486 66.6159 43.2921 65.8096 43.6757 65.2694C43.8557 65.011 44.1141 64.8545 44.4585 64.7997C45.3745 64.6509 46.3374 63.0852 46.5488 62.5372C46.4392 62.5216 46.2748 62.5294 46.1573 62.5294C45.7894 62.5294 45.4449 62.5372 45.2257 62.3493C45.1396 62.271 45.0848 62.1614 45.0848 62.044C45.077 61.7152 45.4136 61.3786 46.1182 60.6975C46.4783 60.353 46.8854 59.9616 47.1672 59.6093C47.8796 58.7169 48.1614 55.8907 47.8326 55.3897C47.7622 55.4054 47.6213 55.5306 47.4412 55.7342C47.2064 56.1961 46.9167 56.6031 46.5644 56.9006L45.1161 58.1219L46.1104 56.5092C46.2826 56.2352 46.5879 55.7655 46.9402 55.3897C47.4882 54.2546 47.6291 52.7984 47.4882 52.3992C47.4334 52.4462 47.3473 52.5401 47.2298 52.7202C46.674 53.5657 46.0242 54.0119 45.2962 54.051C44.2237 54.1058 43.3547 53.2603 42.9319 52.7515C42.016 51.6476 43.0729 48.5162 43.754 47.8664C44.0436 47.5924 44.3176 47.6551 44.4742 47.8038C44.9909 48.1404 50.2752 47.9291 51.2929 47.8351C52.7177 47.7099 53.7197 47.1305 54.3617 46.0737C57.0312 41.6505 52.3106 30.3304 50.5413 26.0638C50.2908 25.4532 50.0873 24.9835 49.9777 24.6782C47.175 17.241 46.995 13.8747 47.6996 13.2484C48.5529 12.489 50.1656 13.1545 50.7919 13.6555C51.2772 14.0391 51.0032 14.681 50.6901 15.4248C50.4396 16.0119 50.1264 16.74 50.0247 17.5855C49.8289 19.2216 52.6864 20.1532 52.7177 20.1611L52.9291 20.2315L52.9212 20.4585C52.8664 22.8541 54.8627 23.7387 55.763 24.0127L55.5125 22.4C55.4812 22.2591 55.4577 22.1182 55.4499 21.9616L56.0448 21.8912L56.1075 22.2826C56.311 23.1829 56.9451 23.7231 57.3287 23.9736C57.6967 24.2163 58.0411 24.3337 58.276 24.3885C56.358 22.2591 57.0469 20.5133 57.4618 19.4565C57.5871 19.1433 57.6888 18.8772 57.6967 18.6893C57.7202 18.1883 56.8355 17.7968 56.264 17.6324C56.1623 17.6089 56.0918 17.5855 56.0605 17.5776L56.2092 16.9905C56.2406 16.9983 56.3188 17.014 56.4284 17.0453C57.1408 17.2097 58.1272 17.3115 58.4482 17.0531C58.503 17.014 58.55 16.9513 58.5422 16.8026C58.5343 16.6225 58.5187 16.6539 58.5108 16.6539C58.4717 16.6539 58.276 16.6852 58.1351 16.7087C57.9159 16.74 57.6419 16.7869 57.3209 16.7869C56.5537 16.7869 55.9666 15.6596 55.3403 14.4618C55.035 13.8747 54.7218 13.2719 54.4791 13.0449C54.1895 12.7709 53.4771 12.7082 52.9291 12.7317C52.7099 12.8883 52.4515 12.9822 52.1619 12.9353C51.9427 12.8961 51.8174 12.8022 51.7939 12.6378L51.7626 12.4264L51.9896 12.2855C52.0992 12.2307 52.3576 12.1759 52.6864 12.1446C52.7255 12.1133 52.7568 12.0741 52.7881 12.035C52.2245 11.9958 51.2146 11.8158 49.4923 11.2443C47.1516 10.4614 46.5801 11.5105 45.9773 12.63C45.8912 12.7865 45.805 12.9431 45.7189 13.0918C45.6641 13.3815 45.3901 14.9472 45.7816 16.2076C45.8598 16.4581 53.3048 41.4548 52.9917 42.8953C52.5689 44.8681 51.3007 45.0873 49.5393 45.3848C49.3436 45.4161 49.1322 45.4552 48.9208 45.4944C46.7445 45.8858 45.0535 44.9307 44.983 44.8837L44.8108 44.782L44.8343 44.5863C45.1083 42.2064 42.6501 38.433 40.7713 35.8026C38.3757 32.4441 38.4696 27.5904 38.4696 27.3868L38.4931 26.2908L39.0333 27.2459C39.1742 27.5043 39.3778 27.7626 39.5109 27.8722C39.5422 27.7704 39.5813 27.5591 39.5735 27.1285C39.5343 24.9678 40.8417 22.9402 41.2723 22.2748L41.3662 22.126C41.5698 21.7816 41.789 21.0613 41.8203 20.8578L41.8438 20.7091L42.0003 20.6151C42.1961 20.5133 42.3996 20.6151 42.838 20.8421C43.1042 20.9752 43.8087 21.3353 43.981 21.2649C44.0045 21.2101 43.9888 20.9361 42.8771 19.7931C42.7284 19.6365 42.6031 19.5035 42.5327 19.4173C42.337 19.1668 42.337 18.5249 42.4466 16.2703C42.5092 14.9629 42.5797 13.4754 42.4779 12.8413C42.2743 11.5966 41.4837 10.9312 41.4758 10.9312L41.3741 10.845L41.3662 10.712C41.3114 9.58463 41.2018 7.33783 41.1392 6.93074C41.1001 6.66457 40.3877 5.43548 39.6596 4.30034L38.5871 5.25542L38.3992 4.95011C38.3914 4.93445 37.6007 3.66622 36.8256 2.78159C36.6299 2.55456 36.4107 2.45279 36.1994 2.46062C36.0976 2.46845 36.0193 2.49976 35.9567 2.53107C36.0898 2.82856 36.035 3.37656 35.9488 4.12028C35.9332 4.27685 35.9175 4.40994 35.9097 4.51171C35.8706 5.00491 34.9859 5.34937 33.2715 5.51377L33.1697 5.5216L33.0836 5.47462C33.0758 5.47462 32.4495 5.09885 31.9719 4.87965C31.8232 4.87965 31.3769 5.39634 31.0638 5.93651L30.9777 6.08525H27.0321C26.8364 6.08525 26.6876 6.16354 26.5937 6.32011C26.4528 6.55497 26.4606 6.92291 26.6093 7.20474L26.6954 7.41611C26.9773 7.9328 27.0634 8.13634 26.9146 8.99749C26.8207 9.58463 27.4627 10.1874 27.7053 10.391C29.0284 10.2814 31.1734 10.1639 31.6196 10.5789C31.7136 10.665 31.7605 10.7746 31.7605 10.892C31.7605 11.5261 30.8211 12.2855 30.5315 12.5047L30.3905 12.6065L30.2261 12.536C29.8034 12.356 28.4569 11.9254 27.9011 12.3012C27.7132 12.4264 27.6271 12.6456 27.6349 12.9744C27.6427 13.2954 27.7523 13.5459 27.9872 13.7416C28.543 14.2113 29.6703 14.2426 30.3984 14.1878C30.6019 14.1487 30.782 14.133 30.9229 14.133L30.9699 14.7358C30.9464 14.7437 30.7585 14.7672 30.4767 14.7906C29.4668 14.9785 27.5957 15.6361 26.5154 16.0119L25.9439 16.2076C25.576 16.3329 25.0984 16.5912 24.5974 16.8731C23.4466 17.5072 22.014 18.29 20.6439 18.2039C18.585 18.0787 16.2599 16.9983 14.9604 16.051C13.8096 15.2056 13.9114 13.7651 13.9818 12.7161C14.0053 12.3716 14.0288 12.0506 13.9896 11.8549C13.9583 11.6749 13.9427 11.5261 13.927 11.4009C13.8879 11.0329 13.8879 11.0173 13.1833 10.7511C12.3065 10.4223 11.555 10.6806 10.9443 11.5261C10.7408 11.808 10.7095 11.941 10.6938 12.0115C10.6155 12.3325 10.4042 12.356 10.1145 12.3794C10.0284 12.3873 9.91878 12.3951 9.77786 12.4108C9.57432 12.4342 9.47255 12.4577 9.43341 12.4734C9.43341 12.4969 9.44123 12.5282 9.44123 12.5595C9.45689 12.7396 9.48038 13.0136 9.33946 13.3658C9.23769 13.6242 9.22203 13.7886 9.21421 13.9295C9.19855 14.2426 9.14375 14.4775 8.68186 14.7672C8.45483 14.9081 8.46266 14.9394 8.53312 15.2917C8.57226 15.4952 8.62706 15.7457 8.62706 16.0745C8.62706 16.7869 10.0049 16.9122 10.0675 16.92L10.1693 16.9279C11.3436 17.0218 11.6802 17.1001 11.8133 17.3193L11.8916 17.4524L11.8368 17.6403C11.735 17.8986 10.7251 18.4388 10.0832 18.7206C10.1223 18.7519 10.1693 18.7911 10.2084 18.8224L14.0914 19.9653L13.8096 20.3176C13.7704 20.3646 13.426 20.7639 12.5335 20.9126C12.6901 21.0848 13.0032 21.3353 13.332 21.5545L15.9703 21.9147L16.0251 22.0947C16.487 23.543 20.7849 25.4454 22.4054 26.0638L22.5463 26.1186L22.9612 27.5356L22.9299 27.6217C22.7968 28.0288 20.4326 29.7667 19.3679 30.4165C18.1075 31.1837 15.2109 31.4812 14.2558 31.5751C14.1384 31.583 14.0679 31.5908 14.0366 31.5986C13.88 31.6299 13.6687 31.5751 13.5982 31.1837C13.5512 30.9175 13.4416 30.3617 12.2126 29.9468C10.2554 29.2814 9.81701 29.6806 8.37655 30.988L8.16517 31.1759C7.9538 31.3638 7.71894 31.6378 7.7894 31.8805C7.90683 32.3189 8.88541 32.6633 9.33946 32.7573L9.66826 32.8277L9.37078 33.7593L9.58998 33.8219C9.57432 33.8924 9.58215 33.9472 9.62129 34.0098C9.80918 34.3073 10.5138 34.5422 10.9208 34.6126L11.2262 34.6674L11.0383 35.4268C11.0148 35.466 10.9835 35.5208 10.9913 35.5442C11.0931 35.74 11.8994 35.92 12.5805 35.9513C13.0346 35.7086 14.9917 34.6987 15.6571 34.6126C15.9625 34.5735 16.1112 34.6987 16.1738 34.8083C16.3695 35.1215 16.0799 35.5442 15.6884 36.1236C15.5475 36.3271 15.4066 36.5306 15.3127 36.7107C15.3048 36.7185 15.3048 36.7264 15.297 36.7342C15.4066 36.7577 15.6258 36.7655 15.8294 36.7342C16.6749 35.9748 17.5751 35.1371 17.8491 34.8475C17.8883 34.7692 17.9274 34.7144 17.9666 34.6831L18.1388 34.5343L18.4676 34.7379L18.4833 34.8866C18.4911 34.9571 18.4911 35.0119 18.358 35.1763C18.3032 35.3172 18.2406 35.599 18.3345 35.7478C18.4128 35.8652 18.6398 35.8965 18.9686 35.8417C19.6575 35.7243 20.0333 35.2546 20.2447 34.824C20.1273 34.3699 20.503 33.9315 20.55 33.8846L21.1763 33.18L21.0745 34.1194C21.051 34.2995 21.0041 34.5265 20.918 34.7692C20.9962 34.8162 21.1528 34.871 21.4425 34.8866C22.6246 34.9806 25.3724 33.5401 26.3432 32.9843L26.5389 32.8747L26.7033 33.0234C28.2377 34.4404 35.9175 41.5723 36.2307 42.316C36.4029 42.7231 36.3168 42.9971 36.2072 43.1536C35.9488 43.5372 35.393 43.5685 35.2286 43.5685C35.0642 43.5685 34.9311 43.4746 34.6023 43.2397C33.796 42.6761 31.9093 41.3609 28.7309 41.126C25.5212 40.8912 24.8088 42.4099 24.386 43.318C24.2764 43.5607 24.1825 43.7486 24.065 43.8817C23.5484 44.4845 23.1413 44.3592 22.6794 44.2105C22.562 44.1713 22.4367 44.1322 22.2801 44.0931C21.8887 43.9913 21.693 43.8739 21.5756 43.7956C21.5677 43.7877 21.5521 43.7799 21.5442 43.7799C21.5364 43.7799 21.5286 43.7877 21.5129 43.7956C21.5364 43.8112 21.5599 43.9991 21.8965 44.5784L21.9122 44.6019C22.1236 44.7193 23.0786 44.8916 23.8772 44.9855L24.2373 45.0247L24.1277 45.3769C23.8537 46.2459 23.1569 48.6493 23.1882 49.3539C23.2117 49.8627 24.9497 52.1174 26.6172 54.004L27.1417 54.599L22.0374 53.9884L21.967 53.8475C21.9513 53.8162 20.2995 50.5986 18.5381 50.3872C17.536 50.2698 17.2072 50.489 17.0976 50.6221C16.941 50.8335 17.0585 51.1466 17.0585 51.1544L17.2307 51.5694H16.1034C15.8842 51.7103 15.7511 51.8825 15.6963 52.1017C15.5554 52.681 16.0016 53.3856 16.0094 53.3856L16.7845 54.5755L15.5945 53.8005C15.5945 53.8005 15.5084 53.7535 15.3988 53.7927C15.297 53.8318 15.0935 53.9649 14.8899 54.4581C14.5846 55.2175 15.8842 56.2274 16.4713 56.5875L20.9258 56.1256L19.4697 56.8615C19.4618 56.8615 18.9217 57.1433 18.5615 57.707C18.4833 57.8244 18.4911 57.9731 18.5772 58.1454C18.7651 58.5055 19.2426 58.8265 19.6184 58.8499H19.6341C20.0568 58.8499 20.871 58.1141 21.3172 57.5817L21.693 57.1355L21.8417 57.6991C21.9435 58.0984 22.9612 58.7247 23.9163 59.1866L22.5854 56.2743L23.9476 57.8401C23.9554 57.8479 24.9653 58.9987 25.4977 59.3979C26.0144 59.7502 31.51 60.3765 32.332 60.2591C32.2459 60.1417 32.0893 59.9694 31.9641 59.8363C31.8075 59.6641 31.6353 59.4841 31.4865 59.2962C31.0403 58.7325 31.2517 58.1689 31.4552 57.6209C31.5805 57.2764 31.7136 56.9241 31.7292 56.5092C31.7527 55.8751 31.3143 55.0687 30.9307 54.3485C30.6724 53.871 30.4532 53.456 30.3671 53.1194C30.187 52.3757 31.1734 51.6085 31.4787 51.3893C32.2381 50.8491 32.4651 50.9979 32.5512 51.0448C32.6765 51.1231 32.7391 51.2719 32.7078 51.4206C32.7626 51.7416 34.1013 53.5343 34.6102 54.2154C34.8059 54.4738 34.9546 54.6773 35.0251 54.7791C35.2521 55.1079 35.166 55.5776 35.0877 56.0395C35.0486 56.2509 34.9703 56.6893 35.0407 56.7675C35.0799 56.7832 35.0955 56.7754 35.1112 56.7675C35.2521 56.6971 35.393 56.337 35.44 56.1099L35.487 56.0082C35.5574 55.9064 35.7062 55.7968 35.9175 55.789H35.9254C36.2855 55.789 36.6926 56.1099 37.1623 56.7597C37.7572 57.5895 38.9942 57.7931 39.5422 57.8401C39.6048 57.4173 39.7927 56.6501 40.3642 56.1804C40.7791 55.8438 41.3036 55.7263 41.9221 55.8359C42.6814 55.969 43.2059 56.3213 43.4878 56.8771C43.9184 57.7383 43.5817 58.8186 43.3234 59.3197C42.9006 60.1182 40.6617 63.688 40.5677 63.8368L40.3955 64.1734L40.1293 63.8994C39.4639 63.2183 38.5479 62.8817 37.5615 62.96C36.536 63.0382 35.5652 63.5628 35.0251 64.3221C34.8137 64.6196 34.5867 65.0424 34.7041 65.3868C34.8372 65.7626 35.3147 65.9113 35.3226 65.9113L35.5809 65.9896L35.5418 66.248C35.4791 66.6316 35.5418 66.9369 35.7218 67.1639C36.0584 67.5788 36.7004 67.6101 36.7082 67.618L37.7886 67.6728L36.8961 68.1503ZM38.086 69.6143C37.7651 69.6143 37.4676 69.5125 37.1858 69.3011C36.5908 68.8549 36.2933 68.4948 36.2776 68.1581C35.9645 68.0799 35.5418 67.9155 35.2443 67.5475C34.9938 67.2344 34.8842 66.8508 34.9076 66.3967C34.6571 66.2793 34.2814 66.0288 34.1326 65.5904C33.9682 65.1206 34.1013 64.5726 34.5319 63.9698C35.1895 63.0539 36.3011 62.4511 37.5146 62.3572C38.5479 62.2789 39.5187 62.5842 40.2781 63.2261C40.8417 62.318 42.4779 59.7033 42.8145 59.0535C43.0102 58.6777 43.2921 57.8087 42.9711 57.159C42.7832 56.7832 42.4074 56.5405 41.8438 56.4466C41.3975 56.3683 41.0453 56.4387 40.7713 56.6658C40.1841 57.1433 40.1371 58.1689 40.1371 58.1767L40.1293 58.4663H39.8475C39.7614 58.4663 37.6633 58.4507 36.7082 57.1198C36.3481 56.6188 36.1211 56.4622 36.0193 56.4153C35.941 56.6814 35.7688 57.1277 35.4322 57.3077C35.2521 57.4017 35.0486 57.4095 34.8528 57.3312C34.3127 57.112 34.4301 56.4622 34.524 55.9377C34.5788 55.6481 34.6493 55.2488 34.5632 55.1314C34.4927 55.0296 34.344 54.8339 34.1561 54.5834C32.927 52.9394 32.3712 52.1252 32.1989 51.6633C31.9093 51.8199 31.3926 52.1878 31.1186 52.5871C31.009 52.7515 30.9542 52.8924 30.9777 52.9785C31.0403 53.2447 31.2517 53.6439 31.4865 54.0588C31.9093 54.8417 32.3868 55.7263 32.3633 56.5249C32.3477 57.0337 32.1911 57.4565 32.0502 57.8322C31.8545 58.3646 31.7684 58.6386 31.9954 58.9204C32.1363 59.1005 32.2929 59.2649 32.4416 59.4214C32.8252 59.8285 33.1227 60.1573 33.0053 60.4939C32.9035 60.7914 32.5591 60.8384 32.4495 60.8541C31.6744 60.9637 25.8656 60.3922 25.1767 59.8833C25.0593 59.7972 24.9184 59.6719 24.7696 59.5389L25.1454 60.3687L24.433 60.0712C24.0259 59.899 22.2097 59.1161 21.5208 58.2785C21.0823 58.7403 20.2917 59.4919 19.6106 59.4449C19.0234 59.4136 18.3423 58.9595 18.0605 58.4115C17.8726 58.0436 17.8805 57.6757 18.0762 57.3782C18.1701 57.2373 18.2719 57.1042 18.3737 56.9946L16.3617 57.2059L16.2756 57.159C16.0173 57.0102 13.7783 55.6481 14.3576 54.2311C14.5846 53.6674 14.8821 53.3308 15.25 53.2134C15.2579 53.2134 15.2657 53.2055 15.2735 53.2055C15.1404 52.8689 15.023 52.3992 15.1326 51.953C15.2344 51.5459 15.4927 51.2249 15.8998 50.9979L15.9703 50.9587H16.4478C16.44 50.7474 16.4713 50.4812 16.6514 50.2542C16.9802 49.8236 17.6456 49.667 18.6398 49.7844C20.5109 50.0036 22.1001 52.7436 22.468 53.4247L25.6856 53.8083C24.6444 52.5949 22.6481 50.168 22.6168 49.3695C22.5854 48.5867 23.2117 46.4103 23.4779 45.5335C21.646 45.2987 21.4973 45.0325 21.4346 44.9307L21.4033 44.8759C21.1528 44.4453 20.8945 43.9521 20.9962 43.5842C21.0354 43.4433 21.1215 43.3337 21.2467 43.2632C21.5599 43.0832 21.7321 43.1615 21.92 43.2789C22.0218 43.3415 22.1549 43.4276 22.4524 43.4981C22.6168 43.5372 22.7655 43.5842 22.8908 43.6233C23.3213 43.7643 23.3761 43.7799 23.6423 43.4746C23.7049 43.3963 23.791 43.2241 23.8772 43.044C24.339 42.0654 25.1845 40.2492 28.817 40.5076C32.1598 40.7503 34.1483 42.1359 34.9938 42.7309C35.119 42.817 35.2521 42.9109 35.3147 42.9501C35.5183 42.9423 35.6983 42.8796 35.7531 42.8013C35.8001 42.7309 35.7531 42.6056 35.7218 42.5273C35.44 41.9793 29.9913 36.8203 26.4997 33.5949C25.7247 34.0333 22.8516 35.5599 21.4503 35.466C21.145 35.4425 20.9023 35.3877 20.7144 35.2859C20.4013 35.8026 19.9002 36.2801 19.1252 36.4132C18.2954 36.5541 17.9587 36.241 17.8257 35.9513C17.8022 35.9044 17.7865 35.8496 17.7709 35.8026C17.4264 36.1236 16.9332 36.5776 16.2286 37.2196L16.166 37.2744L16.0799 37.29C15.7902 37.3448 15.0935 37.4153 14.8351 37.0552C14.7412 36.9299 14.6707 36.7107 14.8508 36.3897C14.9604 36.194 15.1091 35.9748 15.2579 35.7556C15.3596 35.6069 15.5006 35.4033 15.5945 35.2389C14.9369 35.4425 13.6295 36.0844 12.8545 36.4993L12.784 36.5385H12.7058C12.2752 36.5228 10.8426 36.4367 10.5216 35.8026C10.459 35.6773 10.3885 35.4346 10.5686 35.1293V35.1137C10.1536 35.0041 9.45689 34.7614 9.17506 34.3073C9.0498 34.1116 9.01066 33.8846 9.06546 33.6575L8.84626 33.5871L8.95586 33.2426C8.43135 33.0861 7.45277 32.7103 7.26489 32.0135C7.14746 31.583 7.33534 31.1446 7.82072 30.7062L8.03209 30.5183C9.50386 29.1796 10.1771 28.569 12.4709 29.3518C13.9035 29.8372 14.154 30.5653 14.2323 30.9567C14.2402 30.9567 14.248 30.9567 14.2558 30.9567C16.7218 30.7062 18.358 30.3461 19.1174 29.8842C20.3699 29.117 22.0061 27.8331 22.3741 27.4495L22.1157 26.557C21.0902 26.1578 16.44 24.2711 15.5945 22.447L13.1285 22.0791C12.2439 21.5076 11.8368 21.0379 11.9151 20.6856C11.9386 20.5681 12.0403 20.3568 12.4161 20.3098C12.604 20.2863 12.7527 20.2472 12.8858 20.208L9.95009 19.3234C9.37861 18.885 9.25335 18.7206 9.33163 18.5014L9.40209 18.2979L9.64478 18.29C9.77004 18.2509 10.5138 17.8829 10.9913 17.6089C10.6938 17.5698 10.3415 17.5385 10.185 17.5307L10.0754 17.5228C9.15158 17.4445 8.07906 17.0218 8.07906 16.0824C8.07906 15.8162 8.03209 15.6048 8.00077 15.4248C7.92249 15.0333 7.83637 14.6262 8.41569 14.2661C8.65055 14.1174 8.65055 14.0939 8.6662 13.906C8.67403 13.7338 8.68969 13.4989 8.8306 13.1545C8.91672 12.9353 8.90106 12.7787 8.89323 12.63C8.84626 12.1054 9.06546 11.9019 9.77004 11.8236C9.91878 11.808 10.0284 11.8001 10.1145 11.7923C10.138 11.7923 10.1615 11.7845 10.185 11.7845C10.2241 11.6514 10.3024 11.4635 10.5059 11.1817C11.0618 10.4145 11.8916 10.297 12.5335 10.1796C12.8232 10.1248 13.1363 10.0778 13.4495 10.2031C14.3967 10.5632 14.522 10.7589 14.5768 11.3617C14.5846 11.4713 14.6003 11.6044 14.6316 11.7688C14.6786 12.035 14.6551 12.3794 14.6238 12.7787C14.5533 13.7416 14.475 14.9316 15.3518 15.5813C16.5809 16.4816 18.7807 17.4993 20.7144 17.6168C21.9122 17.6872 23.2509 16.9513 24.339 16.3564C24.8949 16.051 25.3724 15.7927 25.7795 15.6518L26.351 15.4561C27.126 15.1821 27.9089 14.9159 28.6213 14.6889C28.2533 14.5949 27.9089 14.454 27.6349 14.227C27.2669 13.9217 27.0791 13.5146 27.0712 13.0136C27.0556 12.3403 27.3531 11.9958 27.6036 11.8236C28.4021 11.2834 29.8269 11.7453 30.3357 11.9332C30.7115 11.6279 31.0716 11.2365 31.1656 11.0016C30.7272 10.8607 29.0675 10.892 27.6662 11.0173L27.5566 11.0251L27.4627 10.9546C27.4078 10.9155 26.1709 9.99172 26.351 8.91137C26.4684 8.21463 26.4293 8.14417 26.1944 7.72143L26.077 7.50223C25.8265 7.02468 25.8265 6.44537 26.077 6.02263C26.2805 5.686 26.6172 5.49811 27.0321 5.49811H30.6332C30.962 4.95794 31.6196 4.06548 32.2303 4.34731C32.6295 4.53519 33.1149 4.80919 33.3106 4.91879C34.2657 4.81702 35.1973 4.58999 35.3304 4.42559C35.3226 4.37079 35.3382 4.22988 35.3539 4.06548C35.393 3.76016 35.4713 3.06342 35.4243 2.83639C35.3304 2.77376 35.2678 2.67199 35.2599 2.55456C35.2443 2.29622 35.5104 2.06136 35.7766 1.95176C36.2933 1.74039 36.857 1.90479 37.2797 2.39016C37.859 3.05559 38.4305 3.89325 38.7202 4.33948L39.7849 3.39222L39.9806 3.68971C40.2624 4.12028 41.6637 6.2888 41.742 6.86028C41.8125 7.34566 41.9377 9.96823 41.969 10.5789C42.2274 10.8294 42.8771 11.5653 43.0729 12.763C43.1903 13.4676 43.1198 14.9159 43.0494 16.325C42.9946 17.3976 42.9319 18.8615 43.0259 19.0964C43.065 19.1433 43.1825 19.2608 43.3155 19.4017C43.9731 20.0828 44.8734 21.0144 44.4742 21.6328C44.1062 22.1965 43.2529 21.7581 42.564 21.4058C42.4935 21.3745 42.4153 21.3275 42.3448 21.2962C42.2509 21.6407 42.0708 22.1495 41.8829 22.4627C41.8594 22.5018 41.8203 22.5566 41.7733 22.6271C41.3662 23.2534 40.1371 25.1635 40.1685 27.1442C40.1763 27.7626 40.1293 28.4046 39.6831 28.522C39.4795 28.5768 39.276 28.4829 39.0959 28.3341C39.1899 29.892 39.5813 33.1174 41.2566 35.4738C44.2628 39.6934 45.5702 42.4882 45.4449 44.4688C45.899 44.6802 47.222 45.2047 48.8112 44.9229C49.0304 44.8837 49.234 44.8446 49.4375 44.8133C51.1285 44.5236 52.0679 44.3671 52.4045 42.7935C52.6003 41.5018 45.9146 18.7206 45.2101 16.4112C44.7325 14.8689 45.1318 13.0214 45.1474 12.9431L45.1866 12.8492C45.2805 12.7004 45.3666 12.536 45.4606 12.3638C46.0556 11.26 46.8776 9.75686 49.6959 10.6963C52.4515 11.6122 53.25 11.4557 53.2579 11.4557L53.8215 11.3304L53.6101 11.8628C53.571 11.9567 53.524 12.0585 53.4614 12.1602C54.0172 12.1916 54.5887 12.3246 54.9097 12.63C55.2228 12.9274 55.536 13.5224 55.8883 14.2113C56.3032 15.0098 56.9216 16.2076 57.3287 16.2076C57.6027 16.2076 57.8376 16.1685 58.049 16.1372C58.3934 16.0824 58.6909 16.0354 58.9179 16.2233C59.0667 16.3407 59.145 16.5286 59.1528 16.7948C59.1684 17.1079 59.0588 17.3663 58.8318 17.5463C58.6048 17.7264 58.276 17.8047 57.9237 17.8281C58.1664 18.063 58.3308 18.3605 58.3151 18.7284C58.3073 19.0181 58.182 19.3312 58.0411 19.6913C57.6184 20.7639 57.0469 22.2278 58.8788 24.1536C59.1606 24.4511 59.098 24.6782 59.0432 24.7956C58.9571 24.9522 58.7222 25.1244 58.1507 24.9991C57.6184 24.8817 56.9295 24.5529 56.3815 23.9814L56.5067 24.8112L56.0918 24.733C56.0527 24.7251 52.4124 24.0284 52.3341 20.6856C51.5982 20.4116 49.2183 19.3782 49.4375 17.5385C49.5471 16.6069 49.8759 15.8318 50.1421 15.2134C50.33 14.7672 50.5492 14.2505 50.4239 14.1487C49.9072 13.7338 48.6312 13.2562 48.1066 13.7181C47.8561 13.953 47.5352 16.466 50.5492 24.4824C50.6666 24.7878 50.8545 25.2496 51.105 25.8524C52.9134 30.1895 57.7123 41.721 54.8862 46.4025C54.1503 47.6159 52.9682 48.3048 51.3555 48.4536C51.2929 48.4614 45.2257 48.8685 44.1689 48.3283C43.9575 48.524 43.5347 49.3617 43.2999 50.4342C43.1042 51.3423 43.1433 52.0704 43.4017 52.3835C43.6835 52.728 44.435 53.5108 45.2727 53.4717C45.7972 53.4404 46.2904 53.0881 46.7366 52.4148C46.9324 52.1174 47.2298 51.7259 47.6134 51.7886C47.77 51.812 47.9736 51.9216 48.0753 52.2896C48.2162 52.7906 48.1301 53.824 47.817 54.826C47.8405 54.826 47.8561 54.8182 47.8796 54.826C48.0675 54.826 48.2319 54.92 48.3415 55.0922C48.866 55.9064 48.4198 59.0378 47.6369 60.0164C47.3316 60.4 46.901 60.8071 46.5331 61.1672C46.2669 61.4256 45.9225 61.7544 45.7659 61.9579C45.8833 61.9657 46.0399 61.9657 46.1495 61.9657C46.5331 61.9657 46.8932 61.9579 47.0811 62.1928C47.175 62.3102 47.2064 62.4589 47.1672 62.6077C47.0263 63.2105 45.852 65.2146 44.5603 65.4338C44.3881 65.4651 44.2628 65.5356 44.1767 65.653C43.9418 65.9896 44.0671 66.6394 44.1062 66.8508C44.1219 66.9291 44.1297 66.9839 44.1297 67.0073C44.1376 67.0073 44.302 67.9468 43.7931 68.5104C43.5034 68.8236 43.0885 68.9567 42.5405 68.9097C42.0786 68.8627 41.7185 68.667 41.468 68.3225C41.2175 67.9781 41.1235 67.5319 41.1001 67.1248L40.0667 68.4478C40.0432 68.4869 39.2917 69.489 38.3366 69.6377C38.2426 69.6143 38.1643 69.6143 38.086 69.6143Z" fill="#0F3253"/>
<path d="M36.7239 38.4629C37.0214 39.0657 37.2328 39.6842 37.3424 40.3418C37.3972 40.6706 37.4207 41.015 37.3737 41.3595C37.3424 41.7039 37.2249 42.0562 37.0136 42.3459C36.9118 42.5024 36.7787 42.6199 36.6456 42.7295C36.5125 42.8391 36.4029 42.9174 36.2855 43.0191C36.0585 43.2227 35.8393 43.434 35.6279 43.6689C35.213 44.1308 34.8216 44.6162 34.4693 45.1407C33.7647 46.1741 33.1932 47.3092 32.8331 48.507C32.473 49.7047 32.4182 51.0199 32.8566 52.2177C32.3712 51.0434 32.3712 49.7047 32.6844 48.4678C32.9975 47.2309 33.5299 46.0566 34.2109 44.9763C34.5476 44.4283 34.9312 43.9194 35.3383 43.4184C35.5496 43.1757 35.7688 42.9408 36.0037 42.7138C36.1211 42.612 36.2699 42.4946 36.3716 42.3928C36.4734 42.2989 36.5752 42.205 36.6378 42.0875C36.9431 41.6335 36.9353 41.0072 36.8179 40.4357C36.7004 39.8564 36.4656 39.2692 36.1837 38.7525L36.7239 38.4629Z" fill="#0F3253"/>
<path d="M25.1923 34.1413C25.161 34.1413 25.1297 34.1413 25.0984 34.1335L25.1297 33.836C25.8421 33.9143 27.1338 32.5051 27.5722 31.9493C27.6192 31.8945 27.6975 31.8788 27.7601 31.9102C27.7758 31.918 29.2945 32.7165 31.1577 32.3877C32.927 32.0746 33.6159 28.4969 33.5689 28.1916L33.8586 28.1055C33.929 28.3168 33.6394 30.047 32.8878 31.3152C32.4181 32.1137 31.8545 32.5756 31.2125 32.6852C29.5215 32.9827 28.1359 32.419 27.7366 32.2311C27.3843 32.6695 26.1161 34.1413 25.1923 34.1413Z" fill="#0F3253"/>
<path d="M38.4774 11.0386C38.4148 11.0386 38.3443 11.0151 38.2895 10.976L37.1074 10.06L37.4754 9.58249L38.4853 10.3653C39.182 9.8878 39.5656 9.33197 39.6282 8.70569C39.7378 7.6958 39.0254 6.72505 38.6575 6.30231C38.2739 6.70157 37.859 7.10865 37.6476 7.17128L37.4597 6.5998L37.5537 6.88945L37.4441 6.60762C37.5693 6.545 38.0625 6.06745 38.4383 5.65254C38.4931 5.58991 38.5714 5.55859 38.6497 5.55859C38.7514 5.55859 38.8062 5.58991 38.8689 5.64471C38.9315 5.70734 40.4033 7.13997 40.231 8.77614C40.1371 9.65295 39.5969 10.3967 38.6262 10.9995C38.587 11.023 38.5322 11.0386 38.4774 11.0386Z" fill="#0F3253"/>
<path d="M38.2426 8.11918L37.7886 7.71993L38.3992 7.03101C38.4775 6.9449 38.6027 6.90575 38.7123 6.9449L39.8162 7.28935L39.6361 7.86867L38.7123 7.58684L38.2426 8.11918Z" fill="#0F3253"/>
<path d="M30.6567 6.04492C30.7037 7.0235 30.7663 8.00207 30.8054 8.98064L30.7115 8.82407C31.189 9.0511 31.6431 9.29379 32.0893 9.56779C32.5355 9.84179 32.9896 10.1236 33.3889 10.515C33.7881 10.9065 34.0778 11.478 34.0778 12.0651C34.0856 12.6444 33.8273 13.2159 33.3967 13.5369L33.3497 13.4977C33.5924 13.0437 33.6629 12.5505 33.5767 12.1043C33.4906 11.658 33.2558 11.2744 32.9426 10.93C32.2929 10.2254 31.4161 9.63824 30.5471 9.12939L30.5314 9.13722C30.4766 9.1059 30.4453 9.04327 30.4453 8.98847C30.4766 8.0099 30.5471 7.03132 30.5941 6.05275H30.6567V6.04492Z" fill="#0F3253"/>
<path d="M31.8855 11.6504C31.8621 11.8852 31.7525 12.0731 31.6194 12.2375C31.5489 12.3158 31.4706 12.3941 31.3689 12.4489C31.2749 12.5037 31.1575 12.5585 31.0322 12.5272C31.1105 12.4332 31.1575 12.355 31.2123 12.2767C31.2671 12.1906 31.3297 12.1201 31.3923 12.0418C31.5254 11.8931 31.6663 11.7522 31.8855 11.6504Z" fill="#0F3253"/>
<path d="M32.7391 11.6504C32.8878 11.7991 32.9583 11.987 33.0131 12.1827C33.0601 12.3784 33.0522 12.5742 33.0288 12.7777C32.9661 12.9734 32.9035 13.177 32.7626 13.3335C32.6295 13.4979 32.4416 13.6154 32.2381 13.6467L32.2224 13.6232C32.5042 13.3962 32.6765 13.0674 32.7313 12.7151C32.8017 12.3706 32.7861 12.0027 32.7078 11.6582L32.7391 11.6504Z" fill="#0F3253"/>
<path d="M30.6255 6.65625C30.6255 6.65625 31.0952 7.17294 31.1813 7.11031C31.1813 7.11031 32.9741 7.16511 33.3733 7.32168C33.7726 7.47042 33.9761 7.61917 33.9918 8.03408C33.9918 8.03408 33.3264 7.69745 32.6766 7.6818C32.0268 7.66614 31.2753 7.6818 31.1735 7.72094C31.0717 7.76008 30.6177 8.449 30.6177 8.449V6.65625H30.6255Z" fill="#0F3253"/>
<path d="M22.327 26.7692C22.3114 26.5969 21.9982 22.5417 22.1705 21.0543C22.4523 18.5648 23.9006 16.7172 26.4762 15.5508L26.6014 15.8248C24.1276 16.9364 22.7419 18.7057 22.4758 21.0856C22.3114 22.5417 22.6323 26.6987 22.6402 26.7378L22.327 26.7692Z" fill="#0F3253"/>
<path d="M24.4956 25.9931C22.8829 20.2313 26.4136 17.9532 26.4527 17.9375L26.6093 18.1958C26.578 18.2193 23.2352 20.3878 24.7853 25.9148L24.4956 25.9931Z" fill="#0F3253"/>
<path d="M38.5948 23.6839C38.5869 23.6839 38.5791 23.6839 38.5634 23.6839C38.493 23.6917 38.446 23.7308 38.4304 23.8091C38.3756 24.0518 38.3286 24.2319 38.2425 24.3884C38.3364 24.2867 38.446 24.1927 38.54 24.1144C38.6261 24.044 38.6965 23.9735 38.767 23.9031C38.8296 23.8326 38.814 23.8013 38.8061 23.7856C38.7826 23.7308 38.6887 23.6839 38.5948 23.6839ZM39.1349 28.1618C39.0958 28.0992 38.1016 26.6509 37.8745 25.7193C37.7728 25.3044 37.8432 24.9834 37.992 24.7251C37.9372 24.7799 37.8824 24.8268 37.8119 24.8816C37.5927 25.0539 37.3657 25.3592 37.1699 25.6254C37.0369 25.7976 36.9273 25.9542 36.8333 26.0481C36.7237 26.1577 36.7863 26.4943 36.8646 26.6901C36.8881 26.7449 36.8725 26.8153 36.8255 26.8545C36.7785 26.8936 36.7159 26.9093 36.6611 26.8858C36.6533 26.8858 36.4341 26.7918 36.1209 26.8936C35.753 27.011 35.2754 26.4943 35.0484 26.1968C34.8918 26.3847 34.5943 26.6744 34.1403 26.8858C33.4435 27.2067 32.9738 27.2067 32.2849 26.8858C31.8074 26.6587 31.7761 26.4395 31.7761 26.1499C31.7761 26.0403 31.7761 25.9307 31.7369 25.8054C31.6743 25.6175 31.6038 25.6019 31.4316 25.5627C31.2907 25.5314 31.1185 25.4923 30.9306 25.3435C30.8523 25.2887 30.821 25.2809 30.821 25.2809C30.821 25.2887 30.7896 25.3357 30.774 25.3748C30.7035 25.4923 30.6018 25.6645 30.3669 25.7506C30.3356 25.7584 30.3278 25.7663 30.3278 25.7663C30.3356 25.7741 30.3591 25.8289 30.3747 25.8602C30.4139 25.9542 30.4687 26.0716 30.3904 26.189C30.3043 26.3143 30.1164 26.3143 29.9207 26.2908C29.6232 26.2595 29.4118 26.1734 29.31 26.0324C29.1378 26.1264 28.8638 26.236 28.4176 26.3612C27.4468 26.6431 26.711 26.3143 26.5466 26.0872C26.4683 25.9698 26.5152 25.8759 26.5387 25.8524C26.6327 25.7193 26.844 25.7819 26.9223 25.8054C27.0006 25.8289 27.0711 25.8132 27.1494 25.7584C27.486 25.5079 27.6974 24.5998 27.6974 24.0831C27.6974 23.5586 26.9458 23.3942 26.938 23.3942C26.8754 23.3786 26.8284 23.3316 26.8206 23.269C26.163 18.0238 29.3414 16.9043 29.3727 16.8965L29.4666 17.1861C29.3492 17.2253 26.5309 18.2352 27.1024 23.1359C27.3607 23.2142 27.9948 23.4725 27.9948 24.091C27.9948 24.5842 27.7991 25.6567 27.3294 26.009C27.2746 26.0481 27.212 26.0794 27.1572 26.1029C27.4312 26.1812 27.8383 26.2282 28.3393 26.0794C28.903 25.915 29.1456 25.7976 29.2396 25.735C29.2552 25.6488 29.2866 25.594 29.2944 25.5784C29.3179 25.5392 29.3492 25.5158 29.3883 25.5079C29.4275 25.5001 29.4744 25.5079 29.5058 25.5314C29.5606 25.5627 29.6154 25.641 29.5997 25.7428C29.5919 25.7741 29.584 25.8132 29.5527 25.8524C29.5762 25.8915 29.6623 25.9698 29.9598 26.0011C30.0303 26.009 30.0851 26.009 30.1164 26.009C30.1164 26.0011 30.1164 26.0011 30.1086 25.9933C30.0694 25.8994 30.0146 25.7819 30.0694 25.6488C30.1007 25.5706 30.1712 25.5079 30.273 25.4688C30.406 25.4218 30.4608 25.3279 30.5235 25.2261C30.5783 25.1322 30.6487 25.0226 30.7818 24.9912C30.9071 24.9678 31.0402 25.046 31.1185 25.1087C31.2594 25.2183 31.3846 25.2418 31.5099 25.2731C31.6978 25.32 31.917 25.367 32.0344 25.7115C32.097 25.8915 32.0892 26.0403 32.0892 26.1577C32.0892 26.3691 32.0814 26.463 32.4258 26.6196C33.0286 26.9093 33.4044 26.9093 34.0229 26.6196C34.6413 26.3299 34.931 25.8759 34.931 25.8759C34.9545 25.8289 35.0014 25.8054 35.0562 25.8054C35.111 25.8054 35.158 25.8289 35.1815 25.868C35.4633 26.2673 35.8861 26.6587 36.0426 26.6118C36.2305 26.557 36.3949 26.5491 36.5202 26.557C36.4732 26.3378 36.4497 26.0246 36.6298 25.8446C36.7081 25.7663 36.8177 25.6175 36.9351 25.4531C37.1465 25.1713 37.3813 24.8503 37.6318 24.6468C37.9763 24.3728 38.0389 24.224 38.1485 23.7387C38.1955 23.5351 38.3442 23.402 38.54 23.3786C38.7592 23.3551 38.994 23.4647 39.088 23.6447C39.1662 23.7935 39.1271 23.9657 38.994 24.1066C38.9236 24.1849 38.8374 24.2554 38.7513 24.3336C38.3834 24.6546 38.0076 24.9912 38.172 25.641C38.3912 26.5178 39.3776 27.9739 39.3933 27.9896L39.1349 28.1618Z" fill="#0F3253"/>
<path d="M31.1107 25.3516L30.9463 25.1011C30.962 25.0932 32.3398 24.1616 32.0893 23.324C32.0189 23.0969 31.7449 23.0656 31.2203 23.0343C31.0325 23.0187 30.8211 23.0108 30.6097 22.9795L30.3357 22.9404C30.0147 22.9012 30.0069 22.8934 29.6233 22.7446C29.4746 22.682 29.2554 22.5959 28.9344 22.4785C28.5664 22.3376 28.3316 22.134 28.2376 21.8757C28.0967 21.4686 28.3472 21.0302 28.5195 20.7327C28.5743 20.6466 28.6447 20.5213 28.6447 20.4822C28.6839 20.1847 32.4651 16.7636 35.6357 13.9453L35.8392 14.1723C33.1697 16.5522 29.1223 20.2082 28.9422 20.5526C28.9422 20.6231 28.8718 20.7327 28.7857 20.8893C28.6369 21.1476 28.4334 21.4999 28.5273 21.7739C28.5899 21.9461 28.7622 22.087 29.044 22.1888C29.3728 22.3141 29.5842 22.4002 29.7407 22.4628C30.093 22.6037 30.093 22.6037 30.3749 22.6429L30.6489 22.682C30.8602 22.7133 31.0559 22.729 31.2438 22.7368C31.784 22.776 32.2459 22.8073 32.379 23.2457C32.6843 24.2869 31.1734 25.3046 31.1107 25.3516Z" fill="#0F3253"/>
<path d="M35.1972 25.9757L34.8997 25.9288C34.8997 25.9131 35.1972 24.0812 35.0406 23.3531C34.9545 22.9774 34.7666 22.8834 34.4144 22.719C34.156 22.5938 33.8272 22.4372 33.4671 22.1162C32.7469 21.4821 32.9191 20.4722 33.0209 19.8694C33.0444 19.7129 33.0678 19.5798 33.0678 19.5015C33.06 19.0631 35.1268 17.1138 36.0192 16.2996C36.0349 16.2839 36.0505 16.2761 36.0662 16.2683C36.7786 15.9864 37.0917 14.5538 37.1544 14.0293L37.4519 14.0606C37.444 14.1467 37.2092 16.1039 36.1993 16.5344C34.8371 17.787 33.4123 19.2275 33.3653 19.4937C33.3653 19.5954 33.3418 19.7285 33.3184 19.9086C33.2244 20.4801 33.0757 21.349 33.6706 21.8735C33.9994 22.171 34.2891 22.3041 34.5474 22.4294C34.9154 22.6016 35.2285 22.7503 35.3381 23.2749C35.5025 24.0655 35.205 25.8974 35.1972 25.9757Z" fill="#0F3253"/>
<path d="M38.3441 24.1528L38.0545 24.0745C38.0545 24.0745 38.1406 23.7457 38.1484 23.1977C38.1562 22.6653 37.8196 22.2191 37.1933 21.5928C36.614 21.0135 36.6531 20.5594 36.7001 20.0741C36.7158 19.9331 36.7236 19.7922 36.7236 19.6357C36.7236 19.1659 37.2873 18.6414 37.937 18.0386C38.3833 17.6315 38.8451 17.201 39.1348 16.7861C39.8002 15.8153 39.5889 13.5528 39.581 13.5294L39.8785 13.498C39.8863 13.592 40.1055 15.8936 39.3775 16.9505C39.0722 17.3967 38.5946 17.8351 38.1406 18.2578C37.5926 18.7667 37.0211 19.2912 37.0211 19.6278C37.0211 19.7922 37.0054 19.9488 36.9898 20.0975C36.9428 20.5594 36.9115 20.8961 37.3969 21.3736C38.0858 22.0625 38.4537 22.5557 38.4459 23.1977C38.4381 23.7926 38.3441 24.1371 38.3441 24.1528Z" fill="#0F3253"/>
<path d="M39.0098 24.0823L38.7515 23.9336C41.2566 19.5496 41.1079 14.1635 41.0061 12.6213C41.0061 12.5743 40.9983 12.543 40.9983 12.5352H41.3036H41.1548H41.3036V12.6056C41.4054 14.1635 41.5541 19.6279 39.0098 24.0823Z" fill="#0F3253"/>
<path d="M22.1 28.2859L21.9277 28.0432C21.9669 28.0197 25.4976 25.5224 26.8363 23.1738L27.0946 23.3226C25.7246 25.7181 22.2487 28.1763 22.1 28.2859Z" fill="#0F3253"/>
<path d="M12.9328 1.52745L13.7626 2.45905C14.0992 2.13025 14.9604 1.71534 15.3909 1.57442C15.0856 1.30042 14.4202 0.838534 14.0992 0.830706C13.7626 0.815048 13.2146 1.26128 12.9328 1.52745ZM13.6921 2.75654L12.5022 1.48831L12.604 1.42568C12.6979 1.33174 13.5043 0.525391 14.0914 0.525391H14.1149C14.702 0.548876 15.5397 1.36305 15.6336 1.45699L15.8137 1.63705L15.571 1.70751C14.9212 1.90322 13.9505 2.29465 13.8252 2.56082L13.6921 2.75654Z" fill="#0F3253"/>
<path d="M11.7036 10.5303C11.1556 10.5303 10.6311 10.4599 10.2397 10.3894C8.83051 10.1311 8.34514 9.17598 7.82845 8.15826L7.69537 7.90775C7.47617 7.49283 7.28828 7.0466 7.10822 6.61603C6.81074 5.91146 6.52891 5.2382 6.18445 4.8546C5.72256 4.33791 4.81445 4.25963 4.31342 4.25963H3.86719L4.2273 3.98562C4.29776 3.93082 5.97308 2.67042 7.05342 2.61562C7.18651 2.13808 7.5936 1.41785 8.32166 1.48048C8.99492 1.5431 9.55857 1.73882 9.80909 1.84059C9.95 1.5431 10.3493 0.885503 11.0303 0.721102C11.5705 0.588016 12.1577 0.791559 12.7683 1.33173L13.88 2.49036L13.6608 2.70174L12.5648 1.55093C12.0402 1.08905 11.5392 0.908988 11.1086 1.01076C10.3962 1.18299 10.0361 2.08328 10.0361 2.09111L9.98132 2.23985L9.83257 2.16939C9.82475 2.16939 9.13583 1.85625 8.29817 1.77796C7.56228 1.7075 7.32742 2.78002 7.32742 2.78785L7.30394 2.91311L7.17868 2.90528C6.45845 2.87396 5.34679 3.57854 4.78313 3.96997C5.33113 4.01694 6.02005 4.18134 6.43497 4.65105C6.81074 5.0738 7.1004 5.76271 7.40571 6.4986C7.58577 6.92135 7.77365 7.36758 7.98503 7.77466L8.11811 8.03301C8.61914 9.01941 9.04972 9.8649 10.3179 10.0998C12.0402 10.4207 13.4181 10.1702 14.107 9.43432C14.6706 8.82369 15.4144 7.54763 15.7275 6.18546C15.7745 6.02889 16.7609 2.57648 18.2561 2.37293C17.4107 2.06762 16.1424 1.66836 15.6727 1.8171L15.5788 1.52745C15.6336 1.51179 15.6649 1.49613 15.7353 1.4883C16.6669 1.39436 18.6867 2.20071 18.9294 2.30248L19.4539 2.52168L18.2953 2.67042C17.2228 2.81916 16.2912 5.30866 16.0172 6.25592C15.6414 7.87643 14.7802 9.14466 14.3262 9.63787C13.6529 10.3346 12.6352 10.5303 11.7036 10.5303Z" fill="#0F3253"/>
<path d="M12.9795 7.78995C11.5234 3.49205 8.18842 2.96754 7.20202 2.91274C7.1707 2.91274 7.15505 2.91274 7.14722 2.90491L7.19419 2.60742L7.1707 2.75617L7.18636 2.60742C8.25888 2.67005 11.7504 3.21805 13.2613 7.68818L12.9795 7.78995Z" fill="#0F3253"/>
<path d="M12.0011 5.25973L11.7114 5.16578C11.7193 5.13447 12.6587 2.2692 15.6962 1.47852L15.7745 1.76817C12.9014 2.51972 12.0089 5.23624 12.0011 5.25973Z" fill="#0F3253"/>
<path d="M10.1694 10.278L8.97158 11.5149L10.6469 10.8965L10.9679 11.7263L11.6959 10.8651V13.0024C11.6959 13.0024 11.923 14.2236 11.6959 14.2628C11.4689 14.3019 11.2732 14.3802 11.1401 14.0905C11.007 13.8009 10.0519 12.4309 8.96375 12.697C7.87558 12.9632 7.66421 13.7304 8.25918 14.4115C8.84632 15.1004 9.09684 15.2883 10.0206 15.4057C10.9444 15.5232 11.101 15.578 11.101 15.578C11.101 15.578 11.0618 17.2376 10.7017 17.3864C10.3416 17.5351 9.84056 17.0419 9.4413 16.6426C9.04204 16.2434 8.43141 15.8833 7.59375 15.8833C6.75609 15.8833 6.31769 16.7444 6.71695 17.2533C7.11621 17.77 7.53895 18.2475 8.24352 18.3963C8.9481 18.545 9.25341 18.6076 9.73096 18.6076H10.3807L9.51958 21.6921C9.51958 21.6921 7.27278 19.5157 6.75609 18.545C6.2394 17.5743 4.44666 15.2648 4.77546 15.2648C4.90854 15.2648 5.38609 15.3196 6.10632 14.709C6.83438 14.0984 7.30409 13.66 7.38238 13.339C7.46066 13.018 7.76598 12.0238 7.36672 11.7733C6.96746 11.5227 5.73055 11.2957 4.96334 12.7832C4.20397 14.2706 4.47014 14.5368 4.47014 14.5368C4.47014 14.5368 3.85951 14.114 3.85951 13.66C3.85951 13.2059 4.20397 12.7284 3.85951 12.0786C3.51505 11.4288 2.94357 10.0353 2.10591 10.1919C1.26825 10.3406 1.11168 11.0843 1.13516 11.374C1.15082 11.6637 1.09602 12.3291 1.55791 12.8223C2.01196 13.3155 2.47385 13.7539 2.79482 13.9261C3.1158 14.0984 3.40545 14.1375 3.4994 14.5133C3.59334 14.8969 3.68728 15.03 3.68728 15.03C3.68728 15.03 3.43677 14.7638 2.54431 14.7403C1.65185 14.7246 0.25836 14.6072 0.0313312 15.7345C-0.195698 16.8618 0.908133 17.0106 1.11951 17.0106C1.33088 17.0106 2.91225 16.7992 3.71077 16.1729C4.50928 15.5466 4.58757 16.3843 4.58757 16.3843L5.08077 17.1672C5.08077 17.1672 2.58345 16.8775 1.61271 17.9109C0.641961 18.9443 1.57356 19.5471 1.90236 19.5705C2.22334 19.5862 3.23322 19.6488 3.50723 19.5549C3.7734 19.4609 4.32923 19.1008 4.78329 18.6937C5.23734 18.2945 5.18254 17.6839 5.50352 17.9657C5.82449 18.2553 6.23157 19.1478 6.23157 19.1478C6.23157 19.1478 3.29585 19.0147 2.93574 20.5804C2.57562 22.1461 4.72849 21.7625 4.78329 21.6843C4.83809 21.606 6.36466 20.2908 6.72478 20.2125C7.08489 20.1342 7.45283 20.3299 7.64072 20.8623C7.82861 21.3946 3.7734 22.1383 5.15906 23.9467C5.22952 24.0407 5.65226 24.3068 6.32552 24.1346C6.99095 23.9624 7.86775 23.0699 8.09478 22.5297C8.32181 21.9974 8.21221 21.5042 8.53318 21.6529C8.85415 21.8017 9.18295 22.4515 9.18295 22.4515C9.18295 22.4515 8.93244 23.8215 8.95592 24.9488C8.97158 26.0761 9.12815 28.8161 9.12815 28.8161L9.20644 29.6381L9.96581 29.5598C9.96581 29.5598 9.18295 24.3147 9.96581 22.929L10.1146 22.7411C10.1146 22.7411 12.9955 24.2677 13.8488 23.0308C14.7099 21.7939 13.8331 21.3555 13.293 21.3946C12.7606 21.4337 11.2497 21.0501 10.6782 21.6216C10.1067 22.1931 10.506 21.9269 10.4668 21.7939C10.4277 21.6608 10.8504 19.9072 10.8504 19.9072C10.8504 19.9072 11.0775 20.6665 12.2048 20.6665C13.3321 20.6665 14.9291 20.4943 14.89 19.6019C14.8509 18.7094 14.6238 18.271 13.4026 18.271C12.1813 18.271 11.1558 18.8973 11.1558 18.8973C11.1558 18.8973 11.1401 18.5372 11.1714 18.4745C11.2106 18.4197 12.1813 14.208 12.1813 14.208C12.1813 14.208 12.471 14.7012 13.4965 14.7012C13.4965 14.7012 15.4615 14.4115 15.9155 13.9026C16.3696 13.386 16.5262 12.7988 15.6885 12.4935C14.8509 12.1882 12.698 13.0102 12.5023 13.2216C12.3144 13.4329 12.4866 10.9513 12.4866 10.9513L13.4417 11.5071L13.3478 10.7242C13.3478 10.7242 14.4516 11.2174 14.5455 11.2174C14.6395 11.2174 15.0779 11.1391 15.0779 11.1391L13.5122 9.95703L12.0404 10.3563L10.1694 10.278Z" fill="#0F3253"/>
<path d="M9.56666 3.49941C9.32397 3.36632 9.77803 1.90238 9.78586 1.88672L10.0677 1.98849C9.86415 2.54432 9.77803 3.24889 9.77803 3.33501L9.63712 3.34284L9.56666 3.49941Z" fill="#0F3253"/>
<path d="M51.3085 19.9954C51.1207 19.4631 51.8174 15.4235 51.9583 14.6172L52.2558 14.672C51.9348 16.5039 51.4729 19.5414 51.5982 19.8937L51.3085 19.9954Z" fill="#0F3253"/>
<path d="M53.6101 17.8496C53.6101 17.8496 52.7098 21.5134 53.2109 22.351L52.2949 20.0964C52.2949 20.0964 53.023 18.3037 53.6101 17.8496Z" fill="#0F3253"/>
<path d="M57.2816 23.0197C57.2816 23.0119 57.172 21.9628 57.1329 20.7494C57.0859 19.489 57.8688 18.2364 57.9001 18.1816L58.1819 18.3617C58.1741 18.3695 57.4304 19.583 57.4695 20.7416C57.5087 21.9472 57.6183 22.9806 57.6183 22.9884L57.2816 23.0197Z" fill="#0F3253"/>
</g>
<defs>
<clipPath id="clip0_962_16295">
<rect width="59.1543" height="69.1073" fill="white"/>
</clipPath>
</defs>
</svg>
