<svg width="228" height="180" viewBox="0 0 228 180" fill="none" xmlns="http://www.w3.org/2000/svg">
<path d="M56.9793 133.232C56.9176 133.726 56.6707 134.158 56.3004 134.528L53.4617 137.305C52.5977 138.169 51.1166 138.169 50.2526 137.244L47.4755 134.405C47.3521 134.282 47.2904 134.22 47.2287 134.096C45.3156 135.269 43.2791 136.071 41.1809 136.503C41.1809 136.627 41.2426 136.75 41.2426 136.873L41.1809 140.885C41.1809 141.502 40.934 142.057 40.502 142.489C40.1317 142.86 39.5763 143.106 38.9592 143.106L34.9479 143.045C34.3308 143.045 33.7753 142.798 33.3434 142.366C32.9114 141.934 32.7262 141.378 32.7262 140.761L32.7879 136.75C32.7879 136.627 32.7879 136.503 32.8497 136.38C30.6897 135.886 28.5915 135.022 26.7401 133.726C26.6784 133.85 26.555 133.911 26.4933 134.035L23.6545 136.812C22.7905 137.676 21.3094 137.676 20.4454 136.75L17.6684 133.911C16.7427 132.986 16.7427 131.566 17.6684 130.702L20.5071 127.925C20.6306 127.802 20.6923 127.74 20.8157 127.678C19.6432 125.765 18.8409 123.729 18.4089 121.63C18.2855 121.63 18.1621 121.692 18.0386 121.692L14.0273 121.63C12.7931 121.63 11.8057 120.581 11.8057 119.409L11.8674 115.397C11.8674 114.78 12.1142 114.225 12.5462 113.793C12.9782 113.361 13.5336 113.176 14.1507 113.176L18.1621 113.238C18.2855 113.238 18.4089 113.238 18.5323 113.299C19.026 111.139 19.89 109.041 21.186 107.19C21.0626 107.128 21.0008 107.005 20.8774 106.943L18.1003 104.104C17.2364 103.24 17.2364 101.759 18.1621 100.895L21.0008 98.118C21.8648 97.254 23.3459 97.254 24.2099 98.1797L26.987 101.018C27.1104 101.142 27.1721 101.204 27.2338 101.327C29.1469 100.154 31.1834 99.3522 33.2816 98.9202C33.2816 98.7968 33.2199 98.6734 33.2199 98.55L33.2816 94.5386C33.2816 93.7981 33.6519 93.1192 34.269 92.6873L34.269 107.56C32.6645 108.054 31.1834 108.856 29.9492 110.09C25.7527 114.163 25.691 120.828 29.7023 125.025C30.9983 126.382 32.6028 127.308 34.269 127.802C34.269 130.826 36.7375 133.232 39.6998 133.232L56.9793 133.232Z" fill="white"/>
<path d="M126.9 133.232L84.0098 133.232L84.0098 149.524L126.9 149.524L126.9 133.232Z" stroke="white" stroke-width="0.980928" stroke-miterlimit="10"/>
<path d="M175.961 35.9115C175.899 35.8498 175.837 35.8498 175.776 35.7881C176.146 34.739 176.393 33.6899 176.455 32.5791C175.776 30.3574 173.677 28.6912 171.209 28.6912L170.407 28.6912C170.777 29.2466 171.024 29.8637 171.209 30.6043C173.307 30.9745 174.912 32.8876 174.912 35.2327L174.912 120.519L35.935 120.519L35.935 35.2327C35.935 32.6408 37.9715 30.5425 40.44 30.5425L114.495 30.5425L114.495 28.6912L39.6377 28.6912C36.6138 28.6912 34.207 31.1597 34.207 34.1219L34.207 127.74C34.207 130.764 36.6755 133.171 39.6377 133.171L171.147 133.171C174.171 133.171 176.578 130.702 176.578 127.74L176.578 36.3435L175.961 35.9115ZM105.176 129.406C103.634 129.406 102.399 128.172 102.399 126.629C102.399 125.086 103.634 123.852 105.176 123.852C106.719 123.852 107.954 125.086 107.954 126.629C108.015 128.172 106.719 129.406 105.176 129.406ZM148.19 28.6912L148.19 30.5425L159.298 30.5425C159.484 29.9254 159.73 29.3083 160.101 28.7529L148.19 28.7529L148.19 28.6912Z" stroke="white" stroke-width="0.980928" stroke-miterlimit="10"/>
<path d="M105.177 129.405C106.711 129.405 107.955 128.162 107.955 126.628C107.955 125.095 106.711 123.851 105.177 123.851C103.644 123.851 102.4 125.095 102.4 126.628C102.4 128.162 103.644 129.405 105.177 129.405Z" stroke="white" stroke-width="0.980928" stroke-miterlimit="10"/>
<path d="M174.912 35.2309L174.912 120.518L35.9355 120.518L35.9355 35.2309C35.9355 32.639 37.9721 30.5408 40.4406 30.5408L114.496 30.5408L114.496 31.343C114.496 33.6881 116.409 35.6012 118.754 35.6012L144.056 35.6012C146.401 35.6012 148.314 33.6881 148.314 31.343L148.314 30.5408L159.422 30.5408C159.176 31.4047 159.176 32.3304 159.361 33.3178C160.04 36.6503 163.31 38.7485 166.643 38.008C169.975 37.3292 172.073 34.0584 171.333 30.7259C171.333 30.6642 171.333 30.6642 171.333 30.6025C173.308 31.0345 174.912 32.8858 174.912 35.2309Z" stroke="white" stroke-width="0.980928" stroke-miterlimit="10"/>
<path opacity="0.5" d="M105.177 129.405C106.711 129.405 107.955 128.162 107.955 126.628C107.955 125.095 106.711 123.851 105.177 123.851C103.644 123.851 102.4 125.095 102.4 126.628C102.4 128.162 103.644 129.405 105.177 129.405Z" stroke="white" stroke-width="0.980928" stroke-miterlimit="10"/>
<path d="M174.912 35.2309L174.912 120.518L35.9355 120.518L35.9355 35.2309C35.9355 32.639 37.9721 30.5408 40.4406 30.5408L114.496 30.5408L114.496 31.343C114.496 33.6881 116.409 35.6012 118.754 35.6012L144.056 35.6012C146.401 35.6012 148.314 33.6881 148.314 31.343L148.314 30.5408L159.422 30.5408C159.176 31.4047 159.176 32.3304 159.361 33.3178C160.04 36.6503 163.31 38.7485 166.643 38.008C169.975 37.3292 172.073 34.0584 171.333 30.7259C171.333 30.6642 171.333 30.6642 171.333 30.6025C173.308 31.0345 174.912 32.8858 174.912 35.2309Z" stroke="white" stroke-width="0.980928" stroke-miterlimit="10"/>
<path d="M135.292 153.781L135.292 153.905L75.5547 153.905L75.5547 153.781C75.5547 151.436 77.4678 149.523 79.8129 149.523L130.973 149.523C133.379 149.523 135.292 151.436 135.292 153.781Z" stroke="white" stroke-width="0.980928" stroke-miterlimit="10"/>
<path d="M148.191 22.9552L148.191 31.3481C148.191 33.6932 146.277 35.6063 143.932 35.6063L118.63 35.6063C116.285 35.6063 114.372 33.6932 114.372 31.3481L114.372 22.9552C114.372 20.6101 116.285 18.697 118.63 18.697L143.932 18.697C146.339 18.697 148.191 20.6101 148.191 22.9552Z" stroke="white" stroke-width="0.980928" stroke-miterlimit="10"/>
<path d="M124.061 98.1794L113.446 98.1794L113.446 99.1668L124.061 99.1668L124.061 98.1794Z" fill="white"/>
<path d="M151.338 98.1794L126.776 98.1794L126.776 99.1668L151.338 99.1668L151.338 98.1794Z" fill="white"/>
<path d="M138.811 106.448C134.615 106.448 130.357 106.448 126.16 106.448L126.16 105.461C134.553 105.461 143.069 105.461 151.401 105.461L151.401 106.448C147.204 106.448 143.008 106.448 138.811 106.448Z" fill="white"/>
<path d="M151.4 101.824L122.271 101.824L122.271 102.811L151.4 102.811L151.4 101.824Z" fill="white"/>
<path d="M151.4 109.164L120.667 109.164L120.667 110.151L151.4 110.151L151.4 109.164Z" fill="white"/>
<path d="M151.4 112.804L116.409 112.804L116.409 113.792L151.4 113.792L151.4 112.804Z" fill="white"/>
<path d="M60.8064 43.0662L44.3291 43.0662L44.3291 44.0536L60.8064 44.0536L60.8064 43.0662Z" fill="white"/>
<path d="M99.0061 43.0662L82.0352 43.0662L82.0352 44.0536L99.0061 44.0536L99.0061 43.0662Z" fill="white"/>
<path d="M99.0059 46.7087L87.2188 46.7087L87.2188 47.6961L99.0059 47.6961L99.0059 46.7087Z" fill="white"/>
<path d="M98.9444 54.0544L82.3438 54.0544L82.3438 55.0418L98.9444 55.0418L98.9444 54.0544Z" fill="white"/>
<path d="M99.0052 57.697L79.1338 57.697L79.1338 58.6844L99.0052 58.6844L99.0052 57.697Z" fill="white"/>
<path d="M98.9445 61.9509L73.3955 61.9509L73.3955 62.9383L98.9445 62.9383L98.9445 61.9509Z" fill="white"/>
<path d="M79.8747 43.0662L63.3975 43.0662L63.3975 44.0536L79.8747 44.0536L79.8747 43.0662Z" fill="white"/>
<path d="M85.7381 51.3348C83.2079 51.3348 80.6777 51.3348 75.679 51.3348L72.4082 51.3348L72.4082 50.3474L75.679 50.3474C85.7381 50.3474 85.7381 50.3474 95.7973 50.3474L99.068 50.3474L99.068 51.3348L95.7973 51.3348C90.7368 51.3348 88.2066 51.3348 85.7381 51.3348Z" fill="white"/>
<path d="M56.9175 51.337C52.721 51.337 48.4629 51.337 44.3281 51.337L44.3281 50.3496C52.6593 50.3496 61.1757 50.3496 69.5686 50.3496L69.5686 51.337C65.3721 51.337 61.1139 51.337 56.9175 51.337Z" fill="white"/>
<path d="M84.8743 46.7087L44.3291 46.7087L44.3291 47.6961L84.8743 47.6961L84.8743 46.7087Z" fill="white"/>
<path d="M71.1741 61.9509L44.3291 61.9509L44.3291 62.9383L71.1741 62.9383L71.1741 61.9509Z" fill="white"/>
<path d="M80.3075 54.0544L44.3291 54.0544L44.3291 55.0418L80.3075 55.0418L80.3075 54.0544Z" fill="white"/>
<path d="M76.9133 57.697L44.3291 57.697L44.3291 58.6844L76.9133 58.6844L76.9133 57.697Z" fill="white"/>
<path d="M40.8722 44.2402C41.2471 44.2402 41.551 43.9363 41.551 43.5614C41.551 43.1865 41.2471 42.8826 40.8722 42.8826C40.4973 42.8826 40.1934 43.1865 40.1934 43.5614C40.1934 43.9363 40.4973 44.2402 40.8722 44.2402Z" fill="white"/>
<path d="M41.551 47.204C41.551 47.5743 41.2425 47.8828 40.8722 47.8828C40.5019 47.8828 40.1934 47.5743 40.1934 47.204C40.1934 46.8337 40.5019 46.5251 40.8722 46.5251C41.2425 46.5251 41.551 46.8337 41.551 47.204Z" fill="white"/>
<path d="M40.8722 51.5234C41.2471 51.5234 41.551 51.2195 41.551 50.8446C41.551 50.4697 41.2471 50.1658 40.8722 50.1658C40.4973 50.1658 40.1934 50.4697 40.1934 50.8446C40.1934 51.2195 40.4973 51.5234 40.8722 51.5234Z" fill="white"/>
<path d="M41.551 54.5458C41.551 54.9161 41.2425 55.2246 40.8722 55.2246C40.5019 55.2246 40.1934 54.9161 40.1934 54.5458C40.1934 54.1755 40.5019 53.8669 40.8722 53.8669C41.2425 53.8669 41.551 54.1755 41.551 54.5458Z" fill="white"/>
<path d="M40.8732 58.8692C41.2481 58.8692 41.552 58.5652 41.552 58.1903C41.552 57.8154 41.2481 57.5115 40.8732 57.5115C40.4983 57.5115 40.1943 57.8154 40.1943 58.1903C40.1943 58.5652 40.4983 58.8692 40.8732 58.8692Z" fill="white"/>
<path d="M41.551 62.4481C41.551 62.8184 41.2425 63.127 40.8722 63.127C40.5019 63.127 40.1934 62.8184 40.1934 62.4481C40.1934 62.0778 40.5019 61.7693 40.8722 61.7693C41.2425 61.7693 41.551 62.0778 41.551 62.4481Z" fill="white"/>
<path d="M103.387 64.6655C103.264 64.6655 103.141 64.5421 103.141 64.4187L103.141 43.0044C103.141 42.881 103.264 42.7576 103.387 42.7576C103.511 42.7576 103.634 42.881 103.634 43.0044L103.634 64.4187C103.634 64.5421 103.511 64.6655 103.387 64.6655Z" fill="white"/>
<path d="M142.02 52.0193L111.904 52.0193L111.904 53.0067L142.02 53.0067L142.02 52.0193Z" fill="white"/>
<path d="M126.901 60.3504C121.717 60.3504 116.533 60.3504 111.843 60.3504L111.843 59.363C121.223 59.363 132.516 59.363 141.959 59.363L141.959 60.3504C137.268 60.3504 132.084 60.3504 126.901 60.3504Z" fill="white"/>
<path d="M142.02 55.6599L111.904 55.6599L111.904 56.6473L142.02 56.6473L142.02 55.6599Z" fill="white"/>
<path d="M133.874 63.0017L111.904 63.0017L111.904 63.9891L133.874 63.9891L133.874 63.0017Z" fill="white"/>
<path d="M142.02 87.5642L111.904 87.5642L111.904 88.5516L142.02 88.5516L142.02 87.5642Z" fill="white"/>
<path d="M142.02 81.2704C132.516 81.2704 121.285 81.2704 111.904 81.2704L111.904 80.283C121.285 80.283 132.578 80.283 142.02 80.283L142.02 81.2704Z" fill="white"/>
<path d="M142.02 83.9216L111.904 83.9216L111.904 84.909L142.02 84.909L142.02 83.9216Z" fill="white"/>
<path d="M133.874 76.5797L111.904 76.5797L111.904 77.5671L133.874 77.5671L133.874 76.5797Z" fill="white"/>
<path d="M107.708 42.7576L107.708 92.3128L152.264 92.3128L152.264 42.7576L107.708 42.7576ZM151.586 91.6956L108.387 91.6956L108.387 43.4364L151.586 43.4364L151.586 91.6956Z" fill="white"/>
<path d="M151.956 43.1285L108.078 43.1285L108.078 48.9295L151.956 48.9295L151.956 43.1285Z" stroke="white" stroke-width="0.980928" stroke-miterlimit="10"/>
<path d="M139.428 74.0451C139.305 74.0451 139.181 73.9834 139.119 73.9217L135.725 70.9595C135.602 70.8361 135.54 70.7126 135.54 70.5892C135.54 70.4658 135.602 70.2806 135.725 70.2189L139.119 67.2567C139.305 67.0716 139.675 67.0716 139.86 67.3184C140.045 67.5036 140.045 67.8738 139.798 67.9973L136.836 70.5892L139.798 73.1811C139.983 73.3663 140.045 73.6748 139.86 73.86C139.675 73.9834 139.551 74.0451 139.428 74.0451Z" fill="white"/>
<path d="M144.613 74.0464C144.489 74.0464 144.366 73.9847 144.242 73.8613C144.057 73.6761 144.057 73.3059 144.304 73.1824L147.266 70.5905L144.304 67.9986C144.119 67.8134 144.057 67.5049 144.242 67.3197C144.427 67.1346 144.736 67.0729 144.983 67.258L148.377 70.2202C148.5 70.3437 148.562 70.4671 148.562 70.5905C148.562 70.7139 148.5 70.8991 148.377 70.9608L144.983 73.923C144.859 73.9847 144.736 74.0464 144.613 74.0464Z" fill="white"/>
<path d="M112.214 45.9652L113.386 44.7927C113.51 44.6693 113.51 44.4841 113.386 44.4224C113.263 44.3607 113.078 44.299 113.016 44.4224L111.843 45.5949L110.671 44.4224C110.547 44.299 110.362 44.299 110.301 44.4224C110.177 44.5458 110.177 44.731 110.301 44.7927L111.473 45.9652L110.301 47.1378C110.177 47.2612 110.177 47.4463 110.301 47.508C110.362 47.5697 110.424 47.5697 110.486 47.5697C110.547 47.5697 110.609 47.5697 110.671 47.508L111.843 46.3355L113.016 47.508C113.078 47.5697 113.139 47.5697 113.201 47.5697C113.263 47.5697 113.324 47.5697 113.386 47.508C113.51 47.3846 113.51 47.1995 113.386 47.1378L112.214 45.9652Z" fill="white"/>
<path d="M117.212 44.3025C116.286 44.3025 115.546 45.043 115.546 45.9687C115.546 46.8944 116.286 47.635 117.212 47.635C118.138 47.635 118.878 46.8944 118.878 45.9687C118.878 45.1048 118.138 44.3025 117.212 44.3025ZM117.212 47.1413C116.595 47.1413 116.101 46.6476 116.101 46.0304C116.101 45.4133 116.595 44.9196 117.212 44.9196C117.829 44.9196 118.323 45.4133 118.323 46.0304C118.385 46.5859 117.829 47.1413 117.212 47.1413Z" fill="white"/>
<path d="M123.63 47.6364L120.915 47.6364C120.73 47.6364 120.606 47.513 120.606 47.3278C120.606 47.1427 120.73 47.0193 120.915 47.0193L123.63 47.0193C123.815 47.0193 123.939 47.1427 123.939 47.3278C123.939 47.513 123.815 47.6364 123.63 47.6364Z" fill="white"/>
<path d="M100.178 16.5339C101.042 16.2871 101.535 15.2997 101.288 14.4357L100.424 11.6586C100.178 10.7947 99.1902 10.301 98.3262 10.5478L95.4874 11.4118C95.4257 11.4118 95.3023 11.4735 95.2406 11.5352C94.3766 10.0541 93.3275 8.81987 92.0315 7.77076C92.0932 7.70904 92.1549 7.58562 92.2166 7.52391L93.5743 4.93198C94.0063 4.12971 93.6977 3.14231 92.8338 2.71032L90.1801 1.35265C89.3779 0.92066 88.3905 1.22922 87.9585 2.0932L86.6008 4.68513C86.5391 4.74684 86.5391 4.87026 86.4774 4.93198C84.9346 4.5617 83.33 4.37656 81.7255 4.49999C81.7255 4.37656 81.7255 4.31485 81.6638 4.19143L80.7998 1.41436C80.4912 0.550384 79.5656 0.0566838 78.7016 0.303534L75.9245 1.16751C75.0605 1.41436 74.5668 2.40176 74.8137 3.26574L75.6777 6.0428C75.6777 6.16623 75.7394 6.22794 75.8011 6.28965C74.32 7.15363 73.0857 8.20274 72.0366 9.49871C71.9749 9.437 71.8515 9.37528 71.7898 9.31357L69.1978 8.07932C68.8276 7.89418 68.3339 7.83247 67.9636 7.95589C67.5316 8.07932 67.223 8.38788 66.9762 8.75816L65.6185 11.4118C65.4951 11.6586 65.4334 11.9055 65.4334 12.1524C65.4334 12.7695 65.7419 13.3249 66.3591 13.6335L68.951 14.9911C69.0127 15.0528 69.1361 15.0528 69.1978 15.1146C68.8276 16.6574 68.6424 18.2619 68.7659 19.8664C68.6424 19.8664 68.5807 19.9281 68.4573 19.9281L65.6802 20.7921C64.8163 21.039 64.3226 22.0264 64.5694 22.8903L65.4334 25.6674C65.7419 26.5314 66.6676 27.0251 67.5316 26.7782L70.3087 25.9143C70.4321 25.8525 70.4938 25.8525 70.5555 25.7908C71.1726 26.8399 71.9132 27.8273 72.7772 28.6913C73.0857 28.9999 73.3943 29.3084 73.7646 29.5553C73.7029 29.617 73.6412 29.7404 73.5794 29.8021L73.3326 30.5427L72.3452 32.4558C72.16 32.8261 72.0983 33.3198 72.2218 33.69C72.3452 34.122 72.6537 34.4306 73.024 34.6774L75.616 36.0351C75.8628 36.1585 76.1097 36.2203 76.3565 36.2203C76.5416 36.2203 76.7268 36.2203 76.8502 36.1585C77.2822 36.0351 77.5908 35.7266 77.8376 35.3563L79.1953 32.7644C79.257 32.7026 79.257 32.5792 79.3187 32.5175C80.8615 32.8878 82.466 33.0729 84.0706 32.9495C84.0706 33.0729 84.0706 33.1346 84.1323 33.2581L84.9963 36.0351C85.3048 36.8991 86.2305 37.3928 87.0945 37.1459L89.8716 36.282C90.7355 35.9734 91.2292 35.0477 90.9824 34.1837L90.1184 31.4067C90.0567 31.2833 90.0567 31.2215 89.995 31.1598C90.2418 31.0364 90.427 30.913 90.6738 30.7278C91.4761 30.1724 92.2166 29.5553 92.8955 28.9382C93.204 28.6296 93.4509 28.321 93.7595 28.0125C93.8212 28.0742 93.9446 28.1359 94.0063 28.1976L95.5491 28.9999L96.6599 29.5553C97.0302 29.7404 97.5239 29.8021 97.8942 29.6787C98.2645 29.5553 98.573 29.3084 98.7582 28.9999C98.7582 28.9382 98.8199 28.8765 98.8199 28.8147L100.178 26.2228C100.61 25.4206 100.301 24.4332 99.437 24.0012L96.8451 22.6435C96.7834 22.5818 96.6599 22.5818 96.5982 22.5201C96.9685 20.9772 97.1536 19.3727 97.0302 17.7682C97.1536 17.7682 97.2154 17.7065 97.3388 17.7065L100.178 16.5339ZM80.6147 11.2267C84.6877 9.9307 89.131 12.2141 90.427 16.2871C91.7229 20.3601 89.4396 24.8034 85.3665 26.0994C81.2935 27.3954 76.8502 25.112 75.5542 21.039C74.1966 16.9659 76.4799 12.5226 80.6147 11.2267Z" fill="white"/>
<path d="M102.955 88.244L101.289 87.5652C101.227 87.5652 101.166 87.5035 101.104 87.5035C101.289 86.5161 101.227 85.467 101.104 84.4796C101.166 84.4796 101.227 84.4796 101.289 84.4179L102.955 83.739C103.202 83.6156 103.387 83.4305 103.511 83.1836C103.634 82.9368 103.634 82.6899 103.511 82.3813L102.832 80.7151C102.585 80.2214 102.03 79.9745 101.474 80.1597L99.8079 80.8385C99.7462 80.8385 99.6845 80.9002 99.6228 80.9002C99.0674 80.098 98.3268 79.4191 97.5246 78.8637C97.5246 78.802 97.5863 78.7403 97.5863 78.7403L98.2651 77.0741C98.4502 76.5804 98.2034 75.9632 97.7097 75.7164L96.0435 75.0375C95.5498 74.8524 94.9326 75.0993 94.6858 75.593L94.0069 77.2592C94.0069 77.3209 93.9452 77.3826 93.9452 77.4443C92.9578 77.2592 91.9087 77.2592 90.9213 77.4443C90.9213 77.3826 90.8596 77.3209 90.8596 77.2592L90.1808 75.593C89.9339 75.0993 89.3785 74.8524 88.8231 75.0375L87.1568 75.7164C86.6631 75.9632 86.4163 76.5186 86.6014 77.0741L87.2803 78.7403C87.2803 78.802 87.342 78.8637 87.342 78.9254C86.5397 79.4809 85.8609 80.2214 85.3055 81.0237C85.2438 81.0237 85.182 80.962 85.1203 80.962L83.4541 80.2831C82.9604 80.098 82.3433 80.3448 82.1581 80.8385L81.4793 82.5048C81.2941 82.9985 81.541 83.6156 82.0347 83.8007L83.7009 84.4796C83.7627 84.4796 83.8244 84.5413 83.8861 84.5413C83.7009 85.5287 83.7009 86.5778 83.8861 87.5652C83.8244 87.5652 83.7627 87.6269 83.7009 87.6269L82.0347 88.3058C81.7879 88.4292 81.6027 88.6143 81.4793 88.8612C81.3559 89.108 81.3559 89.4166 81.4793 89.6634L82.1581 91.3297C82.3433 91.6999 82.7135 91.9468 83.0838 91.9468C83.2072 91.9468 83.3307 91.9468 83.4541 91.8851L85.1203 91.2062C85.182 91.2062 85.2438 91.1445 85.3055 91.1445C85.8609 91.9468 86.6014 92.6256 87.4037 93.181C87.342 93.2428 87.342 93.3045 87.342 93.3662L86.6631 95.0324C86.478 95.5261 86.7249 96.1432 87.2186 96.3901L88.8848 97.0689C89.3785 97.2541 89.9956 97.0072 90.2425 96.5135L90.9213 94.8473C90.9213 94.7856 90.983 94.7239 90.983 94.6621C91.9704 94.8473 93.0195 94.8473 94.0069 94.6621C94.0069 94.7239 94.0069 94.7856 94.0687 94.8473L94.7475 96.5135C94.8709 96.7604 95.0561 96.9455 95.3029 97.0689C95.5498 97.1924 95.8583 97.1924 96.1052 97.0689L97.7714 96.3901C98.0183 96.2667 98.2034 96.0815 98.3268 95.8347C98.4502 95.5878 98.4502 95.2793 98.3268 95.0324L97.648 93.3662C97.648 93.3045 97.5863 93.2428 97.5863 93.181C98.3885 92.6256 99.0674 91.8851 99.6228 91.0828C99.6845 91.1445 99.7462 91.1445 99.7462 91.1445L101.412 91.8234C101.906 92.0085 102.523 91.7617 102.708 91.268L103.387 89.6017C103.758 89.108 103.511 88.4909 102.955 88.244ZM96.9691 87.8738C95.9817 90.3423 93.2047 91.5148 90.7362 90.4657C88.2677 89.4783 87.0951 86.7012 88.0825 84.2327C89.0699 81.7642 91.9087 80.5917 94.3155 81.6408C96.784 82.6899 97.9565 85.467 96.9691 87.8738Z" fill="white"/>
<path d="M87.5263 72.632C87.5263 72.2617 87.2178 71.9532 86.7858 71.9532L85.5515 71.9532C85.4898 71.9532 85.4898 71.9532 85.4281 71.9532C85.243 71.2743 84.9961 70.6572 84.6258 70.0401C84.6876 70.0401 84.6876 69.9784 84.7493 69.9784L85.6132 69.0527C85.8601 68.7441 85.8601 68.3121 85.6132 68.0653L84.6876 67.2013C84.379 66.9544 83.947 66.9544 83.7002 67.2013L82.8362 68.127C82.8362 68.127 82.7745 68.1887 82.7745 68.2504C82.1573 67.8801 81.4785 67.6333 80.7997 67.4481C80.7997 67.3864 80.7997 67.3864 80.7997 67.3247L80.7997 66.0905C80.7997 65.7202 80.4911 65.4116 80.0591 65.4116L78.8249 65.4116C78.4546 65.4116 78.146 65.7202 78.146 66.1522L78.146 67.3864C78.146 67.4481 78.146 67.4481 78.146 67.5098C77.4672 67.6333 76.8501 67.9418 76.2329 68.3121C76.2329 68.2504 76.1712 68.2504 76.1712 68.1887L75.2455 67.3247C74.937 67.0161 74.505 67.0779 74.2581 67.3247L73.3942 68.2504C73.1473 68.559 73.1473 68.9909 73.3942 69.2378L74.3198 70.1018C74.3198 70.1018 74.3816 70.1635 74.4433 70.1635C74.073 70.7806 73.8261 71.4595 73.641 72.1383C73.5793 72.1383 73.5793 72.1383 73.5176 72.1383L72.2833 72.1383C72.0982 72.1383 71.9131 72.2 71.7896 72.3234C71.6662 72.4469 71.6045 72.632 71.6045 72.8171L71.6045 74.0514C71.6045 74.4217 71.9131 74.7302 72.345 74.7302L73.641 74.7302C73.7027 74.7302 73.7027 74.7302 73.7644 74.7302C73.8879 75.4091 74.1964 76.0262 74.5667 76.6433C74.505 76.6433 74.505 76.705 74.4433 76.705L73.5793 77.6307C73.2707 77.9393 73.2707 78.3713 73.5793 78.6181L74.505 79.4821C74.8135 79.7289 75.2455 79.7289 75.4924 79.4821L76.3564 78.5564C76.3564 78.5564 76.4181 78.4947 76.4181 78.433C77.0352 78.8032 77.714 79.0501 78.3929 79.2352C78.3929 79.297 78.3929 79.297 78.3929 79.3587L78.3929 80.5929C78.3929 80.7781 78.4546 80.9632 78.578 81.0866C78.7014 81.21 78.8866 81.2718 79.0717 81.2718L80.306 81.2718C80.4911 81.2718 80.6762 81.21 80.7997 81.0866C80.9231 80.9632 80.9848 80.7781 80.9848 80.5929L80.9848 79.3587C80.9848 79.297 80.9848 79.297 80.9848 79.2352C81.6636 79.0501 82.2808 78.8032 82.8979 78.433C82.8979 78.4947 82.9596 78.4947 82.9596 78.5564L83.8853 79.4204C84.1939 79.7289 84.6258 79.6672 84.8727 79.4204L85.7367 78.4947C85.9835 78.1861 85.9835 77.7541 85.7367 77.5073L84.811 76.6433C84.811 76.6433 84.7493 76.5816 84.6876 76.5816C85.0578 75.9645 85.3047 75.2856 85.4898 74.6068C85.5515 74.6068 85.5515 74.6068 85.6132 74.6068L86.9092 74.6068C87.0943 74.6068 87.2795 74.5451 87.4029 74.4217C87.5263 74.2982 87.5881 74.1131 87.5881 73.928L87.5263 72.632ZM81.8488 75.7176C80.5528 77.0136 78.4546 77.0753 77.0969 75.7176C75.8009 74.4217 75.7392 72.3234 77.0969 70.9658C78.3929 69.6698 80.4911 69.6081 81.8488 70.9658C83.1447 72.2617 83.1447 74.4217 81.8488 75.7176Z" stroke="white" stroke-width="0.490464" stroke-miterlimit="10"/>
<path d="M179.91 30.0459L179.417 27.7625C179.293 27.0837 178.553 26.59 177.874 26.7751L175.591 27.2688C175.529 27.2688 175.467 27.3306 175.344 27.3306C174.788 26.158 174.048 25.0472 173.122 24.1215C173.184 24.0598 173.246 23.9981 173.246 23.9364L174.48 21.9616C174.85 21.3444 174.665 20.5422 174.11 20.1719L172.135 18.9376C171.518 18.5674 170.715 18.7525 170.345 19.3079L169.111 21.2827C169.049 21.3444 169.049 21.4061 168.987 21.4679C167.815 21.0359 166.581 20.789 165.285 20.789C165.285 20.7273 165.285 20.6656 165.285 20.5422L164.791 18.2588C164.667 17.58 163.927 17.0863 163.248 17.2714L160.965 17.7651C160.286 17.8885 159.792 18.6291 159.977 19.3079L160.471 21.5913C160.471 21.653 160.533 21.7147 160.533 21.7764C159.36 22.3318 158.249 23.0724 157.324 23.9981C157.262 23.9364 157.2 23.8746 157.139 23.8746L155.225 22.6404C154.917 22.4553 154.608 22.3935 154.238 22.4553C153.868 22.517 153.621 22.7638 153.436 23.0107L152.202 24.9855C152.078 25.2323 152.016 25.4175 152.016 25.6643C152.016 26.0963 152.202 26.5283 152.634 26.7751L154.608 28.0094C154.67 28.0711 154.732 28.0711 154.793 28.1328C154.732 28.318 154.67 28.5031 154.608 28.6265C154.423 29.2436 154.3 29.7991 154.176 30.4162C154.115 30.8482 154.053 31.3419 154.053 31.7739C153.991 31.7739 153.93 31.7739 153.806 31.7739L151.523 32.2676C150.844 32.391 150.35 33.1315 150.535 33.8104L151.029 36.0937C151.152 36.7726 151.893 37.2663 152.572 37.0811L154.855 36.5874C154.917 36.5874 154.979 36.5257 155.102 36.5257C155.657 37.6983 156.398 38.8091 157.324 39.7348C157.262 39.7965 157.2 39.8582 157.2 39.9199L155.966 41.8947C155.781 42.2033 155.719 42.5119 155.781 42.8821C155.843 43.2524 156.028 43.4993 156.336 43.6844L158.311 44.9186C158.558 45.0421 158.743 45.1038 158.99 45.1038C159.113 45.1038 159.175 45.1038 159.299 45.1038C159.607 45.0421 159.916 44.8569 160.101 44.5484L161.335 42.5736C161.397 42.5119 161.397 42.4501 161.458 42.3884C162.631 42.8204 163.865 43.0673 165.161 43.0673C165.161 43.129 165.161 43.1907 165.161 43.3141L165.655 45.5975C165.778 46.2763 166.519 46.77 167.198 46.5849L169.481 46.0912C170.16 45.9678 170.654 45.2272 170.468 44.5484L169.975 42.265C169.975 42.2033 169.913 42.1416 169.913 42.0799C171.086 41.5244 172.196 40.7839 173.122 39.8582C173.184 39.9199 173.246 39.9816 173.307 39.9816L174.912 41.0307L175.22 41.2159C175.529 41.401 175.899 41.4627 176.208 41.401C176.331 41.3393 176.516 41.3393 176.64 41.2159C176.825 41.0925 176.948 40.969 177.072 40.8456L178.306 38.8708C178.676 38.2537 178.491 37.4514 177.936 37.0811L176.701 36.2789L176.023 35.8469C175.961 35.7852 175.899 35.7852 175.837 35.7235C176.208 34.6744 176.455 33.6252 176.516 32.5144C176.516 32.3293 176.516 32.2058 176.516 32.0207C176.578 32.0207 176.64 32.0207 176.763 32.0207L179.047 31.527C179.602 31.4653 180.034 30.7247 179.91 30.0459ZM166.519 38.0068C163.186 38.6857 159.977 36.5874 159.237 33.3167C159.052 32.391 159.052 31.4653 159.299 30.5396C159.484 29.9225 159.73 29.3054 160.101 28.7499C160.965 27.3923 162.322 26.4049 163.989 26.0346C166.581 25.4792 169.111 26.6517 170.468 28.7499C170.839 29.3054 171.086 29.9225 171.271 30.663C171.271 30.7247 171.271 30.7247 171.271 30.7865C171.95 33.9955 169.851 37.2663 166.519 38.0068Z" fill="white" stroke="white" stroke-width="0.980928" stroke-miterlimit="10"/>
<path d="M47.9695 110.274L46.4884 110.274C46.3649 110.274 46.2415 110.397 46.2415 110.521C46.2415 110.644 46.3649 110.767 46.4884 110.767L47.9695 110.767C48.0929 110.767 48.2163 110.644 48.2163 110.521C48.2163 110.397 48.1546 110.274 47.9695 110.274ZM45.0073 110.274L43.5262 110.274C43.4027 110.274 43.2793 110.397 43.2793 110.521C43.2793 110.644 43.4027 110.767 43.5262 110.767L45.0073 110.767C45.069 110.767 45.1307 110.767 45.1924 110.706C45.2541 110.644 45.2541 110.582 45.2541 110.521C45.2541 110.397 45.1924 110.274 45.0073 110.274ZM42.0451 110.274L41.4279 110.274C41.1811 110.274 40.9342 110.212 40.6874 110.089C40.564 110.027 40.4405 110.089 40.3788 110.212C40.3171 110.335 40.3788 110.459 40.5022 110.521C40.8108 110.706 41.1194 110.767 41.4896 110.767L42.1068 110.767C42.2302 110.767 42.3536 110.644 42.3536 110.521C42.2919 110.397 42.2302 110.274 42.0451 110.274ZM40.0085 109.101C40.0085 108.978 39.9468 108.916 39.9468 108.793L39.9468 107.682C39.9468 107.558 39.8234 107.435 39.7 107.435C39.5766 107.435 39.4531 107.558 39.4531 107.682L39.4531 108.793C39.4531 108.916 39.4531 109.101 39.5148 109.225C39.5148 109.348 39.6383 109.41 39.7617 109.41L39.8234 109.41C39.9468 109.348 40.0085 109.225 40.0085 109.101ZM39.7 104.473C39.5766 104.473 39.4531 104.596 39.4531 104.72L39.4531 106.201C39.4531 106.324 39.5766 106.448 39.7 106.448C39.8234 106.448 39.9468 106.324 39.9468 106.201L39.9468 104.72C39.9468 104.596 39.8851 104.473 39.7 104.473ZM39.7 101.511C39.5766 101.511 39.4531 101.634 39.4531 101.757L39.4531 103.239C39.4531 103.362 39.5766 103.485 39.7 103.485C39.8234 103.485 39.9468 103.362 39.9468 103.239L39.9468 101.757C39.9468 101.634 39.8851 101.511 39.7 101.511ZM39.7 98.5484C39.5766 98.5484 39.4531 98.6718 39.4531 98.7952L39.4531 100.276C39.4531 100.4 39.5766 100.523 39.7 100.523C39.8234 100.523 39.9468 100.4 39.9468 100.276L39.9468 98.7952C39.9468 98.6718 39.8851 98.5484 39.7 98.5484ZM40.3788 95.7713C40.2554 95.6479 40.132 95.7096 40.0085 95.7713C39.7 96.1416 39.4531 96.6353 39.4531 97.129L39.4531 97.3141C39.4531 97.4375 39.5766 97.561 39.7 97.561C39.8234 97.561 39.9468 97.4375 39.9468 97.3141L39.9468 97.129C39.9468 96.7587 40.0703 96.3884 40.3171 96.1416C40.4405 96.0182 40.4405 95.8947 40.3788 95.7713ZM48.8951 95.1542L47.414 95.1542C47.2906 95.1542 47.1672 95.2776 47.1672 95.401C47.1672 95.5245 47.2906 95.6479 47.414 95.6479L48.8951 95.6479C49.0186 95.6479 49.142 95.5245 49.142 95.401C49.142 95.2776 49.0803 95.1542 48.8951 95.1542ZM45.9329 95.1542L44.4518 95.1542C44.3284 95.1542 44.205 95.2776 44.205 95.401C44.205 95.5245 44.3284 95.6479 44.4518 95.6479L45.9329 95.6479C46.0564 95.6479 46.1798 95.5245 46.1798 95.401C46.1798 95.2776 46.1181 95.1542 45.9329 95.1542ZM42.9707 95.1542L41.4896 95.1542C41.3662 95.1542 41.2428 95.2776 41.2428 95.401C41.2428 95.5245 41.3662 95.6479 41.4896 95.6479L42.9707 95.6479C43.0942 95.6479 43.2176 95.5245 43.2176 95.401C43.2176 95.2776 43.1559 95.1542 42.9707 95.1542Z" fill="white"/>
<path d="M53.3387 104.35L45.4395 104.35L45.4395 105.337L53.3387 105.337L53.3387 104.35Z" fill="white"/>
<path d="M68.211 104.35L55.4365 104.35L55.4365 105.337L68.211 105.337L68.211 104.35Z" fill="white"/>
<path d="M68.2117 112.744L60.3125 112.744L60.3125 113.731L68.2117 113.731L68.2117 112.744Z" fill="white"/>
<path d="M58.2757 112.744L45.4395 112.744L45.4395 113.731L58.2757 113.731L58.2757 112.744Z" fill="white"/>
<path d="M59.3865 107.25L45.4395 107.25L45.4395 108.237L59.3865 108.237L59.3865 107.25Z" fill="white"/>
<path d="M68.2112 107.25L61.4229 107.25L61.4229 108.237L68.2112 108.237L68.2112 107.25Z" fill="white"/>
<path d="M56.918 110.029L45.4395 110.029L45.4395 111.016L56.918 111.016L56.918 110.029Z" fill="white"/>
<path d="M68.2113 110.029L60.4355 110.029L60.4355 111.016L68.2113 111.016L68.2113 110.029Z" fill="white"/>
<path d="M49.5742 92.4412L45.4395 92.4412L45.4395 100.155L49.5742 100.155L49.5742 92.4412Z" fill="white"/>
<path d="M56.0537 89.5427L51.9189 89.5427L51.9189 100.219L56.0537 100.219L56.0537 89.5427Z" fill="white"/>
<path d="M62.3486 83.4314L58.2139 83.4314L58.2139 100.156L62.3486 100.156L62.3486 83.4314Z" fill="white"/>
<path d="M59.5094 110.029L58.0283 110.029L58.0283 111.016L59.5094 111.016L59.5094 110.029Z" fill="white"/>
<path d="M127.887 23.9412L122.333 26.0394L122.333 27.5822L125.357 28.693L127.887 29.6187L127.887 28.1376L123.999 26.7182L127.887 25.2988L127.887 23.9412Z" fill="white"/>
<path d="M132.021 21.1025L129.368 28.6931L128.751 30.4828L128.195 32.0256L129.8 32.0256L130.355 30.4828L130.972 28.6931L133.626 21.0408L132.021 21.0408L132.021 21.1025Z" fill="white"/>
<path d="M133.874 23.9412L133.874 25.3606L137.762 26.7799L133.874 28.1993L133.874 29.6804L136.404 28.7547L139.428 27.5822L139.428 26.0394L133.874 23.9412Z" fill="white"/>
<path d="M0.265216 179.159L0.265216 175.888C1.00577 176.629 1.99317 177.308 3.16571 177.801C4.33825 178.357 5.44907 178.604 6.37476 178.604C7.23874 178.604 7.91758 178.419 8.47299 178.048C9.0284 177.678 9.27525 177.184 9.27525 176.567C9.27525 176.444 9.27525 176.32 9.27525 176.197C9.15183 175.703 8.90498 175.209 8.5347 174.777C8.16443 174.346 7.67073 173.975 7.0536 173.605C6.43647 173.235 5.75764 172.864 4.83195 172.371C3.78283 171.815 2.91886 171.322 2.30173 170.951C1.68461 170.581 1.1909 170.087 0.758917 169.594C0.326928 169.1 0.0800781 168.483 0.0800781 167.804C0.0800781 166.631 0.635491 165.767 1.80803 165.212C2.98057 164.78 4.52338 164.533 6.37476 164.533C7.60901 164.533 9.15183 164.657 11.0032 164.965L11.0032 168.236C10.5095 167.619 9.89238 167.125 9.21354 166.631C8.5347 166.138 7.79415 165.829 6.99189 165.521C6.25134 165.274 5.5725 165.15 4.95537 165.15C4.27653 165.15 3.72112 165.274 3.35085 165.521C2.91886 165.767 2.73372 166.199 2.73372 166.693C2.73372 167.063 2.91886 167.434 3.22742 167.742C3.53598 168.051 3.96797 168.421 4.46167 168.668C4.95537 168.977 5.63421 169.347 6.49819 169.779C7.60901 170.334 8.59641 170.89 9.27525 171.322C10.0158 171.754 10.6329 172.309 11.1266 172.926C11.6203 173.543 11.8672 174.222 11.8672 175.024C11.8672 176.567 11.1883 177.74 9.89238 178.419C8.59641 179.097 6.86846 179.468 4.70852 179.468C3.35084 179.529 1.86974 179.406 0.265216 179.159Z" fill="white"/>
<path d="M14.2737 177.985C13.1628 176.935 12.6074 175.393 12.6074 173.418C12.6074 171.381 13.1628 169.839 14.2737 168.728C15.3845 167.617 16.9273 167.123 18.9021 167.123C20.8769 167.123 22.4197 167.679 23.5305 168.728C24.6414 169.777 25.1968 171.381 25.1968 173.418C25.1968 175.454 24.6414 176.935 23.5305 177.985C22.4197 179.034 20.8769 179.527 18.9021 179.527C16.9273 179.527 15.3845 179.034 14.2737 177.985ZM20.5683 178.108C21.062 177.614 21.4323 176.935 21.7409 176.133C22.0494 175.269 22.1729 174.405 22.1729 173.418C22.1729 172.492 22.0494 171.628 21.7409 170.764C21.4323 169.9 21.062 169.221 20.5683 168.666C20.0746 168.111 19.5192 167.864 18.9021 167.864C18.285 167.864 17.7296 168.111 17.2359 168.666C16.7422 169.221 16.3719 169.9 16.0633 170.764C15.7548 171.628 15.6313 172.554 15.6313 173.418C15.6313 174.405 15.7548 175.331 16.0633 176.133C16.3719 176.935 16.7422 177.614 17.2359 178.108C17.7296 178.602 18.285 178.849 18.9021 178.849C19.5192 178.849 20.0746 178.602 20.5683 178.108Z" fill="white"/>
<path d="M26.925 179.219L26.925 168.11L24.9502 168.11L24.9502 167.431L26.925 167.431C26.8016 167.123 26.6781 166.876 26.6164 166.629C26.5547 166.382 26.5547 166.135 26.5547 165.889C26.5547 165.148 26.7399 164.469 27.1718 163.852C27.5421 163.235 28.1592 162.68 28.9615 162.309C29.7638 161.939 30.6895 161.754 31.8003 161.754C32.6643 161.754 33.6517 161.877 34.7625 162.186L34.7625 165.21C33.7751 164.531 32.7877 163.914 31.862 163.482C30.8746 162.988 30.1341 162.803 29.5786 162.803C29.1467 162.803 28.8381 162.926 28.5912 163.173C28.3444 163.42 28.221 163.729 28.221 164.099C28.221 164.531 28.4061 165.086 28.8381 165.765C29.2084 166.444 29.7021 166.999 30.1341 167.493L32.5408 167.493L32.5408 168.172L30.1341 168.172L30.1341 179.28L26.925 179.28L26.925 179.219Z" fill="white"/>
<path d="M35.5645 178.972C34.8857 178.602 34.3302 178.108 33.8983 177.429C33.4663 176.751 33.2811 176.01 33.2811 175.084L33.2811 168.975C33.2811 168.605 33.1577 168.358 32.9726 168.173C32.7874 167.987 32.4789 167.864 32.0469 167.802L32.0469 167.432C32.9109 167.432 33.5897 167.185 34.2068 166.753C34.8239 166.321 35.3176 165.704 35.6262 165.025C35.9348 164.346 36.1199 163.606 36.1199 162.865L36.5519 162.865L36.5519 167.432L39.3907 167.432L39.3907 168.111L36.5519 168.111L36.5519 177.183C36.5519 177.738 36.6753 178.17 36.8605 178.417C37.1073 178.725 37.4159 178.849 37.7861 178.849C38.0947 178.849 38.5267 178.725 38.897 178.417C39.329 178.108 39.6992 177.676 40.0695 177.121C40.4398 176.565 40.8101 175.887 41.0569 175.084L42.538 176.812C42.1677 177.676 41.5506 178.355 40.6866 178.849C39.8227 179.342 38.897 179.589 37.9713 179.589C37.1073 179.528 36.305 179.342 35.5645 178.972Z" fill="white"/>
<path d="M47.29 179.22L45.4386 179.22L40.9336 167.494L44.1427 167.494L47.6603 176.504L51.1162 167.494L52.5356 167.494L56.1149 176.689L59.5091 167.494L60.3731 167.494L55.8063 179.22L53.8315 179.22L50.5608 170.641L47.29 179.22Z" fill="white"/>
<path d="M72.0988 179.219L68.828 179.219L68.0258 177.367L68.0258 177.614C67.5938 178.231 67.0384 178.663 66.2978 179.034C65.5573 179.404 64.6933 179.589 63.7059 179.589C62.9653 179.589 62.3482 179.466 61.7311 179.157C61.1757 178.849 60.7437 178.478 60.4351 177.985C60.1265 177.491 59.9414 176.935 59.9414 176.318C59.9414 175.516 60.25 174.652 60.8054 173.85C61.3608 173.048 62.2865 172.369 63.459 171.813C64.6933 171.258 66.1744 170.888 68.0258 170.826L68.0258 169.283C68.0258 168.481 67.6555 168.049 66.9766 168.049C66.3595 168.049 65.619 168.296 64.755 168.789C63.891 169.283 62.9653 169.9 61.9162 170.579L61.5459 170.826L61.5459 167.555C63.459 167.247 65.0018 167.123 66.1744 167.123C67.7172 167.123 68.9514 167.37 69.8154 167.864C70.7411 168.357 71.1731 169.221 71.1731 170.456L71.1731 171.258L68.7046 171.258C67.5938 171.258 66.6064 171.505 65.6807 171.875C64.8167 172.245 64.1379 172.801 63.6442 173.48C63.1505 174.158 62.9036 174.961 62.9036 175.763C62.9036 176.565 63.1505 177.182 63.5824 177.676C64.0144 178.17 64.5698 178.417 65.2487 178.417C65.6807 178.417 66.1744 178.293 66.6064 178.046C67.0384 177.799 67.4086 177.429 67.7172 176.997L66.2978 173.665L69.5686 173.665L72.0988 179.219Z" fill="white"/>
<path d="M73.4561 179.219L73.4561 167.494L76.7268 167.494L76.7268 171.135C77.3439 169.962 78.0845 169.037 78.9485 168.296C79.8125 167.556 80.7381 167.185 81.849 167.185C82.4044 167.185 83.0215 167.309 83.5769 167.494L83.5769 170.703C82.2192 170.024 81.0467 169.654 80.121 169.654C78.7633 169.654 77.5908 170.456 76.7885 172.061L76.7885 179.219L73.4561 179.219Z" fill="white"/>
<path d="M88.021 177.553C88.7616 178.417 89.6873 178.849 90.7981 178.849C91.5386 178.849 92.2792 178.663 93.0815 178.355C93.8837 177.985 94.7477 177.429 95.7351 176.565L95.7351 179.219C94.254 179.527 92.8346 179.713 91.4769 179.713C89.1319 179.713 87.157 179.157 85.6759 178.108C84.1948 177.059 83.3926 175.331 83.3926 172.986C83.3926 171.073 84.0097 169.592 85.3057 168.604C86.6016 167.617 88.3296 167.123 90.4278 167.123C91.5386 167.123 92.4643 167.308 93.2666 167.617C94.0689 167.925 94.6243 168.357 95.0563 168.913C95.4265 169.468 95.6734 170.085 95.6734 170.764C95.6734 171.443 95.4265 172.06 94.8711 172.616C94.3774 173.171 93.6369 173.665 92.6495 173.973C91.6621 174.282 90.6129 174.467 89.3787 174.467C88.5147 174.467 87.589 174.344 86.6016 174.158C86.8485 175.578 87.2805 176.689 88.021 177.553ZM88.3296 168.543C87.7742 169.036 87.3422 169.715 87.0953 170.517C86.7868 171.32 86.6633 172.245 86.6633 173.171L86.6633 173.603C87.0953 173.603 87.4656 173.665 87.6507 173.665C88.7616 173.665 89.6873 173.48 90.4895 173.171C91.2301 172.862 91.8472 172.43 92.2175 171.937C92.5878 171.443 92.7729 170.826 92.7729 170.209C92.7729 169.53 92.5878 168.975 92.1558 168.481C91.7238 167.987 91.1684 167.74 90.3044 167.74C89.5021 167.802 88.885 168.049 88.3296 168.543Z" fill="white"/>
<path d="M103.078 168.174L107.707 168.174C111.286 168.174 113.693 170.395 113.693 173.666C113.693 176.937 111.286 179.159 107.707 179.159L103.078 179.159L103.078 168.174ZM107.645 177.801C110.36 177.801 112.15 176.135 112.15 173.666C112.15 171.198 110.422 169.532 107.645 169.532L104.683 169.532L104.683 177.801L107.645 177.801Z" fill="white"/>
<path d="M124.122 177.801L124.122 179.159L116.1 179.159L116.1 168.174L123.875 168.174L123.875 169.532L117.642 169.532L117.642 172.926L123.197 172.926L123.197 174.283L117.642 174.283L117.642 177.863L124.122 177.863L124.122 177.801Z" fill="white"/>
<path d="M136.095 168.174L131.22 179.22L129.677 179.22L124.802 168.174L126.53 168.174L130.479 177.246L134.491 168.174L136.095 168.174Z" fill="white"/>
<path d="M145.475 177.801L145.475 179.159L137.452 179.159L137.452 168.174L145.228 168.174L145.228 169.532L138.995 169.532L138.995 172.926L144.549 172.926L144.549 174.283L138.995 174.283L138.995 177.863L145.475 177.863L145.475 177.801Z" fill="white"/>
<path d="M148.067 168.174L149.672 168.174L149.672 177.863L155.658 177.863L155.658 179.22L148.129 179.22L148.129 168.174L148.067 168.174Z" fill="white"/>
<path d="M156.336 173.662C156.336 170.453 158.804 167.984 162.199 167.984C165.531 167.984 168.061 170.391 168.061 173.662C168.061 176.933 165.593 179.278 162.199 179.278C158.804 179.339 156.336 176.933 156.336 173.662ZM166.457 173.662C166.457 171.193 164.605 169.404 162.199 169.404C159.73 169.404 157.879 171.193 157.879 173.662C157.879 176.13 159.73 177.92 162.199 177.92C164.667 177.92 166.457 176.13 166.457 173.662Z" fill="white"/>
<path d="M179.356 172C179.356 174.407 177.628 175.826 174.727 175.826L172.012 175.826L172.012 179.159L170.407 179.159L170.407 168.174L174.727 168.174C177.628 168.174 179.356 169.593 179.356 172ZM177.813 172C177.813 170.395 176.764 169.532 174.727 169.532L172.073 169.532L172.073 174.469L174.727 174.469C176.764 174.469 177.813 173.605 177.813 172Z" fill="white"/>
<path d="M191.945 179.22L191.945 171.198L187.933 177.924L187.193 177.924L183.181 171.259L183.181 179.282L181.639 179.282L181.639 168.174L182.935 168.174L187.563 175.95L192.13 168.174L193.426 168.174L193.426 179.22L191.945 179.22Z" fill="white"/>
<path d="M204.78 177.801L204.78 179.159L196.758 179.159L196.758 168.174L204.534 168.174L204.534 169.532L198.301 169.532L198.301 172.926L203.855 172.926L203.855 174.283L198.301 174.283L198.301 177.863L204.78 177.863L204.78 177.801Z" fill="white"/>
<path d="M216.814 168.174L216.814 179.22L215.518 179.22L208.915 171.013L208.915 179.22L207.311 179.22L207.311 168.174L208.607 168.174L215.21 176.382L215.21 168.174L216.814 168.174Z" fill="white"/>
<path d="M222.307 169.532L218.543 169.532L218.543 168.174L227.676 168.174L227.676 169.532L223.912 169.532L223.912 179.22L222.369 179.22L222.369 169.532L222.307 169.532Z" fill="white"/>
</svg>
