<svg width="199" height="229" viewBox="0 0 199 229" fill="none" xmlns="http://www.w3.org/2000/svg">
<path d="M120.929 175.836V8.79892C120.929 4.20269 117.182 0.453125 112.71 0.453125H9.25434C4.66168 0.453125 0.915039 4.20269 0.915039 8.79892V220.105C0.915039 224.701 4.66168 228.451 9.25434 228.451H112.71C117.303 228.451 120.929 224.701 120.929 220.105V205.469H116.94V216.597C116.94 220.951 113.435 224.459 109.084 224.459H12.7593C8.40833 224.459 4.9034 220.951 4.9034 216.597V12.3066C4.9034 7.95225 8.40833 4.44459 12.7593 4.44459H12.8801C13.4844 10.2504 18.4397 14.7256 24.3618 14.7256H97.7235C103.646 14.7256 108.48 10.2504 109.205 4.44459H109.084C113.435 4.44459 116.94 7.95225 116.94 12.3066V175.836H120.929Z" stroke="white" stroke-width="0.722738" stroke-miterlimit="10"/>
<path d="M102.316 48.1097V141.486C102.316 147.775 97.24 152.976 90.8345 152.976H31.009C24.7243 152.976 19.5273 147.896 19.5273 141.486V48.1097C19.5273 41.8201 24.6034 36.6191 31.009 36.6191H90.8345C97.1192 36.7401 102.316 41.8201 102.316 48.1097Z" stroke="white" stroke-width="0.361369" stroke-miterlimit="10"/>
<path d="M96.8781 62.7441H74.2773V65.8889H96.8781V62.7441Z" stroke="white" stroke-width="0.361369" stroke-miterlimit="10"/>
<path d="M96.8781 69.8789H74.2773V73.0237H96.8781V69.8789Z" stroke="white" stroke-width="0.361369" stroke-miterlimit="10"/>
<path d="M96.8781 77.0176H74.2773V80.1624H96.8781V77.0176Z" stroke="white" stroke-width="0.361369" stroke-miterlimit="10"/>
<path d="M96.8781 84.2734H74.2773V87.4182H96.8781V84.2734Z" stroke="white" stroke-width="0.361369" stroke-miterlimit="10"/>
<path d="M96.8781 91.4121H74.2773V94.5569H96.8781V91.4121Z" stroke="white" stroke-width="0.361369" stroke-miterlimit="10"/>
<path d="M96.8781 98.5449H74.2773V101.69H96.8781V98.5449Z" stroke="white" stroke-width="0.361369" stroke-miterlimit="10"/>
<path d="M96.8781 105.682H74.2773V108.826H96.8781V105.682Z" stroke="white" stroke-width="0.361369" stroke-miterlimit="10"/>
<path d="M96.8775 42.1838H25.0869V58.0288H96.8775V42.1838Z" stroke="white" stroke-width="0.361369" stroke-miterlimit="10"/>
<path d="M70.1675 62.7441H25.0869V108.827H70.1675V62.7441Z" stroke="white" stroke-width="0.361369" stroke-miterlimit="10"/>
<path d="M25.0869 88.5056L36.6894 73.1445L63.5202 108.826H25.0869V88.5056Z" stroke="white" stroke-width="0.361369" stroke-miterlimit="10"/>
<path d="M60.8616 81.0078L48.8965 89.3536L63.5205 108.827H70.1678V88.6279L60.8616 81.0078Z" stroke="white" stroke-width="0.361369" stroke-miterlimit="10"/>
<path d="M56.738 74.0598C57.2633 70.8292 55.0722 67.784 51.844 67.2583C48.6158 66.7327 45.573 68.9255 45.0478 72.1562C44.5225 75.3869 46.7136 78.432 49.9418 78.9577C53.17 79.4834 56.2128 77.2905 56.738 74.0598Z" stroke="white" stroke-width="0.361369" stroke-miterlimit="10"/>
<path d="M60.8615 131.566C65.534 131.566 69.3217 127.776 69.3217 123.1C69.3217 118.424 65.534 114.633 60.8615 114.633C56.1891 114.633 52.4014 118.424 52.4014 123.1C52.4014 127.776 56.1891 131.566 60.8615 131.566Z" stroke="white" stroke-width="0.361369" stroke-miterlimit="10"/>
<path d="M33.426 131.566C38.0984 131.566 41.8862 127.776 41.8862 123.1C41.8862 118.424 38.0984 114.633 33.426 114.633C28.7536 114.633 24.9658 118.424 24.9658 123.1C24.9658 127.776 28.7536 131.566 33.426 131.566Z" stroke="white" stroke-width="0.361369" stroke-miterlimit="10"/>
<path d="M88.2961 131.566C92.9685 131.566 96.7563 127.776 96.7563 123.1C96.7563 118.424 92.9685 114.633 88.2961 114.633C83.6237 114.633 79.8359 118.424 79.8359 123.1C79.8359 127.776 83.6237 131.566 88.2961 131.566Z" stroke="white" stroke-width="0.361369" stroke-miterlimit="10"/>
<path d="M92.8889 145.114H28.8333C26.6579 145.114 24.9658 143.421 24.9658 141.244C24.9658 139.066 26.6579 137.373 28.8333 137.373H92.8889C95.0643 137.373 96.7564 139.066 96.7564 141.244C96.7564 143.421 95.0643 145.114 92.8889 145.114Z" stroke="white" stroke-width="0.361369" stroke-miterlimit="10"/>
<path d="M80.4404 194.59H83.2202C85.3957 194.59 86.846 195.92 86.846 197.856C86.846 199.791 85.3957 201.121 83.2202 201.121H80.4404V194.59ZM83.0993 200.396C84.7914 200.396 85.7582 199.428 85.7582 197.856C85.7582 196.404 84.6705 195.316 83.0993 195.316H81.2864V200.275H83.0993V200.396Z" fill="white"/>
<path d="M93.0102 200.396V201.242H88.1758V194.59H92.8893V195.437H89.1427V197.493H92.4059V198.339H89.1427V200.517H93.0102V200.396Z" fill="white"/>
<path d="M93.8555 200.393L94.218 199.668C94.7015 200.151 95.5475 200.393 96.3935 200.393C97.4813 200.393 98.0856 199.91 98.0856 199.426C98.0856 197.853 94.0972 198.821 94.0972 196.402C94.0972 195.434 94.9432 194.467 96.6352 194.467C97.3604 194.467 98.2064 194.709 98.8107 195.071L98.4481 195.797C97.8438 195.434 97.2395 195.313 96.6352 195.313C95.5475 195.313 95.0641 195.797 95.0641 196.402C95.0641 197.974 99.0524 197.007 99.0524 199.426C99.0524 200.393 98.2064 201.361 96.5144 201.361C95.4266 201.24 94.4598 200.998 93.8555 200.393Z" fill="white"/>
<path d="M100.383 194.59H101.35V201.242H100.383V194.59Z" fill="white"/>
<path d="M107.876 197.853H108.722V200.393C108.117 200.998 107.151 201.24 106.184 201.24C104.129 201.24 102.679 199.789 102.679 197.853C102.679 195.918 104.129 194.467 106.184 194.467C107.271 194.467 108.117 194.83 108.722 195.434L108.117 196.039C107.513 195.555 106.909 195.313 106.184 195.313C104.612 195.313 103.525 196.402 103.525 197.853C103.525 199.305 104.612 200.393 106.184 200.393C106.788 200.393 107.271 200.272 107.755 199.91V197.853H107.876Z" fill="white"/>
<path d="M116.215 194.59V201.242H115.489L111.501 196.283V201.242H110.534V194.59H111.259L115.248 199.549V194.59H116.215Z" fill="white"/>
<path d="M127.939 198.216C127.697 198.821 127.455 199.305 127.093 199.789L128.301 201.24H126.005L125.642 200.877C124.917 201.24 124.192 201.482 123.346 201.482C122.621 201.482 121.896 201.361 121.412 201.119C120.929 200.877 120.566 200.635 120.324 200.273C120.083 199.91 119.962 199.547 119.962 199.063C119.962 198.7 120.083 198.337 120.204 198.095C120.445 197.733 120.687 197.491 121.05 197.249C121.412 197.007 121.775 196.765 122.379 196.765L122.137 196.402C121.654 195.918 121.533 195.313 121.533 194.83C121.533 194.467 121.654 193.983 121.896 193.741C122.137 193.378 122.5 193.136 122.863 193.015C123.346 192.773 123.709 192.773 124.313 192.773C125.038 192.773 125.642 192.894 126.126 193.257C126.609 193.62 126.851 194.104 126.851 194.709C126.851 194.83 126.851 194.951 126.851 195.072H125.401C125.401 194.83 125.401 194.709 125.401 194.588C125.401 194.104 125.28 193.741 125.038 193.499C124.796 193.136 124.434 193.015 124.071 193.015C123.829 193.015 123.588 193.136 123.346 193.378C123.104 193.62 123.104 193.862 123.104 194.225C123.104 194.709 123.225 195.193 123.588 195.555L126.609 199.305C126.851 198.821 126.972 198.216 126.972 197.491C126.972 197.007 126.972 196.523 126.851 196.16H128.301C128.301 196.402 128.422 196.523 128.422 196.765C128.18 197.128 128.059 197.612 127.939 198.216ZM124.555 200.998C124.917 200.877 125.159 200.756 125.521 200.514L122.621 196.886C122.258 197.128 122.017 197.37 121.775 197.853C121.533 198.216 121.533 198.7 121.533 199.063C121.533 199.668 121.775 200.273 122.137 200.635C122.5 200.998 122.983 201.24 123.588 201.24C123.95 201.24 124.313 201.119 124.555 200.998Z" fill="white"/>
<path d="M132.894 194.59H133.86V201.242H132.894V194.59Z" fill="white"/>
<path d="M141.474 194.59V201.242H140.749L136.761 196.283V201.242H135.794V194.59H136.519L140.507 199.549V194.59H141.474Z" fill="white"/>
<path d="M144.859 195.437H142.562V194.59H148.001V195.437H145.705V201.242H144.738V195.437H144.859Z" fill="white"/>
<path d="M153.802 200.396V201.242H148.968V194.59H153.681V195.437H149.935V197.493H153.198V198.339H149.935V200.517H153.802V200.396Z" fill="white"/>
<path d="M159.966 197.853H160.812V200.393C160.207 200.998 159.24 201.24 158.273 201.24C156.219 201.24 154.769 199.789 154.769 197.853C154.769 195.918 156.219 194.467 158.273 194.467C159.361 194.467 160.207 194.83 160.812 195.434L160.207 196.039C159.603 195.555 158.999 195.313 158.273 195.313C156.702 195.313 155.615 196.402 155.615 197.853C155.615 199.305 156.702 200.393 158.273 200.393C158.878 200.393 159.361 200.272 159.845 199.91V197.853H159.966Z" fill="white"/>
<path d="M166.976 201.242L165.525 199.186C165.405 199.186 165.284 199.186 165.163 199.186H163.471V201.242H162.504V194.59H165.042C166.734 194.59 167.822 195.437 167.822 196.888C167.822 197.856 167.338 198.702 166.371 198.944L167.943 201.121H166.976V201.242ZM166.976 196.888C166.976 195.92 166.371 195.437 165.163 195.437H163.592V198.46H165.163C166.371 198.339 166.976 197.856 166.976 196.888Z" fill="white"/>
<path d="M173.744 199.549H170.239L169.514 201.242H168.547L171.568 194.59H172.535L175.557 201.242H174.59L173.744 199.549ZM173.381 198.823L171.931 195.557L170.481 198.823H173.381Z" fill="white"/>
<path d="M177.37 195.437H175.073V194.59H180.512V195.437H178.216V201.242H177.249V195.437H177.37Z" fill="white"/>
<path d="M181.6 194.59H182.566V201.242H181.6V194.59Z" fill="white"/>
<path d="M184.017 197.853C184.017 195.918 185.467 194.467 187.522 194.467C189.576 194.467 191.026 195.918 191.026 197.853C191.026 199.789 189.576 201.24 187.522 201.24C185.467 201.24 184.017 199.789 184.017 197.853ZM190.06 197.853C190.06 196.402 188.972 195.313 187.522 195.313C186.071 195.313 184.983 196.402 184.983 197.853C184.983 199.305 186.071 200.393 187.522 200.393C188.972 200.393 190.06 199.305 190.06 197.853Z" fill="white"/>
<path d="M198.157 194.59V201.242H197.311L193.323 196.283V201.242H192.477V194.59H193.202L197.19 199.549V194.59H198.157Z" fill="white"/>
<path d="M80.803 188.416H80.4404L83.7036 180.433L83.4619 179.828H85.2748L88.6589 188.416H86.7251L85.3957 184.908H82.2533L80.803 188.416ZM83.9453 181.038L82.495 184.545H85.2748L83.9453 181.038Z" fill="white"/>
<path d="M95.185 181.646C95.5476 181.888 95.9102 182.251 96.1519 182.735C96.3936 183.218 96.5145 183.823 96.5145 184.428C96.5145 185.275 96.3936 186 96.0311 186.605C95.6685 187.21 95.3059 187.694 94.7016 188.056C94.2182 188.419 93.6139 188.54 93.0096 188.54C92.4053 188.54 91.801 188.298 91.3175 187.936V190.355H89.3838V181.283H91.3175V182.614C91.6801 182.13 92.0427 181.767 92.5261 181.525C93.0096 181.283 93.493 181.162 93.8556 181.162C94.339 181.283 94.8225 181.404 95.185 181.646ZM93.6139 187.573C93.9765 187.331 94.2182 186.968 94.339 186.605C94.4599 186.121 94.5808 185.637 94.5808 185.033C94.5808 184.065 94.4599 183.46 94.2182 182.976C93.9765 182.493 93.6139 182.251 93.1304 182.251C92.8887 182.251 92.5261 182.372 92.2844 182.614C91.9218 182.855 91.6801 183.097 91.4384 183.581V187.694C91.801 187.936 92.2844 188.177 92.647 188.177C93.0096 187.936 93.2513 187.815 93.6139 187.573Z" fill="white"/>
<path d="M103.163 181.646C103.525 181.888 103.888 182.251 104.129 182.735C104.371 183.218 104.492 183.823 104.492 184.428C104.492 185.275 104.371 186 104.009 186.605C103.646 187.21 103.283 187.694 102.679 188.056C102.196 188.419 101.591 188.54 100.987 188.54C100.383 188.54 99.7785 188.298 99.2951 187.936V190.355H97.3613V181.283H99.2951V182.614C99.6577 182.13 100.02 181.767 100.504 181.525C100.987 181.283 101.471 181.162 101.833 181.162C102.317 181.283 102.8 181.404 103.163 181.646ZM101.591 187.573C101.954 187.331 102.196 186.968 102.317 186.605C102.437 186.121 102.558 185.637 102.558 185.033C102.558 184.065 102.437 183.46 102.196 182.976C101.954 182.493 101.591 182.251 101.108 182.251C100.866 182.251 100.504 182.372 100.262 182.614C99.8994 182.855 99.6577 183.097 99.4159 183.581V187.694C99.7785 187.936 100.262 188.177 100.625 188.177C100.866 187.936 101.229 187.815 101.591 187.573Z" fill="white"/>
<path d="M107.392 188.417H105.458V179.588C105.458 179.104 105.338 178.741 105.217 178.62C104.975 178.378 104.733 178.378 104.371 178.378C104.129 178.378 103.887 178.378 103.646 178.499V177.531C104.492 177.773 105.096 178.136 105.7 178.499C106.304 178.862 106.667 179.346 107.03 179.83C107.271 180.313 107.513 180.797 107.513 181.402V188.417H107.392Z" fill="white"/>
<path d="M109.205 180.555C108.963 180.313 108.963 180.071 108.963 179.829C108.963 179.587 109.084 179.345 109.205 179.103C109.446 178.861 109.688 178.861 109.93 178.861C110.171 178.861 110.413 178.982 110.655 179.103C110.897 179.345 110.897 179.587 110.897 179.829C110.897 180.071 110.776 180.313 110.655 180.555C110.413 180.797 110.171 180.797 109.93 180.797C109.688 180.918 109.446 180.797 109.205 180.555ZM110.897 188.417H108.963V181.401H110.897V188.417Z" fill="white"/>
<path d="M114.039 188.177C113.314 187.936 112.831 187.452 112.347 186.847C111.985 186.242 111.743 185.637 111.743 184.791C111.743 183.944 111.985 183.339 112.347 182.735C112.71 182.251 113.193 181.767 113.798 181.525C114.402 181.283 115.127 181.162 115.973 181.162C116.698 181.162 117.544 181.283 118.27 181.525V183.339C117.786 182.735 117.303 182.251 116.94 181.888C116.457 181.646 116.094 181.404 115.611 181.404C115.006 181.404 114.523 181.646 114.281 182.251C113.919 182.855 113.798 183.702 113.798 184.791C113.798 185.879 113.919 186.605 114.281 187.089C114.644 187.573 115.127 187.815 115.732 187.815C116.094 187.815 116.457 187.694 116.94 187.573C117.424 187.331 117.786 187.089 118.27 186.726V188.177C117.665 188.298 117.061 188.419 116.336 188.419C115.49 188.54 114.765 188.419 114.039 188.177Z" fill="white"/>
<path d="M126.125 188.416H124.192L123.708 187.327V187.448C123.466 187.811 123.104 188.053 122.62 188.295C122.137 188.537 121.654 188.657 121.049 188.657C120.566 188.657 120.203 188.537 119.841 188.416C119.478 188.295 119.236 188.053 118.995 187.69C118.753 187.448 118.753 187.085 118.753 186.722C118.753 186.238 118.874 185.755 119.236 185.271C119.599 184.787 120.082 184.424 120.808 184.061C121.533 183.698 122.5 183.577 123.587 183.456V182.489C123.587 182.005 123.346 181.763 122.983 181.763C122.62 181.763 122.137 181.884 121.654 182.247C121.17 182.489 120.566 182.852 119.962 183.336L119.72 183.456V181.521C120.808 181.4 121.774 181.279 122.5 181.279C123.466 181.279 124.192 181.4 124.675 181.763C125.158 182.005 125.521 182.61 125.521 183.336V183.819H124.071C123.346 183.819 122.741 183.94 122.258 184.182C121.774 184.424 121.291 184.787 121.049 185.15C120.808 185.513 120.566 185.996 120.566 186.48C120.566 186.964 120.687 187.327 120.928 187.69C121.17 188.053 121.533 188.174 121.895 188.174C122.137 188.174 122.379 188.053 122.741 187.932C122.983 187.811 123.225 187.569 123.466 187.327L122.62 185.392H124.554L126.125 188.416Z" fill="white"/>
<path d="M128.18 188.295C127.817 188.053 127.454 187.811 127.213 187.328C126.971 186.965 126.85 186.481 126.85 185.876V182.247C126.85 182.006 126.85 181.885 126.729 181.764C126.608 181.643 126.488 181.522 126.125 181.522V181.28C126.608 181.28 127.092 181.159 127.454 180.917C127.817 180.675 128.059 180.312 128.3 179.828C128.542 179.466 128.542 178.982 128.542 178.498H128.784V181.28H130.476V181.643H128.784V187.086C128.784 187.448 128.905 187.69 129.026 187.811C129.146 187.932 129.388 188.053 129.509 188.053C129.751 188.053 129.993 187.932 130.234 187.811C130.476 187.69 130.718 187.328 130.959 187.086C131.201 186.723 131.443 186.36 131.564 185.876L132.41 186.844C132.168 187.328 131.805 187.811 131.322 188.053C130.839 188.295 130.234 188.537 129.751 188.537C129.146 188.658 128.663 188.537 128.18 188.295Z" fill="white"/>
<path d="M132.531 180.555C132.289 180.313 132.289 180.071 132.289 179.829C132.289 179.587 132.41 179.345 132.531 179.103C132.773 178.861 133.014 178.861 133.256 178.861C133.498 178.861 133.739 178.982 133.981 179.103C134.223 179.345 134.223 179.587 134.223 179.829C134.223 180.071 134.102 180.313 133.981 180.555C133.739 180.797 133.498 180.797 133.256 180.797C133.014 180.918 132.773 180.797 132.531 180.555ZM134.223 188.417H132.289V181.401H134.223V188.417Z" fill="white"/>
<path d="M136.156 187.694C135.552 187.089 135.189 186.121 135.189 184.912C135.189 183.702 135.552 182.735 136.156 182.13C136.761 181.525 137.728 181.162 138.936 181.162C140.145 181.162 140.991 181.525 141.716 182.13C142.32 182.735 142.683 183.702 142.683 184.912C142.683 186.121 142.32 186.968 141.716 187.694C141.112 188.298 140.145 188.661 138.936 188.661C137.728 188.661 136.761 188.298 136.156 187.694ZM139.903 187.815C140.145 187.573 140.386 187.089 140.628 186.605C140.749 186.121 140.87 185.516 140.87 185.033C140.87 184.428 140.749 183.944 140.628 183.46C140.507 182.976 140.266 182.493 139.903 182.251C139.661 181.888 139.299 181.767 138.936 181.767C138.574 181.767 138.211 181.888 137.969 182.251C137.728 182.614 137.486 182.976 137.244 183.46C137.123 183.944 137.002 184.549 137.002 185.033C137.002 185.637 137.123 186.121 137.244 186.605C137.365 187.089 137.607 187.452 137.969 187.815C138.211 188.056 138.574 188.298 138.936 188.298C139.299 188.298 139.54 188.056 139.903 187.815Z" fill="white"/>
<path d="M149.451 181.404C149.693 181.525 149.935 181.767 150.177 182.009C150.418 182.251 150.418 182.614 150.539 182.976V188.419H148.605V183.581C148.605 183.097 148.485 182.735 148.243 182.493C148.001 182.251 147.759 182.13 147.518 182.13C147.155 182.13 146.793 182.251 146.43 182.614C146.067 182.855 145.705 183.218 145.463 183.702V188.419H143.529V181.404H145.463V183.097C145.826 182.614 146.309 182.13 146.913 181.767C147.518 181.404 148.122 181.162 148.605 181.162C148.847 181.283 149.089 181.283 149.451 181.404Z" fill="white"/>
</svg>
