<svg width="151" height="142" viewBox="0 0 151 142" fill="none" xmlns="http://www.w3.org/2000/svg">
<path d="M149.739 32.1118V135.043C149.739 138.117 147.241 140.551 144.166 140.551H6.90394C6.39152 140.551 5.87911 140.487 5.3667 140.359C3.06085 139.718 1.39551 137.541 1.39551 135.043V32.1118C1.39551 29.0373 3.89352 26.5393 6.90394 26.5393H144.166C147.241 26.5393 149.739 29.0373 149.739 32.1118Z" stroke="white" stroke-width="0.980928" stroke-miterlimit="10"/>
<path d="M149.739 32.1118V135.043C149.739 138.117 147.241 140.551 144.167 140.551H6.96839C3.89392 140.551 1.45996 138.053 1.45996 135.043V32.1118C1.45996 29.0373 3.95797 26.5393 6.96839 26.5393H144.231C147.305 26.5393 149.739 29.0373 149.739 32.1118Z" stroke="white" stroke-width="0.980928" stroke-miterlimit="10" stroke-linecap="round" stroke-linejoin="round"/>
<path d="M1.39551 32.1135H149.739" stroke="white" stroke-width="0.980928" stroke-miterlimit="10" stroke-linecap="round" stroke-linejoin="round"/>
<path d="M143.078 57.3454L143.398 57.2173C143.718 57.0892 143.91 56.7049 143.846 56.3206L143.782 55.9363C143.718 55.552 143.398 55.2958 143.078 55.2958H142.693C142.437 55.2958 142.181 55.1036 142.053 54.8474C141.989 54.6553 141.861 54.4631 141.732 54.271C141.604 54.0148 141.604 53.6945 141.732 53.5023L141.925 53.1821C142.117 52.8618 142.053 52.4775 141.796 52.2213L141.54 51.9651C141.284 51.7089 140.9 51.6448 140.58 51.837L140.259 52.0292C140.003 52.1573 139.683 52.1573 139.491 52.0292C138.978 51.7089 138.466 51.5167 137.889 51.3886C137.633 51.3246 137.377 51.0684 137.313 50.8122L137.249 50.4279C137.185 50.0436 136.8 49.7874 136.48 49.7874H136.096C135.712 49.7874 135.391 50.0436 135.327 50.4279L135.199 50.8122C135.135 51.0684 134.943 51.3246 134.623 51.3886C134.431 51.4527 134.238 51.5167 134.046 51.5808C133.79 51.7089 133.47 51.6448 133.278 51.4527L132.957 51.1965C132.701 50.9403 132.253 50.9403 131.997 51.1324L131.74 51.3246C131.42 51.5167 131.292 51.9651 131.42 52.2854L131.548 52.6697C131.676 52.9259 131.612 53.2461 131.42 53.4383C131.292 53.5664 131.164 53.7585 131.036 53.8867C130.844 54.1429 130.587 54.271 130.267 54.2069L129.883 54.1429C129.499 54.0788 129.178 54.335 129.05 54.6553L128.922 54.9755C128.794 55.2958 128.922 55.6801 129.242 55.9363L129.627 56.1925C129.883 56.3847 130.011 56.6409 129.947 56.8971C129.947 57.0892 129.883 57.3454 129.947 57.5376C129.947 57.7938 129.819 58.05 129.563 58.2422L129.178 58.4343C128.858 58.6265 128.666 59.0108 128.794 59.331L128.858 59.6513C128.922 60.0356 129.306 60.2918 129.627 60.2277H130.011C130.267 60.2277 130.587 60.3559 130.716 60.6121C130.844 60.8042 130.908 60.9964 131.036 61.1885C131.228 61.4447 131.228 61.7009 131.1 61.9571L130.908 62.2774C130.716 62.5977 130.844 63.046 131.1 63.2382L131.356 63.4944C131.612 63.7506 132.061 63.7506 132.317 63.5584L132.573 63.3663C132.829 63.1741 133.085 63.1741 133.342 63.3022C133.534 63.3663 133.726 63.4944 133.982 63.5584C134.238 63.6865 134.431 63.8787 134.495 64.1989L134.559 64.5192C134.623 64.9035 134.943 65.1597 135.263 65.1597H135.648C136.032 65.2238 136.352 64.9676 136.48 64.6473L136.608 64.327C136.672 64.0708 136.929 63.8787 137.249 63.8146C137.505 63.7506 137.697 63.7506 137.889 63.6865C138.146 63.6225 138.466 63.6865 138.658 63.8787L138.914 64.1349C139.17 64.3911 139.555 64.4551 139.875 64.263L140.195 64.0708C140.515 63.8787 140.708 63.4944 140.58 63.1741L140.515 62.8539C140.451 62.5977 140.515 62.2774 140.708 62.0852C140.9 61.8931 141.028 61.765 141.156 61.5728C141.348 61.3807 141.604 61.2526 141.925 61.3166L142.245 61.3807C142.629 61.4447 142.949 61.2526 143.142 60.9323L143.27 60.6121C143.462 60.2918 143.334 59.8434 143.013 59.6513L142.757 59.4591C142.565 59.267 142.437 59.0108 142.437 58.6905C142.501 58.4343 142.501 58.2422 142.501 57.9859C142.629 57.6657 142.821 57.4095 143.078 57.3454ZM140.195 57.5376C140.195 59.7794 138.402 61.5728 136.16 61.5728C133.918 61.5728 132.125 59.7794 132.125 57.5376C132.125 55.2958 133.918 53.5023 136.16 53.5023C138.402 53.5023 140.195 55.2958 140.195 57.5376Z" stroke="white" stroke-width="0.490464" stroke-miterlimit="10"/>
<path d="M118.673 75.9197L124.502 73.2936L123.221 66.312L116.752 65.7996C115.919 63.6218 114.83 61.5722 113.485 59.7147L115.535 56.2559L116.816 54.0782L111.82 49.0822L106.183 52.4769C102.981 50.2351 99.2657 48.7619 95.4226 48.0573L93.8213 41.5881H86.7116L85.0462 48.0573C82.8685 48.5057 80.6907 49.2103 78.6411 50.107L73.517 45.6874L67.6883 49.6586L70.1222 55.9357C68.585 57.537 67.2399 59.3304 66.151 61.2519L59.4256 60.5474L56.9917 67.2087L62.5001 70.9878C62.2439 72.525 62.1158 74.1263 62.1158 75.7276C62.0517 76.3681 62.0517 77.0727 62.1158 77.7132L56.2871 80.9798L58.1446 87.8333H64.7419C65.3824 89.1784 66.151 90.5235 66.9837 91.7405C67.4321 92.381 67.8804 93.0215 68.3288 93.5979L65.4465 99.4907L70.8909 104.102L76.1431 100.131C78.1287 101.284 80.3064 102.181 82.5482 102.821L83.6371 109.227L90.7468 109.867L92.8605 103.846C95.1664 103.59 97.4722 103.078 99.65 102.309L104.134 106.793L110.283 103.206L108.553 97.0567C110.347 95.5835 111.948 93.8542 113.293 91.9326L119.57 93.0855L122.58 86.6163L117.648 82.6451C118.417 80.5314 118.673 78.2256 118.673 75.9197ZM102.404 75.9197C102.404 82.5811 97.0239 88.0255 90.2985 88.0255C85.943 88.0255 82.1639 85.7196 80.0502 82.3249C78.8973 80.4674 78.2568 78.2896 78.2568 75.9838C78.2568 69.3224 83.6371 63.8781 90.3625 63.8781C93.6932 63.8781 96.7036 65.2231 98.8814 67.4009C99.0735 67.593 99.3297 67.8492 99.5219 68.1055C101.315 70.2192 102.468 72.9093 102.468 75.9197H102.404Z" stroke="white" stroke-width="0.490464" stroke-miterlimit="10"/>
<path d="M108.938 75.9197C108.938 86.1039 100.675 94.3666 90.4908 94.3666C80.3066 94.3666 72.0439 86.1039 72.0439 75.9197C72.0439 65.7355 80.3066 57.4729 90.4908 57.4729C100.675 57.4729 108.874 65.6715 108.938 75.7916V75.9197Z" stroke="white" stroke-width="1.96186" stroke-miterlimit="10"/>
<path d="M62.5651 126.135H16.7043C12.8612 126.135 9.72266 122.996 9.72266 119.153V114.413C9.72266 110.57 12.8612 107.432 16.7043 107.432H62.5651C66.4082 107.432 69.5468 110.57 69.5468 114.413V119.153C69.5468 122.996 66.4082 126.135 62.5651 126.135Z" stroke="white" stroke-width="0.735696" stroke-miterlimit="10"/>
<path d="M20.2275 116.719H60.9643" stroke="white" stroke-width="0.735696" stroke-miterlimit="10"/>
<path d="M18.9463 116.72L25.4155 112.172H41.7486L48.474 116.72" stroke="white" stroke-width="0.735696" stroke-miterlimit="10"/>
<path d="M49.7554 116.719C49.7554 117.423 49.179 118 48.4744 118C47.7698 118 47.1934 117.423 47.1934 116.719C47.1934 116.014 47.7698 115.438 48.4744 115.438C49.179 115.438 49.7554 116.014 49.7554 116.719Z" fill="white"/>
<path d="M25.4148 113.455C26.1223 113.455 26.6958 112.881 26.6958 112.174C26.6958 111.466 26.1223 110.893 25.4148 110.893C24.7073 110.893 24.1338 111.466 24.1338 112.174C24.1338 112.881 24.7073 113.455 25.4148 113.455Z" fill="white"/>
<path d="M43.0298 112.174C43.0298 112.879 42.4534 113.455 41.7488 113.455C41.0442 113.455 40.4678 112.879 40.4678 112.174C40.4678 111.469 41.0442 110.893 41.7488 110.893C42.4534 110.893 43.0298 111.469 43.0298 112.174Z" fill="white"/>
<path d="M18.9463 116.719L25.4155 121.266H55.5837L60.9641 116.719" stroke="white" stroke-width="0.735696" stroke-miterlimit="10"/>
<path d="M36.4966 121.268C36.4966 121.972 35.9202 122.549 35.2156 122.549C34.511 122.549 33.9346 121.972 33.9346 121.268C33.9346 120.563 34.511 119.987 35.2156 119.987C35.9202 119.987 36.4966 120.563 36.4966 121.268Z" fill="white"/>
<path d="M26.6324 121.268C26.6324 121.972 26.0559 122.549 25.3513 122.549C24.6468 122.549 24.0703 121.972 24.0703 121.268C24.0703 120.563 24.6468 119.987 25.3513 119.987C26.0559 119.987 26.6324 120.563 26.6324 121.268Z" fill="white"/>
<path d="M56.8648 121.268C56.8648 121.972 56.2883 122.549 55.5838 122.549C54.8792 122.549 54.3027 121.972 54.3027 121.268C54.3027 120.563 54.8792 119.987 55.5838 119.987C56.2883 119.987 56.8648 120.563 56.8648 121.268Z" fill="white"/>
<path d="M60.9636 118C61.6711 118 62.2447 117.426 62.2447 116.719C62.2447 116.011 61.6711 115.438 60.9636 115.438C60.2562 115.438 59.6826 116.011 59.6826 116.719C59.6826 117.426 60.2562 118 60.9636 118Z" fill="white"/>
<path d="M20.2271 116.719C20.2271 117.423 19.6506 118 18.9461 118C18.2415 118 17.665 117.423 17.665 116.719C17.665 116.014 18.2415 115.438 18.9461 115.438C19.6506 115.438 20.2271 116.014 20.2271 116.719Z" fill="white"/>
<path d="M38.7376 79.573H16.6398C12.7967 79.573 9.6582 76.4344 9.6582 72.5913V50.4936C9.6582 46.6505 12.7967 43.512 16.6398 43.512H38.7376C42.5807 43.512 45.7192 46.6505 45.7192 50.4936V72.5913C45.7192 76.4985 42.5807 79.573 38.7376 79.573Z" stroke="white" stroke-width="0.735696" stroke-miterlimit="10"/>
<path d="M23.1728 64.1389L18.4971 73.2342H39.6341" stroke="white" stroke-width="0.490464" stroke-miterlimit="10" stroke-linecap="round" stroke-linejoin="round"/>
<path d="M39.6335 50.4319L29.7695 56.9651L39.6335 59.9756" stroke="white" stroke-width="0.490464" stroke-miterlimit="10" stroke-linecap="round" stroke-linejoin="round"/>
<path d="M42.0039 48.0609H37.3281V52.7367H42.0039V48.0609Z" fill="white"/>
<path d="M42.0039 57.6055H37.3281V62.2812H42.0039V57.6055Z" fill="white"/>
<path d="M32.1396 54.6584H27.4639V59.3342H32.1396V54.6584Z" fill="white"/>
<path d="M25.4785 61.7678H20.8027V66.4436H25.4785V61.7678Z" fill="white"/>
<path d="M20.8027 70.8655H16.127V75.5412H20.8027V70.8655Z" fill="white"/>
<path d="M42.0039 70.8655H37.3281V75.5412H42.0039V70.8655Z" fill="white"/>
<path d="M116.048 118.903L119.059 116.469L131.421 106.541C134.111 107.758 137.377 107.501 139.875 105.516C142.181 103.658 143.206 100.776 142.822 98.0218L136.993 102.698L131.869 96.2924L137.698 91.6167C135.136 90.6559 132.061 90.9762 129.755 92.8977C127.257 94.9474 126.232 98.1499 126.937 101.096L114.639 110.96L111.629 113.33C108.874 111.985 105.544 112.241 103.046 114.291C100.74 116.148 99.7151 119.031 100.099 121.785L105.928 117.109L111.052 123.514L105.224 128.19C107.786 129.151 110.86 128.831 113.166 126.909C115.728 124.988 116.689 121.785 116.048 118.903Z" fill="white"/>
<path d="M11.7061 9.48585V2.29907H15.2217C15.7195 2.29907 16.155 2.39241 16.4972 2.57908C16.8395 2.76575 17.1195 3.01464 17.275 3.35687C17.4306 3.69909 17.5239 4.01021 17.5239 4.35244C17.5239 4.81911 17.3995 5.19245 17.1195 5.50357C16.8395 5.81468 16.4972 6.06358 16.1239 6.21913C15.7506 6.37469 15.3772 6.46803 15.0661 6.46803H13.355V9.48585H11.7061ZM14.3817 6.15691C14.6928 6.15691 14.9728 6.06358 15.2217 5.90802C15.4394 5.75246 15.6261 5.50357 15.7506 5.25467C15.875 4.97467 15.9372 4.69466 15.9372 4.38355C15.9372 4.07243 15.875 3.79243 15.7817 3.54354C15.6883 3.29464 15.5017 3.07686 15.2839 2.9213C15.0661 2.76575 14.7861 2.67241 14.4439 2.67241H13.355V6.18802H14.3817V6.15691Z" fill="white"/>
<path d="M18.208 9.48497V3.57377H19.8569V5.40935C20.168 4.81823 20.5414 4.35156 20.9769 3.97822C21.4125 3.60488 21.8792 3.41821 22.4392 3.41821C22.7192 3.41821 23.0303 3.48044 23.3103 3.57377V5.22269C22.6259 4.88046 22.0347 4.69379 21.5681 4.69379C20.8836 4.69379 20.2925 5.09824 19.888 5.90714V9.51608H18.208V9.48497Z" fill="white"/>
<path d="M24.0881 8.89385C23.5281 8.36495 23.248 7.58717 23.248 6.59159C23.248 5.56491 23.5281 4.78712 24.0881 4.22711C24.6481 3.66711 25.4259 3.41821 26.4214 3.41821C27.417 3.41821 28.1948 3.69822 28.7548 4.22711C29.3148 4.75601 29.5948 5.56491 29.5948 6.59159C29.5948 7.61828 29.3148 8.36495 28.7548 8.89385C28.1948 9.42275 27.417 9.67164 26.4214 9.67164C25.4259 9.67164 24.6481 9.39164 24.0881 8.89385ZM27.2614 8.95608C27.5103 8.70718 27.697 8.36496 27.8526 7.9605C28.0081 7.52494 28.0703 7.08938 28.0703 6.59159C28.0703 6.12492 28.0081 5.68936 27.8526 5.2538C27.697 4.81823 27.5103 4.47601 27.2614 4.196C27.0126 3.916 26.7325 3.79155 26.4214 3.79155C26.1103 3.79155 25.8303 3.916 25.5814 4.196C25.3325 4.47601 25.1459 4.81823 24.9903 5.2538C24.8347 5.68936 24.7725 6.15603 24.7725 6.59159C24.7725 7.08938 24.8347 7.55605 24.9903 7.9605C25.1459 8.36496 25.3325 8.70718 25.5814 8.95608C25.8303 9.20497 26.1103 9.32941 26.4214 9.32941C26.7325 9.32941 27.0126 9.20497 27.2614 8.95608Z" fill="white"/>
<path d="M30.4663 9.48451V3.88443H29.4707V3.5422H30.4663C30.4041 3.38664 30.3418 3.26219 30.3107 3.13775C30.2796 3.0133 30.2796 2.88885 30.2796 2.76441C30.2796 2.39107 30.3729 2.04884 30.5907 1.73773C30.7774 1.42661 31.0885 1.17772 31.493 0.959936C31.8974 0.773266 32.3641 0.679932 32.9241 0.679932C33.3597 0.679932 33.8574 0.742155 34.4174 0.897713V2.42218C33.9197 2.07995 33.4219 1.76884 32.9552 1.55106C32.4574 1.30216 32.0841 1.20883 31.8041 1.20883C31.5863 1.20883 31.4307 1.27105 31.3063 1.3955C31.1818 1.51994 31.1196 1.6755 31.1196 1.86217C31.1196 2.07995 31.213 2.35996 31.4307 2.70219C31.6174 3.04441 31.8663 3.32442 32.0841 3.57331H33.2974V3.91554H32.0841V9.51562H30.4663V9.48451Z" fill="white"/>
<path d="M35.6927 8.67607C36.0661 9.11164 36.5328 9.32942 37.0928 9.32942C37.4661 9.32942 37.8394 9.23608 38.2439 9.08052C38.6483 8.89385 39.0839 8.61385 39.5817 8.17829V9.51609C38.835 9.67164 38.1194 9.76498 37.435 9.76498C36.2528 9.76498 35.2572 9.48497 34.5105 8.95608C33.7638 8.42718 33.3594 7.55605 33.3594 6.37381C33.3594 5.40935 33.6705 4.66268 34.3238 4.16489C34.9772 3.66711 35.8483 3.41821 36.9061 3.41821C37.4661 3.41821 37.9328 3.51155 38.3372 3.66711C38.7417 3.82266 39.0217 4.04044 39.2395 4.32045C39.4261 4.60045 39.5506 4.91157 39.5506 5.2538C39.5506 5.59602 39.4261 5.90714 39.1461 6.18714C38.8972 6.46715 38.5239 6.71604 38.0261 6.8716C37.5283 7.02716 37.0617 7.12049 36.4394 7.12049C36.0039 7.12049 35.5372 7.05827 35.0394 6.96493C35.1016 7.64939 35.3194 8.2094 35.6927 8.67607ZM35.8483 4.13378C35.5683 4.38267 35.3505 4.7249 35.2261 5.12935C35.0705 5.5338 35.0083 6.00048 35.0083 6.46715V6.68493C35.2261 6.68493 35.4127 6.71604 35.5061 6.71604C36.0661 6.71604 36.5328 6.62271 36.9372 6.46715C37.3105 6.31159 37.6217 6.09381 37.8083 5.84492C37.995 5.59602 38.0883 5.28491 38.0883 4.97379C38.0883 4.63157 37.995 4.35156 37.7772 4.10267C37.5594 3.85378 37.2794 3.72933 36.8439 3.72933C36.4394 3.72933 36.1283 3.85378 35.8483 4.13378Z" fill="white"/>
<path d="M39.9551 7.86717C40.5773 8.33385 41.1995 8.67607 41.7907 8.89385C42.3818 9.11163 42.8796 9.23608 43.3151 9.23608C43.5951 9.23608 43.844 9.17386 43.9996 9.08052C44.1551 8.95608 44.2485 8.80052 44.2485 8.61385C44.2485 8.39607 44.1551 8.2094 43.9996 8.02273C43.844 7.83606 43.6262 7.6805 43.3774 7.55606C43.1285 7.43161 42.7862 7.24494 42.3507 7.05827C41.8529 6.84049 41.4173 6.62271 41.1062 6.46715C40.7951 6.31159 40.5462 6.09381 40.3284 5.84492C40.1106 5.59602 40.0173 5.31602 40.0173 5.0049C40.0173 4.47601 40.2662 4.07156 40.7951 3.82266C41.324 3.57377 42.0084 3.41821 42.9107 3.41821C43.6262 3.41821 44.3729 3.48044 45.1507 3.63599V5.28491C44.9018 5.0049 44.5596 4.75601 44.1863 4.53823C43.8129 4.32045 43.4396 4.16489 43.0351 4.04044C42.6307 3.916 42.2884 3.85378 42.0084 3.85378C41.7595 3.85378 41.5418 3.88489 41.4173 3.97822C41.2618 4.07156 41.1995 4.196 41.1995 4.38267C41.1995 4.56934 41.324 4.75601 41.5729 4.91157C41.8218 5.06713 42.2262 5.2538 42.7551 5.47158C43.3151 5.68936 43.7507 5.90714 44.124 6.09381C44.4974 6.28048 44.7774 6.52937 45.0574 6.84049C45.3063 7.1516 45.4618 7.49383 45.4618 7.89828C45.4618 8.52051 45.1818 8.98719 44.6529 9.29831C44.124 9.60942 43.4085 9.76498 42.5062 9.76498C41.7284 9.76498 40.8884 9.64053 40.0173 9.42275V7.86717H39.9551Z" fill="white"/>
<path d="M45.8047 7.86717C46.4269 8.33385 47.0492 8.67607 47.6403 8.89385C48.2314 9.11163 48.7292 9.23608 49.1647 9.23608C49.4447 9.23608 49.6936 9.17386 49.8492 9.08052C50.0048 8.95608 50.0981 8.80052 50.0981 8.61385C50.0981 8.39607 50.0048 8.2094 49.8492 8.02273C49.6936 7.83606 49.4759 7.6805 49.227 7.55606C48.9781 7.43161 48.6358 7.24494 48.2003 7.05827C47.7025 6.84049 47.2669 6.62271 46.9558 6.46715C46.6447 6.31159 46.3958 6.09381 46.178 5.84492C45.9602 5.59602 45.8669 5.31602 45.8669 5.0049C45.8669 4.47601 46.1158 4.07156 46.6447 3.82266C47.1736 3.57377 47.8581 3.41821 48.7603 3.41821C49.4759 3.41821 50.2225 3.48044 51.0003 3.63599V5.28491C50.7514 5.0049 50.4092 4.75601 50.0359 4.53823C49.6625 4.32045 49.2892 4.16489 48.8847 4.04044C48.4803 3.916 48.1381 3.85378 47.8581 3.85378C47.6092 3.85378 47.3914 3.88489 47.2669 3.97822C47.1114 4.07156 47.0492 4.196 47.0492 4.38267C47.0492 4.56934 47.1736 4.75601 47.4225 4.91157C47.6714 5.06713 48.0758 5.2538 48.6047 5.47158C49.1647 5.68936 49.6003 5.90714 49.9736 6.09381C50.347 6.28048 50.627 6.52937 50.907 6.84049C51.1559 7.1516 51.3114 7.49383 51.3114 7.89828C51.3114 8.52051 51.0314 8.98719 50.5025 9.29831C49.9736 9.60942 49.2581 9.76498 48.3558 9.76498C47.578 9.76498 46.738 9.64053 45.8669 9.42275V7.86717H45.8047Z" fill="white"/>
<path d="M52.0575 2.89024C51.9019 2.73468 51.8086 2.5169 51.8086 2.29912C51.8086 2.08134 51.9019 1.86356 52.0575 1.708C52.213 1.55244 52.4308 1.45911 52.6486 1.45911C52.8664 1.45911 53.0842 1.55244 53.2397 1.708C53.3953 1.86356 53.4886 2.08134 53.4886 2.29912C53.4886 2.5169 53.3953 2.73468 53.2397 2.89024C53.0842 3.0458 52.8664 3.13913 52.6486 3.13913C52.4308 3.13913 52.213 3.0458 52.0575 2.89024ZM53.4886 9.4859H51.8397V3.57469H53.4886V9.4859Z" fill="white"/>
<path d="M55.0138 8.89385C54.4538 8.36495 54.1738 7.58717 54.1738 6.59159C54.1738 5.56491 54.4538 4.78712 55.0138 4.22711C55.5738 3.66711 56.3516 3.41821 57.3472 3.41821C58.3428 3.41821 59.1206 3.69822 59.6806 4.22711C60.2406 4.75601 60.5206 5.56491 60.5206 6.59159C60.5206 7.61828 60.2406 8.36495 59.6806 8.89385C59.1206 9.42275 58.3428 9.67164 57.3472 9.67164C56.3516 9.67164 55.5738 9.39164 55.0138 8.89385ZM58.1872 8.95608C58.4361 8.70718 58.6228 8.36496 58.7783 7.9605C58.9339 7.52494 58.9961 7.08938 58.9961 6.59159C58.9961 6.12492 58.9339 5.68936 58.7783 5.2538C58.6228 4.81823 58.4361 4.47601 58.1872 4.196C57.9383 3.916 57.6583 3.79155 57.3472 3.79155C57.0361 3.79155 56.7561 3.916 56.5072 4.196C56.2583 4.47601 56.0716 4.81823 55.9161 5.2538C55.7605 5.68936 55.6983 6.15603 55.6983 6.59159C55.6983 7.08938 55.7605 7.55605 55.9161 7.9605C56.0716 8.36496 56.2583 8.70718 56.5072 8.95608C56.7561 9.20497 57.0361 9.32941 57.3472 9.32941C57.6583 9.32941 57.9383 9.20497 58.1872 8.95608Z" fill="white"/>
<path d="M66.2449 3.57754C66.4938 3.70199 66.7116 3.85754 66.8671 4.07532C67.0227 4.29311 67.116 4.57311 67.116 4.91534V9.48874H65.4671V5.44423C65.4671 5.03978 65.3738 4.75978 65.1871 4.542C65.0004 4.35533 64.7826 4.23088 64.5337 4.23088C64.2537 4.23088 63.9426 4.35533 63.6315 4.60422C63.3204 4.85311 63.0404 5.13312 62.7915 5.47535V9.48874H61.1426V3.57754H62.7915V5.00867C63.1026 4.542 63.5071 4.16866 64.036 3.85754C64.5337 3.54643 65.0315 3.39087 65.4982 3.39087C65.7471 3.42198 65.996 3.45309 66.2449 3.57754Z" fill="white"/>
<path d="M73.9913 9.48874H72.3424L71.9379 8.55539V8.67984C71.7201 8.99096 71.4401 9.20874 71.0668 9.39541C70.6935 9.58208 70.2579 9.67541 69.7601 9.67541C69.3868 9.67541 69.0757 9.61319 68.7645 9.45763C68.4845 9.30207 68.2668 9.1154 68.1112 8.86651C67.9556 8.61762 67.8623 8.33761 67.8623 8.0265C67.8623 7.62205 68.0179 7.18648 68.2979 6.78203C68.5779 6.37758 69.0445 6.03535 69.6357 5.75535C70.2579 5.47535 71.0046 5.28868 71.9379 5.25756V4.47977C71.9379 4.07532 71.7513 3.85754 71.409 3.85754C71.0979 3.85754 70.7246 3.98199 70.289 4.23088C69.8534 4.47977 69.3868 4.79089 68.8579 5.13312L68.6712 5.25756V3.60865C69.6357 3.45309 70.4135 3.39087 71.0046 3.39087C71.7824 3.39087 72.4046 3.51532 72.8402 3.76421C73.3068 4.0131 73.5246 4.44866 73.5246 5.0709V5.47535H72.2802C71.7201 5.47535 71.2224 5.59979 70.7557 5.78646C70.3201 5.97313 69.9779 6.25314 69.729 6.59536C69.4801 6.93759 69.3557 7.34204 69.3557 7.74649C69.3557 8.15094 69.4801 8.46206 69.6979 8.71095C69.9157 8.95984 70.1957 9.08429 70.5379 9.08429C70.7557 9.08429 71.0046 9.02207 71.2224 8.89762C71.4401 8.77317 71.6268 8.5865 71.7824 8.36872L71.0668 6.6887H72.7157L73.9913 9.48874Z" fill="white"/>
<path d="M76.48 9.48662H74.8311V2.11317C74.8311 1.70872 74.7689 1.45983 74.6133 1.27316C74.4578 1.1176 74.2089 1.02427 73.8978 1.02427C73.7422 1.02427 73.5244 1.05538 73.3066 1.08649V0.277588C73.96 0.464257 74.5511 0.744262 75.0178 1.08649C75.4845 1.42872 75.8578 1.80206 76.1067 2.20651C76.3556 2.64207 76.48 3.07763 76.48 3.5443V9.48662Z" fill="white"/>
<path d="M80.0273 6.71603C80.0273 5.06711 81.2718 3.85376 82.9829 3.85376C83.8541 3.85376 84.6007 4.13376 85.0985 4.72488L84.5696 5.22267C84.1341 4.756 83.6052 4.56933 83.0141 4.56933C81.7696 4.56933 80.8362 5.47156 80.8362 6.71603C80.8362 7.96049 81.7696 8.86273 83.0141 8.86273C83.6363 8.86273 84.1652 8.64495 84.5696 8.20938L85.0985 8.70717C84.6007 9.26718 83.8541 9.57829 82.9829 9.57829C81.2718 9.54718 80.0273 8.36494 80.0273 6.71603Z" fill="white"/>
<path d="M85.6582 6.71603C85.6582 5.09822 86.9027 3.85376 88.6138 3.85376C90.2938 3.85376 91.5694 5.06711 91.5694 6.71603C91.5694 8.36494 90.3249 9.54718 88.6138 9.54718C86.9027 9.54718 85.6582 8.33383 85.6582 6.71603ZM90.7605 6.71603C90.7605 5.47156 89.8272 4.56933 88.6138 4.56933C87.3693 4.56933 86.436 5.47156 86.436 6.71603C86.436 7.96049 87.3693 8.86273 88.6138 8.86273C89.8583 8.86273 90.7605 7.92938 90.7605 6.71603Z" fill="white"/>
<path d="M97.5743 3.91809V9.48707H96.9209L93.5609 5.34922V9.48707H92.752V3.91809H93.4053L96.7342 8.05593V3.91809H97.5743Z" fill="white"/>
<path d="M98.7256 8.86273L99.0056 8.24049C99.41 8.61383 100.126 8.89384 100.841 8.89384C101.806 8.89384 102.21 8.5205 102.21 8.02271C102.21 6.6538 98.85 7.52493 98.85 5.44045C98.85 4.56933 99.5034 3.85376 100.966 3.85376C101.619 3.85376 102.303 4.04043 102.77 4.35155L102.521 4.97378C102.023 4.66266 101.495 4.5071 100.997 4.5071C100.063 4.5071 99.6589 4.91155 99.6589 5.37823C99.6589 6.74714 103.019 5.87601 103.019 7.92938C103.019 8.76939 102.335 9.51607 100.872 9.51607C100.001 9.54718 99.1611 9.26718 98.7256 8.86273Z" fill="white"/>
<path d="M104.107 7.09147V3.91809H104.916V7.06036C104.916 8.30483 105.476 8.86483 106.472 8.86483C107.467 8.86483 108.059 8.30483 108.059 7.06036V3.91809H108.836V7.09147C108.836 8.70928 107.965 9.54929 106.472 9.54929C105.01 9.54929 104.107 8.70928 104.107 7.09147Z" fill="white"/>
<path d="M110.454 3.91809H111.263V8.80261H114.281V9.48707H110.485V3.91809H110.454Z" fill="white"/>
<path d="M115.775 4.63001H113.877V3.94556H118.481V4.63001H116.584V9.51453H115.775V4.63001Z" fill="white"/>
<path d="M122.588 8.11451H119.632L119.01 9.51453H118.201L120.721 3.94556H121.499L124.019 9.51453H123.179L122.588 8.11451ZM122.308 7.46117L121.095 4.72335L119.881 7.46117H122.308Z" fill="white"/>
<path d="M125.699 4.63001H123.801V3.94556H128.405V4.63001H126.507V9.51453H125.73V4.63001H125.699Z" fill="white"/>
<path d="M129.246 3.91809H130.055V9.48707H129.246V3.91809Z" fill="white"/>
<path d="M136.494 3.91809L134.068 9.48707H133.29L130.832 3.91809H131.703L133.694 8.4915L135.717 3.91809H136.494Z" fill="white"/>
<path d="M141.254 8.80261V9.48707H137.21V3.91809H141.13V4.60255H137.988V6.31368H140.788V6.99814H137.988V8.80261H141.254Z" fill="white"/>
<path d="M18.2703 19.2563C18.0837 19.7229 17.8659 20.1585 17.5236 20.5319L18.5192 21.8074H16.6836L16.4036 21.4652C15.7814 21.8074 15.1592 21.963 14.4747 21.963C13.8214 21.963 13.2925 21.8696 12.888 21.683C12.4525 21.4963 12.1725 21.2474 11.9547 20.9674C11.768 20.6563 11.6436 20.3452 11.6436 20.003C11.6436 19.7229 11.7058 19.4429 11.8613 19.1629C12.0169 18.8829 12.2347 18.634 12.5458 18.4474C12.8569 18.2296 13.1991 18.074 13.6347 17.9807L13.3858 17.6696C13.0125 17.2029 12.8258 16.7673 12.8258 16.3007C12.8258 15.9584 12.9191 15.6473 13.1369 15.3673C13.3547 15.0873 13.6347 14.8695 14.008 14.714C14.3814 14.5584 14.7547 14.4651 15.1903 14.4651C15.8125 14.4651 16.3414 14.6206 16.7147 14.9007C17.0881 15.1807 17.2748 15.6162 17.2748 16.1762C17.2748 16.2384 17.2748 16.3629 17.2436 16.5185H16.0303C16.0614 16.3318 16.0614 16.2073 16.0614 16.0829C16.0614 15.7096 15.9681 15.3673 15.7503 15.1184C15.5636 14.8695 15.2836 14.714 14.9103 14.714C14.6614 14.714 14.4747 14.8073 14.288 14.994C14.1325 15.1807 14.0391 15.4295 14.0391 15.7096C14.0391 16.0829 14.1947 16.4873 14.5058 16.8607L17.1503 20.0341C17.337 19.5674 17.4303 19.0696 17.4303 18.5407C17.4303 18.1363 17.3681 17.7629 17.2748 17.3585H18.4881C18.5192 17.514 18.5503 17.7007 18.5503 17.8563C18.5503 18.3229 18.457 18.7896 18.2703 19.2563ZM15.5014 21.683C15.7814 21.5896 16.0303 21.4341 16.2792 21.2474L13.8525 18.1985C13.5414 18.3851 13.3236 18.634 13.168 18.9763C13.0125 19.3185 12.9502 19.6607 12.9502 20.0341C12.9502 20.5941 13.1058 21.0296 13.448 21.3408C13.7903 21.6519 14.1947 21.8385 14.7236 21.8385C14.9725 21.8074 15.2525 21.7763 15.5014 21.683Z" fill="white"/>
<path d="M23.8388 21.8041V14.9284H23.4655C23.1855 14.9284 22.8432 15.0529 22.501 15.2706C22.1277 15.4884 21.7854 15.8306 21.4121 16.2351V14.5862H27.9144V16.2351C27.6033 15.7995 27.2922 15.4884 26.95 15.2706C26.6077 15.0529 26.2344 14.9284 25.8611 14.9284H25.4877V21.8041H23.8388Z" fill="white"/>
<path d="M29.6879 20.9651C30.0612 21.4007 30.5279 21.6185 31.0879 21.6185C31.4612 21.6185 31.8346 21.5251 32.239 21.3696C32.6435 21.1829 33.079 20.9029 33.5768 20.4673V21.8051C32.8301 21.9607 32.1146 22.054 31.4301 22.054C30.2479 22.054 29.2523 21.774 28.5056 21.2451C27.7589 20.7162 27.3545 19.8451 27.3545 18.6629C27.3545 17.6984 27.6656 16.9517 28.319 16.454C28.9723 15.9562 29.8434 15.7073 30.9012 15.7073C31.4612 15.7073 31.9279 15.8006 32.3323 15.9562C32.7368 16.1117 33.0168 16.3295 33.2346 16.6095C33.4213 16.8895 33.5457 17.2006 33.5457 17.5429C33.5457 17.8851 33.4213 18.1962 33.1412 18.4762C32.8924 18.7562 32.519 19.0051 32.0212 19.1607C31.5234 19.3162 30.9945 19.4096 30.3723 19.4096C29.9368 19.4096 29.4701 19.3473 28.9723 19.254C29.0967 19.9696 29.3145 20.5296 29.6879 20.9651ZM29.8434 16.4228C29.5634 16.6717 29.3456 17.014 29.2212 17.4184C29.0656 17.8229 29.0034 18.2895 29.0034 18.7562V18.974C29.2212 18.974 29.4079 19.0051 29.5012 19.0051C30.0612 19.0051 30.5279 18.9118 30.9323 18.7562C31.3057 18.6007 31.6168 18.3829 31.8035 18.134C31.9901 17.8851 32.0835 17.574 32.0835 17.2629C32.0835 16.9206 31.9901 16.6406 31.7723 16.3917C31.5546 16.1428 31.2746 16.0184 30.839 16.0184C30.4345 16.0495 30.1234 16.1739 29.8434 16.4228Z" fill="white"/>
<path d="M35.7866 21.5251C35.1955 21.2763 34.7288 20.934 34.4177 20.4362C34.0755 19.9696 33.9199 19.3784 33.9199 18.694C33.9199 18.0095 34.0755 17.4495 34.3866 17.014C34.6977 16.5784 35.1333 16.2362 35.6622 16.0184C36.1911 15.8006 36.7822 15.7073 37.4666 15.7073C38.12 15.7073 38.7733 15.8006 39.4267 15.9873V17.5429C39.0533 17.014 38.6489 16.6095 38.2755 16.3606C37.9022 16.1117 37.5289 15.9873 37.2178 15.9873C36.72 15.9873 36.3466 16.2362 36.0666 16.734C35.7866 17.2317 35.6311 17.9473 35.6311 18.8495C35.6311 19.7207 35.7866 20.374 36.0666 20.8096C36.3466 21.2451 36.7822 21.4629 37.3422 21.4629C37.6533 21.4629 37.9644 21.3696 38.3378 21.214C38.7111 21.0585 39.0533 20.8096 39.4267 20.4985V21.7429C38.8978 21.8674 38.3689 21.9296 37.84 21.9296C37.0311 21.8985 36.3777 21.774 35.7866 21.5251Z" fill="white"/>
<path d="M45.4927 16.0484C45.8349 16.2973 45.9904 16.7018 45.9904 17.1996V21.773H44.3415L44.4037 17.4796C44.4037 17.044 44.3104 16.7329 44.1237 16.5462C43.9371 16.3595 43.6882 16.2351 43.4082 16.2351C43.1282 16.2351 42.8482 16.3284 42.5371 16.484C42.2259 16.6395 41.977 16.8573 41.7593 17.1062V21.773H40.1104V14.5862H41.7593V16.7329C42.0704 16.3907 42.4437 16.1418 42.9104 15.9551C43.346 15.7684 43.8126 15.6751 44.2482 15.6751C44.746 15.6751 45.1815 15.7995 45.4927 16.0484Z" fill="white"/>
<path d="M52.0888 15.8626C52.3377 15.987 52.5554 16.1426 52.711 16.3604C52.8666 16.5781 52.9599 16.8581 52.9599 17.2004V21.7738H51.311V17.7293C51.311 17.3248 51.2176 17.0448 51.031 16.827C50.8443 16.6404 50.6265 16.5159 50.3776 16.5159C50.0976 16.5159 49.7865 16.6404 49.4754 16.8893C49.1643 17.1381 48.8843 17.4182 48.6354 17.7604V21.7738H47.0176V15.8626H48.6665V17.2937C48.9776 16.827 49.3821 16.4537 49.911 16.1426C50.4087 15.8315 50.9065 15.6759 51.3732 15.6759C51.591 15.707 51.8399 15.7692 52.0888 15.8626Z" fill="white"/>
<path d="M54.2352 15.2107C54.0797 15.0551 53.9863 14.8373 53.9863 14.6196C53.9863 14.4018 54.0797 14.184 54.2352 14.0284C54.3908 13.8729 54.6086 13.7795 54.8263 13.7795C55.0441 13.7795 55.2619 13.8729 55.4175 14.0284C55.573 14.184 55.6664 14.4018 55.6664 14.6196C55.6664 14.8373 55.573 15.0551 55.4175 15.2107C55.2619 15.3662 55.0441 15.4596 54.8263 15.4596C54.6086 15.4596 54.3908 15.3662 54.2352 15.2107ZM55.6352 21.8063H53.9863V15.8951H55.6352V21.8063Z" fill="white"/>
<path d="M58.2173 21.5251C57.6262 21.2763 57.1595 20.934 56.8484 20.4362C56.5061 19.9696 56.3506 19.3784 56.3506 18.694C56.3506 18.0095 56.5061 17.4495 56.8173 17.014C57.1284 16.5784 57.5639 16.2362 58.0928 16.0184C58.6217 15.8006 59.2129 15.7073 59.8973 15.7073C60.5506 15.7073 61.204 15.8006 61.8573 15.9873V17.5429C61.484 17.014 61.0795 16.6095 60.7062 16.3606C60.3329 16.1117 59.9595 15.9873 59.6484 15.9873C59.1506 15.9873 58.7773 16.2362 58.4973 16.734C58.2173 17.2317 58.0617 17.9473 58.0617 18.8495C58.0617 19.7207 58.2173 20.374 58.4973 20.8096C58.7773 21.2451 59.2129 21.4629 59.7729 21.4629C60.084 21.4629 60.3951 21.3696 60.7684 21.214C61.1418 21.0585 61.484 20.8096 61.8573 20.4985V21.7429C61.3284 21.8674 60.7995 21.9296 60.2706 21.9296C59.4929 21.8985 58.8084 21.774 58.2173 21.5251Z" fill="white"/>
<path d="M68.422 21.8051H66.773L66.3686 20.8718V20.9962C66.1508 21.3074 65.8708 21.5251 65.4975 21.7118C65.1241 21.8985 64.6886 21.9918 64.1908 21.9918C63.8174 21.9918 63.5063 21.9296 63.1952 21.774C62.9152 21.6185 62.6974 21.4318 62.5419 21.1829C62.3863 20.934 62.293 20.654 62.293 20.3429C62.293 19.9385 62.4485 19.5029 62.7285 19.0984C63.0085 18.694 63.4752 18.3518 64.0663 18.0718C64.6886 17.7918 65.4352 17.6051 66.3686 17.574V16.7962C66.3686 16.3917 66.1819 16.1739 65.8397 16.1739C65.5286 16.1739 65.1552 16.2984 64.7197 16.5473C64.2841 16.7962 63.8174 17.1073 63.2885 17.4495L63.1019 17.574V15.9251C64.0663 15.7695 64.8441 15.7073 65.4352 15.7073C66.213 15.7073 66.8353 15.8317 67.2708 16.0806C67.7375 16.3295 67.9553 16.7651 67.9553 17.3873V17.7918H66.7108C66.1508 17.7918 65.653 17.9162 65.1863 18.1029C64.7508 18.2895 64.4086 18.5695 64.1597 18.9118C63.9108 19.254 63.7863 19.6584 63.7863 20.0629C63.7863 20.4674 63.9108 20.7785 64.1286 21.0274C64.3463 21.2763 64.6263 21.4007 64.9686 21.4007C65.1863 21.4007 65.4352 21.3385 65.653 21.214C65.8708 21.0896 66.0575 20.9029 66.213 20.6851L65.4975 19.0051H67.1464L68.422 21.8051Z" fill="white"/>
<path d="M70.9419 21.8068H69.293V14.4022C69.293 13.9978 69.2308 13.7489 69.0752 13.5622C68.9197 13.4067 68.6708 13.3133 68.3597 13.3133C68.2041 13.3133 67.9863 13.3444 67.7686 13.3756V12.5667C68.4219 12.7533 69.013 13.0333 69.4797 13.3756C69.9464 13.7178 70.3197 14.0911 70.5686 14.4956C70.8175 14.9311 70.9419 15.3667 70.9419 15.8334V21.8068Z" fill="white"/>
<path d="M74.3955 21.1539L74.6755 20.5316C75.08 20.905 75.7955 21.185 76.5111 21.185C77.4756 21.185 77.88 20.8116 77.88 20.3138C77.88 18.9449 74.52 19.8161 74.52 17.7316C74.52 16.8605 75.1733 16.1449 76.6355 16.1449C77.2889 16.1449 77.9733 16.3316 78.44 16.6427L78.1911 17.2649C77.6933 16.9538 77.1644 16.7982 76.6667 16.7982C75.7333 16.7982 75.3289 17.2027 75.3289 17.6694C75.3289 19.0383 78.6889 18.1672 78.6889 20.2205C78.6889 21.0605 78.0045 21.8072 76.5422 21.8072C75.6711 21.8694 74.8622 21.5894 74.3955 21.1539Z" fill="white"/>
<path d="M79.8086 19.408V16.2346H80.6175V19.3769C80.6175 20.6214 81.1775 21.1814 82.1731 21.1814C83.1686 21.1814 83.7598 20.6214 83.7598 19.3769V16.2346H84.5376V19.408C84.5376 21.0258 83.6664 21.8658 82.1731 21.8658C80.6797 21.8658 79.8086 20.9947 79.8086 19.408Z" fill="white"/>
<path d="M90.6362 18.1635C90.6362 19.3769 89.7651 20.0925 88.3028 20.0925H86.9339V21.7725H86.125V16.2346H88.3028C89.7651 16.2346 90.6362 16.9502 90.6362 18.1635ZM89.8273 18.1635C89.8273 17.3546 89.2984 16.9191 88.2717 16.9191H86.9339V19.408H88.2717C89.2984 19.408 89.8273 18.9724 89.8273 18.1635Z" fill="white"/>
<path d="M96.2983 18.1635C96.2983 19.3769 95.4272 20.0925 93.9649 20.0925H92.596V21.7725H91.7871V16.2346H93.9649C95.4272 16.2346 96.2983 16.9502 96.2983 18.1635ZM95.4894 18.1635C95.4894 17.3546 94.9605 16.9191 93.9338 16.9191H92.596V19.408H93.9338C94.9605 19.408 95.4894 18.9724 95.4894 18.1635Z" fill="white"/>
<path d="M97.0762 19.0072C97.0762 17.3894 98.3206 16.1449 100.032 16.1449C101.712 16.1449 102.987 17.3582 102.987 19.0072C102.987 20.6561 101.743 21.8383 100.032 21.8383C98.3517 21.8694 97.0762 20.6561 97.0762 19.0072ZM102.21 19.0072C102.21 17.7627 101.276 16.8605 100.063 16.8605C98.8184 16.8605 97.8851 17.7627 97.8851 19.0072C97.8851 20.2516 98.8184 21.1539 100.063 21.1539C101.276 21.1539 102.21 20.2516 102.21 19.0072Z" fill="white"/>
<path d="M107.934 21.8036L106.72 20.0925C106.596 20.0925 106.502 20.1236 106.378 20.1236H105.009V21.8036H104.2V16.2346H106.378C107.84 16.2346 108.711 16.9813 108.711 18.1635C108.711 19.0347 108.276 19.6569 107.498 19.9058L108.805 21.7725H107.934V21.8036ZM107.902 18.1635C107.902 17.3546 107.374 16.9191 106.347 16.9191H105.009V19.4391H106.347C107.374 19.4391 107.902 18.9724 107.902 18.1635Z" fill="white"/>
<path d="M111.014 16.9191H109.116V16.2346H113.721V16.9191H111.823V21.8036H111.045V16.9191H111.014Z" fill="white"/>
</svg>
